<?xml version="1.0" standalone="no"?>
<!DOCTYPE svg PUBLIC "-//W3C//DTD SVG 20010904//EN"
 "http://www.w3.org/TR/2001/REC-SVG-20010904/DTD/svg10.dtd">
<svg version="1.0" xmlns="http://www.w3.org/2000/svg"
 width="700.000000pt" height="700.000000pt" viewBox="0 0 700.000000 700.000000"
 preserveAspectRatio="xMidYMid meet">
<metadata>
Created by potrace 1.14, written by Peter Selinger 2001-2017
</metadata>
<g transform="translate(0.000000,700.000000) scale(0.100000,-0.100000)"
fill="#000000" stroke="none">
<path d="M3026 6600 l-389 -390 142 -382 c79 -211 156 -417 172 -458 16 -41
126 -336 245 -655 119 -319 219 -585 223 -592 3 -7 7 636 7 1427 1 792 -1
1440 -5 1440 -3 0 -181 -176 -395 -390z"/>
<path d="M4660 5836 c-40 -89 -86 -188 -101 -221 -15 -33 -72 -159 -127 -280
-55 -121 -113 -249 -130 -285 -16 -36 -39 -85 -50 -110 -11 -25 -39 -85 -62
-135 -23 -49 -48 -103 -55 -120 -7 -16 -28 -61 -45 -100 -18 -38 -67 -146
-110 -240 -42 -93 -90 -197 -105 -230 -46 -99 -66 -148 -62 -151 1 -1 461 455
1021 1015 l1018 1018 -560 0 -559 -1 -73 -160z"/>
<path d="M1010 5436 l0 -554 148 -67 c81 -38 179 -83 217 -100 39 -18 90 -42
115 -53 25 -11 198 -90 385 -175 187 -85 367 -167 400 -182 33 -15 167 -76
298 -136 131 -60 240 -109 242 -109 3 0 200 -93 230 -108 6 -3 8 -2 5 1 -16
19 -2033 2037 -2036 2037 -2 0 -4 -249 -4 -554z"/>
<path d="M5680 4213 c-212 -80 -419 -157 -460 -172 -41 -16 -192 -72 -335
-125 -143 -54 -289 -109 -325 -121 -36 -13 -184 -69 -330 -124 l-265 -100
1125 -1 c1620 -2 1752 -2 1756 2 2 2 -173 180 -389 395 l-392 391 -385 -145z"/>
<path d="M10 3573 c0 -3 175 -180 390 -395 l389 -390 43 15 c24 8 297 110 608
227 311 116 588 220 615 229 28 10 113 41 190 70 303 114 463 174 520 196 33
13 70 26 83 30 12 3 22 10 22 13 0 4 -643 8 -1430 9 -786 1 -1430 -1 -1430 -4z"/>
<path d="M4825 2171 l1020 -1021 3 552 c1 303 -1 555 -5 559 -5 4 -141 68
-303 142 -366 167 -395 180 -498 228 -46 22 -85 39 -87 39 -3 0 -122 55 -250
115 -38 18 -110 51 -160 73 -127 56 -220 99 -291 133 -33 16 -63 29 -66 29 -3
0 -53 22 -109 49 -101 48 -168 78 -239 108 -24 10 279 -300 985 -1006z"/>
<path d="M2027 2164 c-559 -558 -1013 -1015 -1009 -1015 25 -4 1095 -3 1102 1
5 3 32 57 60 120 29 63 65 142 80 175 34 74 279 611 310 680 12 28 35 77 50
110 15 33 86 188 158 345 71 157 143 314 160 350 16 36 39 88 52 115 12 28 31
68 41 89 10 22 18 41 16 42 -1 2 -460 -454 -1020 -1012z"/>
<path d="M3432 1590 c-2 -792 0 -1440 2 -1440 6 0 786 780 786 785 0 2 -164
442 -364 977 -200 535 -370 991 -377 1013 -48 138 -45 217 -47 -1335z"/>
</g>
</svg>
