<svg width="48" height="48" viewBox="0 0 48 48" fill="none" xmlns="http://www.w3.org/2000/svg">
<g id="Frame" clip-path="url(#clip0_1907_53906)">
<g id="Group">
<path id="Vector" d="M23.8334 16.8333C23.0112 16.8333 22.3447 16.1668 22.3447 15.3446V4.71034C22.3447 3.88815 23.0112 3.22168 23.8334 3.22168C24.6556 3.22168 25.3221 3.88825 25.3221 4.71043V15.3448C25.3221 16.167 24.6555 16.8334 23.8333 16.8334L23.8334 16.8333ZM18.7881 20.4489C18.4477 20.4492 18.1176 20.3323 17.8532 20.1179L8.80117 12.8013C8.1618 12.2846 8.06251 11.3471 8.57926 10.7077C9.09592 10.0683 10.0331 9.96897 10.6725 10.4858L19.7245 17.8023C20.3643 18.319 20.4635 19.2565 19.9467 19.896C19.8072 20.0689 19.6307 20.2083 19.4302 20.304C19.2297 20.3997 19.0103 20.4492 18.7881 20.4489ZM6.36733 28.4766C5.68801 28.4766 5.07451 28.009 4.91711 27.3186C4.73401 26.5171 5.23576 25.7191 6.03742 25.536L17.3635 22.9509C18.1648 22.7677 18.9635 23.2695 19.1463 24.0711C19.3294 24.8724 18.8276 25.6707 18.0264 25.8535L6.69986 28.4389C6.58811 28.4642 6.47673 28.4766 6.36733 28.4766ZM16.2635 40.6766C16.0466 40.6766 15.8269 40.6293 15.6185 40.529C14.878 40.1723 14.5664 39.2824 14.9231 38.5419L19.7728 28.4715C20.1295 27.731 21.019 27.4194 21.7599 27.776C22.5008 28.1331 22.812 29.0226 22.4553 29.7635L17.606 39.8335C17.3493 40.366 16.8175 40.6765 16.2635 40.6765V40.6766ZM31.9743 40.5462C31.4205 40.5462 30.8885 40.2357 30.6321 39.7032L25.8454 29.7635C25.4883 29.0226 25.7999 28.1331 26.5405 27.776C27.2813 27.4194 28.1711 27.7307 28.5279 28.4715L33.3145 38.4116C33.6713 39.152 33.36 40.0419 32.6192 40.3986C32.4181 40.4958 32.1977 40.5462 31.9743 40.5462ZM41.6667 28.1837C41.5492 28.1837 41.4298 28.1694 41.3108 28.1401L29.87 25.3322C29.0712 25.136 28.5832 24.3301 28.7791 23.5317C28.975 22.7333 29.781 22.2448 30.5798 22.4407L42.0205 25.2488C42.8188 25.4447 43.3074 26.2508 43.1114 27.0495C42.9445 27.7288 42.3361 28.1837 41.6667 28.1837ZM28.8666 20.2163C28.429 20.2163 27.9957 20.0241 27.7016 19.6557C27.189 19.013 27.2945 18.0763 27.9371 17.5636L37.1148 10.2448C37.7578 9.73215 38.6942 9.83762 39.2069 10.4807C39.7196 11.1233 39.6142 12.0602 38.971 12.5724L29.7939 19.8915C29.5307 20.102 29.2037 20.2166 28.8667 20.2164L28.8666 20.2163ZM29.8221 11.3449C29.613 11.3449 29.4005 11.3006 29.1984 11.2068C28.4521 10.8618 28.1268 9.97712 28.4718 9.23115L32.2973 0.958091C32.6426 0.211747 33.527 -0.113472 34.2733 0.231528C35.0197 0.576809 35.3449 1.46125 34.9999 2.20759L31.1744 10.4807C30.9229 11.0244 30.3846 11.3449 29.8221 11.3449ZM17.6961 11.6935C17.1505 11.6935 16.6253 11.3926 16.3642 10.8713L12.2809 2.72256C11.9125 1.98756 12.2098 1.09281 12.9448 0.724747C13.6802 0.356309 14.5745 0.653778 14.9429 1.38878L19.0257 9.53762C19.3942 10.2726 19.0968 11.1673 18.3618 11.5357C18.1552 11.6394 17.9272 11.6934 17.6961 11.6935ZM10.4074 21.3933C10.3031 21.3933 10.1991 21.3823 10.0972 21.3604L1.18033 19.4718C0.37614 19.3016 -0.137798 18.5117 0.0326395 17.7071C0.203265 16.9029 0.992827 16.3891 1.79739 16.5594L10.7142 18.4479C11.5184 18.6182 12.0326 19.4085 11.8623 20.2127C11.7136 20.9132 11.0955 21.3933 10.4074 21.3933ZM6.40942 38.9335C6.18949 38.9338 5.97223 38.8853 5.77331 38.7915C5.57439 38.6977 5.39877 38.561 5.25911 38.3911C4.73655 37.7564 4.82739 36.8182 5.46208 36.2956L12.498 30.5018C13.1331 29.9792 14.0713 30.07 14.5935 30.7047C15.1165 31.3394 15.0257 32.2775 14.3906 32.8001L7.3547 38.5939C7.08872 38.8137 6.75442 38.9337 6.40942 38.9334V38.9335ZM24.6655 47.201C23.8542 47.201 23.1903 46.5498 23.1775 45.7357L23.0347 36.6223C23.0218 35.8001 23.6778 35.123 24.4999 35.1101C25.3249 35.0962 25.9988 35.7532 26.0116 36.5754L26.1544 45.6888C26.1672 46.511 25.5114 47.1882 24.6893 47.201H24.6655ZM42.5124 38.0816C42.1834 38.0819 41.8637 37.9726 41.6037 37.7711L34.3894 32.2007C33.7387 31.6982 33.6182 30.7633 34.1206 30.1125C34.6234 29.4617 35.558 29.3417 36.2088 29.8441L43.4231 35.4145C44.0739 35.917 44.194 36.8519 43.6915 37.5026C43.5525 37.683 43.3738 37.829 43.1694 37.9294C42.9649 38.0298 42.7401 38.0819 42.5124 38.0816ZM37.6564 20.6097C36.9865 20.6097 36.3779 20.1541 36.2117 19.4744C36.0161 18.6761 36.505 17.87 37.3037 17.6745L46.1569 15.5072C46.9549 15.3121 47.7616 15.8007 47.9569 16.5993C48.1524 17.3981 47.6635 18.2037 46.8647 18.3992L38.0116 20.5665C37.8929 20.5958 37.774 20.6097 37.6564 20.6097Z" fill="#731B55"/>
</g>
</g>
<defs>
<clipPath id="clip0_1907_53906">
<rect width="48" height="48" fill="white"/>
</clipPath>
</defs>
</svg>
