<svg width="48" height="48" viewBox="0 0 48 48" fill="none" xmlns="http://www.w3.org/2000/svg">
<g id="Frame" clip-path="url(#clip0_1907_53913)">
<g id="Group">
<path id="Vector" d="M32 0H16C15.7878 0 15.5843 0.0842855 15.4343 0.234315C15.2843 0.384344 15.2 0.587827 15.2 0.8V16.8C15.2 17.0122 15.2843 17.2157 15.4343 17.3657C15.5843 17.5157 15.7878 17.6 16 17.6H32C32.2122 17.6 32.4157 17.5157 32.5657 17.3657C32.7157 17.2157 32.8 17.0122 32.8 16.8V8.136C32.8 7.92383 32.7157 7.72034 32.5657 7.57031C32.4157 7.42029 32.2122 7.336 32 7.336C31.7878 7.336 31.5843 7.42029 31.4343 7.57031C31.2843 7.72034 31.2 7.92383 31.2 8.136V16H16.8V1.6H20.8V5.6C20.8 5.81217 20.8843 6.01566 21.0343 6.16569C21.1843 6.31571 21.3878 6.4 21.6 6.4H26.4C26.6122 6.4 26.8157 6.31571 26.9657 6.16569C27.1157 6.01566 27.2 5.81217 27.2 5.6V1.6H31.2V5C31.2 5.21217 31.2843 5.41566 31.4343 5.56569C31.5843 5.71571 31.7878 5.8 32 5.8C32.2122 5.8 32.4157 5.71571 32.5657 5.56569C32.7157 5.41566 32.8 5.21217 32.8 5V0.8C32.8 0.587827 32.7157 0.384344 32.5657 0.234315C32.4157 0.0842855 32.2122 0 32 0ZM25.6 4.8H22.4V1.6H25.6V4.8ZM29.6 25.6H27.2V21.6C27.2 21.3878 27.1157 21.1843 26.9657 21.0343C26.8157 20.8843 26.6122 20.8 26.4 20.8C26.1878 20.8 25.9843 20.8843 25.8343 21.0343C25.6843 21.1843 25.6 21.3878 25.6 21.6V26.4C25.6 26.6122 25.6843 26.8157 25.8343 26.9657C25.9843 27.1157 26.1878 27.2 26.4 27.2H27.8398L24 31.584L20.1602 27.2H21.6C21.8122 27.2 22.0157 27.1157 22.1657 26.9657C22.3157 26.8157 22.4 26.6122 22.4 26.4V21.6C22.4 21.3878 22.3157 21.1843 22.1657 21.0343C22.0157 20.8843 21.8122 20.8 21.6 20.8C21.3878 20.8 21.1843 20.8843 21.0343 21.0343C20.8843 21.1843 20.8 21.3878 20.8 21.6V25.6H18.4C18.2462 25.6001 18.0957 25.6446 17.9666 25.7281C17.8374 25.8115 17.7351 25.9304 17.6717 26.0706C17.6084 26.2107 17.5869 26.3661 17.6096 26.5182C17.6323 26.6703 17.6985 26.8126 17.8 26.9281L23.4 33.3281C23.552 33.5004 23.7703 33.5988 24 33.5988C24.2297 33.5988 24.448 33.5004 24.6 33.3281L30.2 26.9281C30.3015 26.8126 30.3676 26.6703 30.3904 26.5182C30.4131 26.3661 30.3916 26.2107 30.3283 26.0706C30.2649 25.9304 30.1626 25.8115 30.0334 25.7281C29.9043 25.6446 29.7538 25.6001 29.6 25.6ZM28.8 36.8H19.2C18.9878 36.8 18.7843 36.8843 18.6343 37.0343C18.4843 37.1843 18.4 37.3878 18.4 37.6V47.2C18.4 47.4122 18.4843 47.6157 18.6343 47.7657C18.7843 47.9157 18.9878 48 19.2 48H28.8C29.0122 48 29.2157 47.9157 29.3657 47.7657C29.5157 47.6157 29.6 47.4122 29.6 47.2V37.6C29.6 37.3878 29.5157 37.1843 29.3657 37.0343C29.2157 36.8843 29.0122 36.8 28.8 36.8ZM28 46.4H20V38.4H21.6V41.6C21.6 41.8122 21.6843 42.0157 21.8343 42.1657C21.9843 42.3157 22.1878 42.4 22.4 42.4H25.6C25.8122 42.4 26.0157 42.3157 26.1657 42.1657C26.3157 42.0157 26.4 41.8122 26.4 41.6V40.8C26.4 40.5878 26.3157 40.3843 26.1657 40.2343C26.0157 40.0843 25.8122 40 25.6 40C25.3878 40 25.1843 40.0843 25.0343 40.2343C24.8843 40.3843 24.8 40.5878 24.8 40.8H23.2V38.4H28V46.4ZM47.2 34.4H37.6C37.3878 34.4 37.1843 34.4843 37.0343 34.6343C36.8843 34.7843 36.8 34.9878 36.8 35.2V44.8C36.8 45.0122 36.8843 45.2157 37.0343 45.3657C37.1843 45.5157 37.3878 45.6 37.6 45.6H47.2C47.4122 45.6 47.6157 45.5157 47.7657 45.3657C47.9157 45.2157 48 45.0122 48 44.8V35.2C48 34.9878 47.9157 34.7843 47.7657 34.6343C47.6157 34.4843 47.4122 34.4 47.2 34.4ZM43.2 36V38.4H41.6V36H43.2ZM46.4 44H38.4V36H40V39.2C40 39.4122 40.0843 39.6157 40.2343 39.7657C40.3843 39.9157 40.5878 40 40.8 40H44C44.2122 40 44.4157 39.9157 44.5657 39.7657C44.7157 39.6157 44.8 39.4122 44.8 39.2V36H46.4V44ZM41.2559 30.0879C41.3512 30.0879 41.4461 30.0715 41.5359 30.0399C41.6431 30.0008 41.7407 29.9392 41.8222 29.8592C41.9036 29.7792 41.9669 29.6827 42.0079 29.5762L45.08 21.648C45.1359 21.5043 45.149 21.3475 45.1178 21.1965C45.0866 21.0455 45.0124 20.9067 44.9042 20.7969C44.796 20.687 44.6584 20.6107 44.5079 20.5771C44.3574 20.5436 44.2004 20.5543 44.0558 20.6079L41.7999 21.4079L40.4319 17.648C40.3952 17.503 40.3185 17.3711 40.2107 17.2674C40.1029 17.1637 39.9681 17.0923 39.8218 17.0613C39.6755 17.0304 39.5234 17.0412 39.3829 17.0923C39.2424 17.1435 39.119 17.2331 39.0268 17.3508C38.9345 17.4685 38.877 17.6097 38.8609 17.7585C38.8448 17.9072 38.8708 18.0575 38.9358 18.1922L40.5358 22.7039C40.6077 22.9011 40.7544 23.062 40.944 23.1519C41.0437 23.206 41.1537 23.2383 41.2668 23.2466C41.3799 23.2549 41.4935 23.239 41.6 23.2L42.952 22.704L40.8398 28.1441L35.7359 25.3281L37.0879 24.8398C37.2864 24.7659 37.4476 24.6163 37.5359 24.4238C37.616 24.2291 37.616 24.0107 37.5359 23.816L35.8961 19.304C35.8604 19.2044 35.8052 19.1128 35.7338 19.0346C35.6625 18.9564 35.5763 18.8932 35.4803 18.8485C35.3843 18.8039 35.2805 18.7787 35.1747 18.7744C35.0689 18.7702 34.9633 18.787 34.8641 18.8238C34.4508 18.9808 34.243 19.443 34.4 19.8558L35.768 23.616L33.5121 24.416C33.3673 24.4678 33.2404 24.5602 33.1468 24.6822C33.0531 24.8043 32.9966 24.9507 32.984 25.104C32.9648 25.2637 32.9943 25.4255 33.0685 25.5682C33.1427 25.711 33.2582 25.828 33.4 25.904L40.848 30.0078C40.9745 30.0701 41.1152 30.0977 41.2559 30.0878V30.0879ZM10.4 32.8H0.8C0.587827 32.8 0.384344 32.8843 0.234315 33.0343C0.0842855 33.1843 0 33.3878 0 33.6L0 43.2C0 43.4122 0.0842855 43.6157 0.234315 43.7657C0.384344 43.9157 0.587827 44 0.8 44H10.4C10.6122 44 10.8157 43.9157 10.9657 43.7657C11.1157 43.6157 11.2 43.4122 11.2 43.2V33.6C11.2 33.3878 11.1157 33.1843 10.9657 33.0343C10.8157 32.8843 10.6122 32.8 10.4 32.8ZM6.4 34.4V36.8H4.8V34.4H6.4ZM9.6 42.4H1.6V34.4H3.2V37.6C3.2 37.8122 3.28429 38.0157 3.43431 38.1657C3.58434 38.3157 3.78783 38.4 4 38.4H7.2C7.41217 38.4 7.61566 38.3157 7.76569 38.1657C7.91571 38.0157 8 37.8122 8 37.6V34.4H9.6V42.4ZM12.984 20.6238L9.896 24.304C9.82817 24.3844 9.77685 24.4773 9.74497 24.5775C9.7131 24.6777 9.70129 24.7832 9.71022 24.888C9.71916 24.9928 9.74866 25.0948 9.79705 25.1881C9.84543 25.2815 9.91175 25.3644 9.9922 25.4321L11.0961 26.3521L5.3359 27.2481L5.216 21.4239L6.32 22.3442C6.48261 22.4805 6.69265 22.5466 6.904 22.5282C7.11231 22.5084 7.30461 22.4079 7.4398 22.2482L10.5281 18.5681C10.6046 18.4891 10.664 18.3952 10.7025 18.2922C10.7411 18.1892 10.758 18.0794 10.7522 17.9696C10.7465 17.8598 10.7181 17.7524 10.669 17.654C10.6199 17.5557 10.551 17.4685 10.4666 17.3979C10.3823 17.3274 10.2843 17.275 10.1788 17.244C10.0734 17.213 9.9626 17.204 9.85351 17.2177C9.74441 17.2314 9.63931 17.2675 9.54476 17.3236C9.45022 17.3798 9.36826 17.4548 9.304 17.544L6.736 20.6077L4.8962 19.064C4.77545 18.9573 4.6253 18.8895 4.4654 18.8695C4.30551 18.8496 4.1433 18.8783 4 18.952C3.86012 19.0185 3.74257 19.1243 3.66164 19.2563C3.5807 19.3884 3.53987 19.5412 3.5441 19.696L3.7601 28.1922C3.76128 28.3064 3.78685 28.419 3.83508 28.5224C3.88332 28.6259 3.95312 28.7179 4.0398 28.7922C4.18612 28.913 4.37046 28.9782 4.5602 28.9762H4.68L13.08 27.6719C13.2311 27.6478 13.3721 27.5808 13.4863 27.479C13.6005 27.3771 13.6831 27.2447 13.7243 27.0974C13.7655 26.95 13.7637 26.794 13.7189 26.6477C13.6742 26.5014 13.5884 26.371 13.4718 26.2719L11.632 24.728L14.2078 21.664C14.2756 21.5836 14.3269 21.4907 14.3588 21.3905C14.3907 21.2903 14.4025 21.1848 14.3936 21.0801C14.3847 20.9753 14.3553 20.8733 14.307 20.7799C14.2587 20.6866 14.1925 20.6036 14.1121 20.5358C13.9497 20.3991 13.7397 20.3324 13.5282 20.3504C13.3166 20.3684 13.1209 20.4697 12.984 20.6319V20.6238Z" fill="#731B55"/>
<path id="Vector_2" d="M23.1984 10.3996C23.1984 10.1874 23.1142 9.98395 22.9641 9.83392C22.8141 9.6839 22.6106 9.59961 22.3984 9.59961H19.1984C18.9863 9.59961 18.7828 9.6839 18.6328 9.83392C18.4827 9.98395 18.3984 10.1874 18.3984 10.3996C18.3984 10.6118 18.4827 10.8153 18.6328 10.9653C18.7828 11.1153 18.9863 11.1996 19.1984 11.1996H22.3984C22.6106 11.1996 22.8141 11.1153 22.9641 10.9653C23.1142 10.8153 23.1984 10.6118 23.1984 10.3996ZM19.1984 12.7996C18.9863 12.7996 18.7828 12.8839 18.6328 13.0339C18.4827 13.184 18.3984 13.3874 18.3984 13.5996C18.3984 13.8118 18.4827 14.0153 18.6328 14.1653C18.7828 14.3153 18.9863 14.3996 19.1984 14.3996H21.5984C21.8106 14.3996 22.0141 14.3153 22.1641 14.1653C22.3142 14.0153 22.3984 13.8118 22.3984 13.5996C22.3984 13.3874 22.3142 13.184 22.1641 13.0339C22.0141 12.8839 21.8106 12.7996 21.5984 12.7996H19.1984Z" fill="#731B55"/>
</g>
</g>
<defs>
<clipPath id="clip0_1907_53913">
<rect width="48" height="48" fill="white"/>
</clipPath>
</defs>
</svg>
