<svg width="48" height="48" viewBox="0 0 48 48" fill="none" xmlns="http://www.w3.org/2000/svg">
<g id="Frame" clip-path="url(#clip0_1907_53889)">
<g id="Group">
<path id="Vector" d="M39.8339 1.18777C39.8339 1.1179 39.7641 1.04803 39.6942 1.04803L38.6462 0.978166L38.227 0.069869C38.227 0 38.1571 0 38.0872 0C38.0173 0 37.9475 0.069869 37.9475 0.069869L37.4584 0.978166L36.4802 1.1179C36.4104 1.1179 36.3405 1.18777 36.3405 1.25764C36.3405 1.32751 36.3405 1.39738 36.4104 1.46725L37.0392 2.09607L36.8296 3.07424C36.8296 3.1441 36.8296 3.21397 36.8994 3.21397C36.9693 3.21397 37.0392 3.28384 37.1091 3.21397L38.0173 2.72489L38.9256 3.21397H39.0654C39.1353 3.1441 39.1353 3.1441 39.1353 3.07424L38.9955 2.09607L39.7641 1.39738C39.8339 1.32751 39.8339 1.25764 39.8339 1.18777ZM5.94748 8.31441L5.10905 7.82533L4.96932 6.84716C4.96932 6.77729 4.89945 6.70742 4.82958 6.70742C4.75971 6.70742 4.68984 6.70742 4.61997 6.77729L3.92128 7.54585L2.94312 7.40611C2.87325 7.40611 2.80338 7.40611 2.80338 7.47598C2.73351 7.54585 2.73351 7.61572 2.80338 7.68559L3.22259 8.45415L2.73351 9.36245V9.57205C2.73351 9.64192 2.87325 9.64192 2.87325 9.64192L3.85141 9.43231L4.5501 10.131C4.5501 10.131 4.61997 10.2009 4.68984 10.2009H4.75971C4.82958 10.2009 4.89945 10.131 4.89945 10.0611L5.03918 9.08297L5.94748 8.59389C6.01735 8.59389 6.01735 8.52402 6.01735 8.45415C6.01735 8.38428 5.94748 8.31441 5.94748 8.31441ZM46.681 38.4279L45.8425 37.869L45.7727 36.821C45.7727 36.7511 45.7028 36.6812 45.7028 36.6812H45.4932L44.7246 37.31L43.7465 37.0306C43.6766 37.0306 43.6067 37.0306 43.5369 37.1004C43.467 37.1703 43.467 37.2402 43.5369 37.31L43.8862 38.2183L43.3273 39.0568C43.2574 39.1266 43.2574 39.1965 43.3273 39.2664C43.3273 39.3362 43.3971 39.3362 43.467 39.3362L44.515 39.2664L45.1438 40.0349C45.1438 40.1048 45.2137 40.1048 45.2836 40.1048H45.3535C45.4233 40.1048 45.4932 40.0349 45.4932 39.9651L45.7727 38.9869L46.7508 38.6376C46.8207 38.6376 46.8906 38.5677 46.8906 38.4978C46.751 38.4978 46.751 38.4279 46.681 38.4279ZM4.61983 30.8821C4.61983 30.8122 4.61983 30.7424 4.54997 30.7424L3.71154 30.1834L3.64167 29.1354C3.64167 29.0655 3.5718 28.9956 3.5718 28.9956H3.36219L2.59363 29.6245L1.61547 29.4148C1.5456 29.4148 1.47573 29.4148 1.40586 29.4847C1.33599 29.5546 1.33599 29.6245 1.40586 29.6943L1.75521 30.6026L1.19639 31.441C1.12652 31.5109 1.12652 31.5808 1.19639 31.6507C1.19639 31.7205 1.26626 31.7205 1.33613 31.7205L2.38416 31.6507L3.01298 32.4192C3.01298 32.4891 3.08285 32.4891 3.15272 32.4891H3.22259C3.29246 32.4891 3.36233 32.4192 3.36233 32.3493L3.64181 31.3712L4.61997 31.0218L4.61983 30.8821ZM9.86015 45.4148C9.72041 45.4148 9.72041 45.345 9.65054 45.345L8.6025 45.1354L8.18329 44.2271C8.18329 44.1572 8.11342 44.1572 8.04355 44.1572C7.97368 44.1572 7.90381 44.2271 7.90381 44.2271L7.41473 45.1354L6.43657 45.2751C6.3667 45.2751 6.29683 45.345 6.29683 45.4148C6.29683 45.4847 6.29683 45.5546 6.3667 45.6245L7.06539 46.3231L6.85578 47.3013C6.85578 47.3712 6.85578 47.441 6.92565 47.441C6.99552 47.5109 7.06539 47.5109 7.13526 47.441L8.04355 46.952L8.95185 47.441H9.09159C9.16146 47.3712 9.16146 47.3712 9.16146 47.3013L9.02172 46.3231L9.79028 45.6245C9.86015 45.5546 9.86015 45.4847 9.86015 45.4148ZM23.8339 0C23.4147 0 23.1353 0.279476 23.1353 0.69869V20.3319C23.1353 20.7511 23.4846 21.0306 23.8339 21.0306C24.2532 21.0306 24.5326 20.7511 24.5326 20.3319V0.69869C24.5326 0.279476 24.2532 0 23.8339 0ZM23.8339 30.8821C23.4147 30.8821 23.1353 31.1616 23.1353 31.5808V47.3013C23.1353 47.7205 23.4147 48 23.8339 48C24.2532 48 24.5326 47.7205 24.5326 47.3013V31.5808C24.5326 31.1616 24.2532 30.8821 23.8339 30.8821ZM22.1571 17.7467L19.2226 9.57205C19.0829 9.22271 18.6636 9.0131 18.3143 9.15284C17.9649 9.29258 17.8252 9.71179 17.9649 10.0611L20.8994 18.2358C20.9693 18.5153 21.2488 18.7249 21.5283 18.7249C21.5981 18.7249 21.668 18.7249 21.7379 18.655C22.0872 18.5153 22.2968 18.0961 22.1571 17.7467ZM18.2444 7.19651L17.1964 4.68122C17.0567 4.33188 16.6374 4.12227 16.2881 4.26201C15.9387 4.40175 15.7291 4.82096 15.8689 5.17031L16.9169 7.75546C17.0567 8.03493 17.2663 8.17467 17.5457 8.17467C17.6156 8.17467 17.6855 8.17467 17.8252 8.1048C18.1746 7.96507 18.3842 7.54585 18.2444 7.19651ZM29.6331 39.1266L25.8601 28.4367C25.7204 28.0873 25.3012 27.8777 24.9518 28.0175C24.6025 28.1572 24.3929 28.5764 24.5326 28.9258L28.3754 39.6157C28.4453 39.8952 28.7248 40.1048 29.0043 40.1048C29.0741 40.1048 29.144 40.1048 29.2139 40.0349C29.5632 39.8952 29.7728 39.476 29.6331 39.1266ZM22.8558 22.4279L10.2794 7.12664C9.99988 6.84716 9.58067 6.77729 9.30119 7.05677C9.02172 7.33624 8.95185 7.75546 9.23133 8.03493L21.8077 23.2664C21.9475 23.4061 22.1571 23.5459 22.3667 23.5459C22.5064 23.5459 22.6462 23.476 22.7859 23.4061C23.0654 23.1266 23.1353 22.7074 22.8558 22.4279ZM38.4364 42.0611L28.6548 30.0437C28.3753 29.7642 27.9561 29.6943 27.6766 29.9738C27.3971 30.2533 27.3273 30.6725 27.6067 30.952L37.3884 42.8996C37.5281 43.0393 37.7377 43.179 37.9473 43.179C38.0871 43.179 38.2268 43.1092 38.3666 43.0393C38.6462 42.7598 38.716 42.3406 38.4364 42.0611ZM17.7553 20.1223L8.11342 14.3231C7.76408 14.1135 7.34486 14.2533 7.13526 14.5328C6.92565 14.952 6.99552 15.3712 7.34486 15.5808L16.9868 21.3799C17.1265 21.4498 17.1964 21.4498 17.3361 21.4498C17.5457 21.4498 17.8252 21.31 17.9649 21.1004C18.1746 20.7511 18.0348 20.3319 17.7553 20.1223ZM41.0916 34.3755L25.3711 25.0131C25.0217 24.8035 24.6025 24.9432 24.3929 25.2227C24.1833 25.5721 24.323 25.9913 24.6025 26.2009L40.2532 35.5633C40.3929 35.6332 40.4628 35.6332 40.6025 35.6332C40.8121 35.6332 41.0916 35.4935 41.2313 35.2838C41.5107 35.0044 41.4409 34.5852 41.0916 34.3755ZM17.5457 22.7074L1.96495 19.6332C1.6156 19.5633 1.19639 19.7729 1.12652 20.1921C1.05665 20.6114 1.26626 20.9607 1.68547 21.0306L17.2663 24.1048H17.406C17.7553 24.1048 18.0348 23.8952 18.1047 23.5459C18.1746 23.1965 17.965 22.7773 17.5457 22.7074ZM44.515 28.2271L30.9604 25.5721C30.5412 25.5022 30.1919 25.7118 30.122 26.131C30.0521 26.4804 30.2618 26.8996 30.681 26.9694L44.2356 29.6245H44.3753C44.7246 29.6245 45.0041 29.4148 45.074 29.0655C45.144 28.7162 44.9342 28.2969 44.515 28.2271ZM37.5283 21.9389L28.0261 23.3362C27.6767 23.4061 27.3973 23.7555 27.4671 24.1048C27.537 24.4541 27.8165 24.7336 28.1658 24.7336H28.2357L37.7379 23.3362C38.0872 23.1965 38.2968 22.8472 38.2968 22.4978C38.227 22.1485 37.8776 21.869 37.5283 21.9389ZM21.0392 25.083C20.9693 24.7336 20.62 24.4541 20.2706 24.524L9.09159 26.131C8.74224 26.2009 8.46277 26.5502 8.53264 26.8996C8.6025 27.2489 8.88198 27.5284 9.23133 27.5284H9.30119L20.4802 25.8515C20.8296 25.7817 21.1091 25.4323 21.0392 25.083ZM41.7903 22.0087C41.7204 21.6594 41.3711 21.3799 41.0217 21.4498L40.1833 21.5895C39.8339 21.6594 39.5545 22.0087 39.6243 22.3581C39.6942 22.7074 39.9737 22.9869 40.323 22.9869C40.323 22.917 40.323 22.917 40.3929 22.917L41.2313 22.7773C41.5807 22.7074 41.86 22.3581 41.7903 22.0087ZM7.4846 27.1092C7.41473 26.7598 7.06539 26.4803 6.71604 26.5502L5.87761 26.6201C5.52827 26.69 5.24879 27.0393 5.31866 27.3886C5.38853 27.738 5.66801 28.0175 6.01735 28.0175H6.08722L6.92565 27.8777C7.27499 27.8079 7.55447 27.4585 7.4846 27.1092ZM44.0261 13.7642C43.8165 13.4148 43.3973 13.2751 43.0479 13.4847L29.9824 20.5415C29.6331 20.7511 29.4933 21.1703 29.7029 21.5197C29.8427 21.7293 30.0523 21.869 30.3318 21.869C30.4715 21.869 30.5414 21.869 30.6811 21.7991L43.7466 14.7424C44.096 14.5328 44.2357 14.1135 44.0261 13.7642ZM18.6636 27.5983C18.454 27.2489 18.0348 27.1092 17.6855 27.3188L4.61983 34.3755C4.27049 34.5852 4.13075 35.0044 4.34036 35.3537C4.4801 35.5633 4.6897 35.7031 4.96918 35.7031C5.10892 35.7031 5.17879 35.7031 5.31852 35.6332L18.384 28.5764C18.7335 28.3668 18.8732 27.9476 18.6636 27.5983ZM37.1789 9.85153C36.8994 9.57205 36.4802 9.64192 36.2008 9.9214L24.8121 22.5677C24.5326 22.8472 24.6025 23.2664 24.882 23.5459C25.0217 23.6157 25.1615 23.6856 25.3711 23.6856C25.5807 23.6856 25.7204 23.6157 25.8601 23.476L37.2488 10.8297C37.5283 10.5502 37.4583 10.131 37.1789 9.85153ZM23.275 25.2926C22.9955 25.0131 22.5763 25.083 22.2968 25.3624L10.8383 37.9389C10.5588 38.2183 10.6287 38.6376 10.9082 38.917C11.0479 39.0568 11.1877 39.1266 11.3973 39.1266C11.6069 39.1266 11.7466 39.0568 11.8863 38.917L23.275 26.2707C23.5545 25.9913 23.5545 25.5721 23.275 25.2926ZM10.4191 39.6856C10.1396 39.3362 9.72041 39.4061 9.44093 39.6856L8.18329 41.083C7.90381 41.3624 7.97368 41.7817 8.25316 42.0611C8.3929 42.2009 8.53264 42.2707 8.74224 42.2707C8.95185 42.2707 9.09159 42.2009 9.23133 42.0611L10.489 40.6638C10.7684 40.3843 10.6986 39.9651 10.4191 39.6856ZM40.323 6.35808C40.0435 6.0786 39.6243 6.14847 39.3449 6.42795L38.0872 7.75546C37.8077 8.03493 37.8776 8.45415 38.1571 8.73362C38.2968 8.87336 38.4366 8.94323 38.6462 8.94323C38.8558 8.94323 38.9955 8.87336 39.1353 8.73362L40.3929 7.33624C40.6724 7.05677 40.6024 6.63755 40.323 6.35808ZM32.5676 3.49345C32.2182 3.35371 31.799 3.49345 31.6593 3.84279L26.978 15.3013C26.7684 15.7205 26.978 16.0699 27.3274 16.2096C27.3973 16.2795 27.537 16.2795 27.6069 16.2795C27.8863 16.2795 28.1658 16.1397 28.2357 15.8603L32.9169 4.40175C33.0567 4.0524 32.9169 3.63319 32.5676 3.49345ZM22.5763 28.7162C22.227 28.5764 21.8077 28.7162 21.668 29.0655L15.9387 42.8996C15.799 43.2489 15.9387 43.6681 16.2881 43.8079C16.358 43.8777 16.4977 43.8777 16.5676 43.8777C16.847 43.8777 17.1265 43.738 17.1964 43.4585L22.9256 29.6245C23.1353 29.2751 22.9256 28.9258 22.5763 28.7162Z" fill="#731B55"/>
</g>
</g>
<defs>
<clipPath id="clip0_1907_53889">
<rect width="48" height="48" fill="white"/>
</clipPath>
</defs>
</svg>
