<svg width="48" height="48" viewBox="0 0 48 48" fill="none" xmlns="http://www.w3.org/2000/svg">
<g id="Frame" clip-path="url(#clip0_1907_53896)">
<g id="Group">
<path id="Vector" d="M31.9461 3.83496H19.702C19.6083 3.83494 19.5155 3.85338 19.4289 3.88923C19.3423 3.92509 19.2636 3.97765 19.1973 4.04392C19.1311 4.11019 19.0785 4.18887 19.0426 4.27546C19.0068 4.36206 18.9883 4.45486 18.9884 4.54859C18.9884 4.6423 19.0068 4.73511 19.0427 4.82169C19.0785 4.90828 19.1311 4.98695 19.1974 5.05322C19.2636 5.11949 19.3423 5.17206 19.4289 5.20791C19.5155 5.24377 19.6083 5.26222 19.702 5.26221H31.946C32.0398 5.26222 32.1326 5.24377 32.2192 5.20792C32.3057 5.17206 32.3844 5.1195 32.4507 5.05323C32.517 4.98696 32.5696 4.90829 32.6054 4.8217C32.6413 4.73511 32.6598 4.64231 32.6598 4.54859C32.6598 4.45487 32.6413 4.36207 32.6055 4.27548C32.5696 4.18889 32.517 4.11022 32.4508 4.04395C32.3845 3.97768 32.3058 3.92512 32.2192 3.88926C32.1326 3.8534 32.0398 3.83495 31.9461 3.83496ZM25.1545 6.87612H19.7019C19.6082 6.87611 19.5154 6.89455 19.4288 6.93041C19.3422 6.96627 19.2635 7.01884 19.1973 7.08511C19.131 7.15137 19.0784 7.23005 19.0426 7.31664C19.0067 7.40322 18.9883 7.49602 18.9883 7.58974C18.9883 7.68346 19.0067 7.77626 19.0426 7.86285C19.0784 7.94944 19.131 8.02811 19.1973 8.09438C19.2635 8.16065 19.3422 8.21321 19.4288 8.24907C19.5154 8.28493 19.6082 8.30338 19.7019 8.30337H25.1545C25.5487 8.30337 25.8681 7.98396 25.8681 7.58974C25.8681 7.19552 25.5486 6.87612 25.1545 6.87612Z" fill="#731B55"/>
<path id="Vector_2" d="M44.917 7.00022C44.8233 7.00021 44.7305 7.01866 44.6439 7.05451C44.5573 7.09037 44.4786 7.14294 44.4124 7.20921C44.3461 7.27548 44.2935 7.35415 44.2577 7.44074C44.2218 7.52732 44.2034 7.62013 44.2034 7.71384C44.2034 7.80756 44.2218 7.90036 44.2577 7.98695C44.2935 8.07354 44.3461 8.15221 44.4124 8.21848C44.4786 8.28475 44.5573 8.33731 44.6439 8.37317C44.7305 8.40903 44.8233 8.42748 44.917 8.42747C45.6191 8.42747 46.1902 8.99859 46.1902 9.70069V29.9772H40.982V8.42737H42.1713C42.2651 8.42739 42.3579 8.40894 42.4445 8.37308C42.531 8.33722 42.6097 8.28465 42.676 8.21839C42.7423 8.15212 42.7948 8.07344 42.8307 7.98686C42.8665 7.90027 42.885 7.80747 42.885 7.71375C42.885 7.62003 42.8665 7.52723 42.8307 7.44064C42.7948 7.35406 42.7423 7.27538 42.676 7.20911C42.6097 7.14284 42.531 7.09028 42.4445 7.05442C42.3579 7.01856 42.2651 7.00011 42.1713 7.00012H40.982V2.14416C40.982 0.961875 40.0202 0 38.8379 0H8.96828C7.786 0 6.82413 0.961875 6.82413 2.14416V7.00022H3.07938C1.59034 7.00022 0.378906 8.21166 0.378906 9.70069V37.2668C0.378906 38.7558 1.59034 39.9672 3.07938 39.9672H7.47419C7.56791 39.9672 7.66071 39.9488 7.7473 39.9129C7.83388 39.8771 7.91256 39.8245 7.97883 39.7582C8.04509 39.692 8.09766 39.6133 8.13352 39.5267C8.16938 39.4401 8.18783 39.3473 8.18781 39.2536C8.18783 39.1599 8.16938 39.0671 8.13352 38.9805C8.09766 38.8939 8.04509 38.8152 7.97883 38.749C7.91256 38.6827 7.83388 38.6301 7.7473 38.5943C7.66071 38.5584 7.56791 38.54 7.47419 38.54H3.07938C2.37728 38.54 1.80616 37.9688 1.80616 37.2668V31.4044H46.1901V37.2668C46.1901 37.9688 45.619 38.54 44.9169 38.54H10.8362C10.7424 38.54 10.6496 38.5584 10.5631 38.5943C10.4765 38.6301 10.3978 38.6827 10.3315 38.749C10.2653 38.8152 10.2127 38.8939 10.1768 38.9805C10.141 39.0671 10.1225 39.1599 10.1225 39.2536C10.1225 39.3473 10.141 39.4401 10.1768 39.5267C10.2127 39.6133 10.2653 39.692 10.3315 39.7582C10.3978 39.8245 10.4765 39.8771 10.5631 39.9129C10.6496 39.9488 10.7424 39.9672 10.8362 39.9672H18.1492V43.7487C16.2272 43.783 14.6737 45.3563 14.6737 47.2864C14.6737 47.3801 14.6922 47.4729 14.728 47.5595C14.7639 47.6461 14.8164 47.7247 14.8827 47.791C14.949 47.8573 15.0277 47.9098 15.1142 47.9457C15.2008 47.9816 15.2936 48 15.3873 48H32.609C32.7028 48 32.7956 47.9816 32.8821 47.9457C32.9687 47.9098 33.0474 47.8573 33.1137 47.791C33.1799 47.7247 33.2325 47.6461 33.2684 47.5595C33.3042 47.4729 33.3227 47.3801 33.3227 47.2864C33.3227 45.3563 31.7692 43.7829 29.8472 43.7487V39.9672H44.917C46.406 39.9672 47.6175 38.7558 47.6175 37.2668V9.70069C47.6174 8.21166 46.4059 7.00022 44.917 7.00022ZM6.82413 29.9772H1.80616V9.70069C1.80616 8.99859 2.37728 8.42747 3.07938 8.42747H6.82413V29.9772ZM39.5548 10.4257H15.2447C15.1509 10.4256 15.0581 10.4441 14.9715 10.48C14.885 10.5158 14.8063 10.5684 14.74 10.6346C14.6738 10.7009 14.6212 10.7796 14.5853 10.8662C14.5495 10.9528 14.531 11.0456 14.531 11.1393C14.531 11.233 14.5494 11.3258 14.5853 11.4124C14.6212 11.499 14.6737 11.5777 14.74 11.6439C14.8063 11.7102 14.8849 11.7628 14.9715 11.7986C15.0581 11.8345 15.1509 11.8529 15.2447 11.8529H39.5548V29.9772H8.25128V11.8529H11.5338C11.6276 11.8529 11.7204 11.8345 11.807 11.7986C11.8935 11.7628 11.9722 11.7102 12.0385 11.6439C12.1048 11.5776 12.1573 11.499 12.1932 11.4124C12.229 11.3258 12.2475 11.233 12.2475 11.1393C12.2475 11.0456 12.2291 10.9528 12.1932 10.8662C12.1573 10.7796 12.1048 10.7009 12.0385 10.6346C11.9722 10.5683 11.8936 10.5158 11.807 10.4799C11.7204 10.4441 11.6276 10.4256 11.5338 10.4257H8.25128V2.14416C8.25128 1.74881 8.57284 1.42725 8.96819 1.42725H38.8379C39.2332 1.42725 39.5548 1.74881 39.5548 2.14416V10.4257ZM19.5764 39.9671H28.4199V43.747H19.5764V39.9671ZM31.7714 46.5728H16.225C16.5183 45.7582 17.2987 45.1743 18.2131 45.1743H29.7833C30.6977 45.1743 31.4781 45.7582 31.7714 46.5728Z" fill="#731B55"/>
<path id="Vector_3" d="M24.3817 32.8156C23.1926 32.8156 22.2251 33.7831 22.2251 34.9723C22.2251 36.1614 23.1926 37.1289 24.3817 37.1289C25.5711 37.1289 26.5385 36.1615 26.5385 34.9723C26.5385 33.7831 25.571 32.8156 24.3817 32.8156ZM24.3817 35.7017C23.9797 35.7018 23.6524 35.3745 23.6524 34.9723C23.6524 34.57 23.9797 34.2428 24.3817 34.2428C24.784 34.2428 25.1112 34.5701 25.1112 34.9723C25.1112 35.3745 24.7839 35.7017 24.3817 35.7017ZM16.0645 7.38112L13.7157 3.31284C13.6531 3.20436 13.563 3.11428 13.4545 3.05165C13.346 2.98903 13.223 2.95605 13.0977 2.95605C12.9725 2.95605 12.8494 2.98903 12.7409 3.05165C12.6324 3.11428 12.5423 3.20436 12.4797 3.31284L10.1309 7.38112C10.0682 7.48959 10.0352 7.61266 10.0352 7.73795C10.0351 7.86324 10.0681 7.98633 10.1307 8.09483C10.1934 8.20333 10.2835 8.29343 10.392 8.35605C10.5005 8.41867 10.6236 8.45161 10.7489 8.45156H15.4466C15.5719 8.45159 15.695 8.41864 15.8035 8.35601C15.912 8.29339 16.0021 8.20329 16.0647 8.09479C16.1273 7.98629 16.1603 7.86321 16.1603 7.73793C16.1602 7.61265 16.1272 7.48959 16.0645 7.38112ZM11.9848 7.0244L13.0977 5.0969L14.2106 7.0244H11.9848ZM37.4527 14.4843H27.1178C27.0241 14.4843 26.9313 14.5027 26.8447 14.5386C26.7581 14.5744 26.6795 14.627 26.6132 14.6933C26.5469 14.7595 26.4944 14.8382 26.4585 14.9248C26.4227 15.0114 26.4042 15.1042 26.4042 15.1979C26.4042 15.2916 26.4227 15.3844 26.4585 15.471C26.4944 15.5576 26.5469 15.6363 26.6132 15.7025C26.6795 15.7688 26.7581 15.8214 26.8447 15.8572C26.9313 15.8931 27.0241 15.9115 27.1178 15.9115H37.4527C37.5465 15.9115 37.6393 15.8931 37.7258 15.8572C37.8124 15.8214 37.8911 15.7688 37.9574 15.7025C38.0236 15.6363 38.0762 15.5576 38.1121 15.471C38.1479 15.3844 38.1664 15.2916 38.1664 15.1979C38.1664 15.1042 38.1479 15.0114 38.1121 14.9248C38.0762 14.8382 38.0236 14.7595 37.9574 14.6933C37.8911 14.627 37.8124 14.5744 37.7258 14.5386C37.6393 14.5027 37.5465 14.4843 37.4527 14.4843ZM37.4527 17.6227H27.1178C27.0241 17.6227 26.9313 17.6412 26.8447 17.677C26.7581 17.7129 26.6795 17.7655 26.6132 17.8317C26.5469 17.898 26.4944 17.9767 26.4585 18.0633C26.4227 18.1498 26.4042 18.2427 26.4042 18.3364C26.4042 18.4301 26.4226 18.5229 26.4585 18.6095C26.4943 18.6961 26.5469 18.7748 26.6132 18.841C26.6794 18.9073 26.7581 18.9599 26.8447 18.9957C26.9313 19.0316 27.0241 19.05 27.1178 19.05H37.4527C37.5465 19.05 37.6393 19.0316 37.7258 18.9957C37.8124 18.9598 37.8911 18.9073 37.9574 18.841C38.0236 18.7747 38.0762 18.6961 38.1121 18.6095C38.1479 18.5229 38.1664 18.4301 38.1664 18.3364C38.1664 18.2427 38.1479 18.1498 38.1121 18.0633C38.0762 17.9767 38.0236 17.898 37.9574 17.8317C37.8911 17.7655 37.8124 17.7129 37.7258 17.677C37.6393 17.6412 37.5465 17.6227 37.4527 17.6227ZM37.4527 20.7612H27.1178C27.0241 20.7612 26.9313 20.7796 26.8447 20.8155C26.7581 20.8514 26.6795 20.9039 26.6132 20.9702C26.5469 21.0365 26.4944 21.1151 26.4585 21.2017C26.4227 21.2883 26.4042 21.3811 26.4042 21.4748C26.4042 21.5686 26.4227 21.6614 26.4585 21.7479C26.4944 21.8345 26.5469 21.9132 26.6132 21.9795C26.6795 22.0457 26.7581 22.0983 26.8447 22.1342C26.9313 22.17 27.0241 22.1885 27.1178 22.1885H37.4527C37.5465 22.1885 37.6393 22.17 37.7258 22.1342C37.8124 22.0983 37.8911 22.0457 37.9574 21.9795C38.0236 21.9132 38.0762 21.8345 38.1121 21.7479C38.1479 21.6614 38.1664 21.5686 38.1664 21.4748C38.1664 21.3811 38.1479 21.2883 38.1121 21.2017C38.0762 21.1151 38.0236 21.0365 37.9574 20.9702C37.8911 20.9039 37.8124 20.8514 37.7258 20.8155C37.6393 20.7796 37.5465 20.7612 37.4527 20.7612ZM37.4527 23.8997H27.1178C27.0241 23.8997 26.9313 23.9181 26.8447 23.954C26.7581 23.9898 26.6795 24.0424 26.6132 24.1087C26.5469 24.1749 26.4944 24.2536 26.4585 24.3402C26.4227 24.4268 26.4042 24.5196 26.4042 24.6133C26.4042 24.707 26.4227 24.7998 26.4585 24.8864C26.4944 24.973 26.5469 25.0517 26.6132 25.1179C26.6795 25.1842 26.7581 25.2368 26.8447 25.2726C26.9313 25.3085 27.0241 25.3269 27.1178 25.3269H37.4527C37.5465 25.3269 37.6393 25.3085 37.7258 25.2726C37.8124 25.2368 37.8911 25.1842 37.9574 25.1179C38.0236 25.0517 38.0762 24.973 38.1121 24.8864C38.1479 24.7998 38.1664 24.707 38.1664 24.6133C38.1664 24.5196 38.1479 24.4268 38.1121 24.3402C38.0762 24.2536 38.0236 24.1749 37.9574 24.1087C37.8911 24.0424 37.8124 23.9898 37.7258 23.954C37.6393 23.9181 37.5465 23.8997 37.4527 23.8997ZM31.9469 27.0381H27.1178C27.0241 27.0381 26.9313 27.0566 26.8447 27.0924C26.7581 27.1283 26.6795 27.1809 26.6132 27.2471C26.5469 27.3134 26.4944 27.3921 26.4585 27.4787C26.4227 27.5653 26.4042 27.6581 26.4042 27.7518C26.4042 27.8455 26.4227 27.9383 26.4585 28.0249C26.4944 28.1115 26.5469 28.1901 26.6132 28.2564C26.6795 28.3227 26.7581 28.3752 26.8447 28.4111C26.9313 28.447 27.0241 28.4654 27.1178 28.4654H31.9469C32.0406 28.4654 32.1334 28.447 32.22 28.4111C32.3066 28.3752 32.3853 28.3227 32.4515 28.2564C32.5178 28.1901 32.5704 28.1115 32.6062 28.0249C32.6421 27.9383 32.6605 27.8455 32.6605 27.7518C32.6606 27.6581 32.6421 27.5652 32.6063 27.4787C32.5704 27.3921 32.5178 27.3134 32.4516 27.2471C32.3853 27.1808 32.3066 27.1283 32.22 27.0924C32.1334 27.0566 32.0406 27.0381 31.9469 27.0381ZM23.9039 13.8831H10.7488C10.6551 13.883 10.5623 13.9015 10.4757 13.9374C10.3891 13.9732 10.3104 14.0258 10.2442 14.092C10.1779 14.1583 10.1253 14.237 10.0895 14.3236C10.0536 14.4102 10.0352 14.503 10.0352 14.5967V27.7518C10.0352 27.8455 10.0536 27.9383 10.0895 28.0249C10.1253 28.1115 10.1779 28.1901 10.2442 28.2564C10.3104 28.3227 10.3891 28.3752 10.4757 28.4111C10.5623 28.447 10.6551 28.4654 10.7488 28.4654H23.9039C23.9976 28.4654 24.0904 28.447 24.177 28.4111C24.2636 28.3752 24.3423 28.3227 24.4085 28.2564C24.4748 28.1901 24.5274 28.1115 24.5632 28.0249C24.5991 27.9383 24.6175 27.8455 24.6175 27.7518V14.5967C24.6175 14.503 24.5991 14.4102 24.5632 14.3236C24.5274 14.237 24.4748 14.1583 24.4085 14.092C24.3423 14.0258 24.2636 13.9732 24.177 13.9374C24.0904 13.9015 23.9976 13.883 23.9039 13.8831ZM11.4625 15.3103H23.1903V22.7719C23.1108 22.758 23.0309 22.7465 22.9507 22.7373C21.707 22.5979 20.9918 23.0956 20.417 23.4953C19.9854 23.7953 19.6128 24.0545 18.9886 24.1051C17.9789 24.188 17.3316 23.6511 16.5115 22.9728C15.5987 22.2178 14.5633 21.363 12.9176 21.4621C12.4241 21.4921 11.9377 21.6055 11.4625 21.8001V15.3103ZM23.1904 27.0381H11.4624V23.3944C11.9687 23.0886 12.4858 22.9182 13.0042 22.8867C14.0882 22.8206 14.7897 23.4008 15.6019 24.0726C16.4993 24.8149 17.5159 25.6555 19.104 25.5277C20.1116 25.4459 20.7326 25.0141 21.2317 24.6672C21.7436 24.3113 22.0822 24.0765 22.7921 24.1556C22.924 24.1704 23.0572 24.1952 23.1904 24.2298V27.0381Z" fill="#731B55"/>
<path id="Vector_4" d="M19.2068 16.9043C18.0028 16.9043 17.0234 17.8837 17.0234 19.0876C17.0234 20.2915 18.0028 21.271 19.2068 21.271C20.4107 21.271 21.3901 20.2916 21.3901 19.0876C21.3901 17.8837 20.4107 16.9043 19.2068 16.9043ZM19.2068 19.8438C18.7899 19.8438 18.4506 19.5045 18.4506 19.0876C18.4506 18.6706 18.7899 18.3315 19.2068 18.3315C19.6237 18.3315 19.963 18.6707 19.963 19.0876C19.963 19.5045 19.6237 19.8438 19.2068 19.8438Z" fill="#731B55"/>
</g>
</g>
<defs>
<clipPath id="clip0_1907_53896">
<rect width="48" height="48" fill="white"/>
</clipPath>
</defs>
</svg>
