<svg width="16" height="16" viewBox="0 0 16 16" fill="none" xmlns="http://www.w3.org/2000/svg">
<path d="M10.9987 2C13.024 2 14.6654 3.66667 14.6654 6C14.6654 10.6667 9.66537 13.3333 7.9987 14.3333C6.33203 13.3333 1.33203 10.6667 1.33203 6C1.33203 3.66667 2.9987 2 4.9987 2C6.2387 2 7.33203 2.66667 7.9987 3.33333C8.66536 2.66667 9.7587 2 10.9987 2ZM8.62136 12.4027C9.2087 12.032 9.7387 11.6633 10.2347 11.2687C12.222 9.68867 13.332 7.962 13.332 6C13.332 4.42667 12.3074 3.33333 10.9987 3.33333C10.2814 3.33333 9.50536 3.71333 8.94136 4.276L7.9987 5.21867L7.05603 4.276C6.49203 3.71333 5.71603 3.33333 4.9987 3.33333C3.70536 3.33333 2.66536 4.43733 2.66536 6C2.66536 7.96267 3.77603 9.68867 5.76203 11.2687C6.2587 11.6633 6.7887 12.032 7.37603 12.402C7.57536 12.528 7.7727 12.6487 7.9987 12.7833C8.2247 12.6487 8.42203 12.528 8.62136 12.4027Z" fill="#731B55"/>
</svg>
