<svg width="16" height="16" viewBox="0 0 16 16" fill="none" xmlns="http://www.w3.org/2000/svg">
<path d="M4.85937 13.8827L1.33204 14.6667L2.11604 11.1393C1.59973 10.1736 1.33039 9.09511 1.33204 8.00001C1.33204 4.31801 4.31671 1.33334 7.99871 1.33334C11.6807 1.33334 14.6654 4.31801 14.6654 8.00001C14.6654 11.682 11.6807 14.6667 7.99871 14.6667C6.90361 14.6683 5.82512 14.399 4.85937 13.8827ZM5.05271 12.474L5.48804 12.7073C6.26041 13.1201 7.12297 13.3352 7.99871 13.3333C9.05354 13.3333 10.0847 13.0205 10.9617 12.4345C11.8388 11.8485 12.5224 11.0155 12.9261 10.041C13.3297 9.06645 13.4353 7.99409 13.2296 6.95953C13.0238 5.92496 12.5158 4.97465 11.7699 4.22877C11.0241 3.48289 10.0738 2.97494 9.03919 2.76916C8.00462 2.56337 6.93227 2.66899 5.95773 3.07265C4.98319 3.47632 4.15024 4.15991 3.5642 5.03697C2.97817 5.91403 2.66537 6.94518 2.66537 8.00001C2.66537 8.88934 2.88204 9.74534 3.29204 10.5107L3.52471 10.946L3.08804 12.9107L5.05271 12.474Z" fill="#731B55"/>
</svg>
