<svg width="48" height="48" viewBox="0 0 48 48" fill="none" xmlns="http://www.w3.org/2000/svg">
<path d="M4.5 44.6913L15 34.1913" stroke="#731B55" stroke-width="1.5" stroke-miterlimit="10"/>
<path d="M27 25.1913L37.0607 15.1306C37.6464 14.5448 37.6464 13.5951 37.0607 13.0093L36.182 12.1306C35.5962 11.5448 34.6464 11.5448 34.0607 12.1306L25.5 20.6913" stroke="#731B55" stroke-width="1.5" stroke-miterlimit="10"/>
<path d="M21 25.1913L13.5 32.6913L16.5 35.6913L22.5 29.6913" stroke="#731B55" stroke-width="1.5" stroke-miterlimit="10"/>
<path d="M16.5 35.6913V29.6913" stroke="#731B55" stroke-width="1.5" stroke-miterlimit="10"/>
<path d="M19.5 32.6913V26.6913" stroke="#731B55" stroke-width="1.5" stroke-miterlimit="10"/>
<path d="M28.5 23.6913V17.6913" stroke="#731B55" stroke-width="1.5" stroke-miterlimit="10"/>
<path d="M31.5 20.6913V14.6913" stroke="#731B55" stroke-width="1.5" stroke-miterlimit="10"/>
<path d="M34.5 17.6913V11.6913" stroke="#731B55" stroke-width="1.5" stroke-miterlimit="10"/>
<path d="M43.5 44.6913L33 34.1913" stroke="#731B55" stroke-width="1.5" stroke-miterlimit="10"/>
<path d="M31.5 35.6913L10.9393 15.1306C10.3536 14.5448 10.3536 13.5951 10.9393 13.0093L11.818 12.1306C12.4038 11.5448 13.3536 11.5448 13.9393 12.1306L34.5 32.6913L31.5 35.6913Z" stroke="#731B55" stroke-width="1.5" stroke-miterlimit="10"/>
<path d="M31.5 35.6913V29.6913" stroke="#731B55" stroke-width="1.5" stroke-miterlimit="10"/>
<path d="M28.5 32.6913V26.6913" stroke="#731B55" stroke-width="1.5" stroke-miterlimit="10"/>
<path d="M25.5 29.6913V23.6913" stroke="#731B55" stroke-width="1.5" stroke-miterlimit="10"/>
<path d="M22.5 26.6913V20.6913" stroke="#731B55" stroke-width="1.5" stroke-miterlimit="10"/>
<path d="M19.5 23.6913V17.6913" stroke="#731B55" stroke-width="1.5" stroke-miterlimit="10"/>
<path d="M16.5 20.6913V14.6913" stroke="#731B55" stroke-width="1.5" stroke-miterlimit="10"/>
<path d="M13.5 17.6913V11.6913" stroke="#731B55" stroke-width="1.5" stroke-miterlimit="10"/>
<path d="M13.5 4.19128V8.69128" stroke="#731B55" stroke-width="1.5" stroke-miterlimit="10"/>
<path d="M13.5 20.6913V25.1913" stroke="#731B55" stroke-width="1.5" stroke-miterlimit="10"/>
<path d="M4.40674 9.44128L8.30383 11.6913" stroke="#731B55" stroke-width="1.5" stroke-miterlimit="10"/>
<path d="M4.40674 19.9413L8.30383 17.6913" stroke="#731B55" stroke-width="1.5" stroke-miterlimit="10"/>
<path d="M18.6962 11.6913L22.5933 9.44128" stroke="#731B55" stroke-width="1.5" stroke-miterlimit="10"/>
<path d="M13.5 25.1913V20.6913" stroke="#731B55" stroke-width="1.5" stroke-miterlimit="10"/>
<path d="M13.5 8.69128V4.19128" stroke="#731B55" stroke-width="1.5" stroke-miterlimit="10"/>
<path d="M6.75 3L10.5 9.49519" stroke="#731B55" stroke-width="1.5" stroke-miterlimit="10"/>
<path d="M0 14.6913H7.5" stroke="#731B55" stroke-width="1.5" stroke-miterlimit="10"/>
<path d="M6.75 26.3826L10.5 19.8875" stroke="#731B55" stroke-width="1.5" stroke-miterlimit="10"/>
<path d="M16.5 9.49519L20.25 3" stroke="#731B55" stroke-width="1.5" stroke-miterlimit="10"/>
<path d="M34.5 4.19128V8.69128" stroke="#731B55" stroke-width="1.5" stroke-miterlimit="10"/>
<path d="M34.5 20.6913V25.1913" stroke="#731B55" stroke-width="1.5" stroke-miterlimit="10"/>
<path d="M43.5933 9.44128L39.6962 11.6913" stroke="#731B55" stroke-width="1.5" stroke-miterlimit="10"/>
<path d="M43.5933 19.9413L39.6962 17.6913" stroke="#731B55" stroke-width="1.5" stroke-miterlimit="10"/>
<path d="M29.3038 11.6913L25.4067 9.44128" stroke="#731B55" stroke-width="1.5" stroke-miterlimit="10"/>
<path d="M34.5 25.1913V20.6913" stroke="#731B55" stroke-width="1.5" stroke-miterlimit="10"/>
<path d="M34.5 8.69128V4.19128" stroke="#731B55" stroke-width="1.5" stroke-miterlimit="10"/>
<path d="M41.25 3L37.5 9.49519" stroke="#731B55" stroke-width="1.5" stroke-miterlimit="10"/>
<path d="M48 14.6913H40.5" stroke="#731B55" stroke-width="1.5" stroke-miterlimit="10"/>
<path d="M41.25 26.3826L37.5 19.8875" stroke="#731B55" stroke-width="1.5" stroke-miterlimit="10"/>
<path d="M31.5 9.49519L27.75 3" stroke="#731B55" stroke-width="1.5" stroke-miterlimit="10"/>
</svg>
