<svg width="48" height="48" viewBox="0 0 48 48" fill="none" xmlns="http://www.w3.org/2000/svg">
<g clip-path="url(#clip0_956_2340)">
<path d="M8.89502 7.86743L9.6409 6.01172L13.1296 7.41398L12.3838 9.26969L8.89502 7.86743Z" fill="#731B55"/>
<path d="M0.942139 4.59229L1.69014 2.73628L5.25366 4.17245L4.50566 6.02845L0.942139 4.59229Z" fill="#731B55"/>
<path d="M6.87866 3.43896L8.37242 -0.0976752L10.2144 0.680325L8.72066 4.21696L6.87866 3.43896Z" fill="#731B55"/>
<path d="M3.69702 11.389L5.08733 7.80956L6.95164 8.53368L5.56133 12.1132L3.69702 11.389Z" fill="#731B55"/>
<path d="M40 16.04H42V20.04H40V16.04Z" fill="#731B55"/>
<path d="M40 8.04004H42V12.04H40V8.04004Z" fill="#731B55"/>
<path d="M43.04 13H47.04V15H43.04V13Z" fill="#731B55"/>
<path d="M35.04 13H39.04V15H35.04V13Z" fill="#731B55"/>
<path d="M24 46.0407H22C22 34.1207 27.28 23.1607 36.08 16.6807L37.28 18.2807C28.96 24.3607 24 34.7607 24 46.0407Z" fill="#731B55"/>
<path d="M19.9999 42.0408H17.9999C17.9999 30.5208 15.0399 19.8808 9.67993 11.9608L11.3599 10.8408C16.9599 19.0808 19.9999 30.1208 19.9999 42.0408Z" fill="#731B55"/>
<path d="M27.6768 10.1534L29.091 8.73923L32.3154 11.9636L30.9012 13.3778L27.6768 10.1534Z" fill="#731B55"/>
<path d="M20.6958 3.0907L22.1138 1.6787L25.2767 4.85502L23.8587 6.26702L20.6958 3.0907Z" fill="#731B55"/>
<path d="M20.6489 11.8787L23.8733 8.65425L25.2875 10.0685L22.0631 13.2929L20.6489 11.8787Z" fill="#731B55"/>
<path d="M27.7178 4.86279L30.8807 1.68647L32.2987 3.09847L29.1358 6.27479L27.7178 4.86279Z" fill="#731B55"/>
<path d="M24 28.0409H22C22 22.9209 22.8 18.0409 24.4 13.8809L26.24 14.6009C24.8 18.5209 24 23.1609 24 28.0409Z" fill="#731B55"/>
<path d="M28 46.04L26 45.8C26.88 39.4 31.04 35 36 35V37C32 37 28.72 40.68 28 46.04Z" fill="#731B55"/>
<path d="M4.95996 33H6.95996V37H4.95996V33Z" fill="#731B55"/>
<path d="M4.95996 25H6.95996V29H4.95996V25Z" fill="#731B55"/>
<path d="M8 29.96H12V31.96H8V29.96Z" fill="#731B55"/>
<path d="M0 29.96H4V31.96H0V29.96Z" fill="#731B55"/>
<path d="M15.1199 44.04C14.0799 40.76 12.2399 37.8 9.67993 35.4L11.0399 33.96C13.8399 36.52 15.8399 39.88 16.9599 43.48L15.1199 44.04Z" fill="#731B55"/>
<path d="M41.6533 38.1056L43.0675 36.6914L45.2737 38.8975L43.8595 40.3118L41.6533 38.1056Z" fill="#731B55"/>
<path d="M35.6541 32.1046L37.0683 30.6904L39.2744 32.8966L37.8602 34.3108L35.6541 32.1046Z" fill="#731B55"/>
<path d="M35.6536 38.8956L37.8597 36.6895L39.274 38.1037L37.0678 40.3098L35.6536 38.8956Z" fill="#731B55"/>
<path d="M41.6536 32.8976L43.8597 30.6914L45.274 32.1056L43.0678 34.3118L41.6536 32.8976Z" fill="#731B55"/>
</g>
<defs>
<clipPath id="clip0_956_2340">
<rect width="48" height="48" fill="white"/>
</clipPath>
</defs>
</svg>
