<svg width="48" height="48" viewBox="0 0 48 48" fill="none" xmlns="http://www.w3.org/2000/svg">
<g clip-path="url(#clip0_613_4167)">
<path d="M34.6358 22.5C34.5088 22.4998 34.384 22.4676 34.2728 22.4063L30 20.0445L25.725 22.4063C25.6019 22.4744 25.462 22.5065 25.3214 22.4989C25.1808 22.4913 25.0453 22.4443 24.9302 22.3632C24.8151 22.2821 24.7251 22.1703 24.6706 22.0405C24.616 21.9107 24.5991 21.7682 24.6218 21.6293L25.4468 16.5758L21.9608 13.0028C21.8645 12.9041 21.7972 12.7807 21.7665 12.6463C21.7357 12.5119 21.7426 12.3716 21.7864 12.2408C21.8302 12.11 21.9092 11.9939 22.0147 11.9051C22.1202 11.8163 22.2482 11.7583 22.3845 11.7375L27.171 11.007L29.319 6.43204C29.3796 6.30319 29.4756 6.19425 29.5958 6.11793C29.716 6.04162 29.8554 6.0011 29.9978 6.0011C30.1402 6.0011 30.2796 6.04162 30.3998 6.11793C30.52 6.19425 30.616 6.30319 30.6765 6.43204L32.8245 11.007L37.611 11.7375C37.7474 11.7583 37.8753 11.8163 37.9809 11.9051C38.0864 11.9939 38.1654 12.11 38.2092 12.2408C38.253 12.3716 38.2599 12.5119 38.2291 12.6463C38.1983 12.7807 38.1311 12.9041 38.0348 13.0028L34.551 16.575L35.376 21.6285C35.3937 21.7359 35.3877 21.8458 35.3586 21.9506C35.3295 22.0554 35.278 22.1527 35.2076 22.2356C35.1371 22.3185 35.0495 22.3851 34.9508 22.4308C34.8521 22.4764 34.7446 22.5001 34.6358 22.5ZM30 18.4373C30.1268 18.4374 30.2514 18.4697 30.3623 18.531L33.6465 20.346L33.0098 16.446C32.9909 16.3302 32.9995 16.2116 33.0348 16.0997C33.0701 15.9878 33.1311 15.8858 33.213 15.8018L35.9438 13.0028L32.2035 12.4313C32.0819 12.4125 31.9668 12.3641 31.8683 12.2904C31.7698 12.2166 31.691 12.1197 31.6388 12.0083L30 8.51554L28.3613 12.006C28.3091 12.1175 28.2303 12.2143 28.1318 12.2881C28.0333 12.3619 27.9182 12.4103 27.7965 12.429L24.0563 13.0005L26.787 15.7995C26.869 15.8835 26.93 15.9856 26.9653 16.0975C27.0006 16.2094 27.0092 16.328 26.9903 16.4438L26.3535 20.3438L29.6378 18.5288C29.7489 18.4682 29.8735 18.4367 30 18.4373Z" fill="#731B55"/>
<path d="M15.9945 20.2501C15.875 20.2499 15.7573 20.2214 15.651 20.1669L12.75 18.6669L9.84902 20.1669C9.72489 20.231 9.58532 20.2592 9.44603 20.2482C9.30674 20.2373 9.17328 20.1876 9.06068 20.1049C8.94809 20.0222 8.86085 19.9097 8.80878 19.78C8.75672 19.6503 8.74191 19.5087 8.76602 19.3711L9.31727 16.2211L6.98177 13.9876C6.88022 13.8903 6.80807 13.7664 6.77356 13.6301C6.73904 13.4938 6.74354 13.3505 6.78655 13.2166C6.82957 13.0827 6.90936 12.9636 7.01681 12.8729C7.12427 12.7822 7.25507 12.7235 7.39427 12.7036L10.6343 12.2416L12.0795 9.36685C12.1489 9.25096 12.2472 9.15504 12.3647 9.08843C12.4822 9.02183 12.6149 8.98682 12.75 8.98682C12.8851 8.98682 13.0179 9.02183 13.1354 9.08843C13.2529 9.15504 13.3511 9.25096 13.4205 9.36685L14.8658 12.2416L18.1058 12.7036C18.245 12.7235 18.3758 12.7822 18.4832 12.8729C18.5907 12.9636 18.6705 13.0827 18.7135 13.2166C18.7565 13.3505 18.761 13.4938 18.7265 13.6301C18.692 13.7664 18.6198 13.8903 18.5183 13.9876L16.1828 16.2211L16.734 19.3711C16.7528 19.4789 16.7478 19.5896 16.7194 19.6953C16.6909 19.801 16.6396 19.8992 16.5691 19.9829C16.4986 20.0667 16.4107 20.134 16.3114 20.1802C16.2122 20.2263 16.104 20.2502 15.9945 20.2501ZM12.75 17.0769C12.8695 17.0768 12.9873 17.1054 13.0935 17.1601L14.9955 18.1411L14.6363 16.0854C14.615 15.964 14.6241 15.8392 14.6625 15.7221C14.701 15.6051 14.7677 15.4993 14.8568 15.4141L16.3658 13.9704L14.2658 13.6704C14.1461 13.6531 14.0324 13.6072 13.9344 13.5366C13.8363 13.4659 13.7568 13.3726 13.7025 13.2646L12.75 11.3731L11.7975 13.2661C11.7433 13.3741 11.6637 13.4674 11.5657 13.5381C11.4676 13.6087 11.3539 13.6546 11.2343 13.6719L9.13427 13.9719L10.6433 15.4156C10.7323 15.5008 10.7991 15.6066 10.8375 15.7236C10.876 15.8407 10.885 15.9655 10.8638 16.0869L10.5045 18.1426L12.4065 17.1616C12.5126 17.1064 12.6304 17.0773 12.75 17.0769Z" fill="#731B55"/>
<path d="M21.8176 9.00005C21.7009 9.00004 21.5859 8.97282 21.4816 8.92055L19.5001 7.9283L17.5186 8.92055C17.3941 8.98287 17.2548 9.00933 17.1161 8.99697C16.9775 8.9846 16.845 8.9339 16.7336 8.85054C16.6221 8.76717 16.536 8.65443 16.485 8.52494C16.434 8.39544 16.42 8.2543 16.4446 8.1173L16.8143 6.0623L15.2393 4.5998C15.1352 4.50322 15.0606 4.37905 15.0242 4.24173C14.9879 4.10442 14.9913 3.95961 15.034 3.82415C15.0768 3.68869 15.1571 3.56815 15.2657 3.47657C15.3742 3.38498 15.5066 3.32611 15.6473 3.3068L17.8538 3.00005L18.8341 1.1078C18.9038 0.993763 19.0017 0.899551 19.1183 0.834187C19.2349 0.768823 19.3664 0.734497 19.5001 0.734497C19.6338 0.734497 19.7652 0.768823 19.8818 0.834187C19.9984 0.899551 20.0963 0.993763 20.1661 1.1078L21.1501 3.00005L23.3566 3.3053C23.4973 3.32461 23.6296 3.38348 23.7382 3.47507C23.8468 3.56665 23.9271 3.68719 23.9699 3.82265C24.0126 3.95811 24.016 4.10292 23.9797 4.24023C23.9433 4.37755 23.8687 4.50172 23.7646 4.5983L22.1896 6.0608L22.5593 8.1158C22.579 8.22421 22.5746 8.33563 22.5464 8.44214C22.5182 8.54866 22.4669 8.64764 22.396 8.73206C22.3252 8.81648 22.2367 8.88426 22.1367 8.93058C22.0367 8.9769 21.9278 9.00062 21.8176 9.00005ZM19.5001 6.33905C19.6167 6.33906 19.7318 6.36628 19.8361 6.41855L20.8111 6.9083L20.6371 5.92505C20.6145 5.80155 20.6232 5.67434 20.6625 5.5551C20.7018 5.43585 20.7704 5.32838 20.8621 5.24255L21.5791 4.5773L20.5538 4.4348C20.4349 4.41833 20.3217 4.37357 20.2237 4.30427C20.1257 4.23497 20.0457 4.14316 19.9906 4.03655L19.5001 3.0848L19.0073 4.0358C18.9522 4.14241 18.8722 4.23422 18.7742 4.30352C18.6762 4.37282 18.563 4.41758 18.4441 4.43405L17.4188 4.57655L18.1358 5.2418C18.2275 5.32763 18.2961 5.4351 18.3354 5.55435C18.3747 5.67359 18.3834 5.8008 18.3608 5.9243L18.1838 6.9083L19.1588 6.41855C19.2647 6.36548 19.3816 6.33823 19.5001 6.33905Z" fill="#731B55"/>
<path d="M45.8176 26.25C45.7009 26.25 45.5859 26.2228 45.4816 26.1705L43.5001 25.1783L41.5186 26.1705C41.3941 26.2329 41.2548 26.2593 41.1161 26.247C40.9775 26.2346 40.845 26.1839 40.7336 26.1005C40.6221 26.0172 40.536 25.9044 40.485 25.7749C40.434 25.6454 40.42 25.5043 40.4446 25.3673L40.8143 23.3123L39.2393 21.8498C39.1352 21.7532 39.0606 21.629 39.0242 21.4917C38.9879 21.3544 38.9913 21.2096 39.034 21.0741C39.0768 20.9387 39.1571 20.8182 39.2657 20.7266C39.3743 20.635 39.5066 20.5761 39.6473 20.5568L41.8538 20.25L42.8341 18.3578C42.9038 18.2438 43.0017 18.1496 43.1183 18.0842C43.2349 18.0188 43.3664 17.9845 43.5001 17.9845C43.6338 17.9845 43.7652 18.0188 43.8818 18.0842C43.9984 18.1496 44.0963 18.2438 44.1661 18.3578L45.1501 20.25L47.3566 20.5553C47.4973 20.5746 47.6296 20.6335 47.7382 20.7251C47.8468 20.8167 47.9271 20.9372 47.9699 21.0726C48.0126 21.2081 48.016 21.3529 47.9797 21.4902C47.9433 21.6275 47.8687 21.7517 47.7646 21.8483L46.1896 23.3108L46.5593 25.3658C46.579 25.4742 46.5746 25.5856 46.5464 25.6921C46.5182 25.7987 46.4669 25.8976 46.396 25.9821C46.3252 26.0665 46.2367 26.1343 46.1367 26.1806C46.0367 26.2269 45.9278 26.2506 45.8176 26.25ZM43.5001 23.589C43.6167 23.5891 43.7318 23.6163 43.8361 23.6685L44.8111 24.1583L44.6371 23.175C44.6145 23.0515 44.6232 22.9243 44.6625 22.8051C44.7018 22.6859 44.7704 22.5784 44.8621 22.4925L45.5791 21.8273L44.5538 21.6848C44.4349 21.6683 44.3217 21.6236 44.2237 21.5543C44.1257 21.485 44.0457 21.3932 43.9906 21.2865L43.5001 20.3348L43.0073 21.2858C42.9522 21.3924 42.8722 21.4842 42.7742 21.5535C42.6762 21.6228 42.563 21.6676 42.4441 21.684L41.4188 21.8265L42.1358 22.4918C42.2275 22.5776 42.2961 22.6851 42.3354 22.8043C42.3747 22.9236 42.3834 23.0508 42.3608 23.1743L42.1838 24.1583L43.1588 23.6685C43.2647 23.6155 43.3816 23.5882 43.5001 23.589Z" fill="#731B55"/>
<path d="M42.0676 9.75005C41.9509 9.75004 41.8359 9.72282 41.7316 9.67055L39.7501 8.6783L37.7686 9.67055C37.6441 9.73287 37.5048 9.75933 37.3661 9.74697C37.2275 9.7346 37.095 9.6839 36.9836 9.60054C36.8721 9.51717 36.786 9.40443 36.735 9.27494C36.684 9.14544 36.67 9.0043 36.6946 8.8673L37.0643 6.8123L35.4893 5.3498C35.3852 5.25322 35.3106 5.12905 35.2742 4.99173C35.2379 4.85442 35.2413 4.70961 35.284 4.57415C35.3268 4.43869 35.4071 4.31815 35.5157 4.22657C35.6243 4.13498 35.7566 4.07611 35.8973 4.0568L38.1038 3.75005L39.0841 1.8578C39.1538 1.74376 39.2517 1.64955 39.3683 1.58419C39.4849 1.51882 39.6164 1.4845 39.7501 1.4845C39.8838 1.4845 40.0152 1.51882 40.1318 1.58419C40.2484 1.64955 40.3463 1.74376 40.4161 1.8578L41.4001 3.75005L43.6066 4.0553C43.7473 4.07461 43.8796 4.13348 43.9882 4.22507C44.0968 4.31665 44.1771 4.43719 44.2199 4.57265C44.2626 4.70811 44.266 4.85292 44.2297 4.99023C44.1933 5.12755 44.1187 5.25172 44.0146 5.3483L42.4396 6.8108L42.8093 8.8658C42.829 8.97421 42.8246 9.08563 42.7964 9.19214C42.7682 9.29866 42.7169 9.39764 42.646 9.48206C42.5752 9.56648 42.4867 9.63426 42.3867 9.68058C42.2867 9.7269 42.1778 9.75062 42.0676 9.75005ZM39.7501 7.08905C39.8667 7.08906 39.9818 7.11628 40.0861 7.16855L41.0611 7.6583L40.8871 6.67505C40.8645 6.55155 40.8732 6.42434 40.9125 6.3051C40.9518 6.18585 41.0204 6.07838 41.1121 5.99255L41.8291 5.3273L40.8038 5.1848C40.6849 5.16833 40.5717 5.12357 40.4737 5.05427C40.3757 4.98497 40.2957 4.89316 40.2406 4.78655L39.7501 3.8348L39.2573 4.7858C39.2022 4.89241 39.1222 4.98422 39.0242 5.05352C38.9262 5.12282 38.813 5.16758 38.6941 5.18405L37.6688 5.32655L38.3858 5.9918C38.4775 6.07763 38.5461 6.1851 38.5854 6.30435C38.6247 6.42359 38.6334 6.5508 38.6108 6.6743L38.4338 7.6583L39.4088 7.16855C39.5147 7.11548 39.6316 7.08823 39.7501 7.08905Z" fill="#731B55"/>
<path d="M39.2445 36.75C39.1254 36.7497 39.008 36.7214 38.9018 36.6675L36 35.175L33.0983 36.6675C32.9741 36.7316 32.8344 36.7596 32.6951 36.7485C32.5557 36.7374 32.4223 36.6876 32.3097 36.6047C32.1972 36.5218 32.1101 36.4091 32.0582 36.2794C32.0063 36.1496 31.9917 36.0079 32.016 35.8702L32.5665 32.7382L30.2333 30.5175C30.1311 30.4204 30.0583 30.2965 30.0234 30.1599C29.9884 30.0234 29.9926 29.8798 30.0355 29.7455C30.0784 29.6112 30.1582 29.4918 30.2659 29.4008C30.3736 29.3099 30.5047 29.2511 30.6443 29.2312L33.885 28.7715L35.3303 25.9117C35.3998 25.7962 35.498 25.7006 35.6153 25.6342C35.7327 25.5678 35.8652 25.533 36 25.533C36.1349 25.533 36.2674 25.5678 36.3848 25.6342C36.5021 25.7006 36.6003 25.7962 36.6698 25.9117L38.115 28.7715L41.3558 29.2312C41.4953 29.2511 41.6265 29.3099 41.7342 29.4008C41.8418 29.4918 41.9217 29.6112 41.9646 29.7455C42.0075 29.8798 42.0117 30.0234 41.9767 30.1599C41.9417 30.2965 41.869 30.4204 41.7668 30.5175L39.4335 32.7382L39.984 35.8702C40.003 35.9781 39.9981 36.0889 39.9696 36.1947C39.9412 36.3005 39.8899 36.3987 39.8195 36.4826C39.749 36.5664 39.661 36.6338 39.5616 36.68C39.4623 36.7262 39.3541 36.7501 39.2445 36.75ZM36 33.5842C36.1193 33.5844 36.2368 33.6129 36.3428 33.6675L38.2448 34.6425L37.8863 32.6002C37.865 32.4779 37.8744 32.3522 37.9136 32.2344C37.9529 32.1166 38.0208 32.0103 38.1113 31.9252L39.6113 30.4957L37.5173 30.1957C37.3977 30.1786 37.2841 30.1328 37.186 30.0623C37.088 29.9918 37.0084 29.8986 36.954 29.7907L36 27.9127L35.0468 29.7975C34.9924 29.9054 34.9129 29.9985 34.8148 30.069C34.7167 30.1395 34.6031 30.1853 34.4835 30.2025L32.3895 30.5025L33.8895 31.932C33.98 32.0171 34.0479 32.1233 34.0872 32.2411C34.1264 32.3589 34.1358 32.4847 34.1145 32.607L33.756 34.6492L35.658 33.6742C35.7632 33.6174 35.8805 33.5866 36 33.5842Z" fill="#731B55"/>
<path d="M0.750015 47.2501C0.609628 47.25 0.472071 47.2106 0.352994 47.1362C0.233917 47.0619 0.138101 46.9556 0.0764453 46.8295C0.0147901 46.7033 -0.0102284 46.5624 0.00423609 46.4228C0.0187006 46.2832 0.0720674 46.1504 0.158265 46.0396L21.1583 19.0396C21.2179 18.9594 21.2929 18.892 21.3789 18.8412C21.4649 18.7904 21.5602 18.7573 21.6591 18.7439C21.7581 18.7304 21.8588 18.7369 21.9552 18.7629C22.0516 18.7888 22.1419 18.8338 22.2207 18.8952C22.2996 18.9565 22.3654 19.033 22.4142 19.1201C22.4631 19.2072 22.4941 19.3032 22.5053 19.4024C22.5166 19.5017 22.508 19.6021 22.4799 19.698C22.4518 19.7938 22.4048 19.8831 22.3418 19.9606L5.40976 41.7316L28.776 22.6688C28.9302 22.5431 29.128 22.4838 29.3259 22.5039C29.5238 22.524 29.7056 22.6219 29.8313 22.7761C29.957 22.9302 30.0163 23.128 29.9962 23.3259C29.9761 23.5238 29.8782 23.7056 29.724 23.8313L1.22401 47.0813C1.09016 47.1905 0.922732 47.2501 0.750015 47.2501Z" fill="#731B55"/>
<path d="M0.750026 41.2501C0.633676 41.25 0.51893 41.2229 0.414862 41.1709C0.310794 41.1189 0.220258 41.0433 0.150413 40.9503C0.0805685 40.8572 0.0333313 40.7492 0.012437 40.6347C-0.00845733 40.5203 -0.00243563 40.4025 0.0300259 40.2908L6.78003 17.0408C6.80565 16.9442 6.85034 16.8536 6.91147 16.7745C6.9726 16.6954 7.04893 16.6293 7.13597 16.5801C7.22302 16.5309 7.31902 16.4996 7.41834 16.4881C7.51765 16.4765 7.61827 16.4849 7.71428 16.5128C7.81029 16.5407 7.89976 16.5876 7.97741 16.6505C8.05507 16.7135 8.11934 16.7914 8.16646 16.8796C8.21358 16.9678 8.2426 17.0645 8.25179 17.164C8.26099 17.2636 8.25019 17.364 8.22003 17.4593L2.87028 35.8868L12.8723 20.5868C12.9825 20.4235 13.1525 20.3102 13.3456 20.2712C13.5387 20.2323 13.7393 20.2708 13.9042 20.3786C14.0691 20.4864 14.185 20.6547 14.2268 20.8471C14.2686 21.0396 14.2331 21.2408 14.1278 21.4073L1.37778 40.9073C1.30996 41.0122 1.21701 41.0985 1.10739 41.1583C0.997764 41.2182 0.874926 41.2497 0.750026 41.2501Z" fill="#731B55"/>
<path d="M7.49997 45.75C7.33172 45.7502 7.16829 45.6938 7.03596 45.5899C6.90363 45.486 6.81008 45.3406 6.77035 45.1771C6.73063 45.0136 6.74703 44.8415 6.81692 44.6884C6.88681 44.5354 7.00614 44.4103 7.15572 44.3333L30.4057 32.3333C30.5826 32.242 30.7884 32.2246 30.978 32.2851C31.1676 32.3456 31.3254 32.4789 31.4167 32.6558C31.508 32.8326 31.5253 33.0385 31.4649 33.2281C31.4044 33.4176 31.271 33.5755 31.0942 33.6668L13.731 42.6278L36.564 36.7733C36.6594 36.7486 36.7588 36.7431 36.8564 36.7568C36.9539 36.7706 37.0479 36.8035 37.1328 36.8535C37.2177 36.9036 37.2919 36.9699 37.3511 37.0487C37.4104 37.1274 37.4536 37.2171 37.4782 37.3125C37.5028 37.4079 37.5084 37.5073 37.4946 37.6049C37.4809 37.7025 37.448 37.7964 37.3979 37.8813C37.3479 37.9662 37.2816 38.0404 37.2028 38.0997C37.1241 38.159 37.0344 38.2021 36.939 38.2268L7.68897 45.7268C7.6272 45.7424 7.56369 45.7502 7.49997 45.75Z" fill="#731B55"/>
</g>
<defs>
<clipPath id="clip0_613_4167">
<rect width="48" height="48" fill="white"/>
</clipPath>
</defs>
</svg>
