<svg width="16" height="16" viewBox="0 0 16 16" fill="none" xmlns="http://www.w3.org/2000/svg">
<path d="M2.66732 10.6667V2.66671H1.33398V1.33337H3.33398C3.5108 1.33337 3.68036 1.40361 3.80539 1.52864C3.93041 1.65366 4.00065 1.82323 4.00065 2.00004V10H12.2927L13.626 4.66671H5.33398V3.33337H14.4807C14.582 3.33338 14.682 3.35648 14.7731 3.40093C14.8641 3.44538 14.9439 3.51001 15.0062 3.5899C15.0686 3.66979 15.1119 3.76284 15.1328 3.86198C15.1538 3.96112 15.1519 4.06374 15.1273 4.16204L13.4607 10.8287C13.4245 10.9729 13.3413 11.1008 13.2241 11.1923C13.107 11.2837 12.9626 11.3334 12.814 11.3334H3.33398C3.15717 11.3334 2.9876 11.2631 2.86258 11.1381C2.73756 11.0131 2.66732 10.8435 2.66732 10.6667ZM4.00065 15.3334C3.64703 15.3334 3.30789 15.1929 3.05784 14.9429C2.80779 14.6928 2.66732 14.3537 2.66732 14C2.66732 13.6464 2.80779 13.3073 3.05784 13.0572C3.30789 12.8072 3.64703 12.6667 4.00065 12.6667C4.35427 12.6667 4.69341 12.8072 4.94346 13.0572C5.19351 13.3073 5.33398 13.6464 5.33398 14C5.33398 14.3537 5.19351 14.6928 4.94346 14.9429C4.69341 15.1929 4.35427 15.3334 4.00065 15.3334ZM12.0007 15.3334C11.647 15.3334 11.3079 15.1929 11.0578 14.9429C10.8078 14.6928 10.6673 14.3537 10.6673 14C10.6673 13.6464 10.8078 13.3073 11.0578 13.0572C11.3079 12.8072 11.647 12.6667 12.0007 12.6667C12.3543 12.6667 12.6934 12.8072 12.9435 13.0572C13.1935 13.3073 13.334 13.6464 13.334 14C13.334 14.3537 13.1935 14.6928 12.9435 14.9429C12.6934 15.1929 12.3543 15.3334 12.0007 15.3334Z" fill="#0C0B0B"/>
</svg>
