<svg width="14" height="14" viewBox="0 0 14 14" fill="none" xmlns="http://www.w3.org/2000/svg">
<path d="M7.00004 13.6668C3.31804 13.6668 0.333374 10.6822 0.333374 7.00016C0.333374 3.31816 3.31804 0.333496 7.00004 0.333496C10.682 0.333496 13.6667 3.31816 13.6667 7.00016C13.6667 10.6822 10.682 13.6668 7.00004 13.6668ZM7.00004 12.3335C8.41453 12.3335 9.77108 11.7716 10.7713 10.7714C11.7715 9.77121 12.3334 8.41465 12.3334 7.00016C12.3334 5.58567 11.7715 4.22912 10.7713 3.22893C9.77108 2.22873 8.41453 1.66683 7.00004 1.66683C5.58555 1.66683 4.229 2.22873 3.2288 3.22893C2.22861 4.22912 1.66671 5.58567 1.66671 7.00016C1.66671 8.41465 2.22861 9.77121 3.2288 10.7714C4.229 11.7716 5.58555 12.3335 7.00004 12.3335ZM7.00004 6.0575L8.88537 4.1715L9.82871 5.11483L7.94271 7.00016L9.82871 8.8855L8.88537 9.82883L7.00004 7.94283L5.11471 9.82883L4.17137 8.8855L6.05737 7.00016L4.17137 5.11483L5.11471 4.1715L7.00004 6.0575Z" fill="#B01414"/>
</svg>
