<svg width="14" height="14" viewBox="0 0 14 14" fill="none" xmlns="http://www.w3.org/2000/svg">
<g id="Frame" clip-path="url(#clip0_1913_50256)">
<g id="Group">
<path id="Vector" d="M10.7024 13.6663H3.29499C2.5036 13.6663 1.75954 13.3581 1.19988 12.7985C0.640237 12.2389 0.332031 11.4948 0.332031 10.7034V9.96259C0.332031 9.55347 0.663655 9.22182 1.07278 9.22182C1.4819 9.22182 1.81352 9.55347 1.81352 9.96259V10.7034C1.81352 11.0991 1.96764 11.4711 2.24741 11.7509C2.52725 12.0307 2.89927 12.1848 3.29499 12.1848H10.7024C11.0981 12.1848 11.4701 12.0307 11.7499 11.7509C12.0297 11.471 12.1839 11.099 12.1839 10.7034V9.96259C12.1839 9.55347 12.5155 9.22182 12.9246 9.22182C13.3337 9.22182 13.6654 9.55347 13.6654 9.96259V10.7034C13.6654 11.4947 13.3572 12.2388 12.7975 12.7985C12.2378 13.3581 11.4938 13.6663 10.7024 13.6663ZM6.99868 10.7033C6.80526 10.7036 6.61946 10.6279 6.48122 10.4927L6.48117 10.4926L6.47969 10.4912L6.47928 10.4907C6.47887 10.4904 6.4785 10.49 6.47812 10.4896L6.47737 10.4888C6.4771 10.4886 6.47682 10.4883 6.47654 10.488L6.47493 10.4864L3.51195 7.52344C3.22269 7.23417 3.22269 6.76515 3.51195 6.47586C3.80122 6.18659 4.27027 6.18657 4.55953 6.47586L6.25797 8.17429V1.07375C6.25794 0.664631 6.58956 0.333008 6.99868 0.333008C7.40781 0.333008 7.73946 0.664631 7.73946 1.07375V8.17426L9.43786 6.47586C9.7271 6.18659 10.1962 6.18659 10.4854 6.47586C10.7747 6.76512 10.7747 7.23417 10.4854 7.52344L7.52246 10.4864L7.52086 10.488L7.52003 10.4888L7.51928 10.4895C7.51892 10.49 7.5185 10.4903 7.51814 10.4907L7.5177 10.4911C7.51723 10.4916 7.51675 10.4921 7.51625 10.4926L7.5162 10.4926C7.50805 10.5005 7.49979 10.5083 7.49136 10.5158C7.43089 10.5698 7.36191 10.6135 7.2872 10.645L7.28647 10.6453C7.28619 10.6454 7.28596 10.6456 7.28567 10.6457C7.19482 10.6839 7.09724 10.7035 6.99868 10.7033Z" fill="black"/>
</g>
</g>
<defs>
<clipPath id="clip0_1913_50256">
<rect width="13.3333" height="13.3333" fill="white" transform="translate(0.332031 0.333008)"/>
</clipPath>
</defs>
</svg>
