<svg width="16" height="16" viewBox="0 0 16 16" fill="none" xmlns="http://www.w3.org/2000/svg">
<path d="M2.32476 12.9027C1.1455 11.5418 0.497495 9.80076 0.500007 8C0.500007 3.85775 3.85776 0.5 8.00001 0.5C9.60201 0.5 11.087 1.0025 12.305 1.8575L8.00001 4.25L8.00001 2C6.82373 1.9999 5.67336 2.34556 4.69195 2.994C3.71054 3.64244 2.94138 4.56505 2.4801 5.64712C2.01882 6.72918 1.88578 7.92296 2.09752 9.08003C2.30926 10.2371 2.85643 11.3064 3.67101 12.155L2.32476 12.9027ZM13.6753 3.09725C14.8545 4.45817 15.5025 6.19924 15.5 8C15.5 12.1422 12.1423 15.5 8.00001 15.5C6.39801 15.5 4.91301 14.9975 3.69501 14.1425L8.00001 11.75L8.00001 14C9.17629 14.0001 10.3267 13.6544 11.3081 13.006C12.2895 12.3576 13.0586 11.4349 13.5199 10.3529C13.9812 9.27082 14.1142 8.07704 13.9025 6.91997C13.6908 5.7629 13.1436 4.69359 12.329 3.845L13.6753 3.09725Z" fill="#731B55"/>
</svg>
