<svg width="48" height="48" viewBox="0 0 48 48" fill="none" xmlns="http://www.w3.org/2000/svg">
<g id="Frame" clip-path="url(#clip0_1741_59558)">
<g id="Group">
<path id="Vector" d="M47.5137 10.4746L28.8192 0.209387C28.6809 0.133522 28.5257 0.09375 28.368 0.09375C28.2103 0.09375 28.0551 0.133522 27.9168 0.209387L20.8706 4.07845C20.7202 4.1178 20.5819 4.19381 20.4681 4.2997L9.22288 10.4746C9.07559 10.5554 8.95274 10.6744 8.86719 10.8189C8.78164 10.9635 8.73653 11.1285 8.7366 11.2964V23.7118C6.83966 24.305 5.10126 25.3513 3.65582 26.7971C-0.11162 30.5643 -1.07237 36.3102 1.26557 41.0947C1.49263 41.5597 2.05401 41.7528 2.5191 41.5254C2.98457 41.2979 3.17722 40.7365 2.95016 40.2715C0.963787 36.2061 1.78016 31.3242 4.98154 28.1228C6.98357 26.1207 9.64522 25.018 12.4764 25.018C15.3075 25.018 17.9692 26.1207 19.9712 28.1228C21.973 30.1244 23.0757 32.7861 23.0757 35.6173C23.0757 38.4484 21.973 41.1101 19.9708 43.1121C16.7695 46.3136 11.8875 47.1299 7.82226 45.1435C7.35716 44.916 6.79569 45.1091 6.56863 45.5742C6.34129 46.0396 6.53394 46.601 6.99932 46.8281C8.70205 47.6612 10.5727 48.0941 12.4683 48.0937C15.7067 48.0933 18.9019 46.8328 21.2969 44.4378C22.3952 43.3395 23.2632 42.0725 23.8772 40.6951L27.9169 42.9133C28.0575 42.9905 28.2128 43.029 28.3681 43.029C28.5235 43.029 28.679 42.9906 28.8193 42.9133L47.5136 32.6484C47.6608 32.5675 47.7836 32.4486 47.8692 32.304C47.9548 32.1595 47.9999 31.9946 47.9999 31.8266V25.3113C47.9999 24.7935 47.5802 24.3738 47.0624 24.3738C46.5447 24.3738 46.1249 24.7935 46.1249 25.3113V31.2718L29.3085 40.5059V22.1146L34.8585 19.067V23.898C34.8585 24.0212 34.8827 24.1431 34.9298 24.2569C34.9769 24.3706 35.0459 24.474 35.133 24.5611C35.2201 24.6481 35.3234 24.7172 35.4372 24.7643C35.551 24.8114 35.6729 24.8356 35.796 24.8355C35.9512 24.8355 36.1069 24.7971 36.2479 24.7195L40.2538 22.5145C40.4008 22.4336 40.5234 22.3148 40.6088 22.1703C40.6941 22.0259 40.7392 21.8612 40.7391 21.6934V15.8378L46.1249 12.8807V17.8117C46.1249 18.3296 46.5447 18.7492 47.0624 18.7492C47.5802 18.7492 47.9999 18.3296 47.9999 17.8117V11.2964C48 11.1285 47.9548 10.9635 47.8693 10.819C47.7837 10.6744 47.6609 10.5555 47.5137 10.4746ZM28.368 2.10051L45.1146 11.2964L39.832 14.1973L23.0855 5.00132L28.368 2.10051ZM28.368 20.492L11.6217 11.2964L17.098 8.28914L33.8448 17.4847L28.368 20.492ZM35.7923 16.4154L19.0458 7.21982L21.1377 6.07101L37.8845 15.2666L35.7923 16.4154ZM21.2969 26.7971C18.9407 24.4409 15.8082 23.1434 12.4764 23.1434C11.8461 23.1434 11.2236 23.1899 10.6117 23.2811V12.8807L27.4339 22.1179V40.5091L24.5141 38.9058C24.8016 37.8475 24.9503 36.7438 24.9503 35.6173C24.9503 32.2854 23.6528 29.1529 21.2969 26.7971ZM38.8645 21.1394L36.7335 22.3124V18.0376L38.8645 16.8676V21.1394Z" fill="#731B55"/>
<path id="Vector_2" d="M47.062 20.6191C46.8136 20.62 46.5754 20.7187 46.3992 20.8938C46.224 21.07 46.1253 21.3082 46.1245 21.5566C46.1254 21.805 46.224 22.0431 46.3992 22.2192C46.5736 22.3938 46.8155 22.4939 47.062 22.4939C47.3085 22.4939 47.5504 22.3938 47.7248 22.2192C47.9 22.0431 47.9987 21.805 47.9995 21.5566C47.9995 21.3099 47.8992 21.0682 47.7248 20.8938C47.5486 20.7187 47.3105 20.62 47.062 20.6191ZM9.3236 36.5545C9.4467 36.5546 9.56862 36.5305 9.68236 36.4834C9.7961 36.4363 9.89943 36.3673 9.98641 36.2802C10.3527 35.914 10.3527 35.3204 9.98641 34.9542L9.33719 34.3045H14.8779C16.2219 34.3045 17.3154 35.398 17.3154 36.742C17.3154 38.086 16.2219 39.1795 14.8779 39.1795H11.5948C11.077 39.1795 10.6573 39.5992 10.6573 40.117C10.6573 40.6345 11.077 41.0541 11.5948 41.0541H14.8779C17.2557 41.0541 19.1904 39.1198 19.1904 36.742C19.1904 34.3642 17.2557 32.4299 14.8779 32.4299H9.33719L9.98641 31.7802C10.3527 31.414 10.3527 30.8204 9.98641 30.4542C9.6206 30.0883 9.02698 30.0883 8.66079 30.4542L6.41079 32.7042C6.04488 33.0704 6.04488 33.664 6.41079 34.0302L8.66079 36.2798C8.74772 36.367 8.85103 36.4361 8.96478 36.4833C9.07853 36.5304 9.20047 36.5546 9.3236 36.5545ZM4.31894 44.7137C4.18241 44.7139 4.0475 44.6841 3.92375 44.6264C3.79999 44.5688 3.69039 44.4846 3.60269 44.38L3.60082 44.3778C3.26754 43.9816 3.31882 43.3905 3.7151 43.0573C4.11129 42.7237 4.70276 42.775 5.03604 43.1712C5.36885 43.5677 5.31869 44.16 4.92251 44.4932C4.75365 44.6357 4.53984 44.7137 4.31894 44.7136V44.7137Z" fill="#731B55"/>
</g>
</g>
<defs>
<clipPath id="clip0_1741_59558">
<rect width="48" height="48" fill="white"/>
</clipPath>
</defs>
</svg>
