<svg width="48" height="48" viewBox="0 0 48 48" fill="none" xmlns="http://www.w3.org/2000/svg">
<g clip-path="url(#clip0_1741_59553)">
<path d="M24.0003 48.0002C23.9031 48.0001 23.8064 47.986 23.7133 47.9582C18.4042 46.5091 13.6175 43.5782 9.91325 39.5082C-0.308749 28.1642 2.07525 12.6942 2.65625 9.70819C2.68881 9.54174 2.76316 9.38631 2.87232 9.25651C2.98148 9.12671 3.12185 9.0268 3.28025 8.96619C10.1511 6.33809 16.8954 3.39054 23.4913 0.133187C23.6396 0.0493944 23.8064 0.00370666 23.9767 0.000216226C24.1471 -0.00327421 24.3156 0.0355416 24.4673 0.113187C28.143 1.92993 31.8659 3.64953 35.6323 5.27019C38.5733 6.54019 41.6323 7.78319 44.7203 8.97019C44.8787 9.0308 45.019 9.13071 45.1282 9.26051C45.2374 9.39031 45.3117 9.54574 45.3443 9.71219C45.9253 12.6982 48.3093 28.1682 38.0843 39.5122C34.3901 43.5713 29.619 46.4976 24.3263 47.9502C24.2211 47.9848 24.1109 48.0017 24.0003 48.0002ZM4.52125 10.6312C3.97325 13.9132 2.27725 28.0472 11.4003 38.1682C14.7901 41.8913 19.1549 44.5906 24.0003 45.9602C28.8456 44.5906 33.2104 41.8913 36.6003 38.1682C45.7223 28.0472 44.0263 13.9132 43.4783 10.6312C40.5764 9.51421 37.6971 8.33931 34.8423 7.10719C31.1865 5.53435 27.5713 3.86881 24.0003 2.11219C20.4282 3.86843 16.8131 5.53561 13.1583 7.11219C10.3022 8.34067 7.42263 9.51389 4.52125 10.6312Z" fill="#731B55"/>
<path d="M24 34C21.3478 34 18.8043 32.9464 16.9289 31.0711C15.0536 29.1957 14 26.6522 14 24C14 21.3478 15.0536 18.8043 16.9289 16.9289C18.8043 15.0536 21.3478 14 24 14C24.2652 14 24.5196 14.1054 24.7071 14.2929C24.8946 14.4804 25 14.7348 25 15C25 15.2652 24.8946 15.5196 24.7071 15.7071C24.5196 15.8946 24.2652 16 24 16C22.4177 16 20.871 16.4692 19.5554 17.3482C18.2398 18.2273 17.2145 19.4767 16.609 20.9385C16.0035 22.4003 15.845 24.0089 16.1537 25.5607C16.4624 27.1126 17.2243 28.538 18.3431 29.6569C19.462 30.7757 20.8874 31.5376 22.4393 31.8463C23.9911 32.155 25.5997 31.9965 27.0615 31.391C28.5233 30.7855 29.7727 29.7602 30.6518 28.4446C31.5308 27.129 32 25.5823 32 24C32 23.7348 32.1054 23.4804 32.2929 23.2929C32.4804 23.1054 32.7348 23 33 23C33.2652 23 33.5196 23.1054 33.7071 23.2929C33.8946 23.4804 34 23.7348 34 24C33.9971 26.6513 32.9426 29.1931 31.0679 31.0679C29.1931 32.9426 26.6513 33.9971 24 34Z" fill="#731B55"/>
<path d="M25.001 27.0003C24.7358 27.0002 24.4815 26.8948 24.294 26.7073L20.294 22.7073C20.1283 22.5166 20.0409 22.2702 20.0494 22.0176C20.0579 21.7651 20.1617 21.5251 20.34 21.346C20.5182 21.1669 20.7576 21.0619 21.0101 21.0521C21.2626 21.0423 21.5095 21.1285 21.701 21.2933L24.911 24.5033L32.211 15.3753C32.2931 15.2727 32.3946 15.1873 32.5097 15.124C32.6247 15.0606 32.7512 15.0206 32.8817 15.0061C33.0123 14.9916 33.1444 15.003 33.2706 15.0396C33.3967 15.0761 33.5145 15.1372 33.617 15.2193C33.7196 15.3014 33.805 15.4028 33.8683 15.5179C33.9317 15.633 33.9717 15.7594 33.9862 15.89C34.0007 16.0205 33.9893 16.1527 33.9528 16.2788C33.9162 16.405 33.8551 16.5227 33.773 16.6253L25.773 26.6253C25.6852 26.7349 25.5752 26.8248 25.4503 26.889C25.3253 26.9533 25.1883 26.9905 25.048 26.9983L25.001 27.0003Z" fill="#731B55"/>
</g>
<defs>
<clipPath id="clip0_1741_59553">
<rect width="48" height="48" fill="white"/>
</clipPath>
</defs>
</svg>
