<svg width="48" height="48" viewBox="0 0 48 48" fill="none" xmlns="http://www.w3.org/2000/svg">
<g id="Frame">
<g id="Group">
<path id="Vector" d="M9.18583 30.9278L22.6423 34.908C22.7833 34.9285 22.9266 34.9285 23.0676 34.908L36.5256 30.9278C36.6808 30.882 36.8171 30.7872 36.914 30.6576C37.0109 30.5279 37.0633 30.3704 37.0633 30.2085V16.6883C37.0591 16.5335 37.0088 16.3835 36.9189 16.2573C36.829 16.1312 36.7035 16.0348 36.5586 15.9803L23.1006 11.3093C22.9416 11.2537 22.7684 11.2537 22.6093 11.3093L9.15283 15.9795C9.01253 16.0313 8.89038 16.1229 8.80138 16.243C8.71239 16.3632 8.66041 16.5067 8.65183 16.656C8.61433 16.68 8.67133 30.1793 8.64808 30.2085C8.64826 30.3703 8.70072 30.5276 8.79763 30.6571C8.89454 30.7866 9.03071 30.882 9.18583 30.9278ZM35.5626 29.6483L23.6053 33.1845V21.5325L35.5626 17.715V29.6483ZM22.8553 12.8123L33.9403 16.6583L22.8553 20.1983L11.7703 16.6583L22.8553 12.8123ZM10.1481 17.715L22.1053 21.5325V33.1845L10.1481 29.6483V17.715Z" fill="#731B55"/>
<path id="Vector_2" d="M18.9091 21.3011L13.7919 19.7014C13.6798 19.6654 13.5608 19.6567 13.4447 19.676C13.3286 19.6953 13.2188 19.7421 13.1244 19.8124C13.0295 19.882 12.9524 19.9731 12.8992 20.0781C12.846 20.1831 12.8184 20.2992 12.8184 20.4169V23.1964C12.8183 23.3566 12.8697 23.5126 12.9648 23.6415C13.06 23.7704 13.194 23.8655 13.3471 23.9126L18.4644 25.4921C18.5765 25.5256 18.6949 25.5325 18.8102 25.5124C18.9254 25.4923 19.0345 25.4457 19.1287 25.3763C19.2228 25.3068 19.2996 25.2164 19.3529 25.1122C19.4061 25.008 19.4345 24.8929 19.4356 24.7759V22.0166C19.4356 21.8568 19.3846 21.7011 19.2898 21.5724C19.1951 21.4437 19.0617 21.3486 18.9091 21.3011ZM17.9356 23.7596L14.3184 22.6421V21.4369L17.9356 22.5686V23.7596ZM30.3256 30.4736C30.4036 30.4736 34.2129 29.2286 34.2129 29.2286C34.4017 29.1661 34.558 29.0312 34.6474 28.8535C34.7368 28.6758 34.7519 28.4698 34.6895 28.281C34.627 28.0921 34.4921 27.9358 34.3144 27.8464C34.1367 27.757 33.9307 27.7419 33.7419 27.8044L30.0901 29.0119C29.9238 29.0704 29.7832 29.1855 29.6931 29.337C29.603 29.4886 29.569 29.667 29.597 29.8411C29.6251 30.0152 29.7134 30.174 29.8466 30.2896C29.9797 30.4052 30.1493 30.4703 30.3256 30.4736ZM31.1199 27.9559C31.0974 28.0451 34.1439 26.9809 34.2129 26.9734C34.3094 26.945 34.3992 26.8975 34.477 26.8338C34.5548 26.77 34.619 26.6912 34.6657 26.6021C34.7124 26.513 34.7408 26.4154 34.749 26.3152C34.7573 26.2149 34.7452 26.114 34.7137 26.0185C34.6821 25.923 34.6317 25.8348 34.5653 25.7591C34.499 25.6835 34.4181 25.622 34.3275 25.5783C34.2369 25.5346 34.1384 25.5095 34.0379 25.5046C33.9375 25.4997 33.837 25.5151 33.7426 25.5499L30.8851 26.4949C30.7193 26.5537 30.5794 26.6688 30.4896 26.8201C30.3999 26.9714 30.366 27.1494 30.394 27.3231C30.4219 27.4968 30.5098 27.6553 30.6424 27.7709C30.775 27.8865 30.944 27.9519 31.1199 27.9559Z" fill="#731B55"/>
<path id="Vector_3" d="M40.5438 34.9278H37.6698C37.4709 34.9278 37.2801 35.0068 37.1395 35.1475C36.9988 35.2881 36.9198 35.4789 36.9198 35.6778C36.9198 35.8767 36.9988 36.0675 37.1395 36.2081C37.2801 36.3488 37.4709 36.4278 37.6698 36.4278H39.0948C28.0541 50.5533 4.41181 42.2141 4.50031 23.9996C4.49917 20.6326 5.36993 17.3226 7.02781 14.3921C7.0772 14.3063 7.10915 14.2117 7.1218 14.1135C7.13445 14.0154 7.12756 13.9157 7.10152 13.8203C7.07548 13.7248 7.03082 13.6355 6.9701 13.5574C6.90937 13.4792 6.83379 13.4139 6.74771 13.3651C6.66163 13.3164 6.56675 13.2851 6.46853 13.2731C6.37031 13.2612 6.2707 13.2688 6.17543 13.2955C6.08017 13.3222 5.99113 13.3675 5.91345 13.4288C5.83576 13.4901 5.77098 13.5661 5.72281 13.6526C3.93693 16.8086 2.99898 20.3733 3.00031 23.9996C2.89906 43.2626 27.5193 52.3766 39.7938 37.9571C39.7301 38.4821 39.9416 39.0243 40.5438 39.0333C40.7427 39.0333 40.9335 38.9543 41.0741 38.8136C41.2148 38.673 41.2938 38.4822 41.2938 38.2833C41.2976 38.2256 41.3186 35.3996 41.2488 35.4543C41.1988 35.3052 41.1046 35.175 40.9786 35.0809C40.8526 34.9868 40.7009 34.9334 40.5438 34.9278ZM24.0003 2.99956C18.8921 2.90474 13.9394 4.75767 10.1478 8.18206V7.37206C10.1478 7.17315 10.0688 6.98238 9.92814 6.84173C9.78749 6.70108 9.59672 6.62206 9.39781 6.62206C9.1989 6.62206 9.00813 6.70108 8.86748 6.84173C8.72683 6.98238 8.64781 7.17315 8.64781 7.37206V9.97756C8.65411 10.0407 8.66668 10.103 8.68531 10.1636C8.72633 10.3224 8.81815 10.4635 8.94678 10.5653C9.07541 10.6671 9.2338 10.7241 9.39781 10.7276H12.2718C12.4707 10.7276 12.6615 10.6485 12.8021 10.5079C12.9428 10.3672 13.0218 10.1765 13.0218 9.97756C13.0218 9.77865 12.9428 9.58788 12.8021 9.44723C12.6615 9.30658 12.4707 9.22756 12.2718 9.22756H11.2256C26.2196 -3.65744 48.8081 11.4956 42.4241 30.4053C42.363 30.5921 42.3777 30.7954 42.465 30.9715C42.5523 31.1476 42.7052 31.2823 42.8909 31.3468C43.0766 31.4113 43.2801 31.4003 43.4578 31.3163C43.6354 31.2322 43.7729 31.0818 43.8408 30.8973C48.6896 17.6171 38.1783 2.74981 24.0003 2.99956Z" fill="#731B55"/>
</g>
</g>
</svg>
