<svg width="48" height="48" viewBox="0 0 48 48" fill="none" xmlns="http://www.w3.org/2000/svg">
<g id="Frame" clip-path="url(#clip0_1741_59579)">
<g id="Group">
<path id="Vector" d="M10.0616 15.1837L8.27284 16.9724L7.27909 15.9787C7.20941 15.909 7.12668 15.8537 7.03564 15.816C6.94459 15.7783 6.84701 15.7589 6.74846 15.7589C6.64992 15.7589 6.55234 15.7783 6.46129 15.816C6.37025 15.8537 6.28752 15.909 6.21784 15.9787C6.14816 16.0483 6.09288 16.1311 6.05517 16.2221C6.01746 16.3132 5.99805 16.4107 5.99805 16.5093C5.99805 16.6078 6.01746 16.7054 6.05517 16.7965C6.09288 16.8875 6.14816 16.9702 6.21784 17.0399L7.74034 18.5624C7.80999 18.6321 7.89271 18.6875 7.98376 18.7252C8.07481 18.7629 8.1724 18.7824 8.27096 18.7824C8.36953 18.7824 8.46712 18.7629 8.55817 18.7252C8.64922 18.6875 8.73193 18.6321 8.80159 18.5624L11.1191 16.2449C11.1888 16.1752 11.244 16.0925 11.2818 16.0015C11.3195 15.9104 11.3389 15.8128 11.3389 15.7143C11.3389 15.6157 11.3195 15.5182 11.2818 15.4271C11.244 15.3361 11.1888 15.2533 11.1191 15.1837C11.0494 15.114 10.9667 15.0587 10.8756 15.021C10.7846 14.9833 10.687 14.9639 10.5885 14.9639C10.4899 14.9639 10.3923 14.9833 10.3013 15.021C10.2102 15.0587 10.1275 15.114 10.0578 15.1837H10.0616ZM23.2503 16.4999H14.2503C14.0514 16.4999 13.8607 16.5789 13.72 16.7196C13.5794 16.8602 13.5003 17.051 13.5003 17.2499C13.5003 17.4488 13.5794 17.6396 13.72 17.7802C13.8607 17.9209 14.0514 17.9999 14.2503 17.9999H23.2503C23.4493 17.9999 23.64 17.9209 23.7807 17.7802C23.9213 17.6396 24.0003 17.4488 24.0003 17.2499C24.0003 17.051 23.9213 16.8602 23.7807 16.7196C23.64 16.5789 23.4493 16.4999 23.2503 16.4999ZM23.2503 23.2499H14.2503C14.0514 23.2499 13.8607 23.3289 13.72 23.4696C13.5794 23.6102 13.5003 23.801 13.5003 23.9999C13.5003 24.1988 13.5794 24.3896 13.72 24.5302C13.8607 24.6709 14.0514 24.7499 14.2503 24.7499H23.2503C23.4493 24.7499 23.64 24.6709 23.7807 24.5302C23.9213 24.3896 24.0003 24.1988 24.0003 23.9999C24.0003 23.801 23.9213 23.6102 23.7807 23.4696C23.64 23.3289 23.4493 23.2499 23.2503 23.2499ZM23.2503 29.9999H14.2503C14.0514 29.9999 13.8607 30.0789 13.72 30.2196C13.5794 30.3602 13.5003 30.551 13.5003 30.7499C13.5003 30.9488 13.5794 31.1396 13.72 31.2802C13.8607 31.4209 14.0514 31.4999 14.2503 31.4999H23.2503C23.4493 31.4999 23.64 31.4209 23.7807 31.2802C23.9213 31.1396 24.0003 30.9488 24.0003 30.7499C24.0003 30.551 23.9213 30.3602 23.7807 30.2196C23.64 30.0789 23.4493 29.9999 23.2503 29.9999ZM10.0616 21.9337L8.27284 23.7224L7.27909 22.7287C7.20941 22.659 7.12668 22.6037 7.03564 22.566C6.94459 22.5283 6.84701 22.5089 6.74846 22.5089C6.64992 22.5089 6.55234 22.5283 6.46129 22.566C6.37025 22.6037 6.28752 22.659 6.21784 22.7287C6.14816 22.7983 6.09288 22.8811 6.05517 22.9721C6.01746 23.0632 5.99805 23.1607 5.99805 23.2593C5.99805 23.3578 6.01746 23.4554 6.05517 23.5465C6.09288 23.6375 6.14816 23.7202 6.21784 23.7899L7.74034 25.3124C7.80999 25.3821 7.89271 25.4375 7.98376 25.4752C8.07481 25.5129 8.1724 25.5324 8.27096 25.5324C8.36953 25.5324 8.46712 25.5129 8.55817 25.4752C8.64922 25.4375 8.73193 25.3821 8.80159 25.3124L11.1191 22.9949C11.2598 22.8542 11.3389 22.6633 11.3389 22.4643C11.3389 22.2653 11.2598 22.0744 11.1191 21.9337C10.9784 21.7929 10.7875 21.7139 10.5885 21.7139C10.3894 21.7139 10.1986 21.7929 10.0578 21.9337H10.0616ZM10.0616 28.6837L8.27284 30.4724L7.27909 29.4787C7.13836 29.3379 6.94749 29.2589 6.74846 29.2589C6.54944 29.2589 6.35857 29.3379 6.21784 29.4787C6.07711 29.6194 5.99805 29.8103 5.99805 30.0093C5.99805 30.2083 6.07711 30.3992 6.21784 30.5399L7.74034 32.0624C7.80999 32.1321 7.89271 32.1875 7.98376 32.2252C8.07481 32.2629 8.1724 32.2824 8.27096 32.2824C8.36953 32.2824 8.46712 32.2629 8.55817 32.2252C8.64922 32.1875 8.73193 32.1321 8.80159 32.0624L11.1191 29.7449C11.2598 29.6042 11.3389 29.4133 11.3389 29.2143C11.3389 29.0153 11.2598 28.8244 11.1191 28.6837C10.9784 28.5429 10.7875 28.4639 10.5885 28.4639C10.3894 28.4639 10.1986 28.5429 10.0578 28.6837H10.0616ZM34.7966 18.7499C34.1217 18.7499 33.4619 18.95 32.9007 19.325C32.3395 19.7 31.9021 20.2329 31.6439 20.8565C31.3856 21.4801 31.318 22.1662 31.4497 22.8282C31.5813 23.4901 31.9063 24.0982 32.3836 24.5754C32.8608 25.0527 33.4689 25.3777 34.1308 25.5093C34.7928 25.641 35.4789 25.5734 36.1025 25.3151C36.726 25.0569 37.259 24.6195 37.634 24.0583C38.0089 23.4971 38.2091 22.8373 38.2091 22.1624C38.2081 21.2577 37.8482 20.3903 37.2085 19.7505C36.5687 19.1108 35.7013 18.7509 34.7966 18.7499ZM34.7966 24.0749C34.4183 24.0749 34.0486 23.9627 33.7341 23.7526C33.4195 23.5424 33.1744 23.2438 33.0297 22.8943C32.8849 22.5448 32.847 22.1603 32.9208 21.7893C32.9946 21.4183 33.1768 21.0775 33.4442 20.8101C33.7117 20.5426 34.0525 20.3605 34.4235 20.2867C34.7945 20.2129 35.179 20.2507 35.5285 20.3955C35.8779 20.5402 36.1766 20.7854 36.3868 21.0999C36.5969 21.4144 36.7091 21.7842 36.7091 22.1624C36.7051 22.667 36.5019 23.1496 36.1437 23.5051C35.7854 23.8605 35.3012 24.0599 34.7966 24.0599V24.0749Z" fill="#731B55"/>
<path id="Vector_2" d="M41.2503 19.7966L40.8003 19.4704C40.7567 19.4384 40.7221 19.3957 40.6997 19.3464C40.6774 19.2972 40.6681 19.243 40.6728 19.1891L40.7216 18.6341C40.7431 18.3906 40.7151 18.1452 40.6394 17.9127C40.5638 17.6802 40.4419 17.4654 40.2811 17.2812C40.1204 17.097 39.9241 16.9471 39.704 16.8407C39.4839 16.7342 39.2445 16.6733 39.0003 16.6616L38.4453 16.6316C38.3907 16.6287 38.3377 16.6116 38.2917 16.582C38.2457 16.5524 38.2081 16.5114 38.1828 16.4629L37.9241 15.9716C37.8122 15.7556 37.6581 15.5642 37.4709 15.4089C37.2837 15.2536 37.0672 15.1375 36.8342 15.0676C36.6012 14.9976 36.3565 14.9752 36.1147 15.0017C35.8729 15.0281 35.6389 15.1029 35.4266 15.2216L34.9428 15.4954C34.8953 15.522 34.8417 15.5359 34.7872 15.5359C34.7327 15.5359 34.6791 15.522 34.6316 15.4954L34.1478 15.2216C33.9353 15.1023 33.701 15.027 33.4588 15.0003C33.2165 14.9735 32.9714 14.9957 32.738 15.0657C32.5046 15.1357 32.2876 15.252 32.1001 15.4076C31.9126 15.5633 31.7584 15.7551 31.6466 15.9716L31.3878 16.4666C31.3628 16.5146 31.3259 16.5553 31.2805 16.5849C31.2352 16.6144 31.1831 16.6318 31.1291 16.6354L30.5741 16.6654C30.3325 16.68 30.0963 16.7428 29.8793 16.8501C29.6624 16.9574 29.4691 17.1069 29.3108 17.29C29.1525 17.4731 29.0324 17.686 28.9576 17.9162C28.8829 18.1464 28.8549 18.3892 28.8753 18.6304L28.9241 19.1854C28.9287 19.2392 28.9195 19.2934 28.8971 19.3427C28.8748 19.3919 28.8402 19.4346 28.7966 19.4666L28.3466 19.7929C28.1499 19.9352 27.9838 20.1155 27.8581 20.3231C27.7324 20.5308 27.6496 20.7615 27.6146 21.0017C27.5797 21.2419 27.5932 21.4867 27.6545 21.7216C27.7159 21.9565 27.8237 22.1766 27.9716 22.3691L28.3128 22.8116C28.3463 22.8546 28.368 22.9055 28.3759 22.9594C28.3838 23.0133 28.3775 23.0683 28.3578 23.1191L28.1553 23.6254C28.0649 23.8534 28.0216 24.0973 28.028 24.3425C28.0345 24.5877 28.0906 24.829 28.1929 25.052C28.2953 25.2749 28.4417 25.4747 28.6235 25.6394C28.8052 25.8042 29.0184 25.9303 29.2503 26.0104L29.7753 26.1979C29.8262 26.216 29.8715 26.2469 29.9069 26.2876C29.9424 26.3284 29.9668 26.3775 29.9778 26.4304L30.0378 26.7341L28.7441 30.9079C28.7036 31.0386 28.6996 31.1778 28.7326 31.3106C28.7655 31.4434 28.8342 31.5647 28.9312 31.6612C29.0281 31.7578 29.1496 31.826 29.2826 31.8585C29.4155 31.8909 29.5548 31.8864 29.6853 31.8454L31.2978 31.3391L32.3028 32.7004C32.3727 32.7947 32.4637 32.8713 32.5685 32.9241C32.6734 32.9769 32.7892 33.0043 32.9066 33.0041H33.0341C33.1708 32.9802 33.2983 32.9189 33.4022 32.8268C33.5062 32.7348 33.5825 32.6157 33.6228 32.4829L34.5978 29.2916C34.6624 29.3014 34.7275 29.3076 34.7928 29.3104H34.9241L35.9666 32.5091C36.0123 32.6379 36.0924 32.7517 36.1981 32.8383C36.3039 32.9249 36.4313 32.9809 36.5666 33.0004H36.6866C36.8039 33.0005 36.9197 32.9731 37.0246 32.9203C37.1294 32.8676 37.2205 32.791 37.2903 32.6966L38.2953 31.3354L39.9078 31.8416C40.0393 31.8829 40.1796 31.8872 40.3134 31.8539C40.4471 31.8207 40.5691 31.7512 40.666 31.6532C40.7628 31.5552 40.8308 31.4324 40.8625 31.2982C40.8941 31.1641 40.8882 31.0238 40.8453 30.8929L39.5366 26.8804L39.6266 26.4304C39.6376 26.3775 39.662 26.3284 39.6974 26.2876C39.7329 26.2469 39.7782 26.216 39.8291 26.1979L40.3541 26.0104C40.5849 25.9292 40.797 25.8022 40.9775 25.637C41.158 25.4718 41.3033 25.2717 41.4045 25.049C41.5057 24.8262 41.5609 24.5852 41.5666 24.3406C41.5723 24.0959 41.5285 23.8526 41.4378 23.6254L41.2503 23.1229C41.2306 23.0721 41.2244 23.0171 41.2322 22.9632C41.2401 22.9093 41.2619 22.8584 41.2953 22.8154L41.6366 22.3729C41.7851 22.1803 41.8933 21.9598 41.955 21.7246C42.0166 21.4893 42.0304 21.2441 41.9954 21.0035C41.9604 20.7628 41.8774 20.5316 41.7514 20.3237C41.6253 20.1157 41.4587 19.9352 41.2616 19.7929L41.2503 19.7966ZM32.6253 30.6079L32.1903 30.0004C32.0975 29.8746 31.9678 29.781 31.8192 29.7326C31.6706 29.6842 31.5106 29.6834 31.3616 29.7304L30.6116 29.9704L31.1253 28.2716C31.4784 28.4295 31.873 28.469 32.2503 28.3841L32.7941 28.2566C32.8467 28.2444 32.9016 28.2459 32.9535 28.261C33.0054 28.2761 33.0525 28.3043 33.0903 28.3429L33.2516 28.5079L32.6253 30.6079ZM38.2503 29.7454C38.1013 29.6984 37.9413 29.6992 37.7927 29.7476C37.6441 29.796 37.5144 29.8896 37.4216 30.0154L36.9641 30.6341L36.2891 28.5679L36.5028 28.3466C36.5408 28.3083 36.588 28.2803 36.6398 28.2652C36.6916 28.2502 36.7464 28.2485 36.7991 28.2604L37.3428 28.3879C37.7079 28.4741 38.0908 28.444 38.4378 28.3016L38.9853 29.9779L38.2503 29.7454ZM40.4516 21.4579L40.1103 21.9004C39.9196 22.1488 39.796 22.442 39.7513 22.752C39.7067 23.062 39.7425 23.3782 39.8553 23.6704L40.0578 24.1879C40.0727 24.227 40.0797 24.2687 40.0784 24.3105C40.077 24.3524 40.0673 24.3935 40.0499 24.4316C40.0324 24.4697 40.0075 24.5038 39.9767 24.5322C39.9459 24.5605 39.9097 24.5824 39.8703 24.5966L39.3453 24.7841C39.0508 24.8898 38.7885 25.0695 38.5836 25.3059C38.3786 25.5424 38.238 25.8276 38.1753 26.1341L38.0666 26.6816C38.0581 26.7223 38.0417 26.7609 38.0182 26.7953C37.9947 26.8296 37.9647 26.8589 37.9298 26.8816C37.895 26.9043 37.856 26.9198 37.8151 26.9273C37.7742 26.9348 37.7322 26.9342 37.6916 26.9254L37.1253 26.7979C36.8205 26.7275 36.5028 26.7368 36.2027 26.8248C35.9025 26.9128 35.6301 27.0766 35.4116 27.3004L35.0366 27.7016C35.0072 27.7315 34.9722 27.7553 34.9336 27.7716C34.895 27.7878 34.8535 27.7962 34.8116 27.7962C34.7697 27.7962 34.7282 27.7878 34.6895 27.7716C34.6509 27.7553 34.6159 27.7315 34.5866 27.7016L34.2116 27.3004C34.0418 27.126 33.8389 26.9874 33.6148 26.8927C33.3907 26.7981 33.1499 26.7492 32.9066 26.7491C32.7689 26.7496 32.6317 26.766 32.4978 26.7979L31.9541 26.9254C31.9134 26.9342 31.8714 26.9348 31.8305 26.9273C31.7897 26.9198 31.7507 26.9043 31.7158 26.8816C31.6809 26.8589 31.6509 26.8296 31.6274 26.7953C31.604 26.7609 31.5875 26.7223 31.5791 26.6816L31.4703 26.1341C31.4076 25.8276 31.267 25.5424 31.0621 25.3059C30.8571 25.0695 30.5948 24.8898 30.3003 24.7841L29.7753 24.5966C29.7359 24.5824 29.6997 24.5605 29.6689 24.5322C29.6381 24.5038 29.6132 24.4697 29.5958 24.4316C29.5783 24.3935 29.5686 24.3524 29.5672 24.3105C29.5659 24.2687 29.5729 24.227 29.5878 24.1879L29.7903 23.6666C29.9035 23.3745 29.9395 23.0582 29.8948 22.7482C29.8502 22.4381 29.7263 22.1449 29.5353 21.8966L29.1941 21.4541C29.1654 21.4228 29.1434 21.3859 29.1293 21.3458C29.1153 21.3057 29.1095 21.2632 29.1123 21.2208C29.1151 21.1784 29.1264 21.1371 29.1456 21.0992C29.1648 21.0613 29.1915 21.0277 29.2241 21.0004L29.6741 20.6741C29.9284 20.4902 30.131 20.2438 30.2624 19.9587C30.3938 19.6736 30.4494 19.3595 30.4241 19.0466L30.3753 18.4991C30.3717 18.4571 30.3766 18.4149 30.3897 18.3748C30.4027 18.3347 30.4237 18.2977 30.4513 18.2659C30.4789 18.234 30.5127 18.2081 30.5505 18.1895C30.5883 18.171 30.6295 18.1602 30.6716 18.1579L31.2303 18.1279C31.5423 18.1088 31.8442 18.0097 32.1069 17.8403C32.3695 17.6709 32.5842 17.4367 32.7303 17.1604L33.0003 16.6691C33.0199 16.6316 33.0469 16.5985 33.0796 16.5717C33.1124 16.5449 33.1501 16.5249 33.1907 16.513C33.2313 16.5011 33.2739 16.4975 33.3159 16.5024C33.358 16.5073 33.3986 16.5207 33.4353 16.5416L33.9191 16.8154C34.1921 16.9691 34.5001 17.0499 34.8134 17.0499C35.1268 17.0499 35.4348 16.9691 35.7078 16.8154L36.1916 16.5416C36.2282 16.5213 36.2684 16.5084 36.3101 16.5038C36.3517 16.4992 36.3938 16.503 36.4339 16.5148C36.4741 16.5267 36.5115 16.5465 36.5439 16.573C36.5763 16.5994 36.6032 16.6321 36.6228 16.6691L36.8816 17.1641C37.0276 17.4405 37.2423 17.6746 37.505 17.8441C37.7677 18.0135 38.0695 18.1125 38.3816 18.1316L38.9366 18.1616C38.9786 18.164 39.0198 18.1747 39.0576 18.1933C39.0955 18.2118 39.1292 18.2378 39.1568 18.2696C39.1844 18.3014 39.2054 18.3385 39.2185 18.3785C39.2315 18.4186 39.2364 18.4609 39.2328 18.5029L39.1841 19.0579C39.1583 19.3708 39.2138 19.685 39.3452 19.9702C39.4766 20.2553 39.6794 20.5017 39.9341 20.6854L40.3841 21.0116C40.418 21.0364 40.4466 21.0677 40.4682 21.1037C40.4898 21.1398 40.504 21.1797 40.5099 21.2213C40.5159 21.2629 40.5134 21.3052 40.5028 21.3459C40.4921 21.3865 40.4734 21.4246 40.4478 21.4579H40.4516Z" fill="#731B55"/>
<path id="Vector_3" d="M45.75 3H2.25C1.65478 3.0049 1.08532 3.24353 0.664425 3.66442C0.243525 4.08532 0.00489919 4.65478 0 5.25L0 36.75C0.00489919 37.3452 0.243525 37.9147 0.664425 38.3356C1.08532 38.7565 1.65478 38.9951 2.25 39H23.25V43.5H11.625C11.4261 43.5 11.2353 43.579 11.0947 43.7197C10.954 43.8603 10.875 44.0511 10.875 44.25C10.875 44.4489 10.954 44.6397 11.0947 44.7803C11.2353 44.921 11.4261 45 11.625 45H36.375C36.5739 45 36.7647 44.921 36.9053 44.7803C37.046 44.6397 37.125 44.4489 37.125 44.25C37.125 44.0511 37.046 43.8603 36.9053 43.7197C36.7647 43.579 36.5739 43.5 36.375 43.5H24.75V39H45.75C46.3452 38.9951 46.9147 38.7565 47.3356 38.3356C47.7565 37.9147 47.9951 37.3452 48 36.75V5.25C47.9951 4.65478 47.7565 4.08532 47.3356 3.66442C46.9147 3.24353 46.3452 3.0049 45.75 3ZM2.25 4.5H45.75C45.9489 4.5 46.1397 4.57902 46.2803 4.71967C46.421 4.86032 46.5 5.05109 46.5 5.25V9H1.5V5.25C1.5 5.05109 1.57902 4.86032 1.71967 4.71967C1.86032 4.57902 2.05109 4.5 2.25 4.5ZM45.75 37.5H2.25C2.05109 37.5 1.86032 37.421 1.71967 37.2803C1.57902 37.1397 1.5 36.9489 1.5 36.75V10.5H46.5V36.75C46.5 36.9489 46.421 37.1397 46.2803 37.2803C46.1397 37.421 45.9489 37.5 45.75 37.5Z" fill="#731B55"/>
<path id="Vector_4" d="M43.5 7.5C43.9142 7.5 44.25 7.16421 44.25 6.75C44.25 6.33579 43.9142 6 43.5 6C43.0858 6 42.75 6.33579 42.75 6.75C42.75 7.16421 43.0858 7.5 43.5 7.5Z" fill="#731B55"/>
<path id="Vector_5" d="M40.5 7.5C40.9142 7.5 41.25 7.16421 41.25 6.75C41.25 6.33579 40.9142 6 40.5 6C40.0858 6 39.75 6.33579 39.75 6.75C39.75 7.16421 40.0858 7.5 40.5 7.5Z" fill="#731B55"/>
<path id="Vector_6" d="M37.5 7.5C37.9142 7.5 38.25 7.16421 38.25 6.75C38.25 6.33579 37.9142 6 37.5 6C37.0858 6 36.75 6.33579 36.75 6.75C36.75 7.16421 37.0858 7.5 37.5 7.5Z" fill="#731B55"/>
</g>
</g>
<defs>
<clipPath id="clip0_1741_59579">
<rect width="48" height="48" fill="white"/>
</clipPath>
</defs>
</svg>
