<svg width="48" height="48" viewBox="0 0 48 48" fill="none" xmlns="http://www.w3.org/2000/svg">
<g id="&#208;&#184;&#208;&#186;&#208;&#190;&#208;&#189;&#208;&#186;&#208;&#184;/&#208;&#186;&#208;&#176;&#209;&#130;&#208;&#176;&#208;&#187;&#208;&#190;&#208;&#179;/&#208;&#189;&#208;&#190;&#208;&#178;&#209;&#139;&#208;&#185; &#208;&#179;&#208;&#190;&#208;&#180;" clip-path="url(#clip0_1786_5629)">
<g id="Group">
<path id="Vector" d="M26.6397 23.2784C27.0983 22.6962 27.3725 21.9649 27.3725 21.1708C27.3725 19.5574 26.2428 18.201 24.7258 17.835V5.77362C24.7257 5.55602 24.6392 5.34736 24.4853 5.19352C24.3314 5.03969 24.1227 4.95328 23.9051 4.95331C23.6875 4.95328 23.4788 5.03969 23.325 5.19352C23.1711 5.34736 23.0846 5.55602 23.0845 5.77362V17.835C21.5675 18.201 20.4378 19.5574 20.4378 21.1708C20.4378 21.9649 20.712 22.6962 21.1706 23.2784C15.9287 24.5025 12.0161 29.1652 12.0161 34.7145C12.0161 41.1936 17.3496 46.4647 23.9051 46.4647C30.4607 46.4647 35.7942 41.1936 35.7942 34.7145C35.7942 29.1653 31.8815 24.5026 26.6397 23.2784ZM22.0789 21.1708C22.0789 20.182 22.8982 19.3775 23.9051 19.3775C24.9121 19.3775 25.7314 20.182 25.7314 21.1708C25.7314 22.1598 24.9121 22.9643 23.9051 22.9643C22.8982 22.9643 22.0789 22.1599 22.0789 21.1708ZM32.865 39.6163C30.1473 40.5777 27.134 39.8894 25.1173 37.8242C24.2785 36.9654 23.4431 36.1034 22.6111 35.238C20.3765 32.9136 16.9706 31.9599 13.8488 32.7671C14.0435 31.7881 14.3845 30.8439 14.8602 29.9664C17.5844 28.9768 20.7085 29.6849 22.7166 31.7734C23.6131 32.7058 24.5249 33.6141 25.4521 34.5161C27.6748 36.6784 30.9268 37.5509 33.9347 36.7937C33.7236 37.7835 33.363 38.7353 32.865 39.6163ZM23.9051 44.8241C18.3151 44.8241 13.5614 40.165 13.6595 34.5377C16.3962 33.5767 19.4118 34.2778 21.4277 36.3747C22.2627 37.2432 23.1011 38.1084 23.9429 38.9702C25.8641 40.9378 28.6401 41.935 31.3747 41.6281C29.5039 43.5939 26.8476 44.8241 23.9051 44.8241ZM34.1478 35.0223C31.5184 35.9268 28.6027 35.292 26.5966 33.3403C25.6825 32.4511 24.7836 31.5557 23.8997 30.6365C22.6459 29.3324 21.0421 28.4456 19.2618 28.0719C18.2882 27.8672 17.2876 27.8245 16.3001 27.9455C18.1769 25.8955 20.891 24.605 23.905 24.605C29.5557 24.605 34.1529 29.1401 34.1529 34.7146C34.1528 34.8172 34.1511 34.9198 34.1478 35.0223Z" fill="#731B55"/>
<path id="Vector_2" d="M10.2832 34.2998L5.84049 36.7964L6.79085 30.8733C6.81094 30.7481 6.8017 30.6199 6.76386 30.4988C6.72603 30.3778 6.66063 30.2671 6.5728 30.1756L2.49762 25.9294L8.07988 25.0623C8.21356 25.0415 8.34003 24.988 8.44804 24.9066C8.55605 24.8251 8.64224 24.7182 8.69896 24.5954L11.1466 19.2939L12.3885 21.9837C12.4798 22.1812 12.6458 22.3344 12.8499 22.4096C13.0541 22.4848 13.2798 22.4759 13.4774 22.3847C13.5752 22.3396 13.6632 22.2756 13.7363 22.1965C13.8095 22.1174 13.8663 22.0246 13.9035 21.9235C13.9408 21.8224 13.9578 21.715 13.9535 21.6073C13.9492 21.4997 13.9238 21.3939 13.8786 21.2961L12.3382 17.9598C13.6456 17.4782 14.5799 16.2283 14.5799 14.7659C14.5799 13.1684 13.4653 11.825 11.9673 11.4591V5.70277C11.9672 5.48518 11.8807 5.27651 11.7268 5.12268C11.5729 4.96884 11.3642 4.88244 11.1466 4.88247C10.9291 4.88244 10.7204 4.96884 10.5665 5.12268C10.4126 5.27651 10.3261 5.48518 10.326 5.70277V11.4593C8.82798 11.8252 7.71342 13.1686 7.71342 14.7661C7.71342 16.2285 8.64757 17.4784 9.95506 17.96L7.39321 23.5088L0.6887 24.5502C0.0460329 24.65 -0.228634 25.4585 0.222546 25.9286L5.10573 31.0168L3.95096 38.2144C3.85116 38.8362 4.58398 39.3848 5.16337 39.0593L11.0876 35.73C11.1815 35.6772 11.2641 35.6064 11.3307 35.5217C11.3973 35.437 11.4465 35.3401 11.4756 35.2363C11.5047 35.1326 11.513 35.0242 11.5002 34.9172C11.4874 34.8102 11.4536 34.7068 11.4008 34.6129C11.1786 34.218 10.6783 34.078 10.2832 34.2998ZM9.35455 14.766C9.35455 13.7926 10.1584 13.0007 11.1466 13.0007C12.1349 13.0007 12.9388 13.7926 12.9388 14.766C12.9388 15.7393 12.1349 16.5311 11.1466 16.5311C10.1584 16.5311 9.35455 15.7393 9.35455 14.766ZM47.3045 24.5502L40.6001 23.5087L38.0382 17.9599C39.3456 17.4783 40.2799 16.2284 40.2799 14.766C40.2799 13.1685 39.1653 11.8251 37.6673 11.4592V5.73088C37.6673 5.29395 37.3374 4.91241 36.9012 4.88421C36.7891 4.87672 36.6767 4.89234 36.5709 4.93009C36.465 4.96783 36.3681 5.02691 36.2861 5.10365C36.204 5.18039 36.1386 5.27317 36.0939 5.37622C36.0491 5.47928 36.0261 5.59043 36.026 5.70277V11.4593C34.528 11.8252 33.4134 13.1686 33.4134 14.7661C33.4134 16.2285 34.3476 17.4784 35.6551 17.96L34.1087 21.3094C33.9205 21.7171 34.0708 22.2175 34.4729 22.4177C34.5712 22.4668 34.6784 22.4957 34.788 22.5026C34.8977 22.5094 35.0076 22.4943 35.1113 22.4579C35.215 22.4215 35.3103 22.3647 35.3916 22.2908C35.4729 22.2169 35.5386 22.1274 35.5847 22.0277L36.8468 19.2942L39.2944 24.5957C39.3512 24.7185 39.4374 24.8254 39.5454 24.9069C39.6534 24.9883 39.7798 25.0418 39.9135 25.0626L45.4958 25.9297L41.4206 30.1759C41.3327 30.2674 41.2673 30.378 41.2295 30.4991C41.1916 30.6202 41.1824 30.7484 41.2025 30.8736L42.1529 36.7968L37.8707 34.3903C37.7767 34.3374 37.6733 34.3036 37.5663 34.2908C37.4593 34.2779 37.3508 34.2862 37.2471 34.3153C37.1433 34.3444 37.0463 34.3936 36.9615 34.4602C36.8768 34.5268 36.806 34.6094 36.7532 34.7034C36.7004 34.7973 36.6666 34.9007 36.6538 35.0077C36.641 35.1146 36.6493 35.2231 36.6784 35.3268C36.7075 35.4305 36.7568 35.5275 36.8233 35.6122C36.8899 35.6969 36.9725 35.7676 37.0664 35.8204L42.8302 39.0595C43.4117 39.3863 44.1422 38.8352 44.0426 38.2146L42.8879 31.017L47.7711 25.9289C48.2302 25.4499 47.9605 24.6521 47.3045 24.5502ZM35.0545 14.766C35.0545 13.7926 35.8584 13.0007 36.8466 13.0007C37.8349 13.0007 38.6388 13.7926 38.6388 14.766C38.6388 15.7393 37.8349 16.5311 36.8466 16.5311C35.8584 16.5311 35.0545 15.7393 35.0545 14.766ZM3.84398 9.18482C2.42644 9.18482 1.27321 8.03631 1.27321 6.62452C1.27321 5.21272 2.42644 4.06421 3.84398 4.06421C5.26142 4.06421 6.41465 5.21272 6.41465 6.62452C6.41465 8.03631 5.26142 9.18482 3.84398 9.18482ZM3.84398 5.70472C3.33147 5.70472 2.91444 6.11723 2.91444 6.62441C2.91444 7.13159 3.33147 7.54411 3.84398 7.54411C4.35649 7.54411 4.77342 7.13159 4.77342 6.62441C4.77342 6.11723 4.35649 5.70472 3.84398 5.70472ZM8.93044 48C7.51291 48 6.35967 46.8515 6.35967 45.4397C6.35967 44.0279 7.51291 42.8793 8.93044 42.8793C10.3479 42.8793 11.5011 44.0279 11.5011 45.4397C11.5011 46.8515 10.3479 48 8.93044 48ZM8.93044 44.5198C8.41793 44.5198 8.00091 44.9324 8.00091 45.4396C8.00091 45.9468 8.41793 46.3593 8.93044 46.3593C9.44296 46.3593 9.85988 45.9468 9.85988 45.4396C9.85988 44.9324 9.44296 44.5198 8.93044 44.5198Z" fill="#731B55"/>
<path id="Vector_3" d="M34.6302 24.8263C35.0834 24.8263 35.4508 24.4591 35.4508 24.006C35.4508 23.553 35.0834 23.1857 34.6302 23.1857C34.177 23.1857 33.8096 23.553 33.8096 24.006C33.8096 24.4591 34.177 24.8263 34.6302 24.8263Z" fill="#731B55"/>
<path id="Vector_4" d="M15.0574 24.8263C15.5106 24.8263 15.878 24.4591 15.878 24.006C15.878 23.553 15.5106 23.1857 15.0574 23.1857C14.6042 23.1857 14.2368 23.553 14.2368 24.006C14.2368 24.4591 14.6042 24.8263 15.0574 24.8263Z" fill="#731B55"/>
<path id="Vector_5" d="M29.4207 9.85099L28.0216 7.26801L25.4844 5.86678C24.9253 5.55807 24.8902 4.7313 25.4638 4.41458L28.0217 3.00196L29.4094 0.440014C29.7152 -0.124602 30.5381 -0.161012 30.8523 0.418988L32.2512 3.00207L34.7885 4.4033C35.3475 4.71201 35.3826 5.53878 34.8091 5.8555L32.2511 7.26812L30.8521 9.85109C30.543 10.4217 29.7298 10.4217 29.4207 9.85099ZM27.5521 5.13499L29.0149 5.94278C29.1519 6.01852 29.2643 6.13196 29.3387 6.26966L30.1365 7.74237L30.9342 6.26966C31.0086 6.13196 31.121 6.01852 31.258 5.94278L32.7209 5.13499L31.258 4.32719C31.121 4.25146 31.0086 4.13802 30.9342 4.00032L30.1365 2.5276L29.3387 4.00032C29.2643 4.13802 29.1519 4.25146 29.0149 4.32719L27.5521 5.13499Z" fill="#731B55"/>
</g>
</g>
<defs>
<clipPath id="clip0_1786_5629">
<rect width="48" height="48" fill="white"/>
</clipPath>
</defs>
</svg>
