<svg width="48" height="48" viewBox="0 0 48 48" fill="none" xmlns="http://www.w3.org/2000/svg">
<g id="&#208;&#184;&#208;&#186;&#208;&#190;&#208;&#189;&#208;&#186;&#208;&#184;/&#208;&#186;&#208;&#176;&#209;&#130;&#208;&#176;&#208;&#187;&#208;&#190;&#208;&#179;/&#208;&#180;&#208;&#181;&#208;&#189;&#209;&#140; &#209;&#128;&#208;&#190;&#208;&#182;&#208;&#180;&#208;&#181;&#208;&#189;&#208;&#184;&#209;&#143;" clip-path="url(#clip0_1786_5618)">
<g id="Group">
<path id="Vector" d="M47.2107 41.9688H44.5486V32.7347C44.5486 30.6678 42.8671 28.9863 40.8002 28.9863H39.6445V19.3589C39.6445 17.5089 38.1394 16.0038 36.2894 16.0038H26.9367V8.26417C26.9367 8.05485 26.8536 7.85411 26.7056 7.70609C26.5576 7.55808 26.3568 7.47491 26.1475 7.47489H24.7892V6.29589C25.833 5.96129 26.5909 4.98179 26.5909 3.82829C26.5909 2.61901 25.0519 0.855572 24.5802 0.343979C24.5063 0.263781 24.4166 0.199771 24.3168 0.155988C24.2169 0.112205 24.109 0.0895996 24 0.0895996C23.891 0.0895996 23.7831 0.112205 23.6832 0.155988C23.5834 0.199771 23.4937 0.263781 23.4198 0.343979C22.9481 0.855572 21.4091 2.61901 21.4091 3.82829C21.4091 4.9817 22.167 5.9612 23.2108 6.29589V7.47498H21.8525C21.6431 7.475 21.4424 7.55817 21.2944 7.70618C21.1464 7.85419 21.0632 8.05494 21.0632 8.26426V16.0039H11.7105C9.86053 16.0039 8.35538 17.509 8.35538 19.359V26.303C8.35764 26.5108 8.44179 26.7094 8.58955 26.8555C8.73732 27.0017 8.93677 27.0837 9.14461 27.0837C9.35245 27.0837 9.5519 27.0017 9.69967 26.8555C9.84743 26.7094 9.93158 26.5108 9.93384 26.303V19.359C9.93384 18.3794 10.7309 17.5824 11.7105 17.5824H36.2894C37.269 17.5824 38.0661 18.3794 38.0661 19.359V28.9864H7.19972C5.13272 28.9864 3.45131 30.6679 3.45131 32.7348V39.2112C3.45358 39.4191 3.53773 39.6176 3.68549 39.7638C3.83325 39.9099 4.03271 39.9919 4.24055 39.9919C4.44839 39.9919 4.64784 39.9099 4.7956 39.7638C4.94337 39.6176 5.02752 39.4191 5.02978 39.2112V32.7348C5.02978 31.5382 6.00319 30.5649 7.19972 30.5649H40.8C41.9966 30.5649 42.9699 31.5383 42.9699 32.7348V41.9689H0.789281C0.579958 41.9689 0.379216 42.0521 0.231203 42.2001C0.083189 42.3481 2.48587e-05 42.5488 0 42.7582C0 45.5991 2.31131 47.9104 5.15222 47.9104H42.8478C45.6887 47.9104 48 45.5991 48 42.7582C48 42.6545 47.9796 42.5519 47.9399 42.4561C47.9003 42.3603 47.8422 42.2733 47.7689 42.2C47.6956 42.1267 47.6086 42.0686 47.5128 42.0289C47.417 41.9892 47.3144 41.9688 47.2107 41.9688ZM22.9876 3.8282C22.9876 3.5566 23.4248 2.82826 24 2.09701C24.5752 2.82826 25.0124 3.5566 25.0124 3.8282C25.0124 4.38648 24.5582 4.8406 24 4.8406C23.4417 4.8406 22.9876 4.38648 22.9876 3.8282ZM25.3582 16.0038H22.6417V9.05335H25.3582V16.0038ZM42.8478 46.3318H5.15222C3.45272 46.3318 2.0265 45.1394 1.66631 43.5473H46.3337C45.9735 45.1394 44.5473 46.3318 42.8478 46.3318Z" fill="#731B55"/>
<path id="Vector_2" d="M35.4111 19.8875C34.2658 19.8688 33.4793 20.6436 32.8467 21.2676C32.2739 21.8323 31.8943 22.1733 31.4849 22.1622C31.1002 22.151 30.8064 21.8178 30.359 21.2752C29.8347 20.6393 29.1819 19.848 28.0623 19.8152C26.9567 19.7823 26.2283 20.5049 25.5859 21.1418C24.9916 21.7311 24.5953 22.0889 24.103 22.0895H24.1021C23.6165 22.0895 23.2325 21.731 22.6583 21.1406C22.0531 20.5185 21.3007 19.7452 20.1579 19.7452L20.1362 19.7453C18.9433 19.7556 18.1754 20.5963 17.5583 21.272C17.0055 21.8774 16.6387 22.2453 16.2129 22.2453H16.2108C15.7844 22.2441 15.4262 21.8756 14.887 21.2691C14.3001 20.6088 13.5705 19.7876 12.4353 19.7876H12.4222C12.2129 19.7888 12.0126 19.8731 11.8655 20.0219C11.7183 20.1708 11.6363 20.372 11.6374 20.5813C11.638 20.6853 11.6591 20.7881 11.6995 20.8839C11.7399 20.9797 11.7989 21.0665 11.873 21.1395C11.947 21.2124 12.0348 21.27 12.1312 21.3089C12.2277 21.3478 12.3308 21.3673 12.4348 21.3662C12.8327 21.3662 13.1814 21.7261 13.7073 22.3177C14.3025 22.9873 15.0429 23.8206 16.2066 23.8239H16.2134C17.3657 23.8239 18.1188 22.9995 18.7241 22.3367C19.2971 21.7093 19.679 21.328 20.1499 21.3239C20.6078 21.3221 20.9712 21.6701 21.5271 22.2415C22.1456 22.8771 22.915 23.668 24.1022 23.668H24.1047C25.2817 23.667 26.0669 22.8884 26.6977 22.2628C27.2418 21.7233 27.6037 21.3929 27.9961 21.3929L28.0165 21.3931C28.4007 21.4043 28.6943 21.7373 29.1415 22.2797C29.6661 22.9157 30.3188 23.7072 31.4388 23.7401C32.5568 23.7756 33.3313 23.007 33.9554 22.3916C34.5449 21.8103 34.9346 21.4555 35.3836 21.4659C35.8233 21.4719 36.1791 21.1266 36.1867 20.6907C36.1939 20.2546 35.8471 19.8951 35.4111 19.8875ZM40.7485 32.9543C39.5697 32.9177 38.7857 33.6978 38.0935 34.3843C37.523 34.9499 37.0303 35.4388 36.4248 35.4427C35.955 35.4325 35.6181 35.0826 35.1091 34.5134C34.5275 33.8636 33.8039 33.0548 32.5838 33.0334C32.5683 33.0332 32.5531 33.0329 32.5377 33.0329C31.3412 33.0329 30.5049 33.8576 29.8312 34.5219C29.2787 35.0668 28.802 35.5357 28.2868 35.5222C27.8339 35.509 27.5026 35.1345 26.9998 34.5247C26.4355 33.8406 25.7333 32.989 24.542 32.9541C23.3642 32.9175 22.5792 33.6976 21.887 34.3841C21.3147 34.9518 20.8203 35.4419 20.2121 35.4426H20.2111C19.6505 35.4426 19.22 35.0417 18.5779 34.382C17.9254 33.7113 17.1144 32.8777 15.8952 32.8777L15.8723 32.8778C14.5995 32.8887 13.7714 33.7955 13.1058 34.5241C12.4872 35.2015 12.0753 35.6131 11.5788 35.6131H11.5763C11.0787 35.6117 10.6763 35.1991 10.0726 34.52C9.43787 33.8059 8.65055 32.9208 7.43152 32.924C7.32787 32.9246 7.22534 32.9456 7.12981 32.9858C7.03427 33.026 6.94759 33.0846 6.87472 33.1584C6.80184 33.2321 6.7442 33.3194 6.70509 33.4154C6.66597 33.5114 6.64614 33.6142 6.64674 33.7178C6.64734 33.8215 6.66835 33.924 6.70857 34.0195C6.74878 34.1151 6.80743 34.2018 6.88115 34.2746C6.95486 34.3475 7.04221 34.4052 7.13821 34.4443C7.2342 34.4834 7.33696 34.5032 7.44062 34.5026C7.91143 34.4959 8.3018 34.9037 8.8929 35.5687C9.53415 36.2902 10.3322 37.1883 11.572 37.1917H11.5795C12.8072 37.1916 13.5852 36.3401 14.2715 35.5886C14.912 34.8873 15.3404 34.4611 15.8859 34.4563H15.8946C16.4103 34.4563 16.8259 34.8448 17.4466 35.4829C18.1135 36.1684 18.9434 37.0212 20.211 37.0212H20.2135C21.4708 37.0201 22.3178 36.1801 22.9984 35.5052C23.6181 34.8906 24.0254 34.5196 24.4959 34.5321C24.9483 34.5453 25.2794 34.9196 25.7821 35.5291C26.3464 36.2134 27.0488 37.0652 28.2405 37.1001C29.4307 37.137 30.2317 36.3439 30.9395 35.6459C31.5077 35.0856 31.9966 34.5985 32.5559 34.6116C33.0613 34.6204 33.4083 34.98 33.9326 35.5659C34.5055 36.2062 35.2186 37.0031 36.4072 37.0209L36.4199 37.021C37.6772 37.0199 38.5242 36.1799 39.2048 35.505C39.8246 34.8905 40.2332 34.5209 40.7023 34.5319C41.1386 34.5453 41.5015 34.2018 41.5142 33.7661C41.5173 33.6625 41.4999 33.5594 41.463 33.4625C41.4262 33.3657 41.3706 33.277 41.2995 33.2016C41.2284 33.1262 41.1431 33.0656 41.0486 33.0232C40.954 32.9808 40.8521 32.9574 40.7485 32.9543Z" fill="#731B55"/>
</g>
</g>
<defs>
<clipPath id="clip0_1786_5618">
<rect width="48" height="48" fill="white"/>
</clipPath>
</defs>
</svg>
