<svg width="48" height="48" viewBox="0 0 48 48" fill="none" xmlns="http://www.w3.org/2000/svg">
<g id="&#208;&#184;&#208;&#186;&#208;&#190;&#208;&#189;&#208;&#186;&#208;&#184;/&#208;&#186;&#208;&#176;&#209;&#130;&#208;&#176;&#208;&#187;&#208;&#190;&#208;&#179;/&#209;&#129;&#208;&#178;&#208;&#176;&#208;&#180;&#209;&#140;&#208;&#177;&#208;&#176;">
<g id="Group">
<path id="Vector" d="M11.2499 42C1.72493 42 0.0261781 32.4698 0.0104281 32.373C-0.0175253 32.203 0.0138987 32.0286 0.0994176 31.879C0.184937 31.7295 0.319336 31.6139 0.480024 31.5518C0.640711 31.4896 0.817888 31.4847 0.981772 31.5379C1.14566 31.591 1.28625 31.6989 1.37993 31.8435C1.39643 31.8683 3.14993 34.5 5.99993 34.5C6.55776 34.5416 7.11538 34.4167 7.60216 34.1411C8.08895 33.8655 8.48301 33.4517 8.73443 32.952C7.29238 32.79 5.92372 32.2304 4.78118 31.3358C3.36214 30.0868 2.46473 28.3498 2.26718 26.4698C2.03393 25.9943 1.49993 24.5948 1.49993 21.75C1.44667 19.7211 2.02594 17.7259 3.15743 16.041C3.2298 15.9499 3.32185 15.8765 3.42667 15.8261C3.53149 15.7757 3.64637 15.7497 3.76268 15.75C3.87924 15.7519 3.99375 15.781 4.09713 15.8349C4.2005 15.8888 4.28988 15.966 4.35818 16.0605C4.40168 16.1213 8.78318 22.1355 12.2369 23.289C13.9956 23.8756 15.5385 24.975 16.6672 26.4458C17.1097 24.933 18.0637 23.25 20.2499 23.25C20.8275 23.2495 21.3943 23.4066 21.8891 23.7045C22.384 24.0025 22.7881 24.4298 23.0579 24.9405L24.3329 25.5788C24.4599 25.6422 24.5663 25.7405 24.6397 25.862C24.7131 25.9836 24.7504 26.1234 24.7475 26.2654C24.7445 26.4073 24.7013 26.5455 24.6228 26.6639C24.5444 26.7823 24.434 26.8759 24.3044 26.934C23.826 27.16 23.3686 27.4283 22.9379 27.7358C22.1834 28.284 21.7499 28.8353 21.7499 29.25C21.7571 29.8432 21.8751 30.4297 22.0979 30.9795C22.3525 31.6233 22.4887 32.3078 22.4999 33C22.4999 35.1113 21.6884 42 11.2499 42ZM2.41643 34.8953C3.1561 36.6082 4.39423 38.0589 5.9697 39.0585C7.54518 40.0581 9.38506 40.5604 11.2499 40.5C20.0497 40.5 20.9999 35.2553 20.9999 33C20.9878 32.4744 20.8792 31.9556 20.6797 31.4693C20.4024 30.7619 20.2567 30.0098 20.2499 29.25C20.2499 28.3088 20.8589 27.3908 22.0597 26.5215C22.1737 26.439 22.2847 26.361 22.3987 26.2883L22.1647 26.1713C21.9997 26.0882 21.8708 25.9476 21.8024 25.776C21.6709 25.4729 21.4541 25.2146 21.1785 25.0325C20.9029 24.8503 20.5803 24.7522 20.2499 24.75C19.6499 24.75 18.2587 24.75 17.7802 28.5818C17.7597 28.7467 17.6849 28.9001 17.5678 29.018C17.4506 29.1358 17.2976 29.2114 17.1328 29.2329C16.9679 29.2543 16.8007 29.2205 16.6572 29.1365C16.5138 29.0526 16.4022 28.9234 16.3402 28.7693C15.8843 27.8236 15.2451 26.9779 14.4597 26.2813C13.6744 25.5846 12.7585 25.0509 11.7652 24.711C8.70593 23.6925 5.27993 19.6823 3.83618 17.85C3.27562 19.0732 2.99016 20.4045 2.99993 21.75C2.99993 24.729 3.63443 25.8495 3.64043 25.86C3.70241 25.9648 3.73985 26.0822 3.74993 26.2035C3.89387 27.7221 4.59588 29.1333 5.72018 30.1643C6.85888 31.0457 8.26204 31.5164 9.70193 31.5C9.8133 31.494 9.92465 31.5123 10.0282 31.5536C10.1318 31.5949 10.2252 31.6583 10.3019 31.7393C10.3778 31.8214 10.4343 31.9194 10.4674 32.0262C10.5005 32.133 10.5093 32.2459 10.4932 32.3565C10.3211 33.409 9.76834 34.3617 8.93996 35.0334C8.11158 35.7051 7.0653 36.0491 5.99993 36C4.72287 35.9916 3.47654 35.6074 2.41643 34.8953Z" fill="#731B55"/>
<path id="Vector_2" d="M15.7499 24.75C15.6373 24.7502 15.5262 24.725 15.4246 24.6763C15.3231 24.6276 15.2338 24.5567 15.1634 24.4688C13.8959 22.836 12.1776 21.6105 10.2209 20.9438C8.85719 20.267 7.78229 19.1223 7.19245 17.7188C6.97518 18.0612 6.8385 18.4484 6.7927 18.8513C6.76485 19.0483 6.65988 19.2262 6.50087 19.3458C6.34186 19.4654 6.14184 19.517 5.94482 19.4892C5.7478 19.4613 5.56991 19.3563 5.45028 19.1973C5.33066 19.0383 5.2791 18.8383 5.30695 18.6413C5.34586 18.0343 5.54744 17.4489 5.89055 16.9467C6.23366 16.4444 6.70563 16.0438 7.25695 15.7868C7.3513 15.7545 7.45115 15.7414 7.55064 15.7481C7.65013 15.7549 7.74728 15.7814 7.83639 15.8262C7.9255 15.871 8.00479 15.9331 8.06962 16.0088C8.13445 16.0846 8.18352 16.1726 8.21395 16.2675C8.22295 16.2938 9.0667 18.8655 10.7782 19.5495C12.9756 20.3103 14.9058 21.6908 16.3357 23.5245C16.4261 23.6347 16.4832 23.7684 16.5003 23.9099C16.5174 24.0514 16.4939 24.1949 16.4324 24.3235C16.3709 24.4521 16.2741 24.5605 16.1532 24.636C16.0324 24.7116 15.8925 24.7511 15.7499 24.75ZM36.7499 42C26.3114 42 25.4999 35.1113 25.4999 33C25.5111 32.3078 25.6473 31.6233 25.9019 30.9795C26.1248 30.4298 26.2428 29.8432 26.2499 29.25C26.1898 28.8702 25.9959 28.5244 25.7032 28.275C25.5671 28.133 25.4922 27.9432 25.4947 27.7465C25.4972 27.5498 25.5768 27.3619 25.7165 27.2234C25.8562 27.0849 26.0447 27.0068 26.2415 27.006C26.4382 27.0052 26.6274 27.0817 26.7682 27.219C27.0588 27.4752 27.2953 27.7868 27.4639 28.1355C27.6325 28.4843 27.7297 28.8632 27.7499 29.25C27.7432 30.0098 27.5975 30.7619 27.3202 31.4693C27.1206 31.9556 27.0121 32.4745 26.9999 33C26.9999 35.2553 27.9502 40.5 36.7499 40.5C38.6179 40.564 40.4617 40.0626 42.0399 39.0613C43.6182 38.0601 44.8574 36.6057 45.5954 34.8885C44.5325 35.605 43.2817 35.9916 41.9999 36C40.9351 36.0488 39.8893 35.7048 39.0613 35.0335C38.2333 34.3621 37.6806 33.41 37.5082 32.358C37.4921 32.2474 37.5008 32.1346 37.5339 32.0278C37.567 31.921 37.6236 31.8229 37.6994 31.7408C37.7758 31.6593 37.8691 31.5956 37.9728 31.5543C38.0765 31.5129 38.188 31.4949 38.2994 31.5015C39.7391 31.5122 41.1411 31.0415 42.2827 30.1643C43.4064 29.1324 44.1074 27.7203 44.2499 26.2013C44.2585 26.0763 44.298 25.9555 44.3647 25.8495C44.3647 25.8495 44.9999 24.7283 44.9999 21.75C45.0099 20.4045 44.7244 19.0732 44.1637 17.85C42.7199 19.6808 39.2939 23.691 36.2369 24.7095C35.2415 25.0452 34.3236 25.5774 33.5378 26.2745C32.7519 26.9717 32.114 27.8195 31.6619 28.7678C31.5999 28.922 31.4884 29.0511 31.3449 29.1351C31.2014 29.219 31.0342 29.2529 30.8694 29.2314C30.7046 29.21 30.5516 29.1344 30.4344 29.0165C30.3172 28.8986 30.2425 28.7452 30.2219 28.5803C29.7412 24.75 28.3499 24.75 27.7499 24.75C27.4184 24.7524 27.0948 24.8513 26.8187 25.0347C26.5425 25.2181 26.3259 25.4781 26.1952 25.7828C26.1245 25.9505 25.997 26.088 25.8352 26.1713L24.3352 26.9213C24.1572 27.0102 23.9511 27.0247 23.7624 26.9617C23.5736 26.8987 23.4176 26.7633 23.3287 26.5853C23.2398 26.4073 23.2252 26.2012 23.2882 26.0124C23.3513 25.8237 23.4867 25.6677 23.6647 25.5788L24.9397 24.9405C25.2097 24.4295 25.6142 24.0019 26.1094 23.704C26.6047 23.4061 27.172 23.2491 27.7499 23.25C29.9362 23.25 30.8909 24.933 31.3327 26.4458C32.4614 24.975 34.0043 23.8756 35.7629 23.289C39.2174 22.137 43.5982 16.1213 43.6417 16.0605C43.71 15.9661 43.7994 15.8888 43.9028 15.8349C44.0061 15.781 44.1206 15.7519 44.2372 15.75C44.3535 15.75 44.4682 15.7761 44.573 15.8265C44.6778 15.8768 44.7699 15.9502 44.8424 16.041C45.9739 17.7259 46.5532 19.7211 46.4999 21.75C46.4999 24.5948 45.966 25.9943 45.7327 26.4698C45.5351 28.3498 44.6377 30.0868 43.2187 31.3358C42.0759 32.2305 40.707 32.79 39.2647 32.952C39.5163 33.4517 39.9105 33.8655 40.3974 34.1411C40.8843 34.4166 41.442 34.5416 41.9999 34.5C44.8724 34.5 46.6027 31.8698 46.6199 31.8435C46.7136 31.6989 46.8542 31.591 47.0181 31.5379C47.182 31.4848 47.3592 31.4897 47.5199 31.5518C47.6805 31.6139 47.8149 31.7295 47.9005 31.879C47.986 32.0286 48.0174 32.203 47.9894 32.373C47.9737 32.4698 46.2749 42 36.7499 42Z" fill="#731B55"/>
<path id="Vector_3" d="M32.25 24.75C32.1087 24.7499 31.9704 24.7099 31.8508 24.6347C31.7313 24.5594 31.6355 24.4519 31.5743 24.3245C31.5132 24.1972 31.4893 24.0552 31.5053 23.9148C31.5214 23.7745 31.5767 23.6415 31.665 23.5312C33.0949 21.6975 35.0251 20.317 37.2225 19.5563C38.934 18.8723 39.7778 16.3005 39.7868 16.2743C39.8171 16.1795 39.8658 16.0918 39.9302 16.0159C39.9945 15.9401 40.0732 15.8778 40.1618 15.8325C40.3421 15.744 40.5501 15.73 40.7407 15.7935C40.8255 15.819 42.75 16.5127 42.75 19.5C42.75 19.6989 42.671 19.8897 42.5303 20.0303C42.3897 20.171 42.1989 20.25 42 20.25C41.8011 20.25 41.6103 20.171 41.4697 20.0303C41.329 19.8897 41.25 19.6989 41.25 19.5C41.2825 18.877 41.1279 18.2584 40.806 17.724C40.2167 19.1277 39.142 20.2724 37.7782 20.949C35.8216 21.6157 34.1033 22.8412 32.8357 24.474C32.7649 24.5608 32.6756 24.6307 32.5742 24.6785C32.4728 24.7262 32.3621 24.7507 32.25 24.75ZM24 21C23.9253 20.9999 23.851 20.9887 23.7795 20.967C20.4217 19.9335 15.75 14.8448 15.75 11.25C15.75 8.208 17.6423 6 20.25 6C20.9655 6.0451 21.6651 6.23103 22.3086 6.54713C22.9522 6.86322 23.5269 7.30326 24 7.842C24.4731 7.30326 25.0478 6.86322 25.6914 6.54713C26.3349 6.23103 27.0345 6.0451 27.75 6C30.3577 6 32.25 8.208 32.25 11.25C32.2215 12.1373 32.0066 13.0087 31.6193 13.8075C31.5797 13.8986 31.5224 13.9808 31.4508 14.0496C31.3792 14.1183 31.2946 14.1722 31.202 14.208C31.1094 14.2438 31.0107 14.2609 30.9114 14.2583C30.8122 14.2556 30.7144 14.2333 30.6239 14.1926C30.5333 14.1519 30.4518 14.0936 30.3839 14.0211C30.3161 13.9487 30.2633 13.8634 30.2286 13.7704C30.1939 13.6774 30.1781 13.5784 30.182 13.4792C30.1859 13.38 30.2094 13.2825 30.2512 13.1925C30.5487 12.586 30.7185 11.9248 30.75 11.25C30.75 9.042 29.5162 7.5 27.75 7.5C26.0122 7.5 24.6285 9.41025 24.6143 9.42975C24.5416 9.52349 24.4485 9.59937 24.3421 9.65157C24.2356 9.70377 24.1186 9.73091 24 9.73091C23.8814 9.73091 23.7644 9.70377 23.6579 9.65157C23.5515 9.59937 23.4584 9.52349 23.3857 9.42975C23.373 9.41175 22.002 7.5 20.25 7.5C18.4837 7.5 17.25 9.042 17.25 11.25C17.25 13.8247 21.0322 18.3818 24 19.4587C25.9956 18.5323 27.7131 17.0983 28.9807 15.3C29.1001 15.1409 29.2778 15.0357 29.4747 15.0075C29.6716 14.9794 29.8716 15.0307 30.0308 15.15C30.1899 15.2693 30.2951 15.447 30.3232 15.6439C30.3513 15.8408 30.3001 16.0409 30.1808 16.2C28.4558 18.513 26.115 20.385 24.2183 20.9685C24.1474 20.9896 24.0739 21.0002 24 21Z" fill="#731B55"/>
</g>
</g>
</svg>
