<svg width="48" height="48" viewBox="0 0 48 48" fill="none" xmlns="http://www.w3.org/2000/svg">
<g id="&#208;&#184;&#208;&#186;&#208;&#190;&#208;&#189;&#208;&#186;&#208;&#184;/&#208;&#186;&#208;&#176;&#209;&#130;&#208;&#176;&#208;&#187;&#208;&#190;&#208;&#179;/&#208;&#188;&#208;&#181;&#209;&#128;&#208;&#190;&#208;&#191;&#209;&#128;&#208;&#184;&#209;&#143;&#209;&#130;&#208;&#184;&#208;&#181;" clip-path="url(#clip0_1786_5656)">
<g id="Group">
<path id="Vector" d="M33 21C30.9233 21 28.8932 20.3842 27.1665 19.2304C25.4398 18.0767 24.094 16.4368 23.2993 14.5182C22.5045 12.5996 22.2966 10.4884 22.7018 8.45156C23.1069 6.41476 24.1069 4.54383 25.5754 3.07538C27.0438 1.60693 28.9148 0.606904 30.9516 0.201759C32.9884 -0.203386 35.0996 0.00454956 37.0182 0.79927C38.9368 1.59399 40.5767 2.9398 41.7304 4.66652C42.8842 6.39323 43.5 8.4233 43.5 10.5C43.497 13.2839 42.3898 15.9528 40.4213 17.9213C38.4529 19.8898 35.7839 20.997 33 21ZM33 1.5C31.22 1.5 29.4799 2.02785 27.9999 3.01678C26.5198 4.00571 25.3663 5.41132 24.6851 7.05585C24.0039 8.70039 23.8257 10.51 24.1729 12.2558C24.5202 14.0016 25.3774 15.6053 26.636 16.864C27.8947 18.1226 29.4984 18.9798 31.2442 19.3271C32.99 19.6743 34.7996 19.4961 36.4442 18.8149C38.0887 18.1337 39.4943 16.9802 40.4832 15.5001C41.4722 14.0201 42 12.28 42 10.5C41.9974 8.11385 41.0484 5.82616 39.3611 4.13889C37.6738 2.45163 35.3862 1.50259 33 1.5Z" fill="#731B55"/>
<path id="Vector_2" d="M13.6403 34.3597C13.5418 34.3599 13.4441 34.3407 13.353 34.3031C13.2619 34.2655 13.1791 34.2103 13.1093 34.1407L9.35932 30.3907C9.22855 30.26 9.15071 30.0855 9.14074 29.9008C9.13077 29.7162 9.18938 29.5343 9.30532 29.3902L22.6658 12.7852C22.7923 12.636 22.972 12.5421 23.1667 12.5235C23.3614 12.5049 23.5556 12.5631 23.7081 12.6856C23.8605 12.8082 23.959 12.9855 23.9826 13.1796C24.0061 13.3738 23.9529 13.5695 23.8343 13.725L10.8961 29.8057L13.6943 32.604L29.7751 19.6657C29.9302 19.5423 30.1278 19.4853 30.3248 19.5071C30.5218 19.529 30.7021 19.6279 30.8264 19.7823C30.9507 19.9367 31.0088 20.134 30.988 20.3311C30.9672 20.5282 30.8693 20.7091 30.7156 20.8342L14.1098 34.1947C13.9768 34.3019 13.8111 34.3601 13.6403 34.3597Z" fill="#731B55"/>
<path id="Vector_3" d="M10.6979 35.5718C10.4021 35.5724 10.1091 35.5147 9.83564 35.402C9.56216 35.2892 9.3136 35.1237 9.10418 34.9148L8.58518 34.3958C8.21993 34.0285 7.99211 33.5467 7.93995 33.0313C7.88778 32.516 8.01444 31.9983 8.29868 31.5653L9.43493 29.8403C9.49624 29.7475 9.5774 29.6696 9.67255 29.612C9.76769 29.5545 9.87443 29.5189 9.98505 29.5077C10.0957 29.4965 10.2074 29.51 10.3121 29.5473C10.4169 29.5846 10.512 29.6447 10.5907 29.7233L13.7729 32.9055C13.8515 32.9842 13.9116 33.0793 13.9489 33.1841C13.9862 33.2888 13.9997 33.4005 13.9885 33.5111C13.9773 33.6218 13.9417 33.7285 13.8842 33.8237C13.8266 33.9188 13.7487 34 13.6559 34.0613L11.9347 35.1975C11.5682 35.4412 11.138 35.5713 10.6979 35.5718ZM10.1804 31.4378L9.55043 32.3918C9.45519 32.5359 9.41266 32.7086 9.43001 32.8805C9.44737 33.0524 9.52355 33.213 9.64568 33.3353L10.1647 33.8543C10.2869 33.9764 10.4475 34.0526 10.6195 34.0699C10.7914 34.0873 10.964 34.0448 11.1082 33.9495L12.0622 33.3195L10.1804 31.4378Z" fill="#731B55"/>
<path id="Vector_4" d="M18 48C17.8506 47.9999 17.7046 47.9551 17.5808 47.8714C17.457 47.7877 17.361 47.6689 17.3051 47.5303C17.2493 47.3917 17.2361 47.2395 17.2673 47.0934C17.2985 46.9472 17.3727 46.8137 17.4803 46.71L23.28 41.1262C23.6308 40.8418 23.92 40.489 24.1302 40.0894C24.3403 39.6897 24.467 39.2514 24.5025 38.8012C24.5389 38.3604 24.4859 37.9168 24.3467 37.4969C24.2076 37.077 23.985 36.6896 23.6925 36.3577C23.137 35.7262 22.3628 35.3287 21.5258 35.2452C20.6889 35.1617 19.8514 35.3984 19.182 35.9077L11.8388 41.523C11.0574 42.125 10.0759 42.4066 9.09418 42.3105C8.11245 42.2144 7.20424 41.7478 6.55437 41.0057C5.9045 40.2636 5.56183 39.3018 5.59609 38.316C5.63035 37.3302 6.03898 36.3944 6.73879 35.6992L8.46829 33.9697C8.60974 33.8331 8.7992 33.7575 8.99584 33.7592C9.19249 33.761 9.3806 33.8398 9.51966 33.9789C9.65871 34.1179 9.73759 34.306 9.7393 34.5027C9.74101 34.6993 9.66541 34.8888 9.52879 35.0302L7.80004 36.7598C7.37156 37.1861 7.12153 37.7597 7.10075 38.3638C7.07998 38.9679 7.29002 39.5573 7.6882 40.0121C8.08637 40.4669 8.6428 40.753 9.24436 40.8123C9.84593 40.8716 10.4475 40.6996 10.9268 40.3312L18.27 34.7167C19.2423 33.9772 20.4586 33.6335 21.6741 33.755C22.8896 33.8765 24.0139 34.4541 24.8205 35.3715C25.2434 35.8549 25.5654 36.4179 25.7674 37.0275C25.9695 37.6372 26.0476 38.2811 25.9971 38.9213C25.9467 39.5616 25.7687 40.1853 25.4736 40.7557C25.1786 41.3262 24.7724 41.8318 24.279 42.243L18.519 47.793C18.3795 47.9267 18.1934 48.001 18 48ZM34.5 17.475C34.4295 17.4749 34.3593 17.4648 34.2915 17.445C28.5848 15.7927 24.75 10.8922 24.75 5.25C24.75 4.9815 24.7588 4.71525 24.7763 4.45125C24.7892 4.25233 24.8806 4.06671 25.0304 3.9352C25.1802 3.80369 25.3761 3.73707 25.575 3.75C25.774 3.76293 25.9596 3.85434 26.0911 4.00414C26.2226 4.15393 26.2892 4.34983 26.2763 4.54875C26.2583 4.7805 26.25 5.0145 26.25 5.25C26.25 10.218 29.649 14.5387 34.7085 16.002C34.8843 16.0504 35.0364 16.1612 35.1364 16.3136C35.2364 16.466 35.2775 16.6497 35.2519 16.8302C35.2264 17.0107 35.136 17.1757 34.9976 17.2944C34.8592 17.413 34.6823 17.4773 34.5 17.475ZM20.325 24C20.1288 24.0002 19.9403 23.9234 19.8 23.7862C19.2279 23.229 18.7737 22.5624 18.4644 21.8261C18.1552 21.0897 17.9973 20.2986 18 19.5C18.0001 19.2137 18.0204 18.9277 18.0608 18.6442C18.0896 18.448 18.195 18.2712 18.3539 18.1524C18.5128 18.0337 18.7122 17.9828 18.9086 18.0107C19.1049 18.0387 19.2822 18.1433 19.4017 18.3017C19.5211 18.46 19.5729 18.6593 19.5458 18.8557C19.5156 19.0692 19.5003 19.2844 19.5 19.5C19.4981 20.0989 19.6166 20.6921 19.8485 21.2444C20.0805 21.7966 20.421 22.2965 20.85 22.7145C20.9564 22.8188 21.0293 22.9524 21.0594 23.0983C21.0896 23.2441 21.0756 23.3957 21.0193 23.5336C20.9629 23.6715 20.8668 23.7895 20.7432 23.8725C20.6196 23.9556 20.474 24 20.325 24ZM31.5 37.5C31.055 37.5 30.62 37.368 30.25 37.1208C29.88 36.8736 29.5916 36.5222 29.4213 36.111C29.251 35.6999 29.2065 35.2475 29.2933 34.811C29.3801 34.3746 29.5944 33.9737 29.9091 33.659C30.2237 33.3443 30.6246 33.13 31.0611 33.0432C31.4975 32.9564 31.9499 33.001 32.3611 33.1713C32.7722 33.3416 33.1236 33.63 33.3708 34C33.6181 34.37 33.75 34.805 33.75 35.25C33.75 35.8467 33.513 36.419 33.091 36.841C32.6691 37.2629 32.0968 37.5 31.5 37.5ZM31.5 34.5C31.3517 34.5 31.2067 34.544 31.0834 34.6264C30.96 34.7088 30.8639 34.8259 30.8071 34.963C30.7504 35.1 30.7355 35.2508 30.7645 35.3963C30.7934 35.5418 30.8648 35.6754 30.9697 35.7803C31.0746 35.8852 31.2082 35.9566 31.3537 35.9856C31.4992 36.0145 31.65 35.9997 31.7871 35.9429C31.9241 35.8861 32.0412 35.79 32.1236 35.6667C32.2061 35.5433 32.25 35.3983 32.25 35.25C32.25 35.0511 32.171 34.8603 32.0304 34.7197C31.8897 34.579 31.699 34.5 31.5 34.5Z" fill="#731B55"/>
<path id="Vector_5" d="M33 36C32.8011 36 32.6103 35.921 32.4697 35.7803C32.329 35.6397 32.25 35.4489 32.25 35.25V30.75C32.25 30.5511 32.329 30.3603 32.4697 30.2197C32.6103 30.079 32.8011 30 33 30C33.1989 30 33.3897 30.079 33.5303 30.2197C33.671 30.3603 33.75 30.5511 33.75 30.75V35.25C33.75 35.4489 33.671 35.6397 33.5303 35.7803C33.3897 35.921 33.1989 36 33 36ZM39 36C38.555 36 38.12 35.868 37.75 35.6208C37.38 35.3736 37.0916 35.0222 36.9213 34.611C36.751 34.1999 36.7064 33.7475 36.7932 33.311C36.88 32.8746 37.0943 32.4737 37.409 32.159C37.7237 31.8443 38.1246 31.63 38.561 31.5432C38.9975 31.4564 39.4499 31.501 39.861 31.6713C40.2722 31.8416 40.6236 32.13 40.8708 32.5C41.118 32.87 41.25 33.305 41.25 33.75C41.25 34.3467 41.0129 34.919 40.591 35.341C40.169 35.7629 39.5967 36 39 36ZM39 33C38.8517 33 38.7067 33.044 38.5833 33.1264C38.46 33.2088 38.3639 33.3259 38.3071 33.463C38.2503 33.6 38.2355 33.7508 38.2644 33.8963C38.2933 34.0418 38.3648 34.1754 38.4697 34.2803C38.5746 34.3852 38.7082 34.4566 38.8537 34.4856C38.9992 34.5145 39.15 34.4997 39.287 34.4429C39.4241 34.3861 39.5412 34.29 39.6236 34.1667C39.706 34.0433 39.75 33.8983 39.75 33.75C39.75 33.5511 39.671 33.3603 39.5303 33.2197C39.3897 33.079 39.1989 33 39 33Z" fill="#731B55"/>
<path id="Vector_6" d="M40.5 34.5C40.3011 34.5 40.1103 34.421 39.9697 34.2803C39.829 34.1397 39.75 33.9489 39.75 33.75V29.25C39.75 29.0511 39.829 28.8603 39.9697 28.7197C40.1103 28.579 40.3011 28.5 40.5 28.5C40.6989 28.5 40.8897 28.579 41.0303 28.7197C41.171 28.8603 41.25 29.0511 41.25 29.25V33.75C41.25 33.9489 41.171 34.1397 41.0303 34.2803C40.8897 34.421 40.6989 34.5 40.5 34.5Z" fill="#731B55"/>
<path id="Vector_7" d="M33 31.5C32.8011 31.5 32.6103 31.421 32.4697 31.2803C32.329 31.1397 32.25 30.9489 32.25 30.75V27.75C32.25 27.5771 32.3097 27.4095 32.419 27.2756C32.5283 27.1416 32.6806 27.0496 32.85 27.015L40.35 25.515C40.4588 25.4924 40.5712 25.4946 40.679 25.5214C40.7868 25.5483 40.8871 25.5992 40.9725 25.6703C41.0588 25.7403 41.1285 25.8286 41.1765 25.9289C41.2245 26.0292 41.2496 26.1388 41.25 26.25V29.25C41.25 29.4489 41.171 29.6397 41.0303 29.7803C40.8897 29.921 40.6989 30 40.5 30C40.3011 30 40.1103 29.921 39.9697 29.7803C39.829 29.6397 39.75 29.4489 39.75 29.25V27.165L33.75 28.365V29.835L38.1 28.965C38.2938 28.9291 38.4939 28.971 38.657 29.0815C38.8202 29.192 38.9333 29.3622 38.972 29.5555C39.0106 29.7487 38.9716 29.9494 38.8635 30.1141C38.7553 30.2788 38.5867 30.3944 38.394 30.4358L33.144 31.4858C33.0966 31.4955 33.0484 31.5002 33 31.5ZM6.75 19.5C6.30499 19.5 5.86998 19.368 5.49997 19.1208C5.12996 18.8736 4.84157 18.5222 4.67127 18.111C4.50097 17.6999 4.45642 17.2475 4.54323 16.811C4.63005 16.3746 4.84434 15.9737 5.15901 15.659C5.47368 15.3443 5.87459 15.1301 6.31105 15.0432C6.7475 14.9564 7.1999 15.001 7.61104 15.1713C8.02217 15.3416 8.37357 15.63 8.62081 16C8.86804 16.37 9 16.805 9 17.25C9 17.8467 8.76295 18.419 8.34099 18.841C7.91903 19.2629 7.34674 19.5 6.75 19.5ZM6.75 16.5C6.60167 16.5 6.45666 16.544 6.33332 16.6264C6.20999 16.7088 6.11386 16.8259 6.05709 16.963C6.00033 17.1 5.98547 17.2508 6.01441 17.3963C6.04335 17.5418 6.11478 17.6754 6.21967 17.7803C6.32456 17.8852 6.4582 17.9567 6.60368 17.9856C6.74917 18.0145 6.89997 17.9997 7.03701 17.9429C7.17406 17.8861 7.29119 17.79 7.3736 17.6667C7.45601 17.5433 7.5 17.3983 7.5 17.25C7.5 17.0511 7.42098 16.8603 7.28033 16.7197C7.13968 16.579 6.94891 16.5 6.75 16.5Z" fill="#731B55"/>
<path id="Vector_8" d="M8.25 18C8.05109 18 7.86032 17.921 7.71967 17.7803C7.57902 17.6397 7.5 17.4489 7.5 17.25V12.75C7.5 12.5511 7.57902 12.3603 7.71967 12.2197C7.86032 12.079 8.05109 12 8.25 12C8.44891 12 8.63968 12.079 8.78033 12.2197C8.92098 12.3603 9 12.5511 9 12.75V17.25C9 17.4489 8.92098 17.6397 8.78033 17.7803C8.63968 17.921 8.44891 18 8.25 18Z" fill="#731B55"/>
<path id="Vector_9" d="M8.25 13.5C8.05109 13.5 7.86032 13.421 7.71967 13.2804C7.57902 13.1397 7.5 12.9489 7.5 12.75V9.75003C7.49996 9.57713 7.55967 9.40953 7.669 9.2756C7.77834 9.14166 7.9306 9.04961 8.1 9.01503L15.6 7.51503C15.709 7.49279 15.8215 7.49506 15.9295 7.52168C16.0375 7.54831 16.1383 7.59862 16.2244 7.66898C16.3105 7.73933 16.38 7.82797 16.4276 7.92847C16.4753 8.02896 16.5 8.1388 16.5 8.25003V11.25C16.5 11.4229 16.4403 11.5905 16.331 11.7245C16.2217 11.8584 16.0694 11.9505 15.9 11.985L10.65 13.035C10.4562 13.0709 10.2561 13.0291 10.093 12.9186C9.9298 12.8081 9.81668 12.6378 9.77805 12.4446C9.73942 12.2513 9.7784 12.0507 9.88655 11.8859C9.9947 11.7212 10.1633 11.6057 10.356 11.5643L15 10.635V9.16503L9 10.365V12.75C9 12.9489 8.92098 13.1397 8.78033 13.2804C8.63968 13.421 8.44891 13.5 8.25 13.5Z" fill="#731B55"/>
</g>
</g>
<defs>
<clipPath id="clip0_1786_5656">
<rect width="48" height="48" fill="white"/>
</clipPath>
</defs>
</svg>
