<svg width="48" height="48" viewBox="0 0 48 48" fill="none" xmlns="http://www.w3.org/2000/svg">
<g id="&#208;&#184;&#208;&#186;&#208;&#190;&#208;&#189;&#208;&#186;&#208;&#184;/&#208;&#186;&#208;&#176;&#209;&#130;&#208;&#176;&#208;&#187;&#208;&#190;&#208;&#179;/&#208;&#191;&#209;&#128;&#208;&#176;&#208;&#183;&#208;&#180;&#208;&#189;&#208;&#184;&#208;&#186;" clip-path="url(#clip0_1786_5692)">
<g id="Group">
<path id="Vector" d="M0.749889 22.5C0.550976 22.506 0.35784 22.4327 0.212968 22.2963C0.0680966 22.1598 -0.016644 21.9714 -0.0226114 21.7725C-0.0285788 21.5736 0.0447159 21.3805 0.181149 21.2356C0.317581 21.0907 0.505976 21.006 0.704889 21C0.957639 20.985 26.2004 19.3245 45.2789 3.91501C45.3553 3.85102 45.4436 3.8029 45.5388 3.77345C45.634 3.74399 45.7341 3.7338 45.8333 3.74347C45.9325 3.75313 46.0287 3.78247 46.1164 3.82975C46.2041 3.87703 46.2815 3.94132 46.3441 4.01885C46.4067 4.09638 46.4532 4.18561 46.4809 4.28132C46.5086 4.37703 46.517 4.4773 46.5055 4.57628C46.4941 4.67526 46.463 4.77096 46.4141 4.8578C46.3652 4.94463 46.2995 5.02085 46.2209 5.08201C26.7591 20.8028 1.04989 22.4835 0.793388 22.5C0.778898 22.5007 0.76438 22.5007 0.749889 22.5Z" fill="#731B55"/>
<path id="Vector_2" d="M12.7498 33C12.6468 33 12.5448 32.9787 12.4504 32.9375C12.3559 32.8964 12.271 32.8362 12.2008 32.7607L4.53805 24.5107C4.40259 24.3649 4.3306 24.1713 4.33791 23.9724C4.34522 23.7735 4.43124 23.5857 4.57705 23.4502C4.72285 23.3148 4.91649 23.2428 5.11537 23.2501C5.31426 23.2574 5.50209 23.3434 5.63755 23.4892L12.1948 30.5497L13.505 19.4122C13.5283 19.214 13.6294 19.0332 13.786 18.9095C13.9426 18.7858 14.142 18.7294 14.3402 18.7526C14.5384 18.7759 14.7192 18.877 14.8429 19.0336C14.9666 19.1902 15.0231 19.3895 14.9998 19.5877L13.4998 32.3377C13.4782 32.5211 13.3897 32.69 13.2514 32.8122C13.113 32.9344 12.9344 33.0013 12.7498 33ZM29.9998 29.25C29.8276 29.2503 29.6606 29.1909 29.5273 29.082L17.5273 19.332C17.4475 19.2711 17.3807 19.1948 17.3308 19.1076C17.281 19.0204 17.2493 18.9241 17.2374 18.8244C17.2255 18.7247 17.2337 18.6236 17.2616 18.5272C17.2896 18.4307 17.3365 18.3409 17.3998 18.2629C17.4631 18.185 17.5414 18.1205 17.6301 18.0734C17.7187 18.0262 17.816 17.9974 17.916 17.9885C18.016 17.9797 18.1168 17.991 18.2123 18.0218C18.3079 18.0527 18.3963 18.1024 18.4723 18.168L29.3248 26.988L29.9998 14.2102C30.0127 14.0122 30.1026 13.8271 30.2501 13.6944C30.3977 13.5617 30.5913 13.4919 30.7895 13.5C30.8881 13.5051 30.9847 13.5296 31.0737 13.572C31.1628 13.6145 31.2426 13.6741 31.3086 13.7475C31.3745 13.8208 31.4254 13.9065 31.4582 13.9996C31.491 14.0926 31.5052 14.1912 31.4998 14.2897L30.7498 28.5397C30.7396 28.7317 30.6561 28.9124 30.5166 29.0446C30.377 29.1767 30.192 29.2503 29.9998 29.25ZM44.2498 21C44.0724 20.9999 43.9007 20.9369 43.7653 20.8222L34.0153 12.5722C33.8686 12.4423 33.7787 12.26 33.7647 12.0646C33.7507 11.8691 33.8138 11.6759 33.9404 11.5264C34.067 11.3768 34.2471 11.2828 34.4422 11.2643C34.6373 11.2459 34.8319 11.3046 34.9843 11.4277L43.4998 18.633V6C43.4998 5.80109 43.5788 5.61032 43.7195 5.46967C43.8601 5.32902 44.0509 5.25 44.2498 5.25C44.4487 5.25 44.6395 5.32902 44.7801 5.46967C44.9208 5.61032 44.9998 5.80109 44.9998 6V20.25C44.9998 20.4489 44.9208 20.6397 44.7801 20.7803C44.6395 20.921 44.4487 21 44.2498 21Z" fill="#731B55"/>
<path id="Vector_3" d="M47.25 36H47.2155C37.1726 35.5673 27.4375 32.4058 19.0567 26.8553C18.9772 26.7971 18.91 26.7238 18.8588 26.6396C18.8077 26.5554 18.7736 26.4619 18.7586 26.3646C18.7435 26.2672 18.7478 26.1678 18.7712 26.0721C18.7945 25.9764 18.8365 25.8862 18.8947 25.8068C18.9529 25.7273 19.0262 25.66 19.1104 25.6089C19.1946 25.5577 19.288 25.5237 19.3854 25.5086C19.4828 25.4936 19.5821 25.4979 19.6778 25.5212C19.7736 25.5446 19.8637 25.5866 19.9432 25.6448C28.1076 30.9743 37.5451 34.031 47.2837 34.5C47.4826 34.5045 47.6716 34.5878 47.8091 34.7316C47.9466 34.8754 48.0213 35.068 48.0168 35.2669C48.0124 35.4658 47.929 35.6548 47.7852 35.7923C47.6414 35.9298 47.4489 36.0045 47.25 36Z" fill="#731B55"/>
<path id="Vector_4" d="M21.75 41.25C21.5585 41.2503 21.3742 41.1774 21.2347 41.0462C21.0953 40.915 21.0113 40.7354 21 40.5442L20.25 27.7942C20.2383 27.5953 20.306 27.3999 20.4384 27.251C20.5707 27.102 20.7568 27.0117 20.9557 27C21.1547 26.9883 21.3501 27.056 21.499 27.1884C21.648 27.3207 21.7383 27.5068 21.75 27.7057L22.4078 38.8807L30.2445 31.6965C30.3171 31.6299 30.4021 31.5783 30.4946 31.5446C30.5872 31.5108 30.6854 31.4956 30.7838 31.4999C30.8823 31.5041 30.9789 31.5277 31.0682 31.5693C31.1574 31.6109 31.2377 31.6697 31.3042 31.7422C31.3708 31.8148 31.4225 31.8998 31.4562 31.9924C31.4899 32.0849 31.5051 32.1832 31.5009 32.2816C31.4966 32.38 31.473 32.4766 31.4314 32.5659C31.3899 32.6552 31.3311 32.7354 31.2585 32.802L22.2585 41.052C22.1199 41.1795 21.9383 41.2502 21.75 41.25ZM36 45.75C35.8183 45.75 35.6427 45.6839 35.506 45.5642C35.3693 45.4444 35.2807 45.2791 35.2567 45.099L33.7567 33.849C33.7352 33.6542 33.7908 33.4586 33.9116 33.3043C34.0324 33.1499 34.2089 33.049 34.4032 33.0231C34.5975 32.9972 34.7942 33.0484 34.9512 33.1658C35.1082 33.2832 35.2131 33.4573 35.2433 33.651L36.5437 43.401L42.9705 36.9742C43.1119 36.8376 43.3014 36.762 43.4981 36.7637C43.6947 36.7655 43.8828 36.8443 44.0219 36.9834C44.1609 37.1224 44.2398 37.3105 44.2415 37.5072C44.2432 37.7038 44.1676 37.8933 44.031 38.0347L36.531 45.5347C36.3895 45.6739 36.1985 45.7514 36 45.75ZM11.25 12H9.75C9.55109 12 9.36032 11.921 9.21967 11.7803C9.07902 11.6397 9 11.4489 9 11.25C9 11.0511 9.07902 10.8603 9.21967 10.7197C9.36032 10.579 9.55109 10.5 9.75 10.5H11.25C11.4489 10.5 11.6397 10.579 11.7803 10.7197C11.921 10.8603 12 11.0511 12 11.25C12 11.4489 11.921 11.6397 11.7803 11.7803C11.6397 11.921 11.4489 12 11.25 12ZM12.75 15C12.5511 15 12.3603 14.921 12.2197 14.7803C12.079 14.6397 12 14.4489 12 14.25V12.75C12 12.5511 12.079 12.3603 12.2197 12.2197C12.3603 12.079 12.5511 12 12.75 12C12.9489 12 13.1397 12.079 13.2803 12.2197C13.421 12.3603 13.5 12.5511 13.5 12.75V14.25C13.5 14.4489 13.421 14.6397 13.2803 14.7803C13.1397 14.921 12.9489 15 12.75 15ZM15.75 12H14.25C14.0511 12 13.8603 11.921 13.7197 11.7803C13.579 11.6397 13.5 11.4489 13.5 11.25C13.5 11.0511 13.579 10.8603 13.7197 10.7197C13.8603 10.579 14.0511 10.5 14.25 10.5H15.75C15.9489 10.5 16.1397 10.579 16.2803 10.7197C16.421 10.8603 16.5 11.0511 16.5 11.25C16.5 11.4489 16.421 11.6397 16.2803 11.7803C16.1397 11.921 15.9489 12 15.75 12ZM12.75 10.5C12.5511 10.5 12.3603 10.421 12.2197 10.2803C12.079 10.1397 12 9.94891 12 9.75V8.25C12 8.05109 12.079 7.86032 12.2197 7.71967C12.3603 7.57902 12.5511 7.5 12.75 7.5C12.9489 7.5 13.1397 7.57902 13.2803 7.71967C13.421 7.86032 13.5 8.05109 13.5 8.25V9.75C13.5 9.94891 13.421 10.1397 13.2803 10.2803C13.1397 10.421 12.9489 10.5 12.75 10.5ZM8.25 38.25H6.75C6.55109 38.25 6.36032 38.171 6.21967 38.0303C6.07902 37.8897 6 37.6989 6 37.5C6 37.3011 6.07902 37.1103 6.21967 36.9697C6.36032 36.829 6.55109 36.75 6.75 36.75H8.25C8.44891 36.75 8.63968 36.829 8.78033 36.9697C8.92098 37.1103 9 37.3011 9 37.5C9 37.6989 8.92098 37.8897 8.78033 38.0303C8.63968 38.171 8.44891 38.25 8.25 38.25ZM9.75 41.25C9.55109 41.25 9.36032 41.171 9.21967 41.0303C9.07902 40.8897 9 40.6989 9 40.5V39C9 38.8011 9.07902 38.6103 9.21967 38.4697C9.36032 38.329 9.55109 38.25 9.75 38.25C9.94891 38.25 10.1397 38.329 10.2803 38.4697C10.421 38.6103 10.5 38.8011 10.5 39V40.5C10.5 40.6989 10.421 40.8897 10.2803 41.0303C10.1397 41.171 9.94891 41.25 9.75 41.25ZM12.75 38.25H11.25C11.0511 38.25 10.8603 38.171 10.7197 38.0303C10.579 37.8897 10.5 37.6989 10.5 37.5C10.5 37.3011 10.579 37.1103 10.7197 36.9697C10.8603 36.829 11.0511 36.75 11.25 36.75H12.75C12.9489 36.75 13.1397 36.829 13.2803 36.9697C13.421 37.1103 13.5 37.3011 13.5 37.5C13.5 37.6989 13.421 37.8897 13.2803 38.0303C13.1397 38.171 12.9489 38.25 12.75 38.25ZM9.75 36.75C9.55109 36.75 9.36032 36.671 9.21967 36.5303C9.07902 36.3897 9 36.1989 9 36V34.5C9 34.3011 9.07902 34.1103 9.21967 33.9697C9.36032 33.829 9.55109 33.75 9.75 33.75C9.94891 33.75 10.1397 33.829 10.2803 33.9697C10.421 34.1103 10.5 34.3011 10.5 34.5V36C10.5 36.1989 10.421 36.3897 10.2803 36.5303C10.1397 36.671 9.94891 36.75 9.75 36.75ZM41.25 28.5H39.75C39.5511 28.5 39.3603 28.421 39.2197 28.2803C39.079 28.1397 39 27.9489 39 27.75C39 27.5511 39.079 27.3603 39.2197 27.2197C39.3603 27.079 39.5511 27 39.75 27H41.25C41.4489 27 41.6397 27.079 41.7803 27.2197C41.921 27.3603 42 27.5511 42 27.75C42 27.9489 41.921 28.1397 41.7803 28.2803C41.6397 28.421 41.4489 28.5 41.25 28.5ZM42.75 31.5C42.5511 31.5 42.3603 31.421 42.2197 31.2803C42.079 31.1397 42 30.9489 42 30.75V29.25C42 29.0511 42.079 28.8603 42.2197 28.7197C42.3603 28.579 42.5511 28.5 42.75 28.5C42.9489 28.5 43.1397 28.579 43.2803 28.7197C43.421 28.8603 43.5 29.0511 43.5 29.25V30.75C43.5 30.9489 43.421 31.1397 43.2803 31.2803C43.1397 31.421 42.9489 31.5 42.75 31.5ZM45.75 28.5H44.25C44.0511 28.5 43.8603 28.421 43.7197 28.2803C43.579 28.1397 43.5 27.9489 43.5 27.75C43.5 27.5511 43.579 27.3603 43.7197 27.2197C43.8603 27.079 44.0511 27 44.25 27H45.75C45.9489 27 46.1397 27.079 46.2803 27.2197C46.421 27.3603 46.5 27.5511 46.5 27.75C46.5 27.9489 46.421 28.1397 46.2803 28.2803C46.1397 28.421 45.9489 28.5 45.75 28.5ZM42.75 27C42.5511 27 42.3603 26.921 42.2197 26.7803C42.079 26.6397 42 26.4489 42 26.25V24.75C42 24.5511 42.079 24.3603 42.2197 24.2197C42.3603 24.079 42.5511 24 42.75 24C42.9489 24 43.1397 24.079 43.2803 24.2197C43.421 24.3603 43.5 24.5511 43.5 24.75V26.25C43.5 26.4489 43.421 26.6397 43.2803 26.7803C43.1397 26.921 42.9489 27 42.75 27Z" fill="#731B55"/>
<path id="Vector_5" d="M23.25 8.25C23.6642 8.25 24 7.91421 24 7.5C24 7.08579 23.6642 6.75 23.25 6.75C22.8358 6.75 22.5 7.08579 22.5 7.5C22.5 7.91421 22.8358 8.25 23.25 8.25Z" fill="#731B55"/>
<path id="Vector_6" d="M37.5 21.75C37.9142 21.75 38.25 21.4142 38.25 21C38.25 20.5858 37.9142 20.25 37.5 20.25C37.0858 20.25 36.75 20.5858 36.75 21C36.75 21.4142 37.0858 21.75 37.5 21.75Z" fill="#731B55"/>
<path id="Vector_7" d="M6.75 15.75C7.16421 15.75 7.5 15.4142 7.5 15C7.5 14.5858 7.16421 14.25 6.75 14.25C6.33579 14.25 6 14.5858 6 15C6 15.4142 6.33579 15.75 6.75 15.75Z" fill="#731B55"/>
<path id="Vector_8" d="M3.75 30C4.16421 30 4.5 29.6642 4.5 29.25C4.5 28.8358 4.16421 28.5 3.75 28.5C3.33579 28.5 3 28.8358 3 29.25C3 29.6642 3.33579 30 3.75 30Z" fill="#731B55"/>
<path id="Vector_9" d="M30 40.5C30.4142 40.5 30.75 40.1642 30.75 39.75C30.75 39.3358 30.4142 39 30 39C29.5858 39 29.25 39.3358 29.25 39.75C29.25 40.1642 29.5858 40.5 30 40.5Z" fill="#731B55"/>
<path id="Vector_10" d="M45.75 43.5C46.1642 43.5 46.5 43.1642 46.5 42.75C46.5 42.3358 46.1642 42 45.75 42C45.3358 42 45 42.3358 45 42.75C45 43.1642 45.3358 43.5 45.75 43.5Z" fill="#731B55"/>
</g>
</g>
<defs>
<clipPath id="clip0_1786_5692">
<rect width="48" height="48" fill="white"/>
</clipPath>
</defs>
</svg>
