<svg width="20" height="20" viewBox="0 0 20 20" fill="none" xmlns="http://www.w3.org/2000/svg">
<g clip-path="url(#clip0_1352_41986)">
<path d="M2.30653 15.5992C1.63823 15.5992 0.985326 15.4286 0.393606 15.0964C0.0891574 14.9396 -0.0287608 14.5473 0.153116 14.2522C0.75741 13.2866 0.975623 12.1062 0.698946 10.9962C0.41217 9.84535 -0.00277127 8.87611 0.000198963 7.65782C0.0104958 3.38361 3.56809 -0.0814611 7.83795 0.0014578C11.9621 0.0845252 15.361 3.55138 15.361 7.67663C15.3611 13.0643 9.71479 16.8469 4.73009 14.7664C4.04303 15.3057 3.17944 15.5992 2.30653 15.5992ZM1.49447 14.2838C2.43346 14.5754 3.48953 14.3424 4.21362 13.6424C4.30073 13.5582 4.41153 13.5026 4.53114 13.4831C4.65074 13.4637 4.77344 13.4812 4.88276 13.5335C9.15034 15.5739 14.173 12.3758 14.1729 7.67663C14.1729 4.17008 11.3203 1.2599 7.81404 1.1893C4.20065 1.11752 1.197 4.04399 1.18829 7.66069C1.18547 8.81784 1.63694 9.74263 1.88367 10.8388C2.14362 11.994 2.00669 13.2155 1.49447 14.2838Z" fill="#731B55"/>
<path d="M17.6934 19.9998C16.8205 19.9998 15.9569 19.7062 15.2699 19.167C12.619 20.2734 9.46568 19.7696 7.29211 17.8925C7.0438 17.678 7.01638 17.3029 7.23078 17.0546C7.44523 16.8063 7.82032 16.7788 8.06863 16.9933C9.99641 18.6581 12.8197 19.0326 15.1172 17.9342C15.2265 17.8819 15.3492 17.8643 15.4688 17.8838C15.5884 17.9032 15.6992 17.9588 15.7863 18.0431C16.5104 18.743 17.5665 18.9762 18.5055 18.6844C17.9012 17.4241 17.8175 15.9802 18.2858 14.6435C18.29 14.6314 18.2946 14.6196 18.2995 14.6078C18.6415 13.8017 18.8138 12.9449 18.8117 12.0613C18.8079 10.5035 18.2897 9.06251 17.313 7.89398C17.1026 7.6422 17.1362 7.2676 17.3879 7.05721C17.6396 6.84677 18.0143 6.88033 18.2246 7.13206C19.365 8.49644 19.9954 10.246 19.9998 12.0584C20.0023 13.0966 19.8009 14.1041 19.4011 15.0534C18.9813 16.2688 19.1744 17.5702 19.8468 18.6527C20.0288 18.9479 19.9108 19.3402 19.6062 19.4971C19.0146 19.8292 18.3616 19.9997 17.6934 19.9998Z" fill="#731B55"/>
<path d="M7.68063 8.64557C8.19976 8.64557 8.6206 8.22495 8.6206 7.70609C8.6206 7.18722 8.19976 6.7666 7.68063 6.7666C7.16149 6.7666 6.74065 7.18722 6.74065 7.70609C6.74065 8.22495 7.16149 8.64557 7.68063 8.64557Z" fill="#731B55"/>
<path d="M4.21752 8.64557C4.73666 8.64557 5.1575 8.22495 5.1575 7.70609C5.1575 7.18722 4.73666 6.7666 4.21752 6.7666C3.69839 6.7666 3.27754 7.18722 3.27754 7.70609C3.27754 8.22495 3.69839 8.64557 4.21752 8.64557Z" fill="#731B55"/>
<path d="M11.1438 8.64557C11.6629 8.64557 12.0837 8.22495 12.0837 7.70609C12.0837 7.18722 11.6629 6.7666 11.1438 6.7666C10.6246 6.7666 10.2038 7.18722 10.2038 7.70609C10.2038 8.22495 10.6246 8.64557 11.1438 8.64557Z" fill="#731B55"/>
</g>
<defs>
<clipPath id="clip0_1352_41986">
<rect width="20" height="20" fill="white"/>
</clipPath>
</defs>
</svg>
