<svg width="9" height="16" viewBox="0 0 9 16" fill="none" xmlns="http://www.w3.org/2000/svg">
<path d="M7.69268 0H5.41938C3.11623 0 0.792329 1.7007 0.792329 5.5002C0.792329 7.46825 1.62648 9.00105 3.15548 9.87275L0.356879 14.9381C0.224229 15.1776 0.220778 15.4491 0.347628 15.6643C0.471479 15.8745 0.697879 16 0.953229 16H2.36878C2.69038 16 2.94118 15.8446 3.06138 15.5723L5.68533 10.44H5.87683V15.3604C5.87683 15.7071 6.16943 16 6.51573 16H7.75248C8.14083 16 8.41203 15.7288 8.41203 15.3405V0.7001C8.41208 0.2879 8.11628 0 7.69268 0ZM5.87688 8.1602H5.53908C4.22923 8.1602 3.44723 7.091 3.44723 5.3001C3.44723 3.07325 4.43508 2.27985 5.35958 2.27985H5.87688V8.1602Z" fill="#F82424"/>
</svg>
