<svg width="10" height="16" viewBox="0 0 10 16" fill="none" xmlns="http://www.w3.org/2000/svg">
<path d="M0.147318 8.58804C-0.261349 9.39138 0.202651 9.77538 1.26132 10.4314C2.16132 10.9874 3.40465 11.1907 4.20332 11.272C3.87598 11.5867 5.37598 10.144 1.05598 14.2994C0.139984 15.1774 1.61465 16.586 2.52998 15.7267L5.00798 13.3367C5.95665 14.2494 6.86598 15.124 7.48598 15.73C8.40198 16.5927 9.87598 15.196 8.96998 14.3027C8.90198 14.238 5.61198 11.082 5.81265 11.2754C6.62132 11.194 7.84598 10.9787 8.73532 10.4347L8.73465 10.434C9.79332 9.77471 10.2573 9.39138 9.85465 8.58804C9.61132 8.13204 8.95532 7.75071 8.08198 8.41004C8.08198 8.41004 6.90265 9.31338 5.00065 9.31338C3.09798 9.31338 1.91932 8.41004 1.91932 8.41004C1.04665 7.74738 0.387984 8.13204 0.147318 8.58804Z" fill="#EE8208"/>
<path d="M4.99929 8.09467C7.31795 8.09467 9.21129 6.28267 9.21129 4.052C9.21129 1.812 7.31795 0 4.99929 0C2.67995 0 0.786621 1.812 0.786621 4.052C0.786621 6.28267 2.67995 8.09467 4.99929 8.09467ZM4.99929 2.05267C6.13862 2.05267 7.06796 2.94667 7.06796 4.052C7.06796 5.148 6.13862 6.042 4.99929 6.042C3.85995 6.042 2.93062 5.148 2.93062 4.052C2.92995 2.946 3.85929 2.05267 4.99929 2.05267Z" fill="#EE8208"/>
</svg>
