<svg width="22" height="19" viewBox="0 0 22 19" fill="none" xmlns="http://www.w3.org/2000/svg">
<path d="M22 17.0129C21.9982 17.2755 21.8931 17.5268 21.7075 17.7126C21.5219 17.8984 21.2706 18.0038 21.008 18.0059H2.992C2.72881 18.0056 2.4765 17.9009 2.29049 17.7147C2.10448 17.5285 2 17.276 2 17.0129V16.0059H20V4.30586L12 11.5059L2 2.50586V1.00586C2 0.740643 2.10536 0.486289 2.29289 0.298753C2.48043 0.111216 2.73478 0.00585938 3 0.00585938H21C21.2652 0.00585938 21.5196 0.111216 21.7071 0.298753C21.8946 0.486289 22 0.740643 22 1.00586V17.0129ZM4.434 2.00586L12 8.81586L19.566 2.00586H4.434ZM0 12.0059H8V14.0059H0V12.0059ZM0 7.00586H5V9.00586H0V7.00586Z" fill="#731B55"/>
</svg>
