<svg width="23" height="20" viewBox="0 0 23 20" fill="none" xmlns="http://www.w3.org/2000/svg">
<path d="M17.5 15V20H15.5V15C15.5 10.549 18.144 6.715 21.947 4.984L22.775 6.804C21.2017 7.51958 19.8677 8.67295 18.9323 10.1263C17.9969 11.5797 17.4996 13.2716 17.5 15ZM7.49998 15V20H5.49998V15C5.50012 13.2718 5.0028 11.5801 4.06741 10.1269C3.13202 8.67372 1.7981 7.52051 0.224976 6.805L1.05298 4.984C2.97566 5.85849 4.60598 7.26796 5.7492 9.04405C6.89242 10.8201 7.50021 12.8878 7.49998 15ZM11.5 10C10.1739 10 8.90212 9.47322 7.96444 8.53553C7.02676 7.59785 6.49998 6.32608 6.49998 5C6.49998 3.67392 7.02676 2.40215 7.96444 1.46447C8.90212 0.526784 10.1739 0 11.5 0C12.8261 0 14.0978 0.526784 15.0355 1.46447C15.9732 2.40215 16.5 3.67392 16.5 5C16.5 6.32608 15.9732 7.59785 15.0355 8.53553C14.0978 9.47322 12.8261 10 11.5 10ZM11.5 8C11.8939 8 12.284 7.9224 12.648 7.77164C13.012 7.62087 13.3427 7.3999 13.6213 7.12132C13.8999 6.84274 14.1208 6.51203 14.2716 6.14805C14.4224 5.78407 14.5 5.39397 14.5 5C14.5 4.60603 14.4224 4.21593 14.2716 3.85195C14.1208 3.48797 13.8999 3.15726 13.6213 2.87868C13.3427 2.6001 13.012 2.37913 12.648 2.22836C12.284 2.0776 11.8939 2 11.5 2C10.7043 2 9.94126 2.31607 9.37865 2.87868C8.81605 3.44129 8.49998 4.20435 8.49998 5C8.49998 5.79565 8.81605 6.55871 9.37865 7.12132C9.94126 7.68393 10.7043 8 11.5 8Z" fill="#731B55"/>
</svg>
