<svg width="65" height="64" viewBox="0 0 65 64" fill="none" xmlns="http://www.w3.org/2000/svg">
<g clip-path="url(#clip0_1314_13148)">
<path d="M15.8 56C3.10003 56 0.835034 43.293 0.814034 43.164C0.776763 42.9373 0.818662 42.7048 0.932687 42.5054C1.04671 42.3059 1.22591 42.1519 1.44016 42.069C1.65441 41.9862 1.89065 41.9796 2.10916 42.0505C2.32767 42.1213 2.51513 42.2652 2.64003 42.458C2.66203 42.491 5.00003 46 8.80003 46C9.54381 46.0554 10.2873 45.8889 10.9363 45.5215C11.5854 45.154 12.1108 44.6023 12.446 43.936C10.5233 43.7199 8.69842 42.9738 7.17503 41.781C5.28298 40.1157 4.08644 37.7997 3.82303 35.293C3.51203 34.659 2.80003 32.793 2.80003 29C2.72902 26.2948 3.50138 23.6346 5.01003 21.388C5.10652 21.2666 5.22926 21.1686 5.36902 21.1014C5.50879 21.0342 5.66196 20.9996 5.81703 21C5.97245 21.0026 6.12514 21.0413 6.26296 21.1132C6.40079 21.185 6.51997 21.288 6.61103 21.414C6.66903 21.495 12.511 29.514 17.116 31.052C19.4609 31.8341 21.5181 33.3 23.023 35.261C23.613 33.244 24.885 31 27.8 31C28.5702 30.9993 29.3259 31.2088 29.9857 31.6061C30.6454 32.0033 31.1843 32.5731 31.544 33.254L33.244 34.105C33.4134 34.1896 33.5552 34.3206 33.653 34.4827C33.7509 34.6447 33.8007 34.8313 33.7967 35.0205C33.7928 35.2098 33.7351 35.394 33.6306 35.5519C33.526 35.7097 33.3788 35.8346 33.206 35.912C32.5681 36.2134 31.9583 36.5711 31.384 36.981C30.378 37.712 29.8 38.447 29.8 39C29.8096 39.7909 29.9669 40.573 30.264 41.306C30.6035 42.1644 30.7851 43.077 30.8 44C30.8 46.815 29.718 56 15.8 56ZM4.02203 46.527C5.00826 48.811 6.6591 50.7452 8.75974 52.078C10.8604 53.4109 13.3135 54.0806 15.8 54C27.533 54 28.8 47.007 28.8 44C28.7839 43.2993 28.6391 42.6075 28.373 41.959C28.0033 41.0158 27.8091 40.013 27.8 39C27.8 37.745 28.612 36.521 30.213 35.362C30.365 35.252 30.513 35.148 30.665 35.051L30.353 34.895C30.133 34.7843 29.9612 34.5968 29.87 34.368C29.6947 33.9639 29.4057 33.6195 29.0382 33.3766C28.6707 33.1338 28.2405 33.0029 27.8 33C27 33 25.145 33 24.507 38.109C24.4797 38.3289 24.3801 38.5335 24.2238 38.6906C24.0676 38.8478 23.8635 38.9486 23.6438 38.9772C23.4241 39.0058 23.201 38.9606 23.0098 38.8487C22.8185 38.7368 22.6698 38.5646 22.587 38.359C21.9792 37.0981 21.1269 35.9705 20.0798 35.0417C19.0326 34.1128 17.8114 33.4011 16.487 32.948C12.408 31.59 7.84003 26.243 5.91503 23.8C5.16762 25.431 4.78701 27.206 4.80003 29C4.80003 32.972 5.64603 34.466 5.65403 34.48C5.73668 34.6197 5.7866 34.7763 5.80003 34.938C5.99195 36.9628 6.92797 38.8445 8.42703 40.219C9.9453 41.3942 11.8162 42.0219 13.736 42C13.8845 41.992 14.033 42.0164 14.1711 42.0715C14.3093 42.1266 14.4338 42.211 14.536 42.319C14.6372 42.4285 14.7126 42.5592 14.7567 42.7016C14.8008 42.844 14.8126 42.9945 14.791 43.142C14.5616 44.5454 13.8246 45.8155 12.7201 46.7112C11.6156 47.6068 10.2205 48.0655 8.80003 48C7.09728 47.9888 5.43552 47.4765 4.02203 46.527Z" fill="#731B55"/>
<path d="M21.8001 33C21.6499 33.0002 21.5017 32.9666 21.3663 32.9016C21.2309 32.8367 21.1119 32.7422 21.0181 32.625C19.328 30.4479 17.0369 28.8139 14.4281 27.925C12.6097 27.0226 11.1765 25.4964 10.3901 23.625C10.1004 24.0815 9.91813 24.5978 9.85706 25.135C9.81993 25.3977 9.67996 25.6348 9.46795 25.7943C9.25594 25.9538 8.98926 26.0226 8.72656 25.9855C8.46386 25.9483 8.22668 25.8084 8.06718 25.5964C7.90768 25.3843 7.83893 25.1177 7.87606 24.855C7.92794 24.0456 8.19672 23.2651 8.65419 22.5955C9.11167 21.9258 9.74097 21.3916 10.4761 21.049C10.6019 21.0059 10.735 20.9884 10.8677 20.9974C11.0003 21.0065 11.1298 21.0418 11.2487 21.1015C11.3675 21.1612 11.4732 21.244 11.5596 21.345C11.6461 21.4461 11.7115 21.5633 11.7521 21.69C11.7641 21.725 12.8891 25.154 15.1711 26.066C18.1009 27.0803 20.6745 28.921 22.5811 31.366C22.7016 31.5129 22.7777 31.6912 22.8005 31.8798C22.8233 32.0685 22.7919 32.2598 22.71 32.4312C22.628 32.6027 22.4989 32.7473 22.3378 32.848C22.1766 32.9487 21.9901 33.0014 21.8001 33ZM49.8001 56C35.8821 56 34.8001 46.815 34.8001 44C34.815 43.077 34.9966 42.1643 35.3361 41.306C35.6331 40.5729 35.7905 39.7908 35.8001 39C35.7198 38.4936 35.4613 38.0325 35.0711 37.7C34.8895 37.5106 34.7897 37.2575 34.793 36.9953C34.7963 36.733 34.9026 36.4825 35.0888 36.2978C35.2751 36.1131 35.5264 36.009 35.7887 36.0079C36.051 36.0068 36.3033 36.1088 36.4911 36.292C36.8785 36.6335 37.1939 37.0489 37.4186 37.514C37.6434 37.979 37.7731 38.4842 37.8001 39C37.791 40.013 37.5968 41.0158 37.2271 41.959C36.961 42.6074 36.8162 43.2992 36.8001 44C36.8001 47.007 38.0671 54 49.8001 54C52.2907 54.0853 54.749 53.4167 56.8534 52.0817C58.9577 50.7467 60.61 48.8075 61.5941 46.518C60.1768 47.4732 58.5091 47.9888 56.8001 48C55.3802 48.065 53.9859 47.6064 52.8818 46.7112C51.7778 45.816 51.0409 44.5466 50.8111 43.144C50.7895 42.9964 50.8013 42.846 50.8454 42.7036C50.8895 42.5612 50.9649 42.4305 51.0661 42.321C51.1678 42.2123 51.2922 42.1274 51.4305 42.0723C51.5688 42.0172 51.7175 41.9932 51.8661 42.002C53.7856 42.0161 55.6549 41.3886 57.1771 40.219C58.6754 38.8431 59.61 36.9603 59.8001 34.935C59.8115 34.7684 59.8641 34.6072 59.9531 34.466C59.9531 34.466 60.8001 32.971 60.8001 29C60.8133 27.2059 60.4327 25.4308 59.6851 23.8C57.7601 26.241 53.1921 31.588 49.1161 32.946C47.7888 33.3936 46.565 34.1032 45.5171 35.0326C44.4693 35.9621 43.6188 37.0926 43.0161 38.357C42.9333 38.5625 42.7846 38.7348 42.5933 38.8467C42.4021 38.9586 42.179 39.0037 41.9593 38.9751C41.7396 38.9465 41.5355 38.8457 41.3793 38.6886C41.223 38.5315 41.1234 38.3269 41.0961 38.107C40.4551 33 38.6001 33 37.8001 33C37.3581 33.0031 36.9266 33.135 36.5584 33.3795C36.1902 33.6241 35.9013 33.9707 35.7271 34.377C35.6327 34.6006 35.4628 34.7839 35.2471 34.895L33.2471 35.895C33.0097 36.0135 32.735 36.0329 32.4833 35.9489C32.2316 35.8649 32.0236 35.6843 31.9051 35.447C31.7865 35.2096 31.7671 34.9348 31.8511 34.6832C31.9351 34.4315 32.1157 34.2235 32.3531 34.105L34.0531 33.254C34.4131 32.5726 34.9524 32.0025 35.6127 31.6052C36.2731 31.208 37.0294 30.9987 37.8001 31C40.7151 31 41.9881 33.244 42.5771 35.261C44.082 33.3 46.1392 31.8341 48.4841 31.052C53.0901 29.516 58.9311 21.495 58.9891 21.414C59.0801 21.288 59.1993 21.185 59.3371 21.1131C59.475 21.0413 59.6276 21.0025 59.7831 21C59.9381 20.9999 60.0911 21.0347 60.2308 21.1019C60.3705 21.169 60.4933 21.2668 60.5901 21.388C62.0987 23.6345 62.8711 26.2948 62.8001 29C62.8001 32.793 62.0881 34.659 61.7771 35.293C61.5137 37.7997 60.3171 40.1157 58.4251 41.781C56.9013 42.9739 55.0761 43.72 53.1531 43.936C53.4886 44.6022 54.0142 45.1539 54.6634 45.5214C55.3126 45.8888 56.0562 46.0553 56.8001 46C60.6301 46 62.9371 42.493 62.9601 42.458C63.085 42.2652 63.2724 42.1213 63.4909 42.0504C63.7094 41.9796 63.9457 41.9862 64.1599 42.069C64.3742 42.1518 64.5534 42.3059 64.6674 42.5053C64.7814 42.7047 64.8233 42.9373 64.7861 43.164C64.7651 43.293 62.5001 56 49.8001 56Z" fill="#731B55"/>
<path d="M43.7998 33C43.6115 32.9999 43.427 32.9466 43.2676 32.8462C43.1082 32.7459 42.9804 32.6025 42.8989 32.4327C42.8174 32.2629 42.7855 32.0736 42.8069 31.8864C42.8283 31.6993 42.9021 31.522 43.0198 31.375C44.9264 28.9301 47.5 27.0893 50.4298 26.075C52.7118 25.163 53.8368 21.734 53.8488 21.699C53.8892 21.5727 53.9542 21.4557 54.04 21.3546C54.1258 21.2535 54.2308 21.1704 54.3488 21.11C54.5893 20.9919 54.8666 20.9733 55.1208 21.058C55.2338 21.092 57.7998 22.017 57.7998 26C57.7998 26.2652 57.6945 26.5196 57.5069 26.7071C57.3194 26.8946 57.065 27 56.7998 27C56.5346 27 56.2802 26.8946 56.0927 26.7071C55.9052 26.5196 55.7998 26.2652 55.7998 26C55.8431 25.1693 55.637 24.3446 55.2078 23.632C54.4221 25.5035 52.9891 27.0299 51.1708 27.932C48.562 28.8209 46.2709 30.4549 44.5808 32.632C44.4864 32.7478 44.3672 32.8409 44.2321 32.9046C44.0969 32.9683 43.9492 33.0009 43.7998 33ZM32.7998 28C32.7002 27.9998 32.6011 27.985 32.5058 27.956C28.0288 26.578 21.7998 19.793 21.7998 15C21.7998 10.944 24.3228 8 27.7998 8C28.7539 8.06014 29.6866 8.30804 30.5447 8.7295C31.4027 9.15096 32.1691 9.73768 32.7998 10.456C33.4306 9.73768 34.1969 9.15096 35.0549 8.7295C35.913 8.30804 36.8458 8.06014 37.7998 8C41.2768 8 43.7998 10.944 43.7998 15C43.7618 16.1831 43.4752 17.3449 42.9588 18.41C42.906 18.5314 42.8297 18.6411 42.7342 18.7328C42.6387 18.8245 42.526 18.8963 42.4025 18.944C42.2791 18.9918 42.1473 19.0146 42.015 19.011C41.8827 19.0075 41.7524 18.9777 41.6317 18.9235C41.5109 18.8692 41.4022 18.7915 41.3117 18.6948C41.2212 18.5982 41.1508 18.4846 41.1046 18.3605C41.0584 18.2365 41.0373 18.1045 41.0424 17.9722C41.0476 17.84 41.079 17.71 41.1348 17.59C41.5315 16.7813 41.7578 15.8998 41.7998 15C41.7998 12.056 40.1548 10 37.7998 10C35.4828 10 33.6378 12.547 33.6188 12.573C33.522 12.698 33.3978 12.7992 33.2559 12.8688C33.1139 12.9384 32.9579 12.9745 32.7998 12.9745C32.6417 12.9745 32.4857 12.9384 32.3437 12.8688C32.2018 12.7992 32.0776 12.698 31.9808 12.573C31.9638 12.549 30.1358 10 27.7998 10C25.4448 10 23.7998 12.056 23.7998 15C23.7998 18.433 28.8428 24.509 32.7998 25.945C35.4606 24.7097 37.7506 22.7977 39.4408 20.4C39.5999 20.1878 39.8368 20.0476 40.0994 20.01C40.3619 19.9725 40.6286 20.0409 40.8408 20.2C41.053 20.3591 41.1932 20.596 41.2308 20.8586C41.2683 21.1211 41.1999 21.3878 41.0408 21.6C38.7408 24.684 35.6198 27.18 33.0908 27.958C32.9964 27.9861 32.8983 28.0002 32.7998 28Z" fill="#731B55"/>
</g>
<defs>
<clipPath id="clip0_1314_13148">
<rect width="64" height="64" fill="white" transform="translate(0.799805)"/>
</clipPath>
</defs>
</svg>
