<svg width="65" height="64" viewBox="0 0 65 64" fill="none" xmlns="http://www.w3.org/2000/svg">
<mask id="mask0_1314_13222" style="mask-type:luminance" maskUnits="userSpaceOnUse" x="0" y="0" width="65" height="64">
<path d="M0.599609 0.00018692H64.5994V64H0.599609V0.00018692Z" fill="white"/>
</mask>
<g mask="url(#mask0_1314_13222)">
<path d="M59.9349 7.67119C59.9348 7.67117 59.9347 7.67115 59.9347 7.67113C59.9304 7.67248 59.9248 7.6745 59.9181 7.67751C59.8927 7.68905 59.8705 7.70663 59.8552 7.72444C59.8532 7.72678 59.8514 7.729 59.8498 7.73109C59.8515 7.73334 59.8534 7.73575 59.8556 7.7383C59.8711 7.75632 59.8934 7.77397 59.9189 7.78551C59.9253 7.78839 59.9307 7.79037 59.9349 7.7917C59.9349 7.79172 59.935 7.79175 59.9351 7.79177C59.9394 7.79042 59.945 7.78839 59.9516 7.78538C59.9771 7.77383 59.9993 7.75625 60.0146 7.73843C60.0166 7.73609 60.0184 7.73387 60.02 7.73178C60.0183 7.72954 60.0164 7.72714 60.0142 7.72461C59.9987 7.70659 59.9764 7.68894 59.9509 7.6774C59.9445 7.6745 59.9391 7.67252 59.9349 7.67119Z" fill="#731B55" stroke="#731B55" stroke-width="2"/>
<path d="M28.7939 40.0862C28.7939 40.0862 19.5258 44.8977 19.5258 63.0626M28.7939 40.0862C28.7939 40.0862 39.9244 39.2339 44.0784 55.4283M28.7939 40.0862C28.7939 40.0862 33.9864 29.061 49.9631 32.7367M28.7939 40.0862C28.7939 40.0862 29.9123 27.3011 16.1055 22.7464" stroke="#731B55" stroke-width="2" stroke-miterlimit="10" stroke-linecap="round" stroke-linejoin="round"/>
<path d="M3.5625 42.9358C15.3177 32.0001 28.7934 40.086 28.7934 40.086C28.7934 40.086 29.3525 31.2963 36.1427 25.4632" stroke="#731B55" stroke-width="2" stroke-miterlimit="10" stroke-linecap="round" stroke-linejoin="round"/>
<path d="M16.1055 31.0567C16.1055 31.0567 25.6784 33.454 28.7939 40.0861C28.7939 40.0861 35.584 36.6502 43.3328 38.6478" stroke="#731B55" stroke-width="2" stroke-miterlimit="10" stroke-linecap="round" stroke-linejoin="round"/>
<path d="M15.3184 46.2132C20.8256 40.0785 28.7941 40.0861 28.7941 40.0861C28.7941 40.0861 32.2247 43.5541 32.2247 53.3058" stroke="#731B55" stroke-width="2" stroke-miterlimit="10" stroke-linecap="round" stroke-linejoin="round"/>
<path d="M46.6185 39.4116C46.6184 39.4115 46.6184 39.4115 46.6183 39.4115C46.614 39.4128 46.6084 39.4149 46.6018 39.4179C46.5763 39.4294 46.5541 39.447 46.5388 39.4648C46.5368 39.4672 46.535 39.4694 46.5334 39.4715C46.5351 39.4737 46.537 39.4761 46.5392 39.4786C46.5547 39.4967 46.577 39.5143 46.6025 39.5259C46.6089 39.5288 46.6143 39.5307 46.6185 39.5321C46.6186 39.5321 46.6186 39.5321 46.6187 39.5321C46.623 39.5308 46.6286 39.5288 46.6352 39.5257C46.6607 39.5142 46.6829 39.4966 46.6982 39.4788C46.7002 39.4765 46.702 39.4743 46.7036 39.4722C46.7019 39.4699 46.7 39.4675 46.6978 39.465C46.6823 39.4469 46.66 39.4293 46.6345 39.4177C46.6281 39.4149 46.6227 39.4129 46.6185 39.4116Z" fill="#731B55" stroke="#731B55" stroke-width="2"/>
<path d="M32.1087 56.7608C32.1087 56.7608 32.1086 56.7608 32.1085 56.7607C32.1042 56.7621 32.0986 56.7641 32.092 56.7671C32.0665 56.7787 32.0443 56.7962 32.029 56.8141C32.027 56.8164 32.0252 56.8186 32.0236 56.8207C32.0253 56.823 32.0273 56.8254 32.0294 56.8279C32.0449 56.8459 32.0672 56.8636 32.0927 56.8751C32.0991 56.878 32.1045 56.88 32.1087 56.8813C32.1088 56.8813 32.1089 56.8814 32.1089 56.8814C32.1132 56.88 32.1188 56.878 32.1255 56.875C32.151 56.8634 32.1731 56.8459 32.1884 56.8281C32.1904 56.8257 32.1922 56.8235 32.1938 56.8214C32.1921 56.8192 32.1902 56.8167 32.188 56.8142C32.1725 56.7962 32.1502 56.7785 32.1247 56.767C32.1183 56.7641 32.113 56.7621 32.1087 56.7608Z" fill="#731B55" stroke="#731B55" stroke-width="2"/>
<path d="M12.6107 30C12.6106 30 12.6106 29.9999 12.6105 29.9999C12.6062 30.0013 12.6006 30.0033 12.594 30.0063C12.5685 30.0178 12.5463 30.0354 12.531 30.0532C12.529 30.0556 12.5272 30.0578 12.5256 30.0599C12.5273 30.0621 12.5293 30.0646 12.5314 30.0671C12.5469 30.0851 12.5692 30.1028 12.5947 30.1143C12.6011 30.1172 12.6065 30.1192 12.6107 30.1205C12.6108 30.1205 12.6108 30.1205 12.6109 30.1206C12.6152 30.1192 12.6208 30.1172 12.6274 30.1142C12.6529 30.1026 12.6751 30.0851 12.6904 30.0673C12.6924 30.0649 12.6942 30.0627 12.6958 30.0606C12.6941 30.0583 12.6921 30.0559 12.69 30.0534C12.6745 30.0354 12.6522 30.0177 12.6267 30.0062C12.6203 30.0033 12.6149 30.0013 12.6107 30Z" fill="#731B55" stroke="#731B55" stroke-width="2"/>
<path d="M31.8822 60.276C31.8821 60.276 31.882 60.2759 31.882 60.2759C31.8777 60.2773 31.8721 60.2793 31.8655 60.2823C31.84 60.2939 31.8178 60.3114 31.8025 60.3292C31.8005 60.3316 31.7987 60.3338 31.7971 60.3359C31.7988 60.3381 31.8007 60.3406 31.8029 60.3431C31.8184 60.3611 31.8407 60.3788 31.8662 60.3903C31.8726 60.3932 31.878 60.3952 31.8822 60.3965C31.8823 60.3965 31.8823 60.3965 31.8824 60.3966C31.8867 60.3952 31.8923 60.3932 31.8989 60.3902C31.9244 60.3786 31.9466 60.3611 31.9619 60.3433C31.9639 60.3409 31.9657 60.3387 31.9673 60.3366C31.9656 60.3343 31.9636 60.3319 31.9614 60.3294C31.946 60.3114 31.9236 60.2937 31.8982 60.2822C31.8918 60.2793 31.8864 60.2773 31.8822 60.276Z" fill="#731B55" stroke="#731B55" stroke-width="2"/>
<path d="M9.09693 29.0928C9.09687 29.0928 9.09681 29.0928 9.09675 29.0928C9.09244 29.0941 9.08685 29.0961 9.08021 29.0991C9.05472 29.1107 9.03255 29.1283 9.01725 29.1461C9.01524 29.1484 9.01345 29.1506 9.01186 29.1527C9.01357 29.155 9.0155 29.1574 9.01768 29.1599C9.03316 29.178 9.05548 29.1956 9.08096 29.2071C9.08734 29.21 9.09273 29.212 9.09693 29.2133C9.09701 29.2134 9.09708 29.2134 9.09715 29.2134C9.10147 29.2121 9.10708 29.21 9.11374 29.207C9.13924 29.1954 9.16143 29.1779 9.17672 29.16C9.17872 29.1577 9.1805 29.1555 9.18208 29.1534C9.18039 29.1512 9.17846 29.1488 9.17629 29.1463C9.16082 29.1282 9.13849 29.1106 9.11298 29.099C9.10657 29.0961 9.10116 29.0942 9.09693 29.0928Z" fill="#731B55" stroke="#731B55" stroke-width="2"/>
<path d="M49.679 40.5456C49.6789 40.5456 49.6789 40.5455 49.6788 40.5455C49.6745 40.5469 49.6689 40.5489 49.6623 40.5519C49.6368 40.5634 49.6146 40.581 49.5993 40.5988C49.5973 40.6012 49.5955 40.6034 49.5939 40.6055C49.5956 40.6077 49.5976 40.6101 49.5998 40.6127C49.6152 40.6307 49.6376 40.6484 49.663 40.6599C49.6694 40.6628 49.6748 40.6648 49.679 40.6661C49.6791 40.6661 49.6791 40.6661 49.6792 40.6662C49.6835 40.6648 49.6891 40.6628 49.6958 40.6598C49.7212 40.6482 49.7434 40.6306 49.7587 40.6128C49.7607 40.6105 49.7625 40.6083 49.7641 40.6062C49.7624 40.6039 49.7605 40.6015 49.7583 40.599C49.7429 40.581 49.7205 40.5633 49.695 40.5518C49.6886 40.5489 49.6832 40.5469 49.679 40.5456Z" fill="#731B55" stroke="#731B55" stroke-width="2"/>
<path d="M54.5235 0.937704C54.5235 0.937704 49.4269 5.29694 48.041 14.191C48.041 14.191 55.1459 10.3719 62.4128 14.0127" stroke="#731B55" stroke-width="2" stroke-miterlimit="10" stroke-linecap="round" stroke-linejoin="round"/>
<path d="M36.1439 6.12018C45.0698 6.98768 48.0411 14.1909 48.0411 14.1909C48.0411 14.1909 39.3791 13.0599 33.0527 19.1321" stroke="#731B55" stroke-width="2" stroke-miterlimit="10" stroke-linecap="round" stroke-linejoin="round"/>
<path d="M59.163 30.1322C56.4352 14.6816 48.0397 14.1911 48.0397 14.1911C48.0397 14.1911 42.5956 17.8041 42.7903 27.2217" stroke="#731B55" stroke-width="2" stroke-miterlimit="10" stroke-linecap="round" stroke-linejoin="round"/>
<path d="M56.2863 8.22705C50.6557 9.34243 48.0395 14.1912 48.0395 14.1912C48.0395 14.1912 43.4275 10.7213 37.9297 11.209" stroke="#731B55" stroke-width="2" stroke-miterlimit="10" stroke-linecap="round" stroke-linejoin="round"/>
<path d="M48.293 14.9189C48.293 14.9189 50.0785 17.6862 49.68 22.7464" stroke="#731B55" stroke-width="2" stroke-miterlimit="10" stroke-linecap="round" stroke-linejoin="round"/>
<path d="M33.7943 11.2649C33.7942 11.2649 33.7942 11.2648 33.7941 11.2648C33.7898 11.2662 33.7842 11.2682 33.7776 11.2712C33.7521 11.2828 33.7299 11.3003 33.7146 11.3182C33.7126 11.3205 33.7108 11.3227 33.7092 11.3248C33.7109 11.327 33.7128 11.3294 33.715 11.332C33.7304 11.35 33.7528 11.3676 33.7783 11.3792C33.7847 11.3821 33.7901 11.3841 33.7943 11.3854C33.7944 11.3854 33.7944 11.3854 33.7945 11.3855C33.7988 11.3841 33.8044 11.3821 33.811 11.3791C33.8365 11.3675 33.8587 11.35 33.874 11.3321C33.876 11.3298 33.8778 11.3276 33.8794 11.3255C33.8777 11.3232 33.8757 11.3208 33.8735 11.3183C33.8581 11.3003 33.8358 11.2826 33.8103 11.2711C33.8039 11.2682 33.7985 11.2662 33.7943 11.2649Z" fill="#731B55" stroke="#731B55" stroke-width="2"/>
<path d="M49.4056 26.3943C49.4055 26.3943 49.4055 26.3943 49.4054 26.3943C49.4011 26.3956 49.3955 26.3977 49.3888 26.4007C49.3633 26.4122 49.3411 26.4298 49.3258 26.4476C49.3238 26.4499 49.3221 26.4522 49.3205 26.4542C49.3222 26.4565 49.3241 26.4589 49.3263 26.4614C49.3417 26.4794 49.3641 26.4971 49.3896 26.5086C49.396 26.5115 49.4014 26.5135 49.4056 26.5149C49.4057 26.5149 49.4057 26.5149 49.4058 26.5149C49.4101 26.5136 49.4157 26.5115 49.4223 26.5085C49.4478 26.497 49.47 26.4794 49.4853 26.4616C49.4873 26.4593 49.4891 26.457 49.4907 26.455C49.489 26.4527 49.4871 26.4503 49.4849 26.4477C49.4694 26.4297 49.4471 26.4121 49.4216 26.4005C49.4152 26.3976 49.4098 26.3957 49.4056 26.3943Z" fill="#731B55" stroke="#731B55" stroke-width="2"/>
<path d="M60.6495 51.6588L63.6611 53.3059L60.6495 54.953L59.0025 58.6829L57.3554 54.953L54.3438 53.3059L57.3554 51.6588L59.0025 47.9288" stroke="#731B55" stroke-width="2" stroke-miterlimit="10" stroke-linecap="round" stroke-linejoin="round"/>
<path d="M17.1679 7.96178L14.1562 6.31466L17.1679 4.66754L18.8149 0.937678L20.462 4.66754L23.4736 6.31466L20.462 7.96178L18.8149 11.6918" stroke="#731B55" stroke-width="2" stroke-miterlimit="10" stroke-linecap="round" stroke-linejoin="round"/>
<path d="M4.81272 11.3455L5.97085 13.9681L8.08834 15.1262L5.97085 16.2844L4.81272 18.907L3.6546 16.2844L1.53711 15.1262L3.6546 13.9681L4.81272 11.3455Z" stroke="#731B55" stroke-width="2" stroke-miterlimit="10" stroke-linecap="round" stroke-linejoin="round"/>
<path d="M8.08812 50.8976L9.24624 53.5202L11.3637 54.6783L9.24624 55.8364L8.08812 58.459L6.92999 55.8364L4.8125 54.6783L6.92999 53.5202L8.08812 50.8976Z" stroke="#731B55" stroke-width="2" stroke-miterlimit="10" stroke-linecap="round" stroke-linejoin="round"/>
</g>
</svg>
