<svg width="65" height="64" viewBox="0 0 65 64" fill="none" xmlns="http://www.w3.org/2000/svg">
<g clip-path="url(#clip0_1314_13269)">
<path d="M8.73255 20.2667H10.8659V22.4H8.73255V20.2667ZM8.73255 36.2667H1.26589C0.982988 36.2667 0.711677 36.3791 0.511638 36.5791C0.311599 36.7791 0.199219 37.0504 0.199219 37.3333L0.199219 43.7333C0.199219 44.0162 0.311599 44.2875 0.511638 44.4876C0.711677 44.6876 0.982988 44.8 1.26589 44.8H3.39922V62.9333C3.39922 63.2162 3.5116 63.4875 3.71164 63.6876C3.91168 63.8876 4.18299 64 4.46589 64H22.5992C22.8821 64 23.1534 63.8876 23.3535 63.6876C23.5535 63.4875 23.6659 63.2162 23.6659 62.9333V61.8667H35.3992C35.6821 61.8667 35.9534 61.7543 36.1535 61.5543C36.3535 61.3542 36.4659 61.0829 36.4659 60.8H52.4659V58.6667H35.3992C35.1163 58.6667 34.845 58.7791 34.645 58.9791C34.4449 59.1791 34.3326 59.4504 34.3326 59.7333H23.6659V42.6667H24.7326V44.6933C24.7383 48.8733 28.1259 52.2609 32.3059 52.2667H34.3326V50.1333H32.3059C29.3034 50.1292 26.87 47.6959 26.8659 44.6933V41.6C26.8659 41.3171 26.7535 41.0458 26.5535 40.8458C26.3534 40.6457 26.0821 40.5333 25.7992 40.5333H21.5326C21.2497 40.5333 20.9783 40.6457 20.7783 40.8458C20.5783 41.0458 20.4659 41.3171 20.4659 41.6V46.9333C20.4659 48.1115 19.5107 49.0667 18.3326 49.0667C17.1544 49.0667 16.1992 48.1115 16.1992 46.9333V38.4H34.3326V42.6667C34.3326 42.9496 34.4449 43.2209 34.645 43.4209C34.845 43.621 35.1163 43.7333 35.3992 43.7333H52.4659V41.6H36.4659V37.3333C36.4659 37.0504 36.3535 36.7791 36.1535 36.5791C35.9534 36.3791 35.6821 36.2667 35.3992 36.2667H23.6659V24.5333H21.5326V36.2667H15.1326C14.8497 36.2667 14.5783 36.3791 14.3783 36.5791C14.1783 36.7791 14.0659 37.0504 14.0659 37.3333V43.26C13.5496 42.9601 12.9754 42.7734 12.3815 42.7125C12.6759 42.2313 12.8704 41.6957 12.9535 41.1377C13.0365 40.5797 13.0063 40.0107 12.8648 39.4645C12.7233 38.9186 12.4734 38.4066 12.13 37.9592C11.7866 37.5117 11.3567 37.1379 10.8659 36.86V24.5333H8.73255V36.2667ZM2.33255 38.4H8.73255C9.91069 38.4 10.8659 39.3552 10.8659 40.5333C10.8659 41.7115 9.91069 42.6667 8.73255 42.6667H2.33255V38.4ZM14.0659 53.3333C14.0659 54.5115 13.1107 55.4667 11.9326 55.4667H5.53255V51.2H11.9326C13.1107 51.2 14.0659 52.1552 14.0659 53.3333ZM5.53255 61.8667V57.6H11.9326C13.1107 57.6 14.0659 58.5552 14.0659 59.7333C14.0659 60.9115 13.1107 61.8667 11.9326 61.8667H5.53255ZM18.3326 51.2C18.9404 51.198 19.5408 51.0654 20.0929 50.8111C20.645 50.5567 21.136 50.1867 21.5326 49.726V61.8667H15.6059C16.6555 60.1125 16.2831 57.8568 14.7252 56.5333C15.1874 56.138 15.5585 55.6473 15.8129 55.0949C16.0673 54.5425 16.1991 53.9415 16.1991 53.3333C16.1991 52.7252 16.0673 52.1242 15.8129 51.5718C15.5585 51.0194 15.1874 50.5286 14.7252 50.1333C14.87 50.0068 15.006 49.8707 15.1326 49.726C15.5291 50.1867 16.0201 50.5567 16.5722 50.8111C17.1243 51.0654 17.7247 51.198 18.3326 51.2ZM14.0659 46.9333C14.0659 48.1115 13.1107 49.0667 11.9326 49.0667H5.53255V44.8H11.9326C13.1107 44.8 14.0659 45.7552 14.0659 46.9333ZM21.5326 20.2667H23.6659V22.4H21.5326V20.2667ZM19.3992 18.1333H21.5326V20.2667H19.3992V18.1333ZM15.1326 18.1333H17.2659V20.2667H15.1326V18.1333ZM10.8659 22.4H12.9992V24.5333H10.8659V22.4ZM15.1326 22.4H17.2659V24.5333H15.1326V22.4ZM19.3992 22.4H21.5326V24.5333H19.3992V22.4ZM10.8659 18.1333H12.9992V20.2667H10.8659V18.1333ZM25.7992 16H28.2143C28.9007 16.987 29.8155 17.7934 30.8808 18.3506C31.9461 18.9078 33.1303 19.1992 34.3326 19.2H38.3071C39.8589 20.5741 41.8598 21.3329 43.9326 21.3333H53.5326V19.2H43.9326C40.3992 19.1964 37.5362 16.3333 37.5326 12.8H35.3992C35.3995 14.2993 35.7978 15.7717 36.5534 17.0667H34.3326C31.3883 17.0631 29.0028 14.6776 28.9992 11.7333H26.8659C26.868 12.4562 26.9757 13.1749 27.1856 13.8667H25.7992C23.443 13.8667 21.5326 15.7771 21.5326 18.1333H23.6659C23.6659 16.9552 24.6211 16 25.7992 16Z" fill="#731B55"/>
<path d="M32.3174 2.13333H23.6658C19.9335 2.13867 16.7762 4.89467 16.2663 8.59213C11.9724 9.1036 8.73762 12.7421 8.73242 17.0667V18.1333H10.8658V17.0667C10.8694 13.5333 13.7324 10.6703 17.2658 10.6667C17.5487 10.6667 17.82 10.5543 18.02 10.3542C18.22 10.1542 18.3324 9.8829 18.3324 9.6C18.336 6.65573 20.7215 4.27027 23.6658 4.26667H30.7964C30.3169 5.26537 30.0672 6.35881 30.0658 7.46667H32.1991C32.2027 4.5224 34.5882 2.13693 37.5324 2.13333H53.5324V3.06076e-07H37.5324C35.5815 -0.000559068 33.7085 0.765622 32.3174 2.13333Z" fill="#731B55"/>
</g>
<defs>
<clipPath id="clip0_1314_13269">
<rect width="64" height="64" fill="white" transform="translate(0.199219)"/>
</clipPath>
</defs>
</svg>
