<svg width="65" height="64" viewBox="0 0 65 64" fill="none" xmlns="http://www.w3.org/2000/svg">
<g clip-path="url(#clip0_1314_13173)">
<path d="M39.2254 25.574C38.4754 24.8253 37.4591 24.4048 36.3994 24.4048C35.3397 24.4048 34.3233 24.8253 33.5734 25.574L11.6844 47.464C11.0615 48.0904 10.664 48.9058 10.5541 49.7824C10.4443 50.659 10.6283 51.5472 11.0774 52.308L1.0924 62.293C0.996887 62.3852 0.920705 62.4956 0.868296 62.6176C0.815887 62.7396 0.788301 62.8708 0.787147 63.0036C0.785993 63.1364 0.811295 63.268 0.861576 63.3909C0.911857 63.5138 0.98611 63.6255 1.08 63.7194C1.1739 63.8133 1.28555 63.8875 1.40844 63.9378C1.53134 63.9881 1.66302 64.0134 1.7958 64.0122C1.92858 64.0111 2.0598 63.9835 2.1818 63.9311C2.30381 63.8787 2.41415 63.8025 2.5064 63.707L12.4914 53.722C13.2507 54.1762 14.1401 54.3632 15.018 54.2532C15.8959 54.1432 16.7117 53.7425 17.3354 53.115L39.2254 31.225C39.9738 30.4751 40.394 29.4589 40.394 28.3995C40.394 27.3401 39.9738 26.3239 39.2254 25.574ZM37.8114 29.811L15.9214 51.7C15.7411 51.9064 15.5204 52.0735 15.2729 52.191C15.0254 52.3085 14.7564 52.3739 14.4825 52.3831C14.2087 52.3924 13.9359 52.3452 13.681 52.2447C13.4261 52.1441 13.1946 51.9922 13.0009 51.7985C12.8072 51.6047 12.6553 51.3733 12.5547 51.1184C12.4541 50.8635 12.407 50.5907 12.4163 50.3169C12.4255 50.043 12.4909 49.774 12.6084 49.5265C12.7259 49.279 12.893 49.0582 13.0994 48.878L34.9884 26.988C35.1694 26.7842 35.3902 26.6195 35.6371 26.5041C35.884 26.3887 36.152 26.325 36.4244 26.3169C36.6969 26.3088 36.9681 26.3565 37.2215 26.4571C37.4749 26.5576 37.705 26.7089 37.8978 26.9016C38.0906 27.0943 38.2419 27.3244 38.3425 27.5777C38.4432 27.831 38.491 28.1022 38.483 28.3747C38.475 28.6472 38.4114 28.9151 38.296 29.1621C38.1807 29.4091 38.0151 29.6299 37.8114 29.811Z" fill="#731B55"/>
<path d="M48.2331 36.161C48.0167 35.712 47.8983 35.2221 47.8857 34.7239C47.8732 34.2256 47.9667 33.7304 48.1601 33.271C48.3507 32.8115 48.6356 32.3971 48.9963 32.0545C49.357 31.712 49.7854 31.4488 50.2541 31.282L55.7041 29.342C55.8985 29.2727 56.0667 29.145 56.1857 28.9764C56.3046 28.8077 56.3685 28.6064 56.3685 28.4C56.3685 28.1936 56.3046 27.9923 56.1857 27.8236C56.0667 27.655 55.8985 27.5273 55.7041 27.458L50.2531 25.518C49.7843 25.3512 49.3557 25.0878 48.9951 24.745C48.6344 24.4022 48.3497 23.9875 48.1593 23.5278C47.969 23.0681 47.8772 22.5735 47.8899 22.0761C47.9026 21.5786 48.0195 21.0894 48.2331 20.64L50.7221 15.41C50.811 15.2234 50.84 15.0139 50.805 14.8102C50.7699 14.6065 50.6727 14.4187 50.5265 14.2726C50.3804 14.1264 50.1926 14.0292 49.9889 13.9941C49.7852 13.9591 49.5757 13.9881 49.3891 14.077L44.1591 16.567C43.7103 16.7835 43.2205 16.9019 42.7224 16.9143C42.2242 16.9267 41.7291 16.8329 41.2701 16.639C40.8105 16.4483 40.396 16.1633 40.0534 15.8024C39.7108 15.4416 39.4477 15.0129 39.2811 14.544L37.3411 9.1C37.272 8.90524 37.1443 8.73666 36.9756 8.61744C36.8068 8.49822 36.6052 8.4342 36.3986 8.4342C36.192 8.4342 35.9904 8.49822 35.8216 8.61744C35.6529 8.73666 35.5252 8.90524 35.4561 9.1L33.5171 14.551C33.3501 15.0194 33.0869 15.4477 32.7443 15.8082C32.4017 16.1687 31.9874 16.4534 31.5281 16.644C31.069 16.8376 30.574 16.9313 30.0758 16.9189C29.5777 16.9065 29.088 16.7882 28.6391 16.572L23.4091 14.082C23.2225 13.9931 23.013 13.9641 22.8093 13.9991C22.6056 14.0342 22.4178 14.1314 22.2717 14.2776C22.1255 14.4237 22.0283 14.6115 21.9932 14.8152C21.9582 15.0189 21.9872 15.2284 22.0761 15.415L24.5661 20.644C24.7795 21.0936 24.8962 21.583 24.9087 22.0806C24.9212 22.5781 24.8292 23.0728 24.6387 23.5326C24.4481 23.9924 24.1633 24.4071 23.8025 24.7499C23.4417 25.0928 23.013 25.3561 22.5441 25.523L17.0931 27.463C16.8987 27.5323 16.7305 27.66 16.6115 27.8286C16.4926 27.9973 16.4287 28.1986 16.4287 28.405C16.4287 28.6114 16.4926 28.8127 16.6115 28.9814C16.7305 29.15 16.8987 29.2777 17.0931 29.347L22.5491 31.289C22.8499 31.3956 23.1336 31.5455 23.3911 31.734C23.6057 31.8899 23.8734 31.9543 24.1354 31.9128C24.3974 31.8714 24.6322 31.7276 24.7881 31.513C24.944 31.2984 25.0084 31.0307 24.9669 30.7687C24.9255 30.5067 24.7817 30.2719 24.5671 30.116C24.1537 29.8135 23.6982 29.5733 23.2151 29.403L20.4151 28.403L23.2151 27.403C23.9478 27.1426 24.6177 26.7313 25.1816 26.1958C25.7454 25.6602 26.1905 25.0123 26.4883 24.294C26.786 23.5756 26.9297 22.8027 26.91 22.0254C26.8903 21.248 26.7078 20.4834 26.3741 19.781L25.0951 17.095L27.7821 18.375C28.4844 18.7075 29.2485 18.8891 30.0253 18.9081C30.802 18.9271 31.5742 18.7831 32.2919 18.4854C33.0096 18.1876 33.6569 17.7428 34.1921 17.1795C34.7273 16.6162 35.1384 15.947 35.3991 15.215L36.3991 12.415L37.3991 15.215C37.6595 15.9477 38.0708 16.6176 38.6063 17.1815C39.1419 17.7453 39.7898 18.1904 40.5081 18.4882C41.2265 18.7859 41.9994 18.9296 42.7767 18.9099C43.5541 18.8902 44.3187 18.7077 45.0211 18.374L47.7071 17.095L46.4281 19.782C46.095 20.484 45.9129 21.2481 45.8933 22.0248C45.8738 22.8016 46.0174 23.5738 46.3148 24.2917C46.6122 25.0095 47.0568 25.657 47.6199 26.1924C48.183 26.7278 48.8522 27.1392 49.5841 27.4L52.3841 28.4L49.5841 29.4C48.8514 29.6607 48.1816 30.0721 47.6179 30.6078C47.0541 31.1434 46.609 31.7914 46.3113 32.5098C46.0136 33.2282 45.8699 34.0011 45.8895 34.7785C45.9091 35.5559 46.0916 36.3205 46.4251 37.023L47.7041 39.709L45.0191 38.427C44.3169 38.0936 43.5526 37.9112 42.7756 37.8916C41.9985 37.872 41.226 38.0156 40.5079 38.3131C39.7898 38.6106 39.1421 39.0554 38.6066 39.6188C38.0711 40.1822 37.6598 40.8517 37.3991 41.584L36.3991 44.384L35.3991 41.584C35.2278 41.0994 34.987 40.6423 34.6841 40.227C34.528 40.0124 34.2931 39.8687 34.031 39.8273C33.7689 39.786 33.5012 39.8504 33.2866 40.0065C33.072 40.1626 32.9283 40.3975 32.8869 40.6596C32.8456 40.9217 32.91 41.1894 33.0661 41.404C33.2556 41.663 33.4062 41.9484 33.5131 42.251L35.4521 47.702C35.5212 47.8968 35.6489 48.0653 35.8176 48.1846C35.9864 48.3038 36.188 48.3678 36.3946 48.3678C36.6012 48.3678 36.8028 48.3038 36.9716 48.1846C37.1403 48.0653 37.268 47.8968 37.3371 47.702L39.2771 42.25C39.4439 41.7815 39.7071 41.3531 40.0497 40.9926C40.3923 40.6321 40.8067 40.3474 41.2661 40.157C41.7253 39.9639 42.2203 39.8704 42.7183 39.8828C43.2164 39.8953 43.7061 40.0132 44.1551 40.229L49.3851 42.719C49.5717 42.8079 49.7812 42.8369 49.9849 42.8019C50.1886 42.7668 50.3764 42.6696 50.5225 42.5234C50.6687 42.3773 50.7659 42.1895 50.801 41.9858C50.836 41.7821 50.807 41.5726 50.7181 41.386L48.2331 36.161Z" fill="#731B55"/>
<path d="M42.6604 13.283C42.7817 13.3333 42.9118 13.3592 43.0431 13.3593C43.1745 13.3593 43.3046 13.3335 43.4259 13.2833C43.5473 13.233 43.6576 13.1594 43.7505 13.0665C43.8434 12.9736 43.9171 12.8633 43.9674 12.742L46.8254 5.84198C46.879 5.72014 46.9077 5.58881 46.9099 5.4557C46.9121 5.3226 46.8877 5.19039 46.8381 5.06684C46.7886 4.94329 46.7148 4.83088 46.6212 4.7362C46.5277 4.64152 46.4161 4.56649 46.2931 4.51549C46.1702 4.46449 46.0383 4.43856 45.9051 4.43921C45.772 4.43987 45.6404 4.4671 45.5179 4.5193C45.3954 4.57151 45.2846 4.64764 45.192 4.74323C45.0993 4.83882 45.0267 4.95195 44.9784 5.07598L42.1194 11.976C42.069 12.0973 42.0431 12.2274 42.043 12.3587C42.043 12.4901 42.0688 12.6202 42.1191 12.7416C42.1693 12.8629 42.243 12.9732 42.3358 13.0661C42.4287 13.159 42.539 13.2327 42.6604 13.283ZM46.5434 3.91098C46.6649 3.96082 46.795 3.98663 46.9263 3.98698C47.1242 3.98695 47.3176 3.92821 47.4821 3.8182C47.6466 3.70819 47.7748 3.55186 47.8503 3.36898L48.6724 1.38198C48.7252 1.26018 48.7533 1.12906 48.7549 0.996291C48.7565 0.863522 48.7317 0.731756 48.6819 0.608682C48.632 0.485608 48.5582 0.373691 48.4647 0.279459C48.3711 0.185227 48.2597 0.110569 48.137 0.0598396C48.0143 0.00911026 47.8827 -0.0166741 47.75 -0.0160092C47.6172 -0.0153442 47.4859 0.0117568 47.3637 0.0637126C47.2415 0.115668 47.1309 0.191439 47.0383 0.286602C46.9457 0.381766 46.8729 0.494418 46.8244 0.617985L45.9994 2.59998C45.9485 2.72173 45.9222 2.85233 45.9221 2.98427C45.9219 3.11621 45.9479 3.24687 45.9984 3.36874C46.049 3.4906 46.1232 3.60125 46.2167 3.69432C46.3102 3.78738 46.4212 3.86102 46.5434 3.91098ZM25.9733 5.84298L28.8313 12.743C28.9328 12.988 29.1274 13.1828 29.3724 13.2843C29.6175 13.3859 29.8928 13.3859 30.1378 13.2845C30.3829 13.183 30.5776 12.9884 30.6792 12.7434C30.7807 12.4984 30.7808 12.223 30.6793 11.978L27.8213 5.07798C27.7198 4.83292 27.525 4.63825 27.2799 4.5368C27.0348 4.43534 26.7594 4.43541 26.5143 4.53698C26.2693 4.63856 26.0746 4.83333 25.9732 5.07844C25.8717 5.32355 25.8718 5.59792 25.9733 5.84298ZM24.9493 3.36998C25.0251 3.55267 25.1533 3.7088 25.3178 3.81862C25.4822 3.92844 25.6756 3.98703 25.8733 3.98698C26.0047 3.98663 26.1348 3.96082 26.2563 3.91098C26.3784 3.86092 26.4893 3.78722 26.5827 3.69411C26.6761 3.601 26.7502 3.49034 26.8007 3.36848C26.8511 3.24663 26.877 3.11599 26.8768 2.9841C26.8766 2.85221 26.8502 2.72166 26.7993 2.59998L25.9743 0.616985C25.8728 0.371925 25.678 0.177253 25.4329 0.0757963C25.1878 -0.0256609 24.9124 -0.0255931 24.6673 0.0759848C24.4223 0.177563 24.2276 0.37233 24.1262 0.61744C24.0247 0.86255 24.0248 1.13792 24.1263 1.38298L24.9493 3.36998ZM13.0764 19.822L19.9763 22.68C20.0976 22.7298 20.2273 22.7556 20.3583 22.756C20.5898 22.7561 20.8141 22.676 20.9931 22.5292C21.172 22.3825 21.2945 22.1782 21.3397 21.9512C21.3849 21.7242 21.35 21.4886 21.2408 21.2845C21.1317 21.0804 20.9552 20.9205 20.7413 20.832L13.8413 17.974C13.5963 17.8724 13.3209 17.8723 13.0758 17.9738C12.8307 18.0753 12.6359 18.2699 12.5343 18.515C12.4328 18.76 12.4327 19.0354 12.5342 19.2805C12.6356 19.5256 12.8303 19.7204 13.0753 19.822H13.0764ZM8.61635 17.974L10.5993 18.8C10.7212 18.8536 10.8525 18.8824 10.9856 18.8846C11.1187 18.8868 11.2509 18.8623 11.3745 18.8128C11.498 18.7632 11.6105 18.6895 11.7051 18.5959C11.7998 18.5023 11.8748 18.3907 11.9258 18.2678C11.9768 18.1448 12.0028 18.0129 12.0021 17.8798C12.0015 17.7466 11.9742 17.615 11.922 17.4925C11.8698 17.3701 11.7937 17.2593 11.6981 17.1666C11.6025 17.074 11.4894 17.0013 11.3653 16.953L9.37835 16.129C9.25701 16.0787 9.12695 16.0528 8.9956 16.0528C8.86424 16.0527 8.73417 16.0786 8.6128 16.1288C8.36769 16.2303 8.17293 16.4249 8.07135 16.67C7.96977 16.915 7.9697 17.1904 8.07116 17.4355C8.17262 17.6806 8.36729 17.8754 8.61235 17.977L8.61635 17.974ZM58.9564 17.974L52.0564 20.832C51.8113 20.9334 51.6166 21.1281 51.515 21.3731C51.4135 21.6181 51.4134 21.8934 51.5149 22.1385C51.6163 22.3835 51.8109 22.5783 52.056 22.6798C52.301 22.7814 52.5763 22.7814 52.8214 22.68L59.7214 19.822C59.9664 19.7204 60.1611 19.5256 60.2625 19.2805C60.364 19.0354 60.3639 18.76 60.2624 18.515C60.1608 18.2699 59.966 18.0753 59.7209 17.9738C59.4758 17.8723 59.2004 17.8724 58.9553 17.974H58.9564ZM61.8134 18.874C61.9457 18.8753 62.0769 18.8502 62.1994 18.8L64.1864 17.977C64.3077 17.9267 64.4179 17.853 64.5108 17.7601C64.6037 17.6672 64.6773 17.5569 64.7275 17.4355C64.7778 17.3142 64.8036 17.1841 64.8036 17.0527C64.8036 16.9214 64.7776 16.7913 64.7274 16.67C64.6771 16.5486 64.6034 16.4384 64.5104 16.3455C64.4175 16.2527 64.3073 16.179 64.1859 16.1288C64.0645 16.0786 63.9345 16.0527 63.8031 16.0528C63.6718 16.0528 63.5417 16.0787 63.4203 16.129L61.4343 16.953C61.2205 17.0415 61.044 17.2014 60.9349 17.4055C60.8257 17.6096 60.7908 17.8452 60.836 18.0722C60.8812 18.2992 61.0037 18.5035 61.1826 18.6502C61.3616 18.797 61.5859 18.8771 61.8174 18.877L61.8134 18.874ZM59.7224 36.978L52.8223 34.12C52.5773 34.0185 52.302 34.0186 52.057 34.1202C51.8119 34.2217 51.6173 34.4164 51.5159 34.6615C51.4144 34.9065 51.4145 35.1819 51.516 35.4269C51.6176 35.6719 51.8123 35.8665 52.0574 35.968L58.9574 38.826C59.0789 38.8759 59.209 38.9017 59.3404 38.902C59.5718 38.9021 59.7961 38.822 59.9751 38.6752C60.154 38.5285 60.2765 38.3242 60.3217 38.0972C60.3669 37.8702 60.332 37.6346 60.2228 37.4305C60.1137 37.2264 59.9362 37.0665 59.7224 36.978ZM64.1824 38.825L62.1994 38C61.9543 37.8985 61.679 37.8986 61.434 38.0001C61.1889 38.1017 60.9943 38.2964 60.8928 38.5415C60.7914 38.7865 60.7915 39.0619 60.893 39.3069C60.9946 39.5519 61.1893 39.7465 61.4343 39.848L63.4203 40.671C63.5417 40.7213 63.6718 40.7472 63.8031 40.7472C63.9345 40.7472 64.0645 40.7214 64.1859 40.6712C64.3073 40.6209 64.4175 40.5473 64.5104 40.4544C64.6034 40.3616 64.6771 40.2513 64.7274 40.13C64.7776 40.0086 64.8036 39.8786 64.8036 39.7472C64.8036 39.6159 64.7778 39.4858 64.7275 39.3644C64.6773 39.2431 64.6037 39.1328 64.5108 39.0399C64.4179 38.947 64.3077 38.8733 64.1864 38.823L64.1824 38.825ZM46.8254 50.957L43.9674 44.057C43.8659 43.8119 43.6713 43.6172 43.4263 43.5156C43.1812 43.4141 42.9059 43.414 42.6609 43.5155C42.4158 43.6169 42.2211 43.8116 42.1195 44.0566C42.018 44.3016 42.0179 44.5769 42.1194 44.822L44.9784 51.722C45.0541 51.9047 45.1823 52.0608 45.3468 52.1706C45.5112 52.2804 45.7046 52.339 45.9024 52.339C46.0334 52.3386 46.1631 52.3128 46.2844 52.263C46.5292 52.1614 46.7237 51.9669 46.8252 51.722C46.9266 51.4771 46.9267 51.2019 46.8254 50.957ZM47.8503 53.431C47.7999 53.3094 47.7259 53.199 47.6328 53.1061C47.5396 53.0131 47.429 52.9394 47.3074 52.8892C47.1858 52.8389 47.0554 52.8132 46.9238 52.8133C46.7922 52.8134 46.6619 52.8395 46.5404 52.89C46.4188 52.9405 46.3084 53.0144 46.2154 53.1076C46.1225 53.2007 46.0488 53.3113 45.9985 53.4329C45.9483 53.5546 45.9225 53.6849 45.9227 53.8165C45.9228 53.9482 45.9489 54.0784 45.9994 54.2L46.8214 56.187C46.8969 56.3699 47.0251 56.5262 47.1896 56.6362C47.354 56.7462 47.5475 56.805 47.7453 56.805C47.8767 56.8047 48.0068 56.7789 48.1283 56.729C48.2497 56.6787 48.36 56.605 48.4529 56.5121C48.5457 56.4192 48.6194 56.3089 48.6696 56.1876C48.7199 56.0662 48.7457 55.9361 48.7457 55.8047C48.7456 55.6734 48.7197 55.5433 48.6693 55.422L47.8503 53.431Z" fill="#731B55"/>
</g>
<defs>
<clipPath id="clip0_1314_13173">
<rect width="64" height="64" fill="white" transform="translate(0.799805)"/>
</clipPath>
</defs>
</svg>
