<svg width="65" height="64" viewBox="0 0 65 64" fill="none" xmlns="http://www.w3.org/2000/svg">
<g clip-path="url(#clip0_1314_13186)">
<path d="M33.8268 41.9281H50.8315M29.5755 30.5916H39.495M41.4192 36.2599H45.1633M28.1585 36.2599H37.4112M39.495 47.5964H56.4998M52.4414 53.2646H62.168M45.1633 53.2646H48.4333M50.8315 58.9329H60.7509M30.284 29.883L21.3789 20.9779M62.8765 56.8073L57.2083 62.4755C56.4257 63.2581 55.1568 63.2581 54.3742 62.4755L27.4499 35.5513C26.6673 34.7686 26.6673 33.4997 27.4499 32.7171L33.1182 27.0489C33.9008 26.2663 35.1697 26.2663 35.9523 27.0489L62.8765 53.9731C63.6592 54.7558 63.6592 56.0246 62.8765 56.8073Z" stroke="#731B55" stroke-width="2" stroke-miterlimit="10" stroke-linecap="round" stroke-linejoin="round"/>
<path d="M23.9716 30.6565L21.3783 41.0181L18.7848 30.6565L11.358 38.3332L14.2929 28.0631L4.02277 30.998L11.6995 23.5713L1.33789 20.9779L11.6995 18.3844L4.02277 10.9576L14.2929 13.8925L11.358 3.62238L18.7848 11.2991L21.3783 0.9375L23.9716 11.2991L31.3984 3.62238L28.4635 13.8925L38.7336 10.9576L31.0569 18.3844L41.4185 20.9779L31.0569 23.5713" stroke="#731B55" stroke-width="2" stroke-miterlimit="10" stroke-linecap="round" stroke-linejoin="round"/>
</g>
<defs>
<clipPath id="clip0_1314_13186">
<rect width="64" height="64" fill="white" transform="translate(0.400391)"/>
</clipPath>
</defs>
</svg>
