<svg width="65" height="64" viewBox="0 0 65 64" fill="none" xmlns="http://www.w3.org/2000/svg">
<g clip-path="url(#clip0_1314_13315)">
<path d="M63.3033 16.2038C63.2381 16.0734 63.2381 16.0082 63.1077 15.8777C63.0425 15.7473 62.912 15.6821 62.7164 15.6169L47.7842 7.85736L32.6563 0.0978095C32.3955 -0.0326032 32.0695 -0.0326032 31.8086 0.0978095L16.6156 7.85736L1.61811 15.6169C1.42249 15.6821 1.22687 15.8777 1.16166 16.0734C1.09646 16.2038 1.09646 16.269 1.03125 16.3994V47.5028C1.03125 47.8288 1.22687 48.1549 1.5529 48.3505L31.7434 63.8044C31.7434 63.8044 31.8086 63.8044 31.8086 63.8696C31.8086 63.8696 31.8738 63.8696 31.8738 63.9348C32.0043 64 32.0695 64 32.1999 64C32.3303 64 32.3955 64 32.5259 63.9348C32.5259 63.9348 32.5911 63.9348 32.5911 63.8696C32.5911 63.8696 32.6563 63.8696 32.6563 63.8044L62.8468 48.3505C63.1729 48.1549 63.3685 47.8288 63.3685 47.5028V16.4646C63.3685 16.3342 63.3685 16.269 63.3033 16.2038ZM32.1999 1.98879L46.8713 9.55272L60.369 16.4646L51.1097 21.2247L22.9406 6.74885L32.1999 1.98879ZM44.4587 26.702L47.719 25.0066L49.8708 23.8981V27.9409L48.1102 27.1584C47.719 26.9628 47.2625 27.0932 47.0017 27.4193L44.5239 30.484V26.702H44.4587ZM17.5285 9.55272L20.854 7.85736L49.0231 22.268L43.5458 25.137L15.3766 10.6612L17.5285 9.55272ZM31.287 61.5222L2.92223 46.9159V18.0295L16.6808 25.0718L31.287 32.5706V61.5222ZM32.1999 30.9404L17.5285 23.3765L4.03074 16.4646L13.29 11.7045L41.4592 26.1803L32.1999 30.9404ZM61.4775 46.9812L33.1128 61.457V32.5706L42.6329 27.6801V33.1574C42.6329 33.6791 43.0241 34.0703 43.5458 34.0703C43.8718 34.0703 44.1326 33.9399 44.3282 33.6791L47.9798 29.1798L50.4576 30.2231C50.9141 30.4187 51.5009 30.2231 51.6966 29.7015C51.7618 29.6363 51.7618 29.5059 51.7618 29.3754V22.9852L61.4775 18.0295V46.9812Z" fill="#731B55"/>
</g>
<defs>
<clipPath id="clip0_1314_13315">
<rect width="64" height="64" fill="white" transform="translate(0.199219)"/>
</clipPath>
</defs>
</svg>
