<svg width="64" height="64" viewBox="0 0 64 64" fill="none" xmlns="http://www.w3.org/2000/svg">
<g clip-path="url(#clip0_1314_13281)">
<path d="M30.3984 43.3578H21.779L20.719 40.0958L18.7807 40.7256L20.2982 45.3958H30.3982C30.5936 45.3958 30.6745 45.5181 30.7077 45.6207C30.7412 45.7234 30.7477 45.8699 30.5895 45.9848L22.4186 51.9215L25.5395 61.5272C25.5999 61.7131 25.5086 61.8277 25.4213 61.8912C25.3337 61.9545 25.1965 62.0059 25.0386 61.8912L16.8675 55.9545L8.69649 61.8912C8.53848 62.0059 8.40098 61.9545 8.31375 61.8912C8.22639 61.8277 8.13523 61.7131 8.19555 61.5271L9.65693 57.0294L7.71866 56.3996L6.25728 60.8972C5.93487 61.8894 6.27182 62.9266 7.11569 63.5398C7.95969 64.1531 9.05028 64.1534 9.89428 63.5398L16.8675 58.4735L23.8407 63.5398C24.2625 63.8464 24.7462 63.9997 25.2299 63.9997C25.7137 63.9997 26.1973 63.8464 26.6194 63.5398C27.4633 62.9265 27.8002 61.8894 27.4778 60.8973L24.8143 52.6997L31.7873 47.6334C32.6313 47.0202 32.9683 45.983 32.646 44.9909C32.3239 43.9988 31.4416 43.3578 30.3984 43.3578Z" fill="#731B55"/>
<path d="M62.9108 34.9245C62.5883 33.9323 61.706 33.2913 60.6628 33.2913H52.0435L49.38 25.0938C49.354 25.0152 49.3241 24.938 49.2903 24.8624C50.5582 24.1187 51.4119 22.7421 51.4119 21.1689C51.4119 19.1601 50.0205 17.4712 48.1511 17.0126V6.66355C49.3193 8.29707 50.7694 9.72312 52.4526 10.8787C55.3399 12.8607 58.7239 13.9083 62.2388 13.9083V11.8703C55.9853 11.8703 50.4262 8.12534 48.0764 2.32915L47.1321 0L46.1878 2.32942C43.838 8.12534 38.279 11.8705 32.0255 11.8705C25.772 11.8705 20.2131 8.12547 17.8633 2.32942L16.9189 0L15.9746 2.32929C13.6248 8.12534 8.06569 11.8705 1.81218 11.8705V13.9085C5.32703 13.9085 8.71092 12.8608 11.5982 10.8789C13.2782 9.7257 14.7256 8.30319 15.8925 6.67402L15.855 27.078C13.9825 27.5342 12.5881 29.2247 12.5881 31.2356C12.5881 32.8087 13.4418 34.1853 14.7097 34.9291C14.676 35.0047 14.6461 35.082 14.62 35.1605L11.9565 43.358H3.33714C2.29396 43.358 1.41165 43.9992 1.08923 44.9912C0.766961 45.9833 1.10391 47.0207 1.94791 47.6337L8.92097 52.7L8.38375 54.3535L10.322 54.9832L11.3167 51.9218L3.1457 45.9851C2.98756 45.8702 2.99408 45.7237 3.0275 45.621C3.06079 45.5184 3.14163 45.3961 3.337 45.3961H13.4372L16.5583 35.7905C16.6186 35.6045 16.76 35.5655 16.8679 35.5655C16.9758 35.5655 17.1172 35.6045 17.1775 35.7904L18.1365 38.7415L20.0748 38.1118L19.1158 35.1605C19.0898 35.082 19.0599 35.0048 19.0261 34.9293C20.294 34.1855 21.1477 32.8089 21.1477 31.2359C21.1477 29.2293 19.7594 27.5417 17.893 27.0811L17.9307 6.65364C19.1001 8.29136 20.5525 9.72108 22.2392 10.8791C25.1265 12.8611 28.5105 13.9087 32.0254 13.9087C35.5403 13.9087 38.9243 12.8611 41.8116 10.8791C43.4949 9.72353 44.9448 8.29748 46.1129 6.66396V17.013C44.2436 17.4714 42.8522 19.1605 42.8522 21.1693C42.8522 22.7424 43.7058 24.1189 44.9737 24.8628C44.94 24.9384 44.9101 25.0156 44.884 25.0942L42.2205 33.2917H33.6013C32.5581 33.2917 31.6758 33.9327 31.3534 34.9249C31.0311 35.917 31.3681 36.9544 32.2121 37.5674L39.1851 42.6337L36.5216 50.8312C36.1992 51.8233 36.5362 52.8606 37.38 53.4736C38.2242 54.0869 39.3148 54.0869 40.1586 53.4736L47.1318 48.4075L54.105 53.4736C54.5269 53.7803 55.0106 53.9335 55.4944 53.9335C55.9781 53.9335 56.4616 53.7803 56.8837 53.4736C57.7276 52.8605 58.0646 51.8233 57.7421 50.8312L56.9029 48.2482L54.9646 48.878L55.8039 51.4609C55.8642 51.6469 55.7729 51.7616 55.6857 51.825C55.5983 51.8882 55.4612 51.94 55.3029 51.825L47.1318 45.8885L38.9607 51.825C38.8024 51.9398 38.6652 51.8882 38.578 51.825C38.4906 51.7616 38.3994 51.6469 38.4598 51.4609L41.5807 41.8555L33.4097 35.9188C33.2516 35.8038 33.2581 35.6574 33.2915 35.5547C33.3248 35.4521 33.4057 35.3298 33.601 35.3298H43.7011L46.8222 25.7241C46.8826 25.5382 47.0239 25.4991 47.1318 25.4991C47.2397 25.4991 47.381 25.5382 47.4415 25.7241L50.5626 35.3298H60.6626C60.858 35.3298 60.9388 35.4521 60.9721 35.5547C61.0055 35.6574 61.012 35.8038 60.8539 35.9188L52.6829 41.8555L54.2997 46.8316L56.238 46.2018L55.0786 42.6337L62.0517 37.5674C62.896 36.9538 63.233 35.9166 62.9108 34.9245ZM19.1097 31.2355C19.1097 32.4716 18.104 33.4773 16.8679 33.4773C15.6318 33.4773 14.6261 32.4716 14.6261 31.2355C14.6261 30.3657 15.1252 29.6116 15.8511 29.2402L15.8489 30.4184L17.8869 30.4221L17.8891 29.2422C18.6127 29.6146 19.1097 30.3674 19.1097 31.2355ZM46.1131 19.1746V20.3537H48.1511V19.1746C48.8758 19.5465 49.3739 20.2999 49.3739 21.1689C49.3739 22.405 48.3682 23.4107 47.1321 23.4107C45.896 23.4107 44.8903 22.405 44.8903 21.1689C44.8903 20.3 45.3884 19.5465 46.1131 19.1746Z" fill="#731B55"/>
</g>
<defs>
<clipPath id="clip0_1314_13281">
<rect width="64" height="64" fill="white"/>
</clipPath>
</defs>
</svg>
