<svg width="65" height="64" viewBox="0 0 65 64" fill="none" xmlns="http://www.w3.org/2000/svg">
<g clip-path="url(#clip0_1314_13098)">
<path d="M63.5472 55.9583H59.9977V43.6462C59.9977 40.8903 57.7557 38.6483 54.9999 38.6483H53.459V25.8118C53.459 23.3452 51.4521 21.3383 48.9855 21.3383H36.5152V11.0188C36.5152 10.7397 36.4044 10.4721 36.207 10.2747C36.0097 10.0774 35.7421 9.96647 35.463 9.96643H33.6519V8.39443C35.0436 7.94831 36.0541 6.64231 36.0541 5.10431C36.0541 3.49193 34.0021 1.14068 33.3732 0.458557C33.2747 0.351627 33.1551 0.26628 33.022 0.207902C32.8888 0.149525 32.745 0.119385 32.5996 0.119385C32.4542 0.119385 32.3104 0.149525 32.1773 0.207902C32.0441 0.26628 31.9245 0.351627 31.826 0.458557C31.1971 1.14068 29.1451 3.49193 29.1451 5.10431C29.1451 6.64218 30.1556 7.94818 31.5474 8.39443V9.96656H29.7362C29.4571 9.96659 29.1895 10.0775 28.9921 10.2748C28.7948 10.4722 28.6839 10.7398 28.6839 11.0189V21.3384H16.2136C13.747 21.3384 11.7401 23.3453 11.7401 25.8119V35.0706C11.7431 35.3477 11.8553 35.6124 12.0523 35.8073C12.2494 36.0022 12.5153 36.1115 12.7924 36.1115C13.0695 36.1115 13.3355 36.0022 13.5325 35.8073C13.7295 35.6124 13.8417 35.3477 13.8447 35.0706V25.8119C13.8447 24.5058 14.9075 23.4431 16.2136 23.4431H48.9855C50.2916 23.4431 51.3544 24.5058 51.3544 25.8119V38.6484H10.1992C7.44323 38.6484 5.20136 40.8904 5.20136 43.6463V52.2816C5.20438 52.5587 5.31658 52.8234 5.5136 53.0183C5.71062 53.2132 5.97655 53.3225 6.25367 53.3225C6.53079 53.3225 6.79673 53.2132 6.99375 53.0183C7.19077 52.8234 7.30296 52.5587 7.30598 52.2816V43.6463C7.30598 42.0508 8.60386 40.7531 10.1992 40.7531H54.9996C56.5951 40.7531 57.8929 42.0509 57.8929 43.6463V55.9584H1.65198C1.37289 55.9585 1.10523 56.0694 0.907879 56.2667C0.710528 56.4641 0.599643 56.7317 0.599609 57.0108C0.599609 60.7987 3.68136 63.8804 7.46923 63.8804H57.73C61.5179 63.8804 64.5996 60.7987 64.5996 57.0108C64.5996 56.8726 64.5724 56.7357 64.5195 56.608C64.4667 56.4803 64.3891 56.3643 64.2914 56.2666C64.1937 56.1688 64.0777 56.0913 63.95 56.0384C63.8223 55.9855 63.6854 55.9583 63.5472 55.9583ZM31.2497 5.10418C31.2497 4.74206 31.8327 3.77093 32.5996 2.79593C33.3665 3.77093 33.9495 4.74206 33.9495 5.10418C33.9495 5.84856 33.3439 6.45406 32.5996 6.45406C31.8552 6.45406 31.2497 5.84856 31.2497 5.10418ZM34.4106 21.3383H30.7885V12.0711H34.4106V21.3383ZM57.73 61.7757H7.46923C5.20323 61.7757 3.30161 60.1858 2.82136 58.0629H62.3779C61.8976 60.1858 59.996 61.7757 57.73 61.7757Z" fill="#731B55"/>
<path d="M47.8154 26.5165C46.2883 26.4917 45.2397 27.5248 44.3962 28.3567C43.6324 29.1097 43.1263 29.5643 42.5804 29.5495C42.0675 29.5345 41.6758 29.0903 41.0793 28.3669C40.3802 27.519 39.5098 26.4639 38.017 26.4202C36.5429 26.3763 35.5717 27.3398 34.7152 28.189C33.9228 28.9748 33.3943 29.4518 32.7379 29.4525H32.7368C32.0893 29.4525 31.5773 28.9745 30.8117 28.1874C30.0047 27.3579 29.0015 26.3269 27.4778 26.3269L27.4489 26.327C25.8583 26.3407 24.8344 27.4617 24.0117 28.3625C23.2745 29.1698 22.7855 29.6603 22.2178 29.6603H22.215C21.6464 29.6588 21.1689 29.1674 20.4499 28.3587C19.6674 27.4783 18.6945 26.3834 17.181 26.3834H17.1635C16.8844 26.385 16.6174 26.4974 16.4212 26.6958C16.225 26.8943 16.1156 27.1626 16.1172 27.4417C16.1179 27.5803 16.146 27.7174 16.1999 27.8451C16.2538 27.9728 16.3324 28.0886 16.4312 28.1859C16.53 28.2831 16.647 28.3599 16.7756 28.4118C16.9041 28.4636 17.0417 28.4896 17.1803 28.4882C17.7109 28.4882 18.1758 28.968 18.877 29.7569C19.6705 30.6497 20.6578 31.7607 22.2094 31.7652H22.2184C23.7549 31.7652 24.759 30.6659 25.566 29.7822C26.33 28.9457 26.8393 28.4373 27.4672 28.4318C28.0777 28.4294 28.5622 28.8934 29.3034 29.6553C30.128 30.5028 31.1539 31.5573 32.7369 31.5573H32.7402C34.3095 31.5559 35.3564 30.5178 36.1975 29.6837C36.923 28.9643 37.4055 28.5238 37.9287 28.5238L37.9559 28.524C38.4682 28.539 38.8597 28.983 39.4559 29.7062C40.1554 30.5542 41.0257 31.6095 42.519 31.6534C44.0097 31.7007 45.0423 30.6759 45.8744 29.8554C46.6604 29.0803 47.18 28.6073 47.7788 28.6212C48.365 28.6292 48.8394 28.1687 48.8495 27.5875C48.8592 27.006 48.3967 26.5268 47.8154 26.5165ZM54.9319 43.939C53.3602 43.8902 52.3149 44.9303 51.3919 45.8457C50.6313 46.5998 49.9743 47.2517 49.167 47.2569C48.5405 47.2433 48.0914 46.7767 47.4127 46.0178C46.6373 45.1514 45.6724 44.073 44.0457 44.0444C44.025 44.0442 44.0047 44.0438 43.9842 44.0438C42.3889 44.0438 41.2738 45.1434 40.3755 46.0292C39.6388 46.7557 39.0033 47.3809 38.3163 47.3629C37.7124 47.3453 37.2708 46.8459 36.6003 46.0329C35.8479 45.1207 34.9117 43.9853 33.3233 43.9388C31.7529 43.8899 30.7062 44.93 29.7833 45.8454C29.0202 46.6023 28.361 47.2558 27.55 47.2567H27.5487C26.8013 47.2567 26.2273 46.7222 25.3712 45.8425C24.5012 44.9483 23.4198 43.8369 21.7942 43.8369L21.7637 43.837C20.0665 43.8515 18.9624 45.0605 18.075 46.032C17.2502 46.9353 16.701 47.484 16.039 47.484H16.0357C15.3722 47.4822 14.8357 46.932 14.0307 46.0265C13.1844 45.0744 12.1347 43.8943 10.5093 43.8985C10.3711 43.8993 10.2344 43.9273 10.107 43.981C9.97961 44.0346 9.86404 44.1128 9.76687 44.2111C9.66971 44.3094 9.59285 44.4258 9.5407 44.5538C9.48855 44.6818 9.46211 44.8188 9.46291 44.957C9.4637 45.0952 9.49171 45.2319 9.54534 45.3593C9.59897 45.4867 9.67716 45.6023 9.77545 45.6994C9.87374 45.7966 9.9902 45.8735 10.1182 45.9256C10.2462 45.9778 10.3832 46.0042 10.5214 46.0034C11.1492 45.9944 11.6697 46.5382 12.4578 47.4249C13.3128 48.3869 14.3769 49.5843 16.0299 49.5889H16.0399C17.6769 49.5888 18.7142 48.4534 19.6293 47.4514C20.4833 46.5163 21.0544 45.948 21.7818 45.9417H21.7934C22.481 45.9417 23.0352 46.4597 23.8628 47.3104C24.7519 48.2244 25.8584 49.3615 27.5485 49.3615H27.5519C29.2283 49.36 30.3577 48.24 31.2652 47.3402C32.0914 46.5208 32.6344 46.026 33.2618 46.0427C33.865 46.0603 34.3064 46.5594 34.9767 47.372C35.7292 48.2844 36.6657 49.4202 38.2545 49.4667C39.8415 49.5159 40.9095 48.4584 41.8533 47.5278C42.6108 46.7808 43.2628 46.1313 44.0084 46.1487C44.6823 46.1604 45.145 46.6399 45.844 47.4212C46.6079 48.2749 47.5587 49.3374 49.1435 49.3612L49.1604 49.3613C50.8368 49.3598 51.9662 48.2398 52.8737 47.3399C53.7 46.5205 54.2449 46.0278 54.8703 46.0424C55.452 46.0603 55.9359 45.6023 55.9529 45.0214C55.9569 44.8833 55.9337 44.7457 55.8846 44.6166C55.8355 44.4875 55.7614 44.3693 55.6666 44.2688C55.5718 44.1682 55.4581 44.0874 55.332 44.0308C55.206 43.9743 55.07 43.9431 54.9319 43.939Z" fill="#731B55"/>
</g>
<defs>
<clipPath id="clip0_1314_13098">
<rect width="64" height="64" fill="white" transform="translate(0.599609)"/>
</clipPath>
</defs>
</svg>
