<svg width="64" height="64" viewBox="0 0 64 64" fill="none" xmlns="http://www.w3.org/2000/svg">
<g clip-path="url(#clip0_1314_13110)">
<path d="M35.5196 31.038C36.131 30.2617 36.4967 29.2866 36.4967 28.2279C36.4967 26.0766 34.9904 24.2681 32.9677 23.78V7.69824C32.9676 7.40811 32.8523 7.12989 32.6471 6.92478C32.4419 6.71966 32.1636 6.60446 31.8735 6.60449C31.5834 6.60446 31.3051 6.71966 31.0999 6.92478C30.8948 7.12989 30.7794 7.40811 30.7794 7.69824V23.78C28.7567 24.2681 27.2503 26.0766 27.2503 28.2279C27.2503 29.2866 27.616 30.2617 28.2274 31.038C21.2383 32.6701 16.0215 38.887 16.0215 46.2861C16.0215 54.9249 23.1327 61.953 31.8735 61.953C40.6143 61.953 47.7256 54.9249 47.7256 46.2861C47.7256 38.8872 42.5087 32.6703 35.5196 31.038ZM29.4385 28.2279C29.4385 26.9095 30.5309 25.8368 31.8735 25.8368C33.2162 25.8368 34.3085 26.9095 34.3085 28.2279C34.3085 29.5464 33.2162 30.6191 31.8735 30.6191C30.5309 30.6191 29.4385 29.5466 29.4385 28.2279ZM43.8201 52.8218C40.1964 54.1037 36.1786 53.186 33.4898 50.4323C32.3714 49.2873 31.2575 48.1379 30.1481 46.9841C27.1687 43.8849 22.6274 42.6133 18.4651 43.6895C18.7247 42.3842 19.1793 41.1253 19.8136 39.9553C23.4459 38.6358 27.6114 39.5799 30.2888 42.3646C31.4842 43.6078 32.6999 44.8189 33.9362 46.0215C36.8997 48.9047 41.2357 50.0679 45.2462 49.0584C44.9649 50.378 44.4839 51.6471 43.8201 52.8218ZM31.8735 59.7655C24.4201 59.7655 18.0819 53.5534 18.2127 46.0504C21.8616 44.769 25.8824 45.7038 28.5703 48.4997C29.6835 49.6577 30.8014 50.8113 31.9238 51.9604C34.4855 54.5838 38.1868 55.9133 41.8329 55.5042C39.3385 58.1253 35.7968 59.7655 31.8735 59.7655ZM45.5304 46.6965C42.0245 47.9025 38.1369 47.056 35.4622 44.4538C34.2433 43.2682 33.0448 42.0743 31.8663 40.8487C30.1945 39.1099 28.0561 37.9276 25.6823 37.4292C24.3843 37.1563 23.0501 37.0994 21.7335 37.2608C24.2359 34.5274 27.8546 32.8068 31.8734 32.8068C39.4076 32.8068 45.5372 38.8535 45.5372 46.2863C45.5371 46.423 45.5348 46.5598 45.5304 46.6965Z" fill="#731B55"/>
<path d="M13.7109 45.7331L7.78733 49.0619L9.05447 41.1645C9.08125 40.9975 9.06893 40.8265 9.01848 40.6651C8.96803 40.5037 8.88083 40.3562 8.76374 40.2341L3.33016 34.5726L10.7732 33.4163C10.9514 33.3887 11.12 33.3173 11.2641 33.2087C11.4081 33.1001 11.523 32.9576 11.5986 32.7938L14.8622 25.7251L16.518 29.3116C16.6397 29.575 16.861 29.7792 17.1333 29.8795C17.4055 29.9798 17.7064 29.9678 17.9699 29.8463C18.1003 29.7861 18.2176 29.7009 18.3151 29.5953C18.4126 29.4898 18.4884 29.3662 18.538 29.2314C18.5877 29.0966 18.6104 28.9533 18.6047 28.8098C18.599 28.6663 18.5651 28.5252 18.5049 28.3948L16.451 23.9464C18.1942 23.3042 19.4398 21.6377 19.4398 19.6878C19.4398 17.5579 17.9538 15.7667 15.9564 15.2788V7.6037C15.9563 7.31357 15.841 7.03535 15.6358 6.83024C15.4306 6.62513 15.1523 6.50992 14.8622 6.50995C14.5721 6.50992 14.2938 6.62513 14.0886 6.83024C13.8834 7.03535 13.7681 7.31357 13.768 7.6037V15.279C11.7706 15.767 10.2846 17.5582 10.2846 19.6881C10.2846 21.638 11.5301 23.3045 13.2734 23.9467L9.85762 31.3451L0.918266 32.7335C0.0613772 32.8666 -0.304845 33.9446 0.296728 34.5715L6.80763 41.3558L5.26794 50.9525C5.13488 51.7816 6.11198 52.5131 6.88449 52.079L14.7834 47.6399C14.9087 47.5696 15.0188 47.4752 15.1076 47.3623C15.1963 47.2494 15.262 47.1201 15.3008 46.9818C15.3396 46.8435 15.3507 46.6989 15.3336 46.5563C15.3165 46.4136 15.2715 46.2758 15.2011 46.1506C14.9049 45.6239 14.2378 45.4373 13.7109 45.7331ZM12.4727 19.6879C12.4727 18.3902 13.5446 17.3343 14.8622 17.3343C16.1798 17.3343 17.2517 18.3902 17.2517 19.6879C17.2517 20.9857 16.1798 22.0414 14.8622 22.0414C13.5446 22.0414 12.4727 20.9857 12.4727 19.6879ZM63.0727 32.7335L54.1334 31.345L50.7177 23.9465C52.4608 23.3043 53.7065 21.6379 53.7065 19.6879C53.7065 17.558 52.2204 15.7668 50.223 15.2789V7.64117C50.223 7.0586 49.7832 6.54989 49.2016 6.51228C49.0522 6.5023 48.9022 6.52312 48.7612 6.57345C48.6201 6.62378 48.4908 6.70254 48.3814 6.80487C48.272 6.90719 48.1848 7.03089 48.1252 7.1683C48.0655 7.30571 48.0347 7.4539 48.0347 7.6037V15.279C46.0373 15.767 44.5512 17.5582 44.5512 19.6881C44.5512 21.638 45.7968 23.3045 47.5401 23.9467L45.4783 28.4126C45.2273 28.9562 45.4277 29.6234 45.9639 29.8903C46.095 29.9558 46.2378 29.9942 46.384 30.0034C46.5303 30.0126 46.6768 29.9923 46.8151 29.9438C46.9533 29.8953 47.0804 29.8196 47.1888 29.7211C47.2973 29.6225 47.3848 29.5032 47.4463 29.3703L49.129 25.7255L52.3926 32.7943C52.4682 32.958 52.5831 33.1005 52.7271 33.2092C52.8712 33.3178 53.0398 33.3891 53.218 33.4168L60.661 34.573L55.2275 40.2345C55.1103 40.3565 55.0231 40.504 54.9726 40.6655C54.9222 40.8269 54.9099 40.9979 54.9367 41.1649L56.2039 49.0624L50.4942 45.8537C50.369 45.7832 50.2311 45.7382 50.0884 45.721C49.9458 45.7039 49.8011 45.715 49.6628 45.7538C49.5244 45.7925 49.395 45.8582 49.282 45.947C49.1691 46.0358 49.0747 46.1459 49.0043 46.2712C48.9339 46.3964 48.8889 46.5342 48.8717 46.6769C48.8546 46.8195 48.8658 46.9641 48.9046 47.1024C48.9434 47.2407 49.009 47.37 49.0978 47.4829C49.1866 47.5959 49.2967 47.6902 49.4219 47.7606L57.107 52.0793C57.8822 52.515 58.8563 51.7802 58.7235 50.9528L57.1838 41.356L63.6947 34.5719C64.307 33.9331 63.9473 32.8695 63.0727 32.7335ZM46.7394 19.6879C46.7394 18.3902 47.8113 17.3343 49.1289 17.3343C50.4465 17.3343 51.5183 18.3902 51.5183 19.6879C51.5183 20.9857 50.4465 22.0414 49.1289 22.0414C47.8113 22.0414 46.7394 20.9857 46.7394 19.6879ZM5.12531 12.2464C3.23526 12.2464 1.69762 10.7151 1.69762 8.83269C1.69762 6.9503 3.23526 5.41895 5.12531 5.41895C7.01522 5.41895 8.55287 6.9503 8.55287 8.83269C8.55287 10.7151 7.01522 12.2464 5.12531 12.2464ZM5.12531 7.6063C4.44196 7.6063 3.88592 8.15631 3.88592 8.83255C3.88592 9.50879 4.44196 10.0588 5.12531 10.0588C5.80866 10.0588 6.36456 9.50879 6.36456 8.83255C6.36456 8.15631 5.80866 7.6063 5.12531 7.6063ZM11.9073 64C10.0172 64 8.47957 62.4687 8.47957 60.5863C8.47957 58.7039 10.0172 57.1724 11.9073 57.1724C13.7972 57.1724 15.3348 58.7039 15.3348 60.5863C15.3348 62.4687 13.7972 64 11.9073 64ZM11.9073 59.3597C11.2239 59.3597 10.6679 59.9099 10.6679 60.5861C10.6679 61.2624 11.2239 61.8124 11.9073 61.8124C12.5906 61.8124 13.1465 61.2624 13.1465 60.5861C13.1465 59.9099 12.5906 59.3597 11.9073 59.3597Z" fill="#731B55"/>
<path d="M46.1733 33.1018C46.7775 33.1018 47.2674 32.6121 47.2674 32.0081C47.2674 31.404 46.7775 30.9143 46.1733 30.9143C45.569 30.9143 45.0791 31.404 45.0791 32.0081C45.0791 32.6121 45.569 33.1018 46.1733 33.1018Z" fill="#731B55"/>
<path d="M20.0766 33.1018C20.6809 33.1018 21.1707 32.6121 21.1707 32.0081C21.1707 31.404 20.6809 30.9143 20.0766 30.9143C19.4723 30.9143 18.9824 31.404 18.9824 32.0081C18.9824 32.6121 19.4723 33.1018 20.0766 33.1018Z" fill="#731B55"/>
<path d="M39.2272 13.1347L37.3618 9.69068L33.9788 7.82238C33.2334 7.41075 33.1866 6.30839 33.9513 5.8861L37.3619 4.00262L39.2122 0.586685C39.62 -0.166136 40.7172 -0.214683 41.136 0.558651L43.0013 4.00275L46.3843 5.87106C47.1297 6.28269 47.1765 7.38504 46.4118 7.80733L43.0012 9.69082L41.1358 13.1348C40.7237 13.8955 39.6394 13.8955 39.2272 13.1347ZM36.7358 6.84665L38.6862 7.92371C38.8689 8.02469 39.0187 8.17595 39.118 8.35954L40.1816 10.3232L41.2453 8.35954C41.3445 8.17595 41.4944 8.02469 41.677 7.92371L43.6275 6.84665L41.677 5.76959C41.4944 5.66862 41.3445 5.51735 41.2453 5.33376L40.1816 3.37014L39.118 5.33376C39.0187 5.51735 38.8689 5.66862 38.6862 5.76959L36.7358 6.84665Z" fill="#731B55"/>
</g>
<defs>
<clipPath id="clip0_1314_13110">
<rect width="64" height="64" fill="white"/>
</clipPath>
</defs>
</svg>
