<svg width="65" height="64" viewBox="0 0 65 64" fill="none" xmlns="http://www.w3.org/2000/svg">
<path d="M7.89545 60.9827L51.4488 39.8667C52.4168 39.404 52.2234 38.3867 52.0594 38.0707C42.0208 18.6667 26.1648 12.16 26.1648 12.16C25.8461 11.988 24.8968 11.7573 24.3341 12.752L3.21812 56.3027C1.88078 58.3853 4.19945 62.632 7.89545 60.9827ZM20.2555 27.2747L36.9248 43.944L22.4035 50.9853L13.2141 41.796L20.2555 27.2747ZM26.1248 15.1667C35.9928 20.4413 43.9288 28.3947 49.0541 38.0627L39.4635 42.7133L21.4861 24.7347L26.1248 15.1667ZM5.61545 57.4667L11.9821 44.3347L19.8635 52.216L6.73012 58.584C6.06345 58.8853 5.25678 58.2373 5.61545 57.4667Z" fill="#731B55"/>
<path d="M37.3421 16.6867L38.5981 14.5933C40.518 11.3934 41.5324 7.7318 41.5327 4.00001C41.5327 3.64639 41.3923 3.30725 41.1422 3.0572C40.8922 2.80716 40.553 2.66668 40.1994 2.66668C39.8458 2.66668 39.5066 2.80716 39.2566 3.0572C39.0065 3.30725 38.8661 3.64639 38.8661 4.00001C38.8661 7.24801 37.9834 10.4373 36.3127 13.2213L35.0567 15.3147C34.9666 15.4648 34.907 15.6312 34.8812 15.8044C34.8555 15.9776 34.8641 16.1542 34.9065 16.3241C34.949 16.4939 35.0245 16.6538 35.1287 16.7945C35.233 16.9352 35.3639 17.0539 35.5141 17.144C35.7274 17.272 36.6047 17.7067 37.3421 16.6867ZM30.7261 4.59601C30.809 4.43892 30.8596 4.26684 30.8751 4.08989C30.8906 3.91294 30.8705 3.73469 30.8161 3.56559C30.7617 3.3965 30.6741 3.23997 30.5584 3.10521C30.4427 2.97045 30.3012 2.86017 30.1423 2.78084C29.9834 2.70151 29.8102 2.65473 29.6329 2.64326C29.4557 2.63178 29.2779 2.65584 29.1101 2.71402C28.9423 2.77219 28.7878 2.86332 28.6557 2.98204C28.5235 3.10075 28.4165 3.24468 28.3407 3.40535L27.8514 4.38401C27.4796 5.12537 27.351 5.96506 27.4839 6.7837C27.6167 7.60233 28.0043 8.35826 28.5914 8.94401C28.7819 9.13446 28.9076 9.38004 28.9506 9.64592C28.9937 9.9118 28.952 10.1845 28.8314 10.4253L28.3421 11.4053C28.1853 11.7217 28.1599 12.0872 28.2716 12.4222C28.3832 12.7571 28.6228 13.0344 28.9381 13.1933C29.8301 13.6507 30.4941 13.064 30.7274 12.596L31.2167 11.6173C31.5885 10.876 31.7171 10.0363 31.5842 9.21766C31.4514 8.39903 31.0639 7.6431 30.4767 7.05735C30.2859 6.86716 30.1598 6.62165 30.1165 6.35571C30.0732 6.08977 30.1148 5.81695 30.2354 5.57601L30.7261 4.59601ZM44.2261 10.6667H44.2127C43.4767 10.6667 42.8861 11.264 42.8861 12C42.8861 12.736 43.4901 13.3333 44.2261 13.3333C44.5797 13.3333 44.9188 13.1929 45.1689 12.9428C45.4189 12.6928 45.5594 12.3536 45.5594 12C45.5594 11.6464 45.4189 11.3073 45.1689 11.0572C44.9188 10.8072 44.5797 10.6667 44.2261 10.6667ZM24.2261 6.66668C24.2261 6.31306 24.0856 5.97392 23.8355 5.72387C23.5855 5.47382 23.2464 5.33335 22.8927 5.33335H22.8794C22.1434 5.33335 21.5527 5.93068 21.5527 6.66668C21.5527 7.40268 22.1567 8.00001 22.8927 8.00001C23.6287 8.00001 24.2261 7.40268 24.2261 6.66668ZM60.1994 22.6667C56.4687 22.6667 52.8061 23.6813 49.6074 25.6013L47.5141 26.8573C47.3639 26.9474 47.233 27.0662 47.1287 27.2069C47.0245 27.3476 46.949 27.5074 46.9065 27.6773C46.8641 27.8472 46.8555 28.0237 46.8812 28.1969C46.907 28.3701 46.9667 28.5365 47.0567 28.6867C47.3074 29.104 47.9394 29.6374 48.8861 29.144L50.9794 27.888C53.7645 26.2167 56.9514 25.3337 60.1994 25.3333C60.553 25.3333 60.8922 25.1929 61.1422 24.9428C61.3923 24.6928 61.5327 24.3536 61.5327 24C61.5327 23.6464 61.3923 23.3073 61.1422 23.0572C60.8922 22.8072 60.553 22.6667 60.1994 22.6667ZM60.7954 35.86C62.5327 34.668 60.8621 32.7867 59.6021 33.4747L58.6221 33.9654C58.3813 34.0859 58.1087 34.1274 57.843 34.0841C57.5773 34.0408 57.332 33.9148 57.1421 33.724C56.5558 33.1382 55.8001 32.7516 54.9821 32.6188C54.164 32.486 53.3249 32.6138 52.5834 32.984L51.6034 33.4747C50.0647 34.412 51.2607 36.5774 52.7967 35.86L53.7767 35.3694C54.0174 35.2484 54.2901 35.2066 54.5559 35.25C54.8217 35.2933 55.067 35.4196 55.2567 35.6107C55.8426 36.1972 56.5983 36.5843 57.4165 36.7171C58.2348 36.8499 59.0741 36.7217 59.8154 36.3507L60.7954 35.86ZM52.2127 18.6667C51.4767 18.6667 50.8861 19.264 50.8861 20C50.8861 20.736 51.4901 21.3333 52.2261 21.3333C52.5797 21.3333 52.9188 21.1929 53.1689 20.9428C53.4189 20.6928 53.5594 20.3536 53.5594 20C53.5594 19.6464 53.4189 19.3073 53.1689 19.0572C52.9188 18.8072 52.5797 18.6667 52.2261 18.6667H52.2127ZM57.5461 40C56.8101 40 56.2194 40.5974 56.2194 41.3334C56.2194 42.0694 56.8234 42.6667 57.5594 42.6667C57.913 42.6667 58.2522 42.5262 58.5022 42.2762C58.7523 42.0261 58.8927 41.687 58.8927 41.3334C58.8927 40.9797 58.7523 40.6406 58.5022 40.3905C58.2522 40.1405 57.913 40 57.5594 40H57.5461ZM45.9234 18.276C46.1834 18.536 46.9447 19.0427 47.8087 18.276L55.8087 10.276C56.0587 10.026 56.1992 9.68692 56.1992 9.33335C56.1992 8.97978 56.0587 8.64069 55.8087 8.39068C55.5587 8.14067 55.2196 8.00022 54.8661 8.00022C54.5125 8.00022 54.1734 8.14067 53.9234 8.39068L45.9234 16.3907C45.7995 16.5144 45.7012 16.6613 45.6341 16.8231C45.567 16.9848 45.5325 17.1582 45.5325 17.3333C45.5325 17.5085 45.567 17.6819 45.6341 17.8436C45.7012 18.0054 45.7995 18.1523 45.9234 18.276ZM50.6421 8.74001L53.3087 4.74001C53.4059 4.59433 53.4734 4.43094 53.5075 4.25916C53.5415 4.08738 53.5414 3.91058 53.5071 3.73886C53.4728 3.56713 53.405 3.40384 53.3076 3.25831C53.2102 3.11278 53.0851 2.98786 52.9394 2.89068C52.7937 2.7935 52.6303 2.72597 52.4585 2.69194C52.2868 2.65791 52.11 2.65804 51.9382 2.69234C51.7665 2.72663 51.6032 2.79442 51.4577 2.89182C51.3122 2.98922 51.1872 3.11433 51.0901 3.26001L48.4234 7.26001C48.3262 7.40569 48.2587 7.56908 48.2246 7.74086C48.1906 7.91265 48.1907 8.08945 48.225 8.26119C48.2593 8.43292 48.3271 8.59621 48.4245 8.74174C48.5219 8.88727 48.647 9.01218 48.7927 9.10935C49.0207 9.26135 49.9581 9.68135 50.6421 8.74001ZM55.0901 15.4067C55.3461 15.792 56.1074 16.3173 56.9394 15.776L60.9394 13.1093C61.5527 12.7013 61.7181 11.8733 61.3087 11.26C60.8994 10.6467 60.0727 10.48 59.4594 10.8907L55.4594 13.5573C55.3137 13.6545 55.1886 13.7794 55.0912 13.925C54.9937 14.0705 54.926 14.2338 54.8917 14.4055C54.8574 14.5772 54.8572 14.754 54.8913 14.9258C54.9253 15.0976 54.9929 15.261 55.0901 15.4067Z" fill="#731B55"/>
</svg>
