<svg width="65" height="64" viewBox="0 0 65 64" fill="none" xmlns="http://www.w3.org/2000/svg">
<path d="M32.974 18.049C27.2543 18.049 21.8618 17.4248 17.792 16.2905C13.1379 14.9939 10.7785 13.223 10.7785 11.0245C10.7785 8.826 13.1379 7.05372 17.792 5.75853C21.8632 4.62422 27.2543 4 32.974 4H58.5009C59.1458 4 59.6696 4.52385 59.6696 5.16869C59.6696 5.81353 59.1458 6.33738 58.5009 6.33738H32.974C27.4605 6.33738 22.2908 6.93135 18.419 8.00929C14.2241 9.17798 13.1145 10.4924 13.1145 11.0245C13.1145 11.5566 14.2227 12.871 18.419 14.0397C22.2922 15.1177 27.4605 15.7116 32.974 15.7116C43.2612 15.7116 50.7202 13.6602 52.5159 11.7298C52.6712 11.5635 52.8513 11.3215 52.8362 11.1098C52.8138 10.8007 52.9151 10.4954 53.1177 10.2611C53.3204 10.0267 53.6079 9.8824 53.9169 9.85994C54.5618 9.81182 55.12 10.2972 55.1667 10.9406C55.2093 11.5209 55.0801 12.4049 54.2263 13.322C51.5974 16.1489 43.0564 18.049 32.974 18.049ZM32.974 26.2656C27.2543 26.2656 21.8618 25.6414 17.792 24.5071C13.1379 23.2105 10.7785 21.4396 10.7785 19.2411C10.7785 18.5962 11.3024 18.0724 11.9472 18.0724C12.5921 18.0724 13.1159 18.5962 13.1159 19.2411C13.1159 19.7732 14.2241 21.0876 18.4204 22.2563C22.2922 23.3342 27.4619 23.9282 32.9754 23.9282C43.2626 23.9282 50.7216 21.8768 52.5172 19.9464C52.6726 19.7801 52.8527 19.5381 52.8376 19.3263C52.8152 19.0173 52.9165 18.712 53.1191 18.4776C53.3218 18.2432 53.6092 18.099 53.9183 18.0765C54.5631 18.027 55.1213 18.5137 55.1681 19.1572C55.2107 19.7374 55.0815 20.6215 54.2276 21.5386C51.5974 24.3668 43.0564 26.2656 32.974 26.2656ZM32.974 34.4835C27.2543 34.4835 21.8618 33.8593 17.792 32.725C13.1379 31.4284 10.7785 29.6575 10.7785 27.459C10.7785 26.8142 11.3024 26.2903 11.9472 26.2903C12.5921 26.2903 13.1159 26.8142 13.1159 27.459C13.1159 27.9911 14.2241 29.3056 18.4204 30.4742C22.2936 31.5522 27.4619 32.1462 32.9754 32.1462C43.2626 32.1462 50.7216 30.0948 52.5172 28.1644C52.6726 27.998 52.8527 27.756 52.8376 27.5443C52.8152 27.2352 52.9165 26.93 53.1191 26.6956C53.3218 26.4612 53.6092 26.3169 53.9183 26.2945C54.0713 26.2833 54.2251 26.3023 54.3707 26.3506C54.5164 26.3989 54.6511 26.4754 54.7672 26.5757C54.8833 26.6761 54.9784 26.7984 55.0472 26.9355C55.116 27.0727 55.1571 27.2221 55.1681 27.3752C55.2107 27.9554 55.0815 28.8395 54.2276 29.7565C51.5974 32.5834 43.0564 34.4835 32.974 34.4835ZM32.974 42.7001C27.2543 42.7001 21.8618 42.0759 17.792 40.9416C13.1379 39.645 10.7785 37.8741 10.7785 35.6756C10.7785 35.0308 11.3024 34.5069 11.9472 34.5069C12.5921 34.5069 13.1159 35.0308 13.1159 35.6756C13.1159 36.2077 14.2241 37.5221 18.4204 38.6908C22.2936 39.7688 27.4619 40.3627 32.9754 40.3627C43.2626 40.3627 50.7216 38.3113 52.5172 36.3809C52.6726 36.2146 52.8527 35.9726 52.8376 35.7608C52.8152 35.4518 52.9165 35.1465 53.1191 34.9121C53.3218 34.6778 53.6092 34.5335 53.9183 34.511C54.5631 34.4629 55.1213 34.9483 55.1681 35.5917C55.2107 36.1719 55.0815 37.056 54.2276 37.9731C51.5974 40.8 43.0564 42.7001 32.974 42.7001ZM32.974 50.9181C27.2543 50.9181 21.8618 50.2938 17.792 49.1595C13.1379 47.863 10.7785 46.0921 10.7785 43.8935C10.7785 43.2487 11.3024 42.7249 11.9472 42.7249C12.5921 42.7249 13.1159 43.2487 13.1159 43.8935C13.1159 44.4256 14.2241 45.7401 18.4204 46.9088C22.2936 47.9867 27.4619 48.5807 32.9754 48.5807C43.2626 48.5807 50.7216 46.5293 52.5172 44.5989C52.6726 44.4325 52.8527 44.1905 52.8376 43.9788C52.8152 43.6698 52.9165 43.3645 53.1191 43.1301C53.3218 42.8957 53.6092 42.7514 53.9183 42.729C54.5631 42.6795 55.1213 43.1662 55.1681 43.8097C55.2107 44.3899 55.0815 45.274 54.2276 46.191C51.5974 49.0179 43.0564 50.9181 32.974 50.9181ZM32.974 59.1346H5.7683C5.12346 59.1346 4.59961 58.6108 4.59961 57.9659C4.59961 57.3211 5.12346 56.7972 5.7683 56.7972H32.974C43.2612 56.7972 50.7202 54.7459 52.5159 52.8155C52.6712 52.6491 52.8513 52.4071 52.8362 52.1954C52.8138 51.8863 52.9151 51.581 53.1177 51.3467C53.3204 51.1123 53.6079 50.968 53.9169 50.9456C54.5618 50.8961 55.12 51.3828 55.1667 52.0262C55.2093 52.6065 55.0801 53.4905 54.2263 54.4076C51.5974 57.2345 43.0564 59.1346 32.974 59.1346Z" fill="#731B55"/>
</svg>
