<svg width="64" height="64" viewBox="0 0 64 64" fill="none" xmlns="http://www.w3.org/2000/svg">
<path d="M23.3794 47.001L12.0864 58.294C11.9042 58.4826 11.8034 58.7352 11.8057 58.9974C11.808 59.2596 11.9131 59.5104 12.0986 59.6958C12.284 59.8812 12.5348 59.9864 12.797 59.9887C13.0592 59.9909 13.3118 59.8902 13.5004 59.708L22.7214 50.488C22.6554 51.08 22.6564 51.671 22.7704 52.207C22.9304 52.962 23.2054 53.546 23.4564 54.151C23.7424 54.837 23.9744 55.564 23.7624 56.836C23.7134 57.129 23.4334 57.521 23.1574 57.908C22.6294 58.65 22.0114 59.324 22.0114 59.324C21.8321 59.5195 21.7378 59.7781 21.7492 60.0431C21.7607 60.3081 21.8769 60.5577 22.0724 60.737C22.2678 60.9163 22.5265 61.0106 22.7915 60.9991C23.0565 60.9877 23.3061 60.8715 23.4854 60.676C23.4854 60.676 24.4464 59.625 25.0854 58.628C25.4254 58.096 25.6684 57.565 25.7344 57.164C26.0334 55.373 25.7054 54.349 25.3034 53.383C25.0974 52.886 24.8584 52.412 24.7264 51.793C24.5184 50.812 24.8264 49.597 25.1444 48.704C26.5174 49.829 27.9884 50.638 29.0274 50.901C29.9904 51.145 30.7174 50.931 31.1124 50.536C31.1124 50.536 49.3154 32.328 49.3594 32.264C49.5068 32.0436 49.5608 31.7738 49.5096 31.5136C49.4585 31.2534 49.3063 31.0241 49.0864 30.876C46.8064 29.345 44.6064 27.143 44.6064 27.143C44.6064 27.143 41.2784 23.833 39.9844 21.145C39.7544 20.669 39.5894 20.221 39.5574 19.825C39.5424 19.645 39.5414 19.479 39.6564 19.365C40.0524 18.969 41.0174 18.492 42.2814 17.951C42.6354 17.799 43.0104 17.645 43.4044 17.49C43.6564 18.67 44.1574 20.023 44.8264 21.43C44.9469 21.6585 45.1512 21.8315 45.3964 21.9129C45.6416 21.9943 45.9088 21.9777 46.1421 21.8666C46.3753 21.7555 46.5566 21.5586 46.648 21.3169C46.7394 21.0753 46.7338 20.8076 46.6324 20.57C45.9764 19.192 45.4824 17.883 45.2994 16.783C47.6917 15.9376 50.1231 15.2074 52.5854 14.595C52.6814 15.175 52.8464 15.759 53.0644 16.337C53.2594 16.853 53.8374 17.114 54.3534 16.92C54.8694 16.725 55.1304 16.147 54.9364 15.631C54.7513 15.1551 54.6182 14.6605 54.5394 14.156C55.8044 13.9 56.8874 13.745 57.6404 13.749C57.7484 13.749 57.8744 13.761 57.9754 13.774C57.9874 13.875 57.9994 14.001 58.0004 14.108C58.0044 14.881 57.8414 15.998 57.5744 17.303C57.4305 17.9991 57.2724 18.6923 57.1004 19.382C56.8723 19.0749 56.6519 18.7621 56.4394 18.444C56.2874 18.2345 56.0601 18.092 55.8053 18.0465C55.5505 18.001 55.288 18.0559 55.0728 18.1998C54.8576 18.3437 54.7066 18.5653 54.6513 18.8182C54.596 19.071 54.6409 19.3355 54.7764 19.556C55.2974 20.3274 55.854 21.0742 56.4444 21.794C56.3979 21.946 56.3562 22.0994 56.3194 22.254C55.5564 24.86 54.6394 27.506 53.7984 29.468C53.6604 29.789 53.5274 30.091 53.3984 30.37C51.9024 28.949 49.8794 26.278 48.2074 23.486C48.0709 23.2586 47.8498 23.0947 47.5925 23.0302C47.3353 22.9657 47.063 23.0059 46.8354 23.142C46.6082 23.2786 46.4444 23.4998 46.38 23.7569C46.3155 24.0141 46.3555 24.2863 46.4914 24.514C48.3734 27.656 50.7054 30.625 52.3594 32.116C52.1724 32.274 51.9004 32.21 51.5974 32.138C51.3393 32.0767 51.0675 32.1205 50.8417 32.2596C50.6159 32.3988 50.4546 32.6219 50.3934 32.88C50.3321 33.138 50.3759 33.4099 50.515 33.6357C50.6542 33.8615 50.8773 34.0227 51.1354 34.084C52.2304 34.344 53.1524 34.153 53.7984 33.507C54.3574 32.948 55.1304 31.514 55.9074 29.608C57.5904 25.481 59.4674 19.058 59.9014 15.524C60.0264 14.509 60.0264 13.701 59.9134 13.194C59.8204 12.778 59.6464 12.485 59.4554 12.294C59.2644 12.103 58.9714 11.928 58.5554 11.836C58.0484 11.723 57.2404 11.723 56.2254 11.847C52.6914 12.282 46.2684 14.159 42.1414 15.842C40.2344 16.619 38.8014 17.392 38.2424 17.951C37.8104 18.383 37.5864 18.928 37.5554 19.567C37.5224 20.268 37.7504 21.117 38.1824 22.013C39.5904 24.938 43.1924 28.557 43.1924 28.557C43.1924 28.557 44.9394 30.304 46.9814 31.832L46.9854 31.835L41.6934 37.126C41.1034 36.543 40.5464 35.648 40.0544 34.581C39.9433 34.3402 39.741 34.1534 39.4922 34.0617C39.2433 33.97 38.9682 33.9809 38.7274 34.092C38.4866 34.2031 38.2997 34.4054 38.208 34.6542C38.1163 34.9031 38.1272 35.1782 38.2384 35.419C38.8364 36.716 39.5504 37.786 40.2884 38.531L35.2984 43.522C34.0784 42.541 32.7054 40.739 31.7844 38.604C31.6757 38.3662 31.4781 38.1804 31.2341 38.0864C30.99 37.9925 30.7189 37.9979 30.4788 38.1015C30.2387 38.2051 30.0487 38.3986 29.9495 38.6405C29.8504 38.8825 29.85 39.1537 29.9484 39.396C30.9684 41.761 32.4974 43.75 33.8834 44.937L29.8184 49.002C29.5685 48.9646 29.3228 48.9036 29.0844 48.82C28.0134 48.401 26.6224 47.461 25.4554 46.294C24.2884 45.127 23.3474 43.736 22.9284 42.665C22.8449 42.4269 22.7839 42.1815 22.7464 41.932L28.8904 35.787C28.9114 35.919 28.9334 36.051 28.9574 36.181C29.0054 36.4418 29.155 36.6729 29.3734 36.8234C29.5918 36.9739 29.861 37.0315 30.1219 36.9835C30.3827 36.9355 30.6138 36.7858 30.7643 36.5674C30.9148 36.3491 30.9724 36.0798 30.9244 35.819C30.8074 35.1965 30.7481 34.5644 30.7474 33.931L36.4884 28.189C36.5604 29.58 36.7844 30.96 37.1194 32.251C37.1859 32.5077 37.3518 32.7275 37.5804 32.862C37.809 32.9964 38.0816 33.0346 38.3384 32.968C38.5951 32.9014 38.8149 32.7356 38.9493 32.507C39.0838 32.2784 39.1219 32.0057 39.0554 31.749C38.5714 29.882 38.3394 27.81 38.5304 25.824C38.5504 25.621 38.4574 25.237 38.2424 25.022C38.1496 24.929 38.0394 24.8553 37.9181 24.805C37.7968 24.7547 37.6667 24.7288 37.5354 24.7288C37.404 24.7288 37.274 24.7547 37.1527 24.805C37.0314 24.8553 36.9212 24.929 36.8284 25.022L21.2124 40.637C20.8174 41.033 20.6034 41.76 20.8474 42.723C21.1364 43.862 22.0814 45.52 23.3794 47.001ZM13.5234 39.393L22.7144 30.198C22.9019 30.0103 23.0072 29.7559 23.0071 29.4906C23.007 29.2254 22.9015 28.971 22.7139 28.7835C22.5262 28.596 22.2718 28.4907 22.0065 28.4908C21.7413 28.4909 21.4869 28.5963 21.2994 28.784L12.1094 37.979C11.9272 38.1676 11.8264 38.4202 11.8287 38.6824C11.831 38.9446 11.9361 39.1954 12.1216 39.3808C12.307 39.5662 12.5578 39.6714 12.82 39.6737C13.0822 39.6759 13.3348 39.5751 13.5234 39.393ZM31.2014 21.715L40.3914 12.521C40.5643 12.3306 40.6573 12.081 40.6512 11.8239C40.645 11.5668 40.5401 11.322 40.3583 11.1401C40.1764 10.9583 39.9315 10.8534 39.6744 10.8472C39.4173 10.841 39.1677 10.9341 38.9774 11.107L29.7864 20.301C29.5989 20.4886 29.4936 20.7431 29.4937 21.0083C29.4938 21.2736 29.5992 21.528 29.7869 21.7155C29.9745 21.903 30.229 22.0083 30.4942 22.0082C30.7595 22.0081 31.0139 21.9026 31.2014 21.715Z" fill="#731B55"/>
<path d="M32.25 26.251H34C34.2574 26.2395 34.5005 26.1291 34.6787 25.9428C34.8568 25.7565 34.9562 25.5087 34.9562 25.251C34.9562 24.9932 34.8568 24.7454 34.6787 24.5592C34.5005 24.3729 34.2574 24.2625 34 24.251H32.25C31.9847 24.251 31.7304 24.3563 31.5428 24.5439C31.3553 24.7314 31.25 24.9858 31.25 25.251C31.25 25.5162 31.3553 25.7706 31.5428 25.9581C31.7304 26.1456 31.9847 26.251 32.25 26.251ZM7.24995 26.251L20.25 26.248C20.5152 26.248 20.7695 26.1426 20.9571 25.9551C21.1446 25.7676 21.25 25.5132 21.25 25.248C21.25 24.9828 21.1446 24.7284 20.9571 24.5409C20.7695 24.3533 20.5152 24.248 20.25 24.248L7.24995 24.251C6.98473 24.251 6.73038 24.3563 6.54284 24.5439C6.35531 24.7314 6.24995 24.9858 6.24995 25.251C6.24995 25.5162 6.35531 25.7706 6.54284 25.9581C6.73038 26.1456 6.98473 26.251 7.24995 26.251ZM12.107 12.523L21.301 21.713C21.4913 21.8859 21.7409 21.9789 21.998 21.9728C22.2551 21.9666 22.5 21.8617 22.6818 21.6799C22.8637 21.498 22.9686 21.2532 22.9747 20.9961C22.9809 20.739 22.8879 20.4893 22.715 20.299L13.521 11.108C13.3333 10.9205 13.0789 10.8152 12.8136 10.8153C12.5483 10.8154 12.294 10.9208 12.1065 11.1085C11.9189 11.2961 11.8137 11.5506 11.8137 11.8158C11.8138 12.0811 11.9193 12.3355 12.107 12.523ZM25.249 31.25V33C25.249 33.2652 25.3543 33.5196 25.5418 33.7071C25.7294 33.8946 25.9837 34 26.249 34C26.5142 34 26.7685 33.8946 26.9561 33.7071C27.1436 33.5196 27.249 33.2652 27.249 33V31.25C27.2374 30.9925 27.127 30.7494 26.9408 30.5713C26.7545 30.3931 26.5067 30.2937 26.249 30.2937C25.9912 30.2937 25.7434 30.3931 25.5571 30.5713C25.3709 30.7494 25.2605 30.9925 25.249 31.25ZM25.249 6.24998L25.252 19.25C25.252 19.5152 25.3573 19.7696 25.5448 19.9571C25.7324 20.1446 25.9867 20.25 26.252 20.25C26.5172 20.25 26.7715 20.1446 26.9591 19.9571C27.1466 19.7696 27.252 19.5152 27.252 19.25L27.249 6.24998C27.2374 5.99251 27.127 5.74939 26.9408 5.57126C26.7545 5.39313 26.5067 5.29372 26.249 5.29372C25.9912 5.29372 25.7434 5.39313 25.5571 5.57126C25.3709 5.74939 25.2605 5.99251 25.249 6.24998ZM22.236 12.857L18.412 3.61798C18.3076 3.37743 18.1129 3.1875 17.8699 3.08909C17.6268 2.99068 17.3548 2.99167 17.1125 3.09185C16.8702 3.19203 16.6769 3.38339 16.5743 3.6247C16.4717 3.86601 16.468 4.13796 16.564 4.38198L20.388 13.622C20.4894 13.867 20.684 14.0618 20.9291 14.1633C21.1741 14.2649 21.4494 14.2649 21.6945 14.1635C21.9395 14.062 22.1342 13.8674 22.2358 13.6224C22.3373 13.3774 22.3374 13.102 22.236 12.857ZM18.37 46.882L22.196 37.643C22.2507 37.5209 22.2804 37.3891 22.2833 37.2554C22.2862 37.1217 22.2623 36.9887 22.2129 36.8644C22.1635 36.7401 22.0897 36.627 21.9958 36.5317C21.9019 36.4364 21.7898 36.361 21.6662 36.3098C21.5426 36.2586 21.41 36.2327 21.2763 36.2337C21.1425 36.2347 21.0103 36.2625 20.8875 36.3155C20.7647 36.3684 20.6537 36.4455 20.5612 36.5421C20.4687 36.6388 20.3965 36.753 20.349 36.878L16.522 46.117C16.4717 46.2383 16.4459 46.3684 16.4459 46.4997C16.4459 46.631 16.4718 46.7611 16.5221 46.8824C16.5724 47.0037 16.6461 47.1139 16.739 47.2068C16.8319 47.2996 16.9421 47.3733 17.0635 47.4235C17.1848 47.4737 17.3148 47.4996 17.4462 47.4995C17.5775 47.4995 17.7075 47.4736 17.8288 47.4233C17.9502 47.373 18.0604 47.2994 18.1532 47.2065C18.2461 47.1136 18.3197 47.0033 18.37 46.882ZM32.146 13.623L35.975 4.38498C36.0699 4.14134 36.0657 3.87018 35.9631 3.62962C35.8606 3.38906 35.6679 3.19824 35.4263 3.09806C35.1848 2.99788 34.9136 2.99631 34.6709 3.09368C34.4282 3.19106 34.2333 3.37963 34.128 3.61898L30.299 12.857C30.2453 12.9788 30.2166 13.1102 30.2144 13.2433C30.2122 13.3764 30.2366 13.5086 30.2862 13.6321C30.3357 13.7557 30.4095 13.8681 30.5031 13.9628C30.5966 14.0574 30.7082 14.1325 30.8312 14.1835C30.9541 14.2345 31.086 14.2604 31.2192 14.2598C31.3523 14.2591 31.4839 14.2319 31.6064 14.1797C31.7289 14.1275 31.8397 14.0513 31.9323 13.9557C32.025 13.8601 32.0976 13.747 32.146 13.623ZM5.38395 34.974L14.623 31.147C14.7443 31.0968 14.8546 31.0231 14.9474 30.9303C15.0403 30.8374 15.114 30.7272 15.1643 30.6059C15.2146 30.4846 15.2405 30.3545 15.2405 30.2232C15.2405 30.0919 15.2147 29.9618 15.1645 29.8405C15.063 29.5954 14.8684 29.4007 14.6234 29.2992C14.502 29.2489 14.372 29.223 14.2407 29.2229C14.1093 29.2229 13.9793 29.2488 13.858 29.299L4.61895 33.126C4.38521 33.235 4.20254 33.4299 4.10904 33.6703C4.01553 33.9106 4.0184 34.1778 4.11704 34.4161C4.21568 34.6544 4.40249 34.8454 4.63851 34.9493C4.87454 35.0533 5.14158 35.0621 5.38395 34.974ZM14.621 19.35L5.38295 15.52C5.14028 15.4304 4.87233 15.4382 4.63528 15.5418C4.39824 15.6454 4.21051 15.8367 4.11145 16.0757C4.01239 16.3147 4.0097 16.5827 4.10394 16.8236C4.19818 17.0646 4.38203 17.2596 4.61695 17.368L13.855 21.197C13.9768 21.2506 14.1081 21.2794 14.2412 21.2816C14.3743 21.2838 14.5065 21.2593 14.6301 21.2098C14.7536 21.1602 14.8661 21.0865 14.9607 20.9929C15.0554 20.8993 15.1304 20.7877 15.1814 20.6648C15.2324 20.5418 15.2584 20.4099 15.2577 20.2768C15.2571 20.1437 15.2298 20.012 15.1776 19.8895C15.1254 19.7671 15.0493 19.6563 14.9537 19.5636C14.8581 19.471 14.745 19.3983 14.621 19.35Z" fill="#731B55"/>
</svg>
