<svg width="65" height="64" viewBox="0 0 65 64" fill="none" xmlns="http://www.w3.org/2000/svg">
<g clip-path="url(#clip0_1314_12998)">
<path d="M44.1992 28C41.4303 28 38.7235 27.1789 36.4212 25.6406C34.119 24.1022 32.3245 21.9157 31.2649 19.3576C30.2053 16.7994 29.928 13.9845 30.4682 11.2687C31.0084 8.55301 32.3418 6.05845 34.2997 4.10051C36.2577 2.14258 38.7522 0.809205 41.468 0.269012C44.1837 -0.271181 46.9986 0.00606608 49.5568 1.06569C52.115 2.12532 54.3015 3.91973 55.8398 6.22202C57.3781 8.52431 58.1992 11.2311 58.1992 14C58.1953 17.7118 56.719 21.2705 54.0943 23.8951C51.4697 26.5198 47.911 27.996 44.1992 28ZM44.1992 2.00001C41.8258 2.00001 39.5058 2.70379 37.5324 4.02237C35.559 5.34095 34.0209 7.21509 33.1127 9.40781C32.2044 11.6005 31.9668 14.0133 32.4298 16.3411C32.8928 18.6689 34.0357 20.8071 35.7139 22.4853C37.3922 24.1635 39.5304 25.3064 41.8581 25.7694C44.1859 26.2325 46.5987 25.9948 48.7914 25.0866C50.9841 24.1783 52.8583 22.6402 54.1769 20.6668C55.4954 18.6935 56.1992 16.3734 56.1992 14C56.1958 10.8185 54.9304 7.76822 52.6807 5.51853C50.431 3.26883 47.3808 2.00345 44.1992 2.00001Z" fill="#731B55"/>
<path d="M18.3857 45.8129C18.2543 45.8131 18.1241 45.7875 18.0026 45.7374C17.8811 45.6873 17.7707 45.6137 17.6777 45.5209L12.6777 40.5209C12.5033 40.3465 12.3995 40.1139 12.3862 39.8677C12.3729 39.6215 12.4511 39.379 12.6057 39.1869L30.4197 17.0469C30.5882 16.8479 30.8279 16.7227 31.0875 16.6979C31.3471 16.6731 31.6061 16.7507 31.8093 16.9141C32.0125 17.0775 32.1439 17.3139 32.1753 17.5728C32.2068 17.8316 32.1358 18.0926 31.9777 18.2999L14.7267 39.7409L18.4577 43.4719L39.8987 26.2209C40.1054 26.0563 40.3689 25.9803 40.6316 26.0094C40.8943 26.0385 41.1347 26.1704 41.3004 26.3763C41.4661 26.5822 41.5436 26.8453 41.5159 27.1081C41.4882 27.3709 41.3576 27.6121 41.1527 27.7789L19.0117 45.5929C18.8344 45.7358 18.6134 45.8134 18.3857 45.8129Z" fill="#731B55"/>
<path d="M14.4641 47.4289C14.0697 47.4298 13.679 47.3528 13.3144 47.2025C12.9497 47.0522 12.6183 46.8315 12.3391 46.5529L11.6471 45.8609C11.1601 45.3712 10.8563 44.7289 10.7868 44.0417C10.7172 43.3545 10.8861 42.6644 11.2651 42.0869L12.7801 39.7869C12.8618 39.6633 12.9701 39.5593 13.0969 39.4826C13.2238 39.4059 13.3661 39.3584 13.5136 39.3435C13.6611 39.3285 13.8101 39.3466 13.9497 39.3963C14.0894 39.446 14.2162 39.5262 14.3211 39.6309L18.5641 43.8739C18.6689 43.9788 18.749 44.1057 18.7987 44.2453C18.8485 44.385 18.8665 44.534 18.8516 44.6814C18.8366 44.8289 18.7891 44.9713 18.7124 45.0981C18.6357 45.225 18.5318 45.3332 18.4081 45.4149L16.1131 46.9299C15.6244 47.2548 15.0509 47.4284 14.4641 47.4289ZM13.7741 41.9169L12.9341 43.1889C12.8071 43.3812 12.7504 43.6113 12.7735 43.8406C12.7967 44.0698 12.8983 44.284 13.0611 44.4469L13.7531 45.1389C13.9161 45.3018 14.1303 45.4034 14.3595 45.4265C14.5887 45.4496 14.8189 45.3929 15.0111 45.2659L16.2831 44.4259L13.7741 41.9169Z" fill="#731B55"/>
<path d="M24.1999 63.9999C24.0007 63.9997 23.806 63.94 23.6409 63.8284C23.4758 63.7168 23.3478 63.5585 23.2734 63.3736C23.1989 63.1888 23.1813 62.9859 23.223 62.7911C23.2646 62.5962 23.3635 62.4182 23.5069 62.2799L31.2399 54.8349C31.7076 54.4557 32.0932 53.9853 32.3734 53.4524C32.6536 52.9195 32.8226 52.3351 32.8699 51.7349C32.9184 51.1471 32.8478 50.5556 32.6622 49.9958C32.4766 49.4359 32.1799 48.9193 31.7899 48.4769C31.0492 47.6349 30.0169 47.1049 28.901 46.9935C27.7851 46.8822 26.6684 47.1978 25.7759 47.8769L15.9849 55.3639C14.943 56.1666 13.6344 56.542 12.3254 56.4139C11.0165 56.2858 9.80552 55.6637 8.93903 54.6742C8.07254 53.6848 7.61564 52.4023 7.66133 51.0879C7.70701 49.7735 8.25184 48.5258 9.18493 47.5989L11.4909 45.2929C11.6795 45.1108 11.9321 45.01 12.1943 45.0122C12.4565 45.0145 12.7073 45.1197 12.8927 45.3051C13.0782 45.4905 13.1833 45.7413 13.1856 46.0035C13.1879 46.2657 13.0871 46.5183 12.9049 46.7069L10.5999 49.0129C10.0286 49.5814 9.69524 50.3462 9.66754 51.1517C9.63984 51.9572 9.9199 52.743 10.4508 53.3494C10.9817 53.9558 11.7236 54.3373 12.5257 54.4164C13.3278 54.4954 14.1299 54.266 14.7689 53.7749L24.5599 46.2889C25.8562 45.3028 27.4781 44.8446 29.0987 45.0066C30.7194 45.1686 32.2184 45.9388 33.2939 47.1619C33.8578 47.8064 34.287 48.5571 34.5564 49.37C34.8259 50.1828 34.93 51.0413 34.8627 51.895C34.7954 52.7487 34.5581 53.5803 34.1647 54.3409C33.7713 55.1015 33.2298 55.7757 32.5719 56.3239L24.8919 63.7239C24.7058 63.9022 24.4577 64.0012 24.1999 63.9999ZM46.1999 23.2999C46.1058 23.2997 46.0123 23.2863 45.9219 23.2599C38.3129 21.0569 33.1999 14.5229 33.1999 6.99991C33.1999 6.64191 33.2116 6.28691 33.2349 5.93491C33.2522 5.6697 33.3741 5.42219 33.5738 5.24685C33.7735 5.0715 34.0347 4.98268 34.2999 4.99991C34.5651 5.01715 34.8126 5.13904 34.988 5.33877C35.1633 5.5385 35.2522 5.7997 35.2349 6.06491C35.2109 6.37391 35.1999 6.68591 35.1999 6.99991C35.1999 13.6239 39.7319 19.3849 46.4779 21.3359C46.7123 21.4005 46.9151 21.5482 47.0484 21.7514C47.1817 21.9546 47.2365 22.1995 47.2024 22.4401C47.1684 22.6808 47.0478 22.9008 46.8633 23.0591C46.6788 23.2173 46.443 23.3029 46.1999 23.2999ZM27.2999 31.9999C27.0383 32.0001 26.787 31.8978 26.5999 31.7149C25.837 30.972 25.2314 30.0831 24.8191 29.1013C24.4068 28.1195 24.1962 27.0648 24.1999 25.9999C24.2 25.6181 24.2271 25.2369 24.2809 24.8589C24.3194 24.5973 24.4599 24.3615 24.6717 24.2032C24.8836 24.0449 25.1495 23.9769 25.4113 24.0142C25.6731 24.0515 25.9095 24.191 26.0687 24.4021C26.228 24.6133 26.2971 24.8789 26.2609 25.1409C26.2206 25.4255 26.2003 25.7125 26.1999 25.9999C26.1973 26.7985 26.3554 27.5895 26.6646 28.3257C26.9738 29.062 27.4279 29.7286 27.9999 30.2859C28.1417 30.425 28.2389 30.6031 28.2791 30.7976C28.3193 30.9921 28.3006 31.1941 28.2256 31.378C28.1505 31.5619 28.0223 31.7192 27.8575 31.83C27.6926 31.9407 27.4985 31.9999 27.2999 31.9999ZM42.1999 49.9999C41.6066 49.9999 41.0266 49.824 40.5332 49.4943C40.0399 49.1647 39.6554 48.6961 39.4283 48.148C39.2012 47.5998 39.1418 46.9966 39.2576 46.4146C39.3733 45.8327 39.6591 45.2982 40.0786 44.8786C40.4982 44.459 41.0327 44.1733 41.6147 44.0576C42.1966 43.9418 42.7998 44.0012 43.348 44.2283C43.8962 44.4553 44.3647 44.8399 44.6943 45.3332C45.024 45.8266 45.1999 46.4066 45.1999 46.9999C45.1999 47.7956 44.8839 48.5586 44.3212 49.1212C43.7586 49.6838 42.9956 49.9999 42.1999 49.9999ZM42.1999 45.9999C42.0021 45.9999 41.8088 46.0586 41.6444 46.1684C41.4799 46.2783 41.3517 46.4345 41.2761 46.6172C41.2004 46.8 41.1806 47.001 41.2191 47.195C41.2577 47.389 41.353 47.5672 41.4928 47.707C41.6327 47.8469 41.8109 47.9421 42.0048 47.9807C42.1988 48.0193 42.3999 47.9995 42.5826 47.9238C42.7653 47.8481 42.9215 47.7199 43.0314 47.5555C43.1413 47.391 43.1999 47.1977 43.1999 46.9999C43.1999 46.7347 43.0946 46.4803 42.907 46.2928C42.7195 46.1053 42.4651 45.9999 42.1999 45.9999Z" fill="#731B55"/>
<path d="M44.1992 48C43.934 48 43.6796 47.8946 43.4921 47.7071C43.3046 47.5196 43.1992 47.2652 43.1992 47V41C43.1992 40.7348 43.3046 40.4804 43.4921 40.2929C43.6796 40.1054 43.934 40 44.1992 40C44.4644 40 44.7188 40.1054 44.9063 40.2929C45.0939 40.4804 45.1992 40.7348 45.1992 41V47C45.1992 47.2652 45.0939 47.5196 44.9063 47.7071C44.7188 47.8946 44.4644 48 44.1992 48ZM52.1992 48C51.6059 48 51.0259 47.8241 50.5325 47.4944C50.0392 47.1648 49.6546 46.6962 49.4276 46.148C49.2005 45.5999 49.1411 44.9967 49.2569 44.4147C49.3726 43.8328 49.6583 43.2982 50.0779 42.8787C50.4975 42.4591 51.032 42.1734 51.6139 42.0576C52.1959 41.9419 52.7991 42.0013 53.3473 42.2284C53.8954 42.4554 54.364 42.8399 54.6936 43.3333C55.0233 43.8266 55.1992 44.4067 55.1992 45C55.1992 45.7956 54.8831 46.5587 54.3205 47.1213C53.7579 47.6839 52.9949 48 52.1992 48ZM52.1992 44C52.0014 44 51.8081 44.0586 51.6437 44.1685C51.4792 44.2784 51.351 44.4346 51.2753 44.6173C51.1997 44.8 51.1798 45.0011 51.2184 45.1951C51.257 45.3891 51.3523 45.5673 51.4921 45.7071C51.632 45.847 51.8101 45.9422 52.0041 45.9808C52.1981 46.0194 52.3992 45.9996 52.5819 45.9239C52.7646 45.8482 52.9208 45.72 53.0307 45.5556C53.1406 45.3911 53.1992 45.1978 53.1992 45C53.1992 44.7348 53.0939 44.4804 52.9063 44.2929C52.7188 44.1054 52.4644 44 52.1992 44Z" fill="#731B55"/>
<path d="M54.1992 46C53.934 46 53.6796 45.8946 53.4921 45.7071C53.3046 45.5196 53.1992 45.2652 53.1992 45V39C53.1992 38.7348 53.3046 38.4804 53.4921 38.2929C53.6796 38.1054 53.934 38 54.1992 38C54.4644 38 54.7188 38.1054 54.9063 38.2929C55.0939 38.4804 55.1992 38.7348 55.1992 39V45C55.1992 45.2652 55.0939 45.5196 54.9063 45.7071C54.7188 45.8946 54.4644 46 54.1992 46Z" fill="#731B55"/>
<path d="M44.1992 42C43.934 42 43.6796 41.8946 43.4921 41.7071C43.3046 41.5196 43.1992 41.2652 43.1992 41V37C43.1992 36.7695 43.2788 36.546 43.4246 36.3674C43.5703 36.1888 43.7733 36.0661 43.9992 36.02L53.9992 34.02C54.1442 33.9898 54.2942 33.9928 54.4379 34.0286C54.5816 34.0644 54.7154 34.1323 54.8292 34.227C54.9443 34.3204 55.0372 34.4382 55.1012 34.5719C55.1652 34.7055 55.1987 34.8518 55.1992 35V39C55.1992 39.2652 55.0939 39.5196 54.9063 39.7071C54.7188 39.8946 54.4644 40 54.1992 40C53.934 40 53.6796 39.8946 53.4921 39.7071C53.3046 39.5196 53.1992 39.2652 53.1992 39V36.22L45.1992 37.82V39.78L50.9992 38.62C51.2576 38.5722 51.5244 38.628 51.7419 38.7753C51.9595 38.9226 52.1103 39.1496 52.1618 39.4073C52.2133 39.6649 52.1614 39.9325 52.0172 40.1521C51.873 40.3718 51.6481 40.5258 51.3912 40.581L44.3912 41.981C44.328 41.994 44.2637 42.0003 44.1992 42ZM9.19922 26C8.60588 26 8.02586 25.8241 7.53251 25.4944C7.03916 25.1648 6.65464 24.6962 6.42758 24.1481C6.20052 23.5999 6.14111 22.9967 6.25686 22.4147C6.37262 21.8328 6.65834 21.2982 7.0779 20.8787C7.49746 20.4591 8.03201 20.1734 8.61395 20.0576C9.19589 19.9419 9.79909 20.0013 10.3473 20.2284C10.8954 20.4554 11.364 20.8399 11.6936 21.3333C12.0233 21.8266 12.1992 22.4067 12.1992 23C12.1992 23.7957 11.8831 24.5587 11.3205 25.1213C10.7579 25.6839 9.99487 26 9.19922 26ZM9.19922 22C9.00144 22 8.8081 22.0586 8.64365 22.1685C8.4792 22.2784 8.35103 22.4346 8.27534 22.6173C8.19965 22.8 8.17985 23.0011 8.21843 23.1951C8.25702 23.3891 8.35226 23.5673 8.49211 23.7071C8.63197 23.847 8.81015 23.9422 9.00413 23.9808C9.19811 24.0194 9.39918 23.9996 9.5819 23.9239C9.76463 23.8482 9.92081 23.72 10.0307 23.5556C10.1406 23.3911 10.1992 23.1978 10.1992 23C10.1992 22.7348 10.0939 22.4804 9.90633 22.2929C9.71879 22.1054 9.46444 22 9.19922 22Z" fill="#731B55"/>
<path d="M11.1992 24C10.934 24 10.6796 23.8946 10.4921 23.7071C10.3046 23.5196 10.1992 23.2652 10.1992 23V17C10.1992 16.7348 10.3046 16.4804 10.4921 16.2929C10.6796 16.1054 10.934 16 11.1992 16C11.4644 16 11.7188 16.1054 11.9063 16.2929C12.0939 16.4804 12.1992 16.7348 12.1992 17V23C12.1992 23.2652 12.0939 23.5196 11.9063 23.7071C11.7188 23.8946 11.4644 24 11.1992 24Z" fill="#731B55"/>
<path d="M11.1992 18C10.934 18 10.6796 17.8946 10.4921 17.7071C10.3046 17.5195 10.1992 17.2652 10.1992 17V13C10.1992 12.7694 10.2788 12.546 10.4246 12.3674C10.5703 12.1888 10.7733 12.0661 10.9992 12.02L20.9992 10.02C21.1445 9.9903 21.2946 9.99333 21.4386 10.0288C21.5826 10.0643 21.7169 10.1314 21.8318 10.2252C21.9466 10.319 22.0392 10.4372 22.1027 10.5712C22.1663 10.7052 22.1992 10.8517 22.1992 11V15C22.1993 15.2305 22.1197 15.454 21.9739 15.6325C21.8281 15.8111 21.6251 15.9339 21.3992 15.98L14.3992 17.38C14.1409 17.4278 13.8741 17.372 13.6565 17.2247C13.439 17.0774 13.2881 16.8503 13.2366 16.5927C13.1851 16.335 13.2371 16.0675 13.3813 15.8478C13.5255 15.6282 13.7503 15.4741 14.0072 15.419L20.1992 14.18V12.22L12.1992 13.82V17C12.1992 17.2652 12.0939 17.5195 11.9063 17.7071C11.7188 17.8946 11.4644 18 11.1992 18Z" fill="#731B55"/>
</g>
<defs>
<clipPath id="clip0_1314_12998">
<rect width="64" height="64" fill="white" transform="translate(0.199219)"/>
</clipPath>
</defs>
</svg>
