<svg width="64" height="64" viewBox="0 0 64 64" fill="none" xmlns="http://www.w3.org/2000/svg">
<path d="M61 50H59V45C59 44.7348 58.8946 44.4804 58.7071 44.2929C58.5196 44.1054 58.2652 44 58 44H52V37C52 36.7348 51.8946 36.4804 51.7071 36.2929C51.5196 36.1054 51.2652 36 51 36H44C43.7348 36 43.4804 36.1054 43.2929 36.2929C43.1054 36.4804 43 36.7348 43 37V43H39C38.7348 43 38.4804 43.1054 38.2929 43.2929C38.1054 43.4804 38 43.7348 38 44V54H33V44C33 43.7348 32.8946 43.4804 32.7071 43.2929C32.5196 43.1054 32.2652 43 32 43H25C24.7348 43 24.4804 43.1054 24.2929 43.2929C24.1054 43.4804 24 43.7348 24 44V54H22V49C22 48.7348 21.8946 48.4804 21.7071 48.2929C21.5196 48.1054 21.2652 48 21 48H20V36C20 35.8026 19.9415 35.6095 19.832 35.4453L14.0151 26.72L14 25.9909V22H12V26.6973L6.168 35.4454C6.05849 35.6096 6.00003 35.8026 6 36V43H3C2.73478 43 2.48043 43.1054 2.29289 43.2929C2.10536 43.4804 2 43.7348 2 44V61C2 61.2652 2.10536 61.5196 2.29289 61.7071C2.48043 61.8946 2.73478 62 3 62H61C61.2652 62 61.5196 61.8946 61.7071 61.7071C61.8946 61.5196 62 61.2652 62 61V51C62 50.7348 61.8946 50.4804 61.7071 50.2929C61.5196 50.1054 61.2652 50 61 50ZM14 48V41H18V48H14ZM8 36.3027L13 28.8027L18 36.3027V39H14V34H12V39H8V36.3027ZM8 41H12V52H10V44C10 43.7348 9.89464 43.4804 9.70711 43.2929C9.51957 43.1054 9.26522 43 9 43H8V41ZM8 45V52H4V45H8ZM4 54H12V60H4V54ZM16 55V60H14V50H20V54H17C16.7348 54 16.4804 54.1054 16.2929 54.2929C16.1054 54.4804 16 54.7348 16 55ZM26 60H18V56H26V60ZM31 60H28V55C28 54.7348 27.8946 54.4804 27.7071 54.2929C27.5196 54.1054 27.2652 54 27 54H26V45H31V60ZM45 38H50V50H47V44C47 43.7348 46.8946 43.4804 46.7071 43.2929C46.5196 43.1054 46.2652 43 46 43H45V38ZM41 60H33V56H41V60ZM40 54V45H45V60H43V55C43 54.7348 42.8946 54.4804 42.7071 54.2929C42.5196 54.1054 42.2652 54 42 54H40ZM52 60H47V52H52V60ZM52 50V46H57V50H52ZM60 60H54V52H60V60Z" fill="#731B55"/>
<path d="M30.9998 18H32.9998V41H30.9998V18ZM31.9998 16C32.5932 16 33.1732 15.8241 33.6665 15.4944C34.1599 15.1648 34.5444 14.6962 34.7715 14.1481C34.9985 13.5999 35.0579 12.9967 34.9422 12.4147C34.8264 11.8328 34.5407 11.2982 34.1211 10.8787C33.7016 10.4591 33.167 10.1734 32.5851 10.0577C32.0031 9.9419 31.3999 10.0013 30.8518 10.2284C30.3036 10.4554 29.8351 10.8399 29.5054 11.3333C29.1758 11.8266 28.9998 12.4067 28.9998 13C29.0007 13.7954 29.3171 14.5579 29.8795 15.1203C30.4419 15.6828 31.2044 15.9991 31.9998 16ZM31.9998 12C32.1976 12 32.3909 12.0587 32.5554 12.1685C32.7198 12.2784 32.848 12.4346 32.9237 12.6173C32.9994 12.8 33.0192 13.0011 32.9806 13.1951C32.942 13.3891 32.8468 13.5673 32.7069 13.7071C32.5671 13.847 32.3889 13.9422 32.1949 13.9808C32.0009 14.0194 31.7999 13.9996 31.6171 13.9239C31.4344 13.8482 31.2782 13.72 31.1684 13.5556C31.0585 13.3911 30.9998 13.1978 30.9998 13C31.0002 12.7349 31.1056 12.4807 31.2931 12.2933C31.4805 12.1058 31.7347 12.0003 31.9998 12ZM30.9998 6.00001H32.9998V8.00001H30.9998V6.00001ZM34.8244 8.76163L36.2384 7.34763L37.6524 8.76163L36.2384 10.1756L34.8244 8.76163ZM36.9998 12H38.9998V14H36.9998V12ZM34.8222 17.243L36.2362 15.829L37.6502 17.243L36.2362 18.657L34.8222 17.243ZM24.9998 12H26.9998V14H24.9998V12ZM26.3387 17.2453L27.7527 15.8313L29.1667 17.2453L27.7527 18.6593L26.3387 17.2453ZM26.3389 8.75888L27.7529 7.34488L29.1669 8.75888L27.7529 10.1729L26.3389 8.75888ZM31.0062 3.97276L31.0483 1.97238L33.0483 2.01438L33.0062 4.01476L31.0062 3.97276ZM34.5317 4.27188L35.3359 2.43938L37.1679 3.24351L36.3637 5.07601L34.5317 4.27188ZM37.6832 5.92526L39.1276 4.54101L40.5116 5.98501L39.0672 7.36926L37.6832 5.92526ZM39.9626 8.64176L41.8269 7.91563L42.5529 9.77963L40.6886 10.5059L39.9626 8.64176ZM40.9882 13.9928L41.0302 11.9928L43.0306 12.0349L42.9886 14.0349L40.9882 13.9928ZM39.9241 17.3508L40.7281 15.5188L42.5604 16.323L41.7564 18.155L39.9241 17.3508ZM37.6496 20.0694L39.0936 18.6854L40.4778 20.1298L39.0338 21.5138L37.6496 20.0694ZM26.8451 22.7375L27.6493 20.905L29.4813 21.709L28.6771 23.5415L26.8451 22.7375ZM34.5164 21.7L36.3804 20.9741L37.1067 22.8386L35.2426 23.5646L34.5164 21.7ZM21.4598 16.253L23.3242 15.5268L24.0502 17.3909L22.1858 18.117L21.4598 16.253ZM23.5033 20.0395L24.9477 18.6553L26.3317 20.0993L24.8873 21.4835L23.5033 20.0395ZM20.9851 13.9554L21.0271 11.9554L23.0274 11.9975L22.9854 13.9975L20.9851 13.9554ZM21.4573 9.66276L22.2612 7.83076L24.0936 8.63501L23.2896 10.467L21.4573 9.66276ZM23.5354 5.89076L24.9794 4.50676L26.3637 5.95113L24.9198 7.33501L23.5354 5.89076ZM26.9058 3.19613L28.7698 2.47013L29.4961 4.33451L27.6321 5.06051L26.9058 3.19613ZM25.9998 41V39.3138C26.0035 35.5952 25.271 31.9126 23.8446 28.4785C22.425 25.0416 20.3391 21.9197 17.7071 19.2929L16.2927 20.7071C18.7388 23.1484 20.6775 26.0497 21.9968 29.2439C23.3225 32.4354 24.0033 35.8578 23.9998 39.3138V41H25.9998ZM12.9998 20C13.5932 20 14.1732 19.8241 14.6665 19.4944C15.1599 19.1648 15.5444 18.6962 15.7715 18.1481C15.9985 17.5999 16.0579 16.9967 15.9422 16.4147C15.8264 15.8328 15.5407 15.2982 15.1211 14.8787C14.7016 14.4591 14.167 14.1734 13.5851 14.0577C13.0031 13.9419 12.3999 14.0013 11.8518 14.2284C11.3036 14.4554 10.8351 14.8399 10.5054 15.3333C10.1758 15.8266 9.99982 16.4067 9.99982 17C10.0007 17.7954 10.3171 18.5579 10.8795 19.1203C11.4419 19.6828 12.2044 19.9991 12.9998 20ZM12.9998 16C13.1976 16 13.3909 16.0587 13.5554 16.1685C13.7198 16.2784 13.848 16.4346 13.9237 16.6173C13.9994 16.8 14.0192 17.0011 13.9806 17.1951C13.942 17.3891 13.8468 17.5673 13.7069 17.7071C13.5671 17.847 13.3889 17.9422 13.1949 17.9808C13.0009 18.0194 12.7999 17.9996 12.6171 17.9239C12.4344 17.8482 12.2782 17.72 12.1684 17.5556C12.0585 17.3911 11.9998 17.1978 11.9998 17C12.0002 16.7349 12.1056 16.4807 12.2931 16.2933C12.4805 16.1058 12.7347 16.0003 12.9998 16ZM11.9998 10H13.9998V12H11.9998V10ZM7.34107 12.7566L8.75482 11.3426L10.1688 12.7566L8.75482 14.1706L7.34107 12.7566ZM5.99982 16H7.99982V18H5.99982V16ZM7.33957 21.2423L8.75357 19.8283L10.1676 21.2423L8.75357 22.6563L7.33957 21.2423ZM17.9998 16H19.9998V18H17.9998V16ZM15.8254 12.7588L17.2394 11.3448L18.6534 12.7588L17.2394 14.1728L15.8254 12.7588ZM11.9622 6.01976L13.9622 5.97776L14.0042 7.97813L12.0042 8.02013L11.9622 6.01976ZM7.83957 7.25638L9.67157 6.45238L10.4757 8.28488L8.6437 9.08888L7.83957 7.25638ZM4.5017 9.96913L5.8857 8.52513L7.32995 9.90938L5.94607 11.3534L4.5017 9.96913ZM2.46107 13.7553L3.18732 11.8913L5.0517 12.6175L4.3257 14.4814L2.46107 13.7553ZM1.98145 16.0453L3.98182 16.0033L4.02382 18.0033L2.02345 18.0453L1.98145 16.0453ZM2.45495 20.3378L4.28745 19.5336L5.09132 21.3656L3.25895 22.1698L2.45495 20.3378ZM4.53557 24.1089L5.91982 22.6646L7.36382 24.0486L5.97957 25.4929L4.53557 24.1089ZM7.90307 26.802L8.62932 24.9375L10.4933 25.6635L9.76707 27.528L7.90307 26.802ZM15.5353 25.724L17.3673 24.92L18.1716 26.7525L16.3396 27.5565L15.5353 25.724ZM15.5084 8.31313L16.2347 6.44863L18.0986 7.17463L17.3723 9.03913L15.5084 8.31313ZM39.9998 41C39.9998 38.6296 40.5065 36.2866 41.486 34.1281C42.4655 31.9695 43.8951 30.0453 45.6791 28.4845L47.6584 26.7525L46.3412 25.2475L44.3619 26.9794C42.3635 28.7279 40.7619 30.8835 39.6647 33.3017C38.5674 35.7198 37.9998 38.3446 37.9998 41H39.9998ZM50.9998 26C51.5932 26 52.1732 25.8241 52.6665 25.4944C53.1599 25.1648 53.5444 24.6962 53.7715 24.1481C53.9985 23.5999 54.0579 22.9967 53.9422 22.4147C53.8264 21.8328 53.5407 21.2982 53.1211 20.8787C52.7016 20.4591 52.167 20.1734 51.5851 20.0576C51.0031 19.9419 50.4 20.0013 49.8518 20.2284C49.3036 20.4554 48.8351 20.8399 48.5054 21.3333C48.1758 21.8266 47.9998 22.4067 47.9998 23C48.0007 23.7954 48.3171 24.5579 48.8795 25.1203C49.4419 25.6828 50.2044 25.9991 50.9998 26ZM50.9998 22C51.1976 22 51.3909 22.0587 51.5554 22.1685C51.7198 22.2784 51.848 22.4346 51.9237 22.6173C51.9994 22.8 52.0192 23.0011 51.9806 23.1951C51.942 23.3891 51.8468 23.5673 51.7069 23.7071C51.5671 23.847 51.3889 23.9422 51.1949 23.9808C51.0009 24.0194 50.7999 23.9996 50.6171 23.9239C50.4344 23.8482 50.2782 23.72 50.1684 23.5556C50.0585 23.3911 49.9998 23.1978 49.9998 23C50.0002 22.7349 50.1056 22.4807 50.2931 22.2933C50.4805 22.1058 50.7347 22.0003 50.9998 22ZM49.9998 16H51.9998V18H49.9998V16ZM53.8217 18.7635L55.2357 17.3495L56.6497 18.7635L55.2357 20.1775L53.8217 18.7635ZM55.9998 22H57.9998V24H55.9998V22ZM53.8188 27.2431L55.2328 25.8291L56.6468 27.2431L55.2328 28.6571L53.8188 27.2431ZM43.9998 22H45.9998V24H43.9998V22ZM49.9998 28H51.9998V30H49.9998V28ZM45.3357 18.7594L46.7498 17.3454L48.1638 18.7594L46.7498 20.1734L45.3357 18.7594ZM50.0119 13.9705L50.0541 11.9701L52.0541 12.0121L52.0119 14.0125L50.0119 13.9705ZM53.5364 14.2664L54.3407 12.4339L56.1727 13.238L55.3684 15.0705L53.5364 14.2664ZM56.6871 15.9333L58.1314 14.549L59.5154 15.993L58.0711 17.3773L56.6871 15.9333ZM58.9657 18.6521L60.8301 17.926L61.5561 19.79L59.6917 20.5163L58.9657 18.6521ZM59.9934 23.9903L60.0354 21.9903L62.0358 22.0324L61.9938 24.0324L59.9934 23.9903ZM58.9301 27.3469L59.7341 25.5149L61.5664 26.3191L60.7624 28.1511L58.9301 27.3469ZM56.6532 30.0763L58.0972 28.6921L59.4814 30.1365L58.0374 31.5205L56.6532 30.0763ZM45.8498 32.732L46.6539 30.8995L48.4859 31.7035L47.6817 33.536L45.8498 32.732ZM49.9748 33.9745L50.0169 31.9741L52.0169 32.0161L51.9748 34.0165L49.9748 33.9745ZM53.5194 31.7115L55.3834 30.9855L56.1097 32.85L54.2456 33.576L53.5194 31.7115ZM40.4623 26.2653L42.3268 25.539L43.0528 27.4031L41.1884 28.1293L40.4623 26.2653ZM45.9088 13.207L47.7728 12.481L48.4991 14.3454L46.6351 15.0714L45.9088 13.207Z" fill="#731B55"/>
</svg>
