<svg width="65" height="64" viewBox="0 0 65 64" fill="none" xmlns="http://www.w3.org/2000/svg">
<g clip-path="url(#clip0_1314_13210)">
<path d="M41.0121 30.7547L39.9482 27.122C39.8683 26.851 39.6841 26.6228 39.4361 26.4875C39.1881 26.3521 38.8965 26.3207 38.6253 26.4001C38.3542 26.4796 38.1256 26.6633 37.9898 26.9111C37.854 27.1588 37.822 27.4503 37.9009 27.7217L38.4166 29.4825L36.6558 28.9668C36.4012 28.8922 36.1281 28.9151 35.8895 29.0311C35.651 29.147 35.4643 29.3477 35.3657 29.594L32.7999 36.0027L30.2341 29.594C30.1356 29.3478 29.9488 29.1471 29.7103 29.0311C29.4718 28.9152 29.1986 28.8922 28.9441 28.9668L27.1833 29.4825L27.699 27.7217C27.7736 27.4671 27.7506 27.1939 27.6347 26.9554C27.5187 26.7168 27.318 26.5301 27.0718 26.4315L20.6631 23.8657L27.0718 21.2999C27.318 21.2013 27.5187 21.0145 27.6346 20.776C27.7506 20.5374 27.7735 20.2643 27.699 20.0097L27.1833 18.2489L28.9441 18.7646C29.1986 18.8392 29.4718 18.8163 29.7103 18.7003C29.9489 18.5844 30.1356 18.3837 30.2341 18.1374L32.7999 11.7287L35.3657 18.1374C35.4643 18.3836 35.6511 18.5843 35.8896 18.7002C36.1281 18.8162 36.4012 18.8392 36.6558 18.7646L38.4166 18.2489L37.9009 20.0097C37.8263 20.2643 37.8492 20.5375 37.9652 20.776C38.0812 21.0145 38.2818 21.2013 38.5281 21.2999L44.9368 23.8657L44.373 24.0914C44.2425 24.1431 44.1234 24.2201 44.0226 24.3179C43.9219 24.4157 43.8414 24.5324 43.7859 24.6614C43.7304 24.7904 43.7008 24.9291 43.699 25.0695C43.6972 25.2099 43.7232 25.3493 43.7753 25.4797C43.8275 25.61 43.9049 25.7288 44.0031 25.8292C44.1013 25.9296 44.2184 26.0096 44.3476 26.0646C44.4768 26.1196 44.6156 26.1486 44.756 26.1499C44.8964 26.1512 45.0357 26.1247 45.1658 26.072L48.2031 24.856C49.095 24.4989 49.0945 23.2323 48.2031 22.8754L40.2205 19.6795L41.0121 16.9769C41.2489 16.1686 40.4964 15.4167 39.6886 15.6534L36.9859 16.445L33.7901 8.46237C33.4332 7.57048 32.1665 7.57088 31.8095 8.46237L28.6137 16.445L25.911 15.6534C25.1028 15.4165 24.3508 16.1691 24.5875 16.9769L25.3791 19.6795L17.3965 22.8754C16.5046 23.2325 16.5051 24.499 17.3965 24.856L25.3791 28.0519L24.5875 30.7545C24.3503 31.5643 25.1043 32.3143 25.911 32.078L28.6137 31.2864L31.8095 39.269C32.1665 40.1609 33.4332 40.1605 33.7901 39.269L36.9859 31.2864L39.6886 32.078C40.4964 32.3148 41.2489 31.563 41.0121 30.7547ZM24.9673 35.2314L22.5114 39.4614C21.8045 40.6792 23.6549 41.7409 24.3564 40.5326L26.8123 36.3027C27.5203 35.083 25.6764 34.0101 24.9673 35.2314ZM40.6323 35.2314C39.9229 34.0099 38.0794 35.0832 38.7873 36.3027L41.2432 40.5326C41.9444 41.7403 43.7961 40.6806 43.0882 39.4614L40.6323 35.2314ZM16.1331 15.4224L20.3631 17.8783C21.5782 18.5838 22.6529 16.7408 21.4343 16.0334L17.2043 13.5774C15.9847 12.8692 14.9118 14.7132 16.1331 15.4224ZM53.0184 34.3716L45.2366 29.8533C44.017 29.1454 42.9441 30.9892 44.1654 31.6983L51.9472 36.2165C53.1623 36.9219 54.237 35.079 53.0184 34.3716ZM20.363 29.8533L12.5812 34.3716C11.3657 35.0773 12.4332 36.9244 13.6524 36.2165L21.4342 31.6983C22.6538 30.9901 21.5842 29.1441 20.363 29.8533ZM45.2366 17.8783L49.4666 15.4224C50.6863 14.7143 49.6168 12.8684 48.3954 13.5774L44.1654 16.0334C42.9454 16.7418 44.0153 18.5874 45.2366 17.8783ZM28.733 44.2922V58.2193C28.733 59.6297 30.8664 59.6317 30.8664 58.2193V44.2922C30.8664 42.8819 28.733 42.88 28.733 44.2922ZM34.7332 56.2925V62.9379C34.7332 64.3482 36.8666 64.3502 36.8666 62.9379V56.2925C36.8666 54.8822 34.7332 54.8803 34.7332 56.2925ZM34.7332 46.9589V50.3741C34.7332 51.7844 36.8666 51.7864 36.8666 50.3741V46.9589C36.8666 45.5486 34.7332 45.5468 34.7332 46.9589ZM24.9673 12.5002C25.6762 13.7212 27.5206 12.6491 26.8123 11.429L22.2941 3.64719C21.5861 2.42769 19.7399 3.49692 20.4491 4.71841L24.9673 12.5002ZM40.6323 12.5002L45.1505 4.71841C45.8585 3.49892 44.0149 2.42596 43.3055 3.64719L38.7873 11.429C38.0781 12.6506 39.9242 13.7196 40.6323 12.5002ZM4.27442 9.79494C6.12965 10.8083 7.65467 12.3333 8.668 14.1885C9.07214 14.9275 10.1359 14.9271 10.5398 14.1885C10.7925 13.7268 11.0777 13.2836 11.3933 12.8623C12.2393 11.7341 10.5334 10.4526 9.68629 11.5826C9.65869 11.6194 9.63136 11.6563 9.60416 11.6934C8.80985 10.6093 7.85401 9.65341 6.76995 8.85905C7.85384 8.06484 8.80955 7.10913 9.60376 6.02525C10.7451 7.58245 12.2151 8.86944 13.9095 9.79494C15.1482 10.4724 16.1713 8.60038 14.9332 7.92316C13.078 6.90979 11.553 5.38478 10.5396 3.52958C10.1356 2.79103 9.07201 2.79063 8.66787 3.52958C7.65454 5.38477 6.12958 6.90978 4.27442 7.92316C3.53587 8.32717 3.53547 9.3908 4.27442 9.79494ZM12.0128 45.5024C10.1575 44.489 8.63251 42.964 7.61917 41.1088C7.21517 40.3702 6.15154 40.3698 5.74739 41.1088C4.73406 42.964 3.20904 44.489 1.35382 45.5024C0.615267 45.9064 0.615 46.97 1.35382 47.3741C3.20904 48.3875 4.73406 49.9125 5.74739 51.7677C6.1514 52.5063 7.21503 52.5067 7.61917 51.7677C8.63251 49.9125 10.1575 48.3875 12.0128 47.3741C12.7513 46.9701 12.7516 45.9065 12.0128 45.5024ZM6.68328 49.2722C5.88911 48.1882 4.9334 47.2325 3.84948 46.4383C4.9334 45.6441 5.88911 44.6884 6.68328 43.6045C7.47743 44.6884 8.43314 45.6441 9.51709 46.4383C8.43317 47.2325 7.47746 48.1882 6.68328 49.2722ZM62.5555 45.5024C60.2173 44.2252 58.2952 42.3032 57.018 39.965C56.614 39.2265 55.5504 39.2261 55.1462 39.965C53.8691 42.3032 51.9471 44.2253 49.6089 45.5024C48.8703 45.9064 48.8699 46.9699 49.6089 47.3741C51.9471 48.6513 53.8691 50.5734 55.1462 52.9116C55.5502 53.6502 56.6139 53.6506 57.018 52.9116C58.2952 50.5734 60.2172 48.6513 62.5555 47.3741C63.294 46.9701 63.2943 45.9065 62.5555 45.5024ZM56.0821 50.38C55.0088 48.8457 53.6747 47.5116 52.1404 46.4383C53.6747 45.3649 55.0088 44.0308 56.0821 42.4966C57.1555 44.0308 58.4896 45.3649 60.0238 46.4383C58.4896 47.5117 57.1555 48.8457 56.0821 50.38ZM64.2458 4.95682C62.3883 3.94228 60.8614 2.4154 59.8469 0.557909C59.4429 -0.180643 58.3792 -0.181043 57.9751 0.557909C56.9605 2.41538 55.4337 3.94224 53.5762 4.95682C52.8376 5.36083 52.8372 6.42432 53.5762 6.8286C55.4337 7.84314 56.9606 9.37002 57.9751 11.2275C58.6483 12.4583 60.52 11.4348 59.8469 10.2039C58.9201 8.50727 57.6313 7.0354 56.0718 5.89271C57.1578 5.09715 58.1153 4.13967 58.9109 3.0537C59.7065 4.1399 60.6642 5.09752 61.7504 5.89311C61.574 6.02242 61.4008 6.15607 61.231 6.29392C60.1365 7.18341 61.4804 8.84012 62.5765 7.94956C63.0978 7.52614 63.6565 7.15095 64.2457 6.8286C64.9843 6.42459 64.9847 5.36083 64.2458 4.95682ZM8.27879 28.2833V27.079H9.48309C10.8933 27.079 10.8954 24.9456 9.48309 24.9456H8.27879V23.7413C8.27879 22.331 6.1454 22.329 6.1454 23.7413V24.9456H4.94111C3.53094 24.9456 3.52881 27.079 4.94111 27.079H6.1454V28.2833C6.1454 29.6936 8.27879 29.6954 8.27879 28.2833ZM55.0154 18.7862V19.9905H53.8111C52.401 19.9905 52.3988 22.1239 53.8111 22.1239H55.0154V23.3282C55.0154 24.7385 57.1488 24.7405 57.1488 23.3282V22.1239H58.3531C59.7633 22.1239 59.7654 19.9905 58.3531 19.9905H57.1488V18.7862C57.1488 17.3759 55.0154 17.3739 55.0154 18.7862ZM22.5931 53.5975H21.3889V52.3932C21.3889 50.9829 19.2555 50.9809 19.2555 52.3932V53.5975H18.0512C16.641 53.5975 16.6389 55.7309 18.0512 55.7309H19.2555V56.9352C19.2555 58.3455 21.3889 58.3475 21.3889 56.9352V55.7309H22.5931C24.0033 55.7309 24.0055 53.5975 22.5931 53.5975Z" fill="#731B55"/>
</g>
<defs>
<clipPath id="clip0_1314_13210">
<rect width="64" height="64" fill="white" transform="translate(0.799805)"/>
</clipPath>
</defs>
</svg>
