<svg width="65" height="64" viewBox="0 0 65 64" fill="none" xmlns="http://www.w3.org/2000/svg">
<path d="M39.6189 11.62L33.4089 2.95C33.0389 2.43 32.1589 2.43 31.7889 2.95L25.4789 11.76C25.2589 12.06 25.2289 12.47 25.4089 12.8C25.5789 13.13 25.9189 13.34 26.2989 13.34H26.8989V34.93C26.8989 35.48 27.3389 35.93 27.8989 35.93H31.5989V47.18C31.5989 47.73 32.0489 48.18 32.5989 48.18C33.1489 48.18 33.5989 47.73 33.5989 47.18V35.93H37.2989C37.8589 35.93 38.2989 35.48 38.2989 34.93V13.34H38.9189C39.4789 13.34 39.9189 12.89 39.9189 12.34C39.9189 12.06 39.8089 11.81 39.6189 11.62ZM36.2989 33.93H28.8989V29.85L36.2989 32.8V33.93ZM36.2989 30.65L28.8989 27.7V23.05L36.2989 26V30.65ZM36.2989 23.84L28.8989 20.89V16.43L36.2989 19.38V23.84ZM36.2989 17.22L28.8989 14.27V13.34H36.2989V17.22ZM28.2389 11.34L32.5989 5.25L36.9589 11.34H28.2389ZM22.1089 4.97C21.9089 4.65 21.5389 4.47 21.1589 4.51L18.7589 4.77L17.1889 2.94C16.9389 2.65 16.5489 2.53 16.1789 2.62C15.8089 2.72 15.5289 3.01 15.4489 3.39L14.9489 5.75L12.7289 6.68C12.3689 6.82 12.1389 7.16 12.1089 7.54C12.0889 7.92 12.2789 8.28 12.6089 8.47L14.7089 9.67L14.8989 12.08C14.9289 12.46 15.1789 12.79 15.5289 12.93C15.6489 12.97 15.7789 13 15.8989 13C16.1389 13 16.3789 12.91 16.5689 12.74L18.3589 11.12L20.7089 11.68C21.0789 11.76 21.4689 11.63 21.7089 11.34C21.9489 11.05 22.0089 10.64 21.8489 10.29L20.8689 8.09L22.1189 6.03C22.3189 5.7 22.3189 5.29 22.1089 4.97ZM18.8289 8.43L19.1989 9.26L18.3089 9.05C18.1515 9.01135 17.9871 9.01212 17.8301 9.05224C17.6731 9.09236 17.5284 9.17059 17.4089 9.28L16.7289 9.9L16.6589 8.98C16.643 8.81975 16.5895 8.66552 16.5026 8.52995C16.4157 8.39438 16.2979 8.28131 16.1589 8.2L15.3689 7.74L16.2089 7.39C16.5089 7.27 16.7389 7 16.7989 6.67L16.9889 5.78L17.5889 6.47C17.7989 6.72 18.1289 6.85 18.4489 6.82L19.3589 6.72L18.8889 7.5C18.7089 7.78 18.6889 8.13 18.8289 8.43ZM52.4689 6.68L50.2489 5.75L49.7489 3.39C49.6689 3.01 49.3889 2.72 49.0189 2.62C48.6489 2.53 48.2589 2.65 48.0089 2.94L46.4389 4.77L44.0389 4.51C43.8534 4.49021 43.666 4.52282 43.4981 4.60413C43.3302 4.68544 43.1884 4.81219 43.0889 4.97C42.9869 5.12756 42.9318 5.31087 42.9301 5.49855C42.9283 5.68622 42.9799 5.87054 43.0789 6.03L44.3289 8.09L43.3489 10.29C43.2712 10.4603 43.2427 10.6491 43.2669 10.8348C43.2911 11.0204 43.3668 11.1956 43.4855 11.3404C43.6043 11.4852 43.7613 11.5938 43.9386 11.6538C44.116 11.7138 44.3066 11.7229 44.4889 11.68L46.8389 11.12L48.6289 12.74C48.8189 12.91 49.0589 13 49.2989 13C49.4189 13 49.5489 12.97 49.6689 12.93C50.0189 12.79 50.2689 12.46 50.2989 12.08L50.4889 9.67L52.5889 8.47C52.9189 8.28 53.1089 7.92 53.0889 7.54C53.0771 7.35278 53.0127 7.17271 52.903 7.02054C52.7933 6.86838 52.6428 6.75033 52.4689 6.68ZM49.0389 8.2C48.7589 8.36 48.5689 8.66 48.5389 8.98L48.4689 9.9L47.7889 9.28C47.6691 9.17097 47.5245 9.09299 47.3676 9.05289C47.2106 9.01279 47.0463 9.01179 46.8889 9.05L45.9989 9.26L46.3689 8.43C46.5089 8.13 46.4889 7.78 46.3089 7.5L45.8389 6.72L46.7489 6.82C47.0689 6.85 47.3989 6.72 47.6089 6.47L48.2089 5.78L48.3989 6.67C48.4589 7 48.6889 7.27 48.9889 7.39L49.8289 7.74L49.0389 8.2ZM12.1089 51.2C11.9447 51.4067 11.7058 51.5404 11.4438 51.5722C11.1818 51.604 10.9178 51.5314 10.7089 51.37C10.2689 51.03 10.1989 50.4 10.5389 49.96C21.6389 35.82 21.2389 17.11 21.2389 16.92C21.2346 16.7891 21.2565 16.6586 21.3031 16.5362C21.3497 16.4138 21.4202 16.3019 21.5104 16.207C21.6007 16.1121 21.7089 16.0361 21.8288 15.9834C21.9487 15.9306 22.0779 15.9023 22.2089 15.9C22.7389 15.86 23.2189 16.32 23.2389 16.87C23.2589 17.66 23.6589 36.49 12.1089 51.2ZM25.2189 36.45C25.1489 37.07 23.2189 51.74 9.9089 61.28C9.74139 61.4047 9.53776 61.4714 9.3289 61.47C9.0189 61.47 8.7089 61.32 8.5189 61.05C8.44127 60.9442 8.38557 60.8239 8.35507 60.6962C8.32458 60.5686 8.31991 60.4361 8.34134 60.3066C8.36277 60.1771 8.40986 60.0532 8.47985 59.9422C8.54984 59.8311 8.64131 59.7352 8.7489 59.66C21.3489 50.62 23.2189 36.35 23.2389 36.21C23.2799 35.9553 23.4179 35.7264 23.624 35.5712C23.8301 35.416 24.0882 35.3467 24.3443 35.3777C24.6004 35.4088 24.8346 35.5378 24.9976 35.7377C25.1607 35.9376 25.24 36.1929 25.2189 36.45ZM54.4889 51.37C54.2802 51.5319 54.0161 51.6048 53.7539 51.573C53.4918 51.5412 53.2528 51.4071 53.0889 51.2C41.5389 36.49 41.9389 17.66 41.9589 16.87C41.9789 16.32 42.4089 15.88 42.9889 15.9C43.5389 15.91 43.9789 16.37 43.9589 16.92C43.9589 17.11 43.5689 35.84 54.6589 49.96C54.9989 50.4 54.9289 51.03 54.4889 51.37ZM56.6789 61.05C56.4889 61.32 56.1789 61.47 55.8689 61.47C55.66 61.4714 55.4564 61.4047 55.2889 61.28C41.9789 51.74 40.0489 37.07 39.9789 36.45C39.9626 36.3199 39.9722 36.1879 40.0071 36.0615C40.0421 35.9351 40.1017 35.8169 40.1826 35.7137C40.2635 35.6105 40.364 35.5244 40.4784 35.4602C40.5927 35.3961 40.7187 35.3552 40.8489 35.34C41.1113 35.3089 41.3754 35.383 41.5834 35.546C41.7914 35.709 41.9264 35.9477 41.9589 36.21C41.9789 36.35 43.8789 50.64 56.4489 59.66C56.8989 59.98 57.0089 60.6 56.6789 61.05Z" fill="#731B55"/>
</svg>
