<svg width="59" height="62" viewBox="0 0 59 62" fill="none" xmlns="http://www.w3.org/2000/svg">
<path d="M32.8601 57.8108C32.6307 57.8108 32.4108 57.7197 32.2486 57.5575C32.0864 57.3953 31.9952 57.1753 31.9952 56.946C31.6281 51.1597 32.673 45.3709 35.0399 40.0782C37.4068 34.7854 41.0248 30.1473 45.5823 26.5633C45.6765 26.4997 45.7824 26.4553 45.8938 26.4326C46.0053 26.4099 46.1201 26.4094 46.2317 26.431C46.3433 26.4527 46.4496 26.4962 46.5445 26.5589C46.6393 26.6217 46.7208 26.7025 46.7844 26.7968C46.848 26.891 46.8924 26.9969 46.9151 27.1084C46.9378 27.2198 46.9383 27.3346 46.9167 27.4462C46.895 27.5579 46.8515 27.6641 46.7888 27.759C46.726 27.8538 46.6452 27.9353 46.5509 27.9989C46.4212 28.0941 32.7563 37.5903 33.725 56.946C33.725 57.1753 33.6339 57.3953 33.4717 57.5575C33.3095 57.7197 33.0895 57.8108 32.8601 57.8108ZM30.6893 41.3784C30.4599 41.3784 30.2399 41.2873 30.0777 41.1251C29.9156 40.9629 29.8244 40.7429 29.8244 40.5135C30.2482 27.2811 24.3152 21.3654 24.2547 21.3049C24.1087 21.1426 24.0296 20.9311 24.033 20.7129C24.0365 20.4946 24.1223 20.2857 24.2733 20.1282C24.4244 19.9706 24.6294 19.8759 24.8473 19.8632C25.0652 19.8504 25.2799 19.9206 25.4482 20.0595C25.7163 20.3189 32.0039 26.5027 31.5542 40.5654C31.5409 40.7857 31.444 40.9926 31.2832 41.1437C31.1224 41.2948 30.91 41.3788 30.6893 41.3784ZM28.4061 61.2703C28.1868 61.2708 27.9755 61.1881 27.815 61.0387C27.6544 60.8894 27.5565 60.6847 27.5412 60.466C27.5412 60.3795 26.7628 52.1027 13.6169 45.5298C13.4117 45.4276 13.2554 45.2481 13.1824 45.0308C13.1094 44.8135 13.1257 44.5761 13.2277 44.3708C13.2775 44.2685 13.347 44.177 13.4323 44.1015C13.5176 44.0261 13.6169 43.9682 13.7245 43.9313C13.8322 43.8943 13.9461 43.879 14.0597 43.8861C14.1733 43.8933 14.2844 43.9228 14.3866 43.973C21.9109 47.7352 25.6298 52.0249 27.472 55.2768C25.9412 38.4638 11.3942 28.9762 11.2385 28.8725C11.1365 28.8143 11.0474 28.7359 10.9767 28.6422C10.9059 28.5485 10.855 28.4413 10.8271 28.3272C10.7991 28.2132 10.7946 28.0946 10.814 27.9788C10.8333 27.863 10.876 27.7523 10.9395 27.6535C11.003 27.5548 11.086 27.4699 11.1833 27.4043C11.2807 27.3386 11.3904 27.2934 11.5057 27.2715C11.6211 27.2496 11.7397 27.2515 11.8544 27.2769C11.969 27.3023 12.0773 27.3508 12.1725 27.4195C12.3542 27.5319 30.6374 39.4584 29.2796 60.4573C29.2663 60.6776 29.1694 60.8845 29.0086 61.0356C28.8478 61.1867 28.6354 61.2707 28.4147 61.2703H28.4061ZM40.7044 15.0606C40.5664 15.0589 40.4305 15.0264 40.3066 14.9654L36.6136 13.0195L32.9207 14.9654C32.7832 15.0311 32.6308 15.0593 32.4789 15.0471C32.327 15.035 32.1811 14.9829 32.0558 14.8962C31.9216 14.8001 31.8177 14.6676 31.7564 14.5144C31.6951 14.3611 31.679 14.1935 31.7098 14.0314L32.419 9.92327L29.4007 7.02597C29.2864 6.91281 29.206 6.77005 29.1684 6.61372C29.1309 6.4574 29.1376 6.29369 29.1879 6.14098C29.2382 5.98827 29.3301 5.85261 29.4532 5.74922C29.5764 5.64583 29.7259 5.57882 29.885 5.5557L34.0104 4.95029L35.8525 1.21408C35.9234 1.06785 36.0339 0.944533 36.1716 0.858247C36.3093 0.771961 36.4685 0.726196 36.6309 0.726196C36.7934 0.726196 36.9526 0.771961 37.0902 0.858247C37.2279 0.944533 37.3385 1.06785 37.4093 1.21408L39.2515 4.95029L43.3769 5.5557C43.536 5.57882 43.6855 5.64583 43.8086 5.74922C43.9318 5.85261 44.0236 5.98827 44.0739 6.14098C44.1242 6.29369 44.131 6.4574 44.0934 6.61372C44.0558 6.77005 43.9754 6.91281 43.8612 7.02597L40.8688 9.94056L41.5779 14.0487C41.6088 14.2108 41.5927 14.3784 41.5314 14.5317C41.4701 14.6849 41.3662 14.8174 41.232 14.9135C41.0767 15.0184 40.8916 15.07 40.7044 15.0606ZM36.6136 11.1773C36.753 11.1769 36.8901 11.2126 37.0115 11.2811L39.6061 12.613L39.1131 9.78489C39.0889 9.64586 39.0991 9.50303 39.1429 9.36886C39.1866 9.2347 39.2625 9.11326 39.3639 9.01516L41.4223 7.00867L38.5769 6.60218C38.4383 6.58137 38.3069 6.5272 38.1939 6.44434C38.0809 6.36148 37.9897 6.25241 37.9282 6.12651L36.6569 3.53191L35.3855 6.12651C35.324 6.25241 35.2328 6.36148 35.1199 6.44434C35.0069 6.5272 34.8754 6.58137 34.7369 6.60218L31.8915 7.00867L33.9498 9.01516C34.0513 9.11326 34.1272 9.2347 34.1709 9.36886C34.2146 9.50303 34.2248 9.64586 34.2007 9.78489L33.7077 12.613L36.3023 11.2811C36.3978 11.2255 36.5038 11.1901 36.6136 11.1773ZM48.8515 56.6606C48.7132 56.6611 48.5767 56.6285 48.4536 56.5654L45.1066 54.8357L41.7682 56.5654C41.6307 56.6311 41.4784 56.6593 41.3265 56.6471C41.1746 56.635 41.0286 56.5829 40.9034 56.4962C40.7692 56.4001 40.6653 56.2676 40.604 56.1144C40.5427 55.9611 40.5265 55.7935 40.5574 55.6314L41.1974 51.9125L38.4904 49.2746C38.3762 49.1615 38.2957 49.0187 38.2582 48.8624C38.2206 48.706 38.2273 48.5423 38.2776 48.3896C38.3279 48.2369 38.4198 48.1013 38.5429 47.9979C38.6661 47.8945 38.8156 47.8275 38.9747 47.8043L42.7109 47.2595L44.3801 43.8779C44.4518 43.7339 44.5623 43.6129 44.699 43.5282C44.8357 43.4436 44.9934 43.3988 45.1542 43.3988C45.315 43.3988 45.4726 43.4436 45.6093 43.5282C45.7461 43.6129 45.8565 43.7339 45.9282 43.8779L47.5628 47.2768L51.299 47.8216C51.4581 47.8448 51.6077 47.9118 51.7308 48.0152C51.8539 48.1185 51.9458 48.2542 51.9961 48.4069C52.0464 48.5596 52.0531 48.7233 52.0156 48.8797C51.978 49.036 51.8976 49.1788 51.7834 49.2919L49.0677 51.9298L49.7077 55.6487C49.7386 55.8108 49.7224 55.9784 49.6611 56.1317C49.5998 56.2849 49.4959 56.4174 49.3617 56.5135C49.2113 56.6148 49.0328 56.6663 48.8515 56.6606ZM45.1066 52.9676C45.2478 52.9656 45.3874 52.9983 45.5131 53.0627L47.7012 54.213L47.2861 51.7568C47.2634 51.6191 47.2743 51.478 47.318 51.3454C47.3617 51.2129 47.4368 51.0929 47.5369 50.9957L49.3098 49.266L46.8536 48.9114C46.7151 48.8906 46.5836 48.8364 46.4706 48.7535C46.3576 48.6707 46.2665 48.5616 46.205 48.4357L45.1066 46.213L44.0169 48.453C43.9546 48.58 43.8621 48.6898 43.7475 48.7727C43.6329 48.8556 43.4997 48.9092 43.3596 48.9287L40.912 49.2833L42.6417 51.013C42.7418 51.1102 42.8169 51.2302 42.8606 51.3627C42.9043 51.4953 42.9152 51.6364 42.8925 51.7741L42.4688 54.213L44.6655 53.0627C44.8003 52.9891 44.9535 52.9561 45.1066 52.9676ZM50.5207 28.9762H50.3736C50.2146 28.9491 50.0664 28.878 49.9456 28.771C49.8249 28.664 49.7365 28.5254 49.6904 28.3708L48.4969 24.3752L44.5271 23.0865C44.3734 23.0364 44.2368 22.9442 44.1329 22.8203C44.0289 22.6965 43.9618 22.546 43.939 22.386C43.91 22.2221 43.9288 22.0534 43.9932 21.9C44.0576 21.7466 44.165 21.615 44.3023 21.5211L47.7617 19.1514V15C47.7633 14.8401 47.8092 14.6838 47.8943 14.5485C47.9794 14.4131 48.1003 14.3039 48.2437 14.2332C48.387 14.1624 48.5472 14.1327 48.7064 14.1475C48.8656 14.1622 49.0176 14.2208 49.1455 14.3168L52.4666 16.8508L56.4277 15.5535C56.5816 15.5035 56.7465 15.4976 56.9035 15.5366C57.0606 15.5756 57.2036 15.6579 57.3162 15.7742C57.4288 15.8904 57.5066 16.0359 57.5406 16.1941C57.5747 16.3523 57.5636 16.5169 57.5088 16.6692L56.099 20.6216L58.5552 23.986C58.6518 24.1168 58.7095 24.2722 58.7217 24.4344C58.734 24.5965 58.7003 24.7589 58.6244 24.9027C58.5489 25.0448 58.4352 25.1629 58.2962 25.2439C58.1571 25.3249 57.9982 25.3655 57.8374 25.3611L53.6688 25.2573L51.2212 28.6389C51.1389 28.7459 51.0326 28.8322 50.911 28.8907C50.7893 28.9493 50.6556 28.9786 50.5207 28.9762ZM46.6979 21.9708L49.4309 22.8357C49.5637 22.8784 49.6842 22.9527 49.7821 23.0521C49.88 23.1515 49.9524 23.2731 49.9931 23.4065L50.8147 26.1654L52.5444 23.8389C52.6203 23.7194 52.7271 23.6226 52.8534 23.5587C52.9798 23.4947 53.121 23.4661 53.2623 23.4757L56.1336 23.5449L54.4039 21.227C54.3207 21.1142 54.2663 20.9828 54.2452 20.8442C54.2241 20.7055 54.237 20.5639 54.2828 20.4314L55.2428 17.7157L52.5098 18.5806C52.3767 18.6252 52.2346 18.6367 52.096 18.6141C51.9573 18.5915 51.8263 18.5354 51.7142 18.4508L49.4309 16.7211V19.5925C49.4321 19.7333 49.3988 19.8724 49.334 19.9975C49.2692 20.1226 49.1748 20.23 49.059 20.3103L46.6979 21.9708ZM7.51092 30.2303C7.36394 30.2306 7.21932 30.1934 7.09069 30.1223C6.96206 30.0512 6.85369 29.9484 6.77579 29.8238L4.74336 26.5719L0.903356 26.3989C0.742932 26.3921 0.587575 26.3408 0.454683 26.2506C0.321791 26.1605 0.216611 26.0352 0.150923 25.8887C0.0780005 25.7361 0.0514237 25.5654 0.0744817 25.3979C0.0975396 25.2303 0.16922 25.0732 0.280653 24.946L2.74552 22.0054L1.72498 18.3384C1.68046 18.1824 1.68074 18.0169 1.72578 17.8611C1.77082 17.7052 1.85881 17.5651 1.97969 17.4568C2.10057 17.3486 2.24946 17.2765 2.40936 17.2489C2.56925 17.2213 2.7337 17.2392 2.8839 17.3006L6.43849 18.7449L9.64714 16.626C9.78362 16.5418 9.94083 16.4972 10.1012 16.4972C10.2616 16.4972 10.4188 16.5418 10.5552 16.626C10.6952 16.7063 10.8099 16.8243 10.8863 16.9664C10.9627 17.1085 10.9978 17.2692 10.9877 17.4303L10.7196 21.2616L13.7207 23.6573C13.8486 23.7576 13.9457 23.892 14.0007 24.045C14.0558 24.1979 14.0666 24.3633 14.032 24.5222C13.9977 24.6807 13.9195 24.8265 13.8063 24.9427C13.6932 25.0589 13.5496 25.141 13.392 25.1795L9.66444 26.0703L8.3239 29.6681C8.26783 29.8206 8.16994 29.9542 8.04146 30.0536C7.91297 30.1531 7.75908 30.2143 7.59741 30.2303H7.51092ZM2.73687 24.747L5.27092 24.8595C5.412 24.8649 5.5496 24.9048 5.67172 24.9757C5.79383 25.0465 5.89674 25.1462 5.97146 25.266L7.312 27.4195L8.17687 25.0411C8.22563 24.9102 8.30538 24.793 8.40931 24.6996C8.51324 24.6062 8.63824 24.5394 8.77363 24.5049L11.2385 23.8908L9.2839 22.3514C9.17518 22.2638 9.08929 22.1511 9.03356 22.0231C8.97784 21.8951 8.95393 21.7555 8.9639 21.6162L9.13687 19.0735L7.01795 20.4746C6.90109 20.5535 6.76671 20.6026 6.62652 20.6177C6.48634 20.6328 6.34459 20.6133 6.21363 20.5611L3.86119 19.6098L4.53579 22.0573C4.573 22.1927 4.5767 22.3351 4.54656 22.4722C4.51643 22.6093 4.45336 22.7371 4.36282 22.8443L2.73687 24.747Z" fill="#731B55"/>
<path d="M8.57476 45.7028C8.42778 45.703 8.28315 45.6659 8.15453 45.5948C8.0259 45.5236 7.91753 45.4209 7.83963 45.2963L6.04936 42.399L2.5899 42.2433C2.42853 42.2357 2.27252 42.1831 2.13953 42.0914C2.00655 41.9996 1.9019 41.8725 1.83747 41.7244C1.78028 41.5817 1.76216 41.4264 1.78496 41.2743C1.80776 41.1223 1.87067 40.9791 1.9672 40.8595L4.1726 38.2649L3.26449 34.9006C3.21998 34.7446 3.22025 34.5791 3.2653 34.4233C3.31034 34.2674 3.39833 34.1273 3.51921 34.019C3.64008 33.9108 3.78898 33.8387 3.94887 33.8111C4.10877 33.7835 4.27321 33.8014 4.42341 33.8628L7.59747 35.1514L10.4602 33.2574C10.5916 33.1814 10.7408 33.1415 10.8926 33.1415C11.0444 33.1415 11.1936 33.1814 11.325 33.2574C11.4664 33.3384 11.5819 33.4577 11.6584 33.6015C11.7349 33.7453 11.7693 33.9078 11.7575 34.0703L11.5153 37.4865L14.1964 39.6228C14.322 39.7234 14.417 39.857 14.4708 40.0087C14.5246 40.1604 14.535 40.324 14.5009 40.4813C14.4667 40.6386 14.3894 40.7832 14.2775 40.8989C14.1657 41.0146 14.0238 41.0968 13.8677 41.1363L10.5467 42.0011L9.34449 45.2098C9.28058 45.3457 9.18238 45.4627 9.05954 45.5491C8.93671 45.6355 8.79348 45.6885 8.64395 45.7028H8.57476ZM4.42341 40.6001L6.55098 40.6952C6.69206 40.7006 6.82966 40.7405 6.95177 40.8114C7.07389 40.8822 7.1768 40.9819 7.25152 41.1017L8.37584 42.9092L9.12828 40.9114C9.17704 40.7805 9.25679 40.6633 9.36072 40.5699C9.46464 40.4765 9.58965 40.4097 9.72503 40.3752L11.7921 39.8563L10.1229 38.533C10.0129 38.4446 9.92623 38.3305 9.87045 38.2009C9.81467 38.0712 9.79147 37.9299 9.80287 37.7892L9.9499 35.6703L8.22017 36.8465C8.10257 36.924 7.96783 36.9716 7.82766 36.9852C7.68748 36.9987 7.54612 36.9779 7.41584 36.9244L5.44395 36.1287L5.96287 38.1784C6.00125 38.3131 6.00635 38.4551 5.97772 38.5922C5.9491 38.7293 5.88761 38.8574 5.79855 38.9655L4.42341 40.6001Z" fill="#731B55"/>
</svg>
