<svg width="65" height="64" viewBox="0 0 65 64" fill="none" xmlns="http://www.w3.org/2000/svg">
<g clip-path="url(#clip0_1314_13293)">
<path d="M63.4945 32.4487C57.4299 35.0304 51.0374 36.8408 44.4942 37.829C44.3725 37.8474 44.2556 37.8896 44.1501 37.9531C44.0447 38.0167 43.9528 38.1004 43.8798 38.1995C43.8067 38.2986 43.7538 38.4111 43.7242 38.5306C43.6946 38.6501 43.6889 38.7743 43.7072 38.896C43.7822 39.4105 44.2735 39.7621 44.7742 39.683C47.2765 39.305 49.7596 38.8092 52.2152 38.1974L52.8792 40.8602L52.1882 41.0347C50.8891 41.363 50.0958 42.6877 50.4199 43.9877L51.2697 47.3956C50.2748 48.8153 49.8742 50.6378 50.3247 52.4443C51.0602 55.6985 54.6517 57.829 57.8578 56.9522C61.1115 56.2126 63.2666 52.657 62.3927 49.4353C61.9422 47.6288 60.7331 46.2078 59.1881 45.4214L58.336 42.0036C58.0445 40.7232 56.6405 39.8824 55.3741 40.2301L54.6974 40.401L54.029 37.7205C57.506 36.7676 60.9157 35.5843 64.2291 34.1737C64.3424 34.1255 64.4451 34.0554 64.5313 33.9675C64.6175 33.8796 64.6855 33.7756 64.7315 33.6614C64.7775 33.5472 64.8006 33.4251 64.7994 33.302C64.7982 33.1789 64.7727 33.0572 64.7244 32.9439C64.6762 32.8306 64.6062 32.7279 64.5182 32.6417C64.4303 32.5555 64.3263 32.4875 64.2121 32.4415C64.0978 32.3955 63.9757 32.3724 63.8525 32.3737C63.7294 32.3749 63.6077 32.4004 63.4945 32.4487ZM60.5732 49.8889C61.1829 52.138 59.6747 54.617 57.404 55.1329C55.1569 55.7435 52.6613 54.2624 52.1439 51.9905C51.5676 49.6784 52.9892 47.3261 55.3131 46.7466C57.5716 46.1636 60.0062 47.5578 60.5732 49.8889ZM55.8329 42.0481C56.1254 41.968 56.4491 42.162 56.5165 42.4573L57.0971 44.7859C56.3488 44.6969 55.5905 44.7448 54.8594 44.9273C54.1282 45.1093 53.4362 45.4229 52.8173 45.8528L52.2392 43.5341C52.2035 43.3896 52.2263 43.2369 52.3028 43.1092C52.3792 42.9815 52.5031 42.8893 52.6473 42.8526C53.503 42.6373 54.978 42.265 55.8329 42.0481ZM40.1956 38.3572C37.7376 38.5901 35.27 38.7069 32.8009 38.7074H32.7974C22.3348 38.7071 11.7214 36.5429 2.10444 32.4487C1.87613 32.3538 1.61959 32.353 1.39066 32.4463C1.16173 32.5397 0.978952 32.7197 0.882114 32.9472C0.785276 33.1747 0.782219 33.4312 0.873608 33.6609C0.964996 33.8907 1.14343 34.075 1.37007 34.1738C4.74454 35.6105 8.23902 36.8149 11.8059 37.7778L11.1517 40.4011L10.475 40.2302C9.20863 39.8826 7.80439 40.7232 7.51315 42.0037L6.66103 45.4212C5.11604 46.2077 3.9068 47.6288 3.45643 49.4353C2.58256 52.6571 4.73779 56.2126 7.99139 56.9522C11.1975 57.829 14.7891 55.6984 15.5245 52.4443C15.9748 50.6378 15.5743 48.8153 14.5795 47.3956L15.4292 43.9877C15.7533 42.6877 14.96 41.363 13.6608 41.0347L12.97 40.8602L13.6221 38.2448C19.6368 39.7205 25.8325 40.513 31.9872 40.5771V43.3466L31.2892 43.3445C29.9767 43.3132 28.817 44.4691 28.8444 45.7819V49.3039C27.5355 50.4408 26.706 52.1123 26.706 53.9741C26.706 57.3909 29.4956 60.1706 32.9247 60.1706C36.3538 60.1706 39.1434 57.3909 39.1434 53.9741C39.1434 52.1123 38.3139 50.4408 37.005 49.3039V45.7918C37.005 44.452 35.9149 43.3585 34.5749 43.3543L33.8623 43.3522V40.5747C36.0365 40.5458 38.2086 40.4288 40.3733 40.224C40.6208 40.2004 40.8488 40.0795 41.0072 39.8879C41.1656 39.6962 41.2414 39.4495 41.218 39.202C41.1942 38.9545 41.0732 38.7265 40.8816 38.5682C40.6899 38.4098 40.4432 38.3339 40.1956 38.3572ZM13.705 51.9906C13.1876 54.2625 10.6919 55.7436 8.44489 55.133C6.17403 54.6171 4.66604 52.138 5.27566 49.889C5.84266 47.5578 8.27727 46.1637 10.5359 46.7467C12.8597 47.3261 14.2813 49.6785 13.705 51.9906ZM13.6096 43.5341L13.0315 45.8528C12.4289 45.4344 11.7427 45.1152 10.9894 44.9273C10.236 44.7394 9.48026 44.6992 8.75176 44.7857L9.33226 42.4575C9.39951 42.1618 9.72338 41.9681 10.0159 42.0481C10.8709 42.265 12.346 42.6375 13.2014 42.8526C13.3456 42.8892 13.4695 42.9815 13.546 43.1092C13.6225 43.2368 13.6454 43.3896 13.6096 43.5341ZM32.9244 58.2957C30.5293 58.2957 28.5807 56.3571 28.5807 53.9743C28.5807 51.5914 30.5293 49.6528 32.9244 49.6528C35.3196 49.6528 37.2682 51.5914 37.2682 53.9743C37.2682 56.3571 35.3196 58.2957 32.9244 58.2957ZM35.1298 45.7919V48.1817C34.4439 47.9216 33.7009 47.7778 32.9244 47.7778C32.148 47.7778 31.405 47.9216 30.7191 48.1817V45.7821C30.7127 45.4797 30.9793 45.2132 31.2816 45.2196C32.1637 45.2232 33.6867 45.2277 34.5688 45.2294C34.7176 45.2301 34.8602 45.2897 34.9653 45.3951C35.0704 45.5004 35.1295 45.6431 35.1298 45.7919ZM23.8983 11.5427C26.5732 11.8417 29.2901 12.0052 31.987 12.0327V14.7112L31.289 14.7091C29.9765 14.6778 28.8167 15.8337 28.8441 17.1465V20.6685C27.5352 21.8054 26.7057 23.4769 26.7057 25.3387C26.7057 28.7554 29.4954 31.5352 32.9244 31.5352C36.3535 31.5352 39.1432 28.7554 39.1432 25.3387C39.1432 23.4769 38.3137 21.8054 37.0048 20.6685V17.1564C37.0048 15.8163 35.9146 14.7228 34.5747 14.7189L33.8621 14.7168V12.0308C40.011 11.947 46.1982 11.1357 52.2022 9.64447L52.8793 12.3603L52.1883 12.5348C50.8892 12.8631 50.0959 14.1878 50.4201 15.4878L51.2698 18.8957C50.2749 20.3154 49.8743 22.1379 50.3248 23.9444C51.0603 27.1986 54.6518 29.3291 57.8579 28.4523C61.1116 27.7127 63.2667 24.1571 62.3928 20.9354C61.9423 19.1289 60.7332 17.7082 59.1884 16.9218L58.3361 13.5037C58.0446 12.2233 56.6406 11.3823 55.3743 11.7302L54.6975 11.9011L54.0169 9.1716C57.5063 8.21898 60.9255 7.03612 64.2292 5.6295C64.3425 5.58131 64.4452 5.51126 64.5314 5.42337C64.6176 5.33548 64.6857 5.23146 64.7317 5.11726C64.7777 5.00306 64.8007 4.88092 64.7995 4.75781C64.7983 4.6347 64.7728 4.51303 64.7246 4.39976C64.6764 4.28645 64.6064 4.18374 64.5185 4.09751C64.4306 4.01128 64.3266 3.94322 64.2124 3.89721C64.0982 3.85121 63.976 3.82816 63.8529 3.82939C63.7298 3.83062 63.6081 3.85611 63.4948 3.90439C53.8773 7.99899 43.2631 10.1631 32.7997 10.1631H32.7977C29.894 10.1625 26.9927 10.0009 24.1069 9.67897C23.9845 9.66524 23.8607 9.67576 23.7424 9.70993C23.6241 9.7441 23.5137 9.80125 23.4175 9.87812C23.3213 9.95498 23.2412 10.05 23.1818 10.1579C23.1223 10.2657 23.0848 10.3842 23.0712 10.5066C23.0574 10.6289 23.0678 10.7528 23.1019 10.8711C23.1361 10.9894 23.1932 11.0998 23.27 11.1961C23.3468 11.2923 23.4418 11.3724 23.5496 11.4319C23.6574 11.4914 23.7759 11.529 23.8983 11.5427ZM32.9244 29.6603C30.5293 29.6603 28.5807 27.7217 28.5807 25.3389C28.5807 22.956 30.5293 21.0174 32.9244 21.0174C35.3196 21.0174 37.2682 22.956 37.2682 25.3389C37.2682 27.7217 35.3196 29.6603 32.9244 29.6603ZM35.1298 17.1565V19.5463C34.4439 19.2861 33.7009 19.1424 32.9244 19.1424C32.148 19.1424 31.405 19.2861 30.7191 19.5463V17.1467C30.7127 16.8443 30.9793 16.5778 31.2816 16.5842C32.1637 16.5878 33.6868 16.5923 34.5689 16.594C34.7178 16.5947 34.8603 16.6543 34.9653 16.7597C35.0704 16.865 35.1295 17.0077 35.1298 17.1565ZM60.5732 21.3891C61.1829 23.6382 59.6747 26.1172 57.404 26.6331C55.1569 27.2438 52.6613 25.7626 52.1439 23.4907C51.5676 21.1786 52.9892 18.8263 55.3131 18.2468C57.5716 17.6638 60.0062 19.058 60.5732 21.3891ZM55.8329 13.5483C56.1254 13.4682 56.4491 13.6622 56.5165 13.9576L57.0971 16.2863C56.3488 16.1972 55.5906 16.2451 54.8594 16.4275C54.1282 16.6095 53.4362 16.9231 52.8173 17.353L52.2392 15.0343C52.2035 14.8898 52.2263 14.7371 52.3028 14.6094C52.3792 14.4818 52.5031 14.3895 52.6473 14.3528C53.503 14.1376 54.978 13.7652 55.8329 13.5483ZM1.36994 5.62975C4.75792 7.07224 8.25102 8.27873 11.8144 9.24323L11.1516 11.9012L10.4749 11.7303C9.20851 11.3827 7.80427 12.2233 7.51302 13.5038L6.66103 16.921C5.11604 17.7075 3.9068 19.1288 3.4563 20.9354C2.58243 24.1572 4.73767 27.7127 7.99127 28.4523C11.1974 29.3291 14.789 27.1985 15.5243 23.9444C15.9747 22.1379 15.5742 20.3154 14.5793 18.8957L15.4291 15.4878C15.7532 14.1878 14.9598 12.8631 13.6607 12.5348L12.9699 12.3603L13.6298 9.71347C15.573 10.1914 17.5332 10.5967 19.5066 10.9286C20.0054 11.016 20.5029 10.6728 20.5865 10.1595C20.607 10.0381 20.6033 9.91381 20.5757 9.79382C20.5481 9.67383 20.4971 9.56046 20.4257 9.46017C20.3543 9.35989 20.2638 9.27465 20.1594 9.20933C20.055 9.14401 19.9388 9.09988 19.8174 9.07948C13.7242 8.05536 7.76477 6.31425 2.10469 3.90464C1.87592 3.8073 1.61786 3.80481 1.38725 3.8977C1.15664 3.9906 0.972366 4.17128 0.874948 4.40001C0.826638 4.51325 0.80112 4.6349 0.799854 4.75801C0.798588 4.88112 0.821599 5.00327 0.86757 5.11748C0.913542 5.23169 0.981572 5.33571 1.06777 5.42361C1.15397 5.51151 1.25665 5.58156 1.36994 5.62975ZM13.705 23.4909C13.1876 25.7627 10.6919 27.244 8.44489 26.6332C6.17403 26.1173 4.66604 23.6382 5.27566 21.3893C5.84266 19.058 8.27727 17.6639 10.5359 18.2469C12.8597 18.8263 14.2813 21.1788 13.705 23.4909ZM13.6096 15.0343L13.0315 17.353C12.4289 16.9347 11.7427 16.6154 10.9894 16.4275C10.236 16.2397 9.48026 16.1993 8.75176 16.2858L9.33226 13.9577C9.39951 13.6621 9.72338 13.4682 10.0159 13.5483C10.8709 13.7652 12.346 14.1377 13.2014 14.3528C13.3456 14.3895 13.4695 14.4817 13.546 14.6094C13.6225 14.7371 13.6454 14.8898 13.6096 15.0343Z" fill="#731B55"/>
</g>
<defs>
<clipPath id="clip0_1314_13293">
<rect width="64" height="64" fill="white" transform="translate(0.799805)"/>
</clipPath>
</defs>
</svg>
