<svg width="65" height="64" viewBox="0 0 65 64" fill="none" xmlns="http://www.w3.org/2000/svg">
<g clip-path="url(#clip0_1314_12906)">
<path d="M38.1462 50.1319H45.9055V49.32C45.9055 43.0901 47.478 36.9856 50.3038 31.432C51.6903 28.7071 52.4718 25.6236 52.4718 22.3576C52.4718 11.2346 43.4072 2.22679 32.2555 2.3052C21.2718 2.38247 12.3271 11.3859 12.3281 22.3595C12.3284 25.6815 13.1373 28.8148 14.5689 31.5737C17.4138 37.0564 18.8943 43.1433 18.8943 49.319V50.1319H26.618M20.5328 50.1319C18.9362 50.1319 17.6419 51.4261 17.6419 53.0226C17.6419 54.6191 18.9362 55.9135 20.5328 55.9135H44.2671C45.8638 55.9135 47.158 54.6192 47.158 53.0226C47.158 51.426 45.8638 50.1319 44.2671 50.1319M40.5098 55.9135H24.2901C22.6935 55.9135 21.3992 57.2078 21.3992 58.8043C21.3992 60.4009 22.6935 61.6951 24.2901 61.6951H40.5098C42.1064 61.6951 43.4007 60.4008 43.4007 58.8043C43.4006 57.2078 42.1064 55.9135 40.5098 55.9135Z" stroke="#731B55" stroke-width="2" stroke-miterlimit="10" stroke-linecap="round" stroke-linejoin="round"/>
<path d="M20.401 15.8267V27.135H24.3641M33.5837 15.8736H28.8585V27.088H33.5837M33.2354 21.4808H28.8585M63.1475 21.1509H60.5803M59.9553 10.4419L57.7321 11.7254M59.9553 31.8601L57.7321 30.5765M1.65234 21.1509H4.21948M4.84445 10.4419L7.06767 11.7254M4.84445 31.8601L7.06767 30.5765M45.6514 21.4808C45.6514 24.507 43.9719 26.9258 41.3072 26.9724H38.1055V15.9895H41.2161C44.1389 15.9894 45.6514 18.4545 45.6514 21.4808Z" stroke="#731B55" stroke-width="2" stroke-miterlimit="10" stroke-linecap="round" stroke-linejoin="round"/>
</g>
<defs>
<clipPath id="clip0_1314_12906">
<rect width="64" height="64" fill="white" transform="translate(0.400391)"/>
</clipPath>
</defs>
</svg>
