<svg width="65" height="64" viewBox="0 0 65 64" fill="none" xmlns="http://www.w3.org/2000/svg">
<path d="M7.89594 60.9827L51.4493 39.8667C52.4173 39.404 52.2239 38.3867 52.0599 38.0707C42.0213 18.6667 26.1653 12.16 26.1653 12.16C25.8466 11.988 24.8973 11.7573 24.3346 12.752L3.2186 56.3027C1.88127 58.3853 4.19994 62.632 7.89594 60.9827ZM20.2559 27.2747L36.9253 43.944L22.4039 50.9853L13.2146 41.796L20.2559 27.2747ZM26.1253 15.1667C35.9933 20.4413 43.9293 28.3947 49.0546 38.0627L39.4639 42.7133L21.4866 24.7347L26.1253 15.1667ZM5.61594 57.4667L11.9826 44.3347L19.8639 52.216L6.7306 58.584C6.06394 58.8853 5.25727 58.2373 5.61594 57.4667Z" fill="#731B55"/>
<path d="M37.3426 16.6866L38.5986 14.5933C40.5185 11.3933 41.5329 7.73171 41.5332 3.99992C41.5332 3.6463 41.3927 3.30716 41.1427 3.05711C40.8927 2.80706 40.5535 2.66659 40.1999 2.66659C39.8463 2.66659 39.5071 2.80706 39.2571 3.05711C39.007 3.30716 38.8666 3.6463 38.8666 3.99992C38.8666 7.24792 37.9839 10.4373 36.3132 13.2213L35.0572 15.3146C34.9671 15.4647 34.9075 15.6312 34.8817 15.8043C34.856 15.9775 34.8646 16.1541 34.907 16.324C34.9495 16.4938 35.025 16.6537 35.1292 16.7944C35.2335 16.9351 35.3644 17.0538 35.5146 17.1439C35.7279 17.2719 36.6052 17.7066 37.3426 16.6866ZM30.7266 4.59592C30.8094 4.43883 30.8601 4.26675 30.8756 4.0898C30.891 3.91285 30.871 3.7346 30.8166 3.5655C30.7622 3.39641 30.6746 3.23988 30.5589 3.10512C30.4432 2.97036 30.3017 2.86007 30.1428 2.78074C29.9839 2.70142 29.8107 2.65464 29.6334 2.64317C29.4562 2.63169 29.2784 2.65575 29.1106 2.71393C28.9428 2.7721 28.7883 2.86323 28.6561 2.98194C28.524 3.10066 28.417 3.24458 28.3412 3.40526L27.8519 4.38392C27.4801 5.12528 27.3515 5.96497 27.4844 6.78361C27.6172 7.60224 28.0048 8.35817 28.5919 8.94392C28.7824 9.13437 28.908 9.37995 28.9511 9.64583C28.9942 9.91171 28.9525 10.1844 28.8319 10.4253L28.3426 11.4053C28.1857 11.7216 28.1604 12.0871 28.2721 12.4221C28.3837 12.757 28.6233 13.0343 28.9386 13.1933C29.8306 13.6506 30.4946 13.0639 30.7279 12.5959L31.2172 11.6173C31.589 10.8759 31.7176 10.0362 31.5847 9.21757C31.4519 8.39893 31.0643 7.64301 30.4772 7.05726C30.2864 6.86707 30.1603 6.62156 30.117 6.35562C30.0736 6.08968 30.1153 5.81685 30.2359 5.57592L30.7266 4.59592ZM44.2266 10.6666H44.2132C43.4772 10.6666 42.8866 11.2639 42.8866 11.9999C42.8866 12.7359 43.4906 13.3333 44.2266 13.3333C44.5802 13.3333 44.9193 13.1928 45.1694 12.9427C45.4194 12.6927 45.5599 12.3535 45.5599 11.9999C45.5599 11.6463 45.4194 11.3072 45.1694 11.0571C44.9193 10.8071 44.5802 10.6666 44.2266 10.6666ZM24.2266 6.66659C24.2266 6.31297 24.0861 5.97383 23.836 5.72378C23.586 5.47373 23.2468 5.33326 22.8932 5.33326H22.8799C22.1439 5.33326 21.5532 5.93059 21.5532 6.66659C21.5532 7.40259 22.1572 7.99992 22.8932 7.99992C23.6292 7.99992 24.2266 7.40259 24.2266 6.66659ZM60.1999 22.6666C56.4692 22.6666 52.8066 23.6813 49.6079 25.6013L47.5146 26.8573C47.3644 26.9473 47.2335 27.0661 47.1292 27.2068C47.025 27.3475 46.9495 27.5073 46.907 27.6772C46.8646 27.8471 46.856 28.0236 46.8817 28.1968C46.9075 28.37 46.9671 28.5364 47.0572 28.6866C47.3079 29.1039 47.9399 29.6373 48.8866 29.1439L50.9799 27.8879C53.765 26.2167 56.9519 25.3336 60.1999 25.3333C60.5535 25.3333 60.8927 25.1928 61.1427 24.9427C61.3927 24.6927 61.5332 24.3535 61.5332 23.9999C61.5332 23.6463 61.3927 23.3072 61.1427 23.0571C60.8927 22.8071 60.5535 22.6666 60.1999 22.6666ZM60.7959 35.8599C62.5332 34.6679 60.8626 32.7866 59.6026 33.4746L58.6226 33.9653C58.3818 34.0858 58.1092 34.1273 57.8435 34.084C57.5778 34.0407 57.3325 33.9147 57.1426 33.7239C56.5563 33.1382 55.8006 32.7515 54.9826 32.6187C54.1645 32.4859 53.3254 32.6137 52.5839 32.9839L51.6039 33.4746C50.0652 34.4119 51.2612 36.5773 52.7972 35.8599L53.7772 35.3693C54.0179 35.2483 54.2906 35.2065 54.5564 35.2499C54.8222 35.2932 55.0675 35.4195 55.2572 35.6106C55.8431 36.1971 56.5988 36.5842 57.417 36.717C58.2353 36.8498 59.0746 36.7216 59.8159 36.3506L60.7959 35.8599ZM52.2132 18.6666C51.4772 18.6666 50.8866 19.2639 50.8866 19.9999C50.8866 20.7359 51.4906 21.3333 52.2266 21.3333C52.5802 21.3333 52.9193 21.1928 53.1694 20.9427C53.4194 20.6927 53.5599 20.3535 53.5599 19.9999C53.5599 19.6463 53.4194 19.3072 53.1694 19.0571C52.9193 18.8071 52.5802 18.6666 52.2266 18.6666H52.2132ZM57.5466 39.9999C56.8106 39.9999 56.2199 40.5973 56.2199 41.3333C56.2199 42.0693 56.8239 42.6666 57.5599 42.6666C57.9135 42.6666 58.2527 42.5261 58.5027 42.2761C58.7528 42.026 58.8932 41.6869 58.8932 41.3333C58.8932 40.9796 58.7528 40.6405 58.5027 40.3904C58.2527 40.1404 57.9135 39.9999 57.5599 39.9999H57.5466ZM45.9239 18.2759C46.1839 18.5359 46.9452 19.0426 47.8092 18.2759L55.8092 10.2759C56.0592 10.0259 56.1997 9.68682 56.1997 9.33326C56.1997 8.97969 56.0592 8.6406 55.8092 8.39059C55.5592 8.14058 55.2201 8.00012 54.8666 8.00012C54.513 8.00012 54.1739 8.14058 53.9239 8.39059L45.9239 16.3906C45.8 16.5143 45.7016 16.6612 45.6346 16.823C45.5675 16.9848 45.533 17.1581 45.533 17.3333C45.533 17.5084 45.5675 17.6818 45.6346 17.8435C45.7016 18.0053 45.8 18.1522 45.9239 18.2759ZM50.6426 8.73992L53.3092 4.73992C53.4064 4.59424 53.4739 4.43085 53.508 4.25907C53.542 4.08729 53.5419 3.91049 53.5076 3.73876C53.4733 3.56704 53.4055 3.40375 53.3081 3.25822C53.2107 3.11269 53.0856 2.98777 52.9399 2.89059C52.7942 2.79341 52.6308 2.72588 52.459 2.69185C52.2873 2.65781 52.1105 2.65795 51.9387 2.69225C51.767 2.72654 51.6037 2.79433 51.4582 2.89173C51.3127 2.98913 51.1877 3.11424 51.0906 3.25992L48.4239 7.25992C48.3267 7.4056 48.2591 7.56899 48.2251 7.74077C48.1911 7.91255 48.1912 8.08936 48.2255 8.26109C48.2598 8.43283 48.3276 8.59612 48.425 8.74165C48.5224 8.88718 48.6475 9.01209 48.7932 9.10926C49.0212 9.26126 49.9586 9.68126 50.6426 8.73992ZM55.0906 15.4066C55.3466 15.7919 56.1079 16.3173 56.9399 15.7759L60.9399 13.1093C61.5532 12.7013 61.7186 11.8733 61.3092 11.2599C60.8999 10.6466 60.0732 10.4799 59.4599 10.8906L55.4599 13.5573C55.3142 13.6544 55.1891 13.7793 55.0917 13.9249C54.9942 14.0704 54.9264 14.2337 54.8921 14.4054C54.8578 14.5772 54.8577 14.754 54.8918 14.9257C54.9258 15.0975 54.9934 15.2609 55.0906 15.4066Z" fill="#731B55"/>
</svg>
