<svg width="65" height="64" viewBox="0 0 65 64" fill="none" xmlns="http://www.w3.org/2000/svg">
<g clip-path="url(#clip0_1314_12954)">
<path d="M1.39959 30C1.13437 30.008 0.87686 29.9102 0.683697 29.7283C0.490535 29.5464 0.377548 29.2952 0.369591 29.03C0.361635 28.7648 0.459361 28.5073 0.641271 28.3141C0.823181 28.121 1.07437 28.008 1.33959 28C1.67659 27.98 35.3336 25.766 60.7716 5.22002C60.8734 5.1347 60.9912 5.07053 61.1182 5.03126C61.2451 4.99199 61.3786 4.9784 61.5108 4.99129C61.643 5.00418 61.7714 5.04329 61.8883 5.10633C62.0052 5.16938 62.1085 5.25509 62.1919 5.35847C62.2753 5.46185 62.3374 5.58082 62.3743 5.70843C62.4113 5.83604 62.4224 5.96974 62.4071 6.10171C62.3918 6.23368 62.3504 6.36128 62.2852 6.47706C62.2201 6.59284 62.1325 6.69447 62.0276 6.77602C36.0786 27.737 1.79959 29.978 1.45759 30C1.43827 30.001 1.41891 30.001 1.39959 30Z" fill="#731B55"/>
<path d="M17.4001 44C17.2627 44 17.1268 43.9716 17.0009 43.9167C16.875 43.8618 16.7617 43.7816 16.6681 43.681L6.45112 32.681C6.27051 32.4866 6.17452 32.2284 6.18427 31.9632C6.19402 31.6981 6.30872 31.4476 6.50312 31.267C6.69752 31.0864 6.95571 30.9904 7.22089 31.0002C7.48607 31.0099 7.73651 31.1246 7.91712 31.319L16.6601 40.733L18.4071 25.883C18.4381 25.6187 18.5729 25.3776 18.7817 25.2126C18.9905 25.0477 19.2563 24.9725 19.5206 25.0035C19.7849 25.0345 20.026 25.1693 20.191 25.3781C20.3559 25.5869 20.4311 25.8527 20.4001 26.117L18.4001 43.117C18.3713 43.3615 18.2534 43.5867 18.0689 43.7496C17.8844 43.9125 17.6463 44.0017 17.4001 44ZM40.4001 39C40.1705 39.0004 39.9479 38.9212 39.7701 38.776L23.7701 25.776C23.6637 25.6948 23.5746 25.5931 23.5082 25.4768C23.4418 25.3606 23.3994 25.2322 23.3836 25.0992C23.3677 24.9663 23.3787 24.8315 23.4159 24.7029C23.4531 24.5743 23.5158 24.4545 23.6002 24.3505C23.6845 24.2466 23.7889 24.1607 23.9072 24.0978C24.0254 24.035 24.155 23.9965 24.2884 23.9847C24.4217 23.9729 24.5561 23.988 24.6835 24.0291C24.8109 24.0702 24.9288 24.1365 25.0301 24.224L39.5001 35.984L40.4001 18.947C40.4174 18.683 40.5372 18.4361 40.7339 18.2592C40.9306 18.0823 41.1887 17.9893 41.4531 18C41.5845 18.0068 41.7133 18.0394 41.832 18.096C41.9508 18.1527 42.0572 18.2322 42.1451 18.33C42.2331 18.4278 42.3009 18.542 42.3447 18.6661C42.3884 18.7902 42.4073 18.9216 42.4001 19.053L41.4001 38.053C41.3865 38.3089 41.2752 38.5499 41.0891 38.7261C40.903 38.9023 40.6564 39.0004 40.4001 39ZM59.4001 28C59.1635 27.9999 58.9346 27.9159 58.7541 27.763L45.7541 16.763C45.5586 16.5897 45.4387 16.3467 45.42 16.0861C45.4013 15.8255 45.4854 15.5679 45.6542 15.3685C45.8231 15.1691 46.0633 15.0437 46.3234 15.0191C46.5835 14.9945 46.8429 15.0727 47.0461 15.237L58.4001 24.844V8C58.4001 7.73478 58.5055 7.48043 58.693 7.29289C58.8806 7.10536 59.1349 7 59.4001 7C59.6653 7 59.9197 7.10536 60.1072 7.29289C60.2948 7.48043 60.4001 7.73478 60.4001 8V27C60.4001 27.2652 60.2948 27.5196 60.1072 27.7071C59.9197 27.8946 59.6653 28 59.4001 28Z" fill="#731B55"/>
<path d="M63.3987 48H63.3527C49.9622 47.4231 36.9821 43.2077 25.8077 35.807C25.7017 35.7294 25.6121 35.6317 25.5439 35.5194C25.4757 35.4072 25.4302 35.2826 25.4102 35.1528C25.3901 35.0229 25.3958 34.8904 25.427 34.7628C25.4581 34.6352 25.5141 34.515 25.5917 34.409C25.6693 34.303 25.767 34.2134 25.8793 34.1452C25.9916 34.077 26.1162 34.0315 26.246 34.0115C26.3758 33.9914 26.5083 33.9971 26.6359 34.0283C26.7635 34.0594 26.8837 34.1154 26.9897 34.193C37.8755 41.299 50.4589 45.3746 63.4437 46C63.7089 46.006 63.9609 46.1171 64.1442 46.3088C64.3275 46.5006 64.4272 46.7573 64.4212 47.0225C64.4152 47.2877 64.3042 47.5397 64.1124 47.723C63.9206 47.9064 63.6639 48.006 63.3987 48Z" fill="#731B55"/>
<path d="M29.4004 55C29.1451 55.0004 28.8993 54.9032 28.7134 54.7283C28.5274 54.5533 28.4155 54.3139 28.4004 54.059L27.4004 37.059C27.3847 36.7938 27.4751 36.5332 27.6516 36.3346C27.828 36.136 28.0762 36.0156 28.3414 36C28.6066 35.9844 28.8672 36.0747 29.0658 36.2512C29.2644 36.4276 29.3847 36.6758 29.4004 36.941L30.2774 51.841L40.7264 42.262C40.8232 42.1732 40.9365 42.1044 41.0599 42.0594C41.1833 42.0144 41.3143 41.9942 41.4455 41.9999C41.5767 42.0055 41.7055 42.037 41.8246 42.0924C41.9436 42.1479 42.0506 42.2262 42.1394 42.323C42.2282 42.4198 42.297 42.5331 42.342 42.6565C42.387 42.7799 42.4072 42.9109 42.4015 43.0421C42.3959 43.1733 42.3644 43.3022 42.309 43.4212C42.2535 43.5403 42.1752 43.6472 42.0784 43.736L30.0784 54.736C29.8936 54.906 29.6515 55.0003 29.4004 55ZM48.4004 61C48.1581 60.9999 47.924 60.9119 47.7418 60.7522C47.5595 60.5926 47.4414 60.3722 47.4094 60.132L45.4094 45.132C45.3807 44.8722 45.4548 44.6115 45.6159 44.4057C45.777 44.1999 46.0122 44.0653 46.2713 44.0308C46.5304 43.9963 46.7927 44.0646 47.002 44.2211C47.2114 44.3775 47.3511 44.6098 47.3914 44.868L49.1254 57.868L57.6944 49.299C57.883 49.1168 58.1356 49.016 58.3978 49.0183C58.66 49.0206 58.9108 49.1258 59.0962 49.3112C59.2816 49.4966 59.3868 49.7474 59.3891 50.0096C59.3913 50.2718 59.2906 50.5244 59.1084 50.713L49.1084 60.713C48.9197 60.8986 48.6651 61.0018 48.4004 61ZM15.4004 16H13.4004C13.1352 16 12.8808 15.8946 12.6933 15.7071C12.5057 15.5196 12.4004 15.2652 12.4004 15C12.4004 14.7348 12.5057 14.4804 12.6933 14.2929C12.8808 14.1054 13.1352 14 13.4004 14H15.4004C15.6656 14 15.92 14.1054 16.1075 14.2929C16.295 14.4804 16.4004 14.7348 16.4004 15C16.4004 15.2652 16.295 15.5196 16.1075 15.7071C15.92 15.8946 15.6656 16 15.4004 16ZM17.4004 20C17.1352 20 16.8808 19.8946 16.6933 19.7071C16.5057 19.5196 16.4004 19.2652 16.4004 19V17C16.4004 16.7348 16.5057 16.4804 16.6933 16.2929C16.8808 16.1054 17.1352 16 17.4004 16C17.6656 16 17.92 16.1054 18.1075 16.2929C18.295 16.4804 18.4004 16.7348 18.4004 17V19C18.4004 19.2652 18.295 19.5196 18.1075 19.7071C17.92 19.8946 17.6656 20 17.4004 20ZM21.4004 16H19.4004C19.1352 16 18.8808 15.8946 18.6933 15.7071C18.5057 15.5196 18.4004 15.2652 18.4004 15C18.4004 14.7348 18.5057 14.4804 18.6933 14.2929C18.8808 14.1054 19.1352 14 19.4004 14H21.4004C21.6656 14 21.92 14.1054 22.1075 14.2929C22.295 14.4804 22.4004 14.7348 22.4004 15C22.4004 15.2652 22.295 15.5196 22.1075 15.7071C21.92 15.8946 21.6656 16 21.4004 16ZM17.4004 14C17.1352 14 16.8808 13.8946 16.6933 13.7071C16.5057 13.5196 16.4004 13.2652 16.4004 13V11C16.4004 10.7348 16.5057 10.4804 16.6933 10.2929C16.8808 10.1054 17.1352 10 17.4004 10C17.6656 10 17.92 10.1054 18.1075 10.2929C18.295 10.4804 18.4004 10.7348 18.4004 11V13C18.4004 13.2652 18.295 13.5196 18.1075 13.7071C17.92 13.8946 17.6656 14 17.4004 14ZM11.4004 51H9.40039C9.13517 51 8.88082 50.8946 8.69328 50.7071C8.50575 50.5196 8.40039 50.2652 8.40039 50C8.40039 49.7348 8.50575 49.4804 8.69328 49.2929C8.88082 49.1054 9.13517 49 9.40039 49H11.4004C11.6656 49 11.92 49.1054 12.1075 49.2929C12.295 49.4804 12.4004 49.7348 12.4004 50C12.4004 50.2652 12.295 50.5196 12.1075 50.7071C11.92 50.8946 11.6656 51 11.4004 51ZM13.4004 55C13.1352 55 12.8808 54.8946 12.6933 54.7071C12.5057 54.5196 12.4004 54.2652 12.4004 54V52C12.4004 51.7348 12.5057 51.4804 12.6933 51.2929C12.8808 51.1054 13.1352 51 13.4004 51C13.6656 51 13.92 51.1054 14.1075 51.2929C14.295 51.4804 14.4004 51.7348 14.4004 52V54C14.4004 54.2652 14.295 54.5196 14.1075 54.7071C13.92 54.8946 13.6656 55 13.4004 55ZM17.4004 51H15.4004C15.1352 51 14.8808 50.8946 14.6933 50.7071C14.5057 50.5196 14.4004 50.2652 14.4004 50C14.4004 49.7348 14.5057 49.4804 14.6933 49.2929C14.8808 49.1054 15.1352 49 15.4004 49H17.4004C17.6656 49 17.92 49.1054 18.1075 49.2929C18.295 49.4804 18.4004 49.7348 18.4004 50C18.4004 50.2652 18.295 50.5196 18.1075 50.7071C17.92 50.8946 17.6656 51 17.4004 51ZM13.4004 49C13.1352 49 12.8808 48.8946 12.6933 48.7071C12.5057 48.5196 12.4004 48.2652 12.4004 48V46C12.4004 45.7348 12.5057 45.4804 12.6933 45.2929C12.8808 45.1054 13.1352 45 13.4004 45C13.6656 45 13.92 45.1054 14.1075 45.2929C14.295 45.4804 14.4004 45.7348 14.4004 46V48C14.4004 48.2652 14.295 48.5196 14.1075 48.7071C13.92 48.8946 13.6656 49 13.4004 49ZM55.4004 38H53.4004C53.1352 38 52.8808 37.8946 52.6933 37.7071C52.5057 37.5196 52.4004 37.2652 52.4004 37C52.4004 36.7348 52.5057 36.4804 52.6933 36.2929C52.8808 36.1054 53.1352 36 53.4004 36H55.4004C55.6656 36 55.92 36.1054 56.1075 36.2929C56.295 36.4804 56.4004 36.7348 56.4004 37C56.4004 37.2652 56.295 37.5196 56.1075 37.7071C55.92 37.8946 55.6656 38 55.4004 38ZM57.4004 42C57.1352 42 56.8808 41.8946 56.6933 41.7071C56.5057 41.5196 56.4004 41.2652 56.4004 41V39C56.4004 38.7348 56.5057 38.4804 56.6933 38.2929C56.8808 38.1054 57.1352 38 57.4004 38C57.6656 38 57.92 38.1054 58.1075 38.2929C58.295 38.4804 58.4004 38.7348 58.4004 39V41C58.4004 41.2652 58.295 41.5196 58.1075 41.7071C57.92 41.8946 57.6656 42 57.4004 42ZM61.4004 38H59.4004C59.1352 38 58.8808 37.8946 58.6933 37.7071C58.5057 37.5196 58.4004 37.2652 58.4004 37C58.4004 36.7348 58.5057 36.4804 58.6933 36.2929C58.8808 36.1054 59.1352 36 59.4004 36H61.4004C61.6656 36 61.92 36.1054 62.1075 36.2929C62.295 36.4804 62.4004 36.7348 62.4004 37C62.4004 37.2652 62.295 37.5196 62.1075 37.7071C61.92 37.8946 61.6656 38 61.4004 38ZM57.4004 36C57.1352 36 56.8808 35.8946 56.6933 35.7071C56.5057 35.5196 56.4004 35.2652 56.4004 35V33C56.4004 32.7348 56.5057 32.4804 56.6933 32.2929C56.8808 32.1054 57.1352 32 57.4004 32C57.6656 32 57.92 32.1054 58.1075 32.2929C58.295 32.4804 58.4004 32.7348 58.4004 33V35C58.4004 35.2652 58.295 35.5196 58.1075 35.7071C57.92 35.8946 57.6656 36 57.4004 36Z" fill="#731B55"/>
<path d="M31.4004 11C31.9527 11 32.4004 10.5523 32.4004 10C32.4004 9.44772 31.9527 9 31.4004 9C30.8481 9 30.4004 9.44772 30.4004 10C30.4004 10.5523 30.8481 11 31.4004 11Z" fill="#731B55"/>
<path d="M50.4004 29C50.9527 29 51.4004 28.5523 51.4004 28C51.4004 27.4477 50.9527 27 50.4004 27C49.8481 27 49.4004 27.4477 49.4004 28C49.4004 28.5523 49.8481 29 50.4004 29Z" fill="#731B55"/>
<path d="M9.40039 21C9.95268 21 10.4004 20.5523 10.4004 20C10.4004 19.4477 9.95268 19 9.40039 19C8.84811 19 8.40039 19.4477 8.40039 20C8.40039 20.5523 8.84811 21 9.40039 21Z" fill="#731B55"/>
<path d="M5.40039 40C5.95268 40 6.40039 39.5523 6.40039 39C6.40039 38.4477 5.95268 38 5.40039 38C4.84811 38 4.40039 38.4477 4.40039 39C4.40039 39.5523 4.84811 40 5.40039 40Z" fill="#731B55"/>
<path d="M40.4004 54C40.9527 54 41.4004 53.5523 41.4004 53C41.4004 52.4477 40.9527 52 40.4004 52C39.8481 52 39.4004 52.4477 39.4004 53C39.4004 53.5523 39.8481 54 40.4004 54Z" fill="#731B55"/>
<path d="M61.4004 58C61.9527 58 62.4004 57.5523 62.4004 57C62.4004 56.4477 61.9527 56 61.4004 56C60.8481 56 60.4004 56.4477 60.4004 57C60.4004 57.5523 60.8481 58 61.4004 58Z" fill="#731B55"/>
</g>
<defs>
<clipPath id="clip0_1314_12954">
<rect width="64" height="64" fill="white" transform="translate(0.400391)"/>
</clipPath>
</defs>
</svg>
