<svg width="11" height="11" viewBox="0 0 11 11" fill="none" xmlns="http://www.w3.org/2000/svg">
<path d="M0.44999 0.149999L9.85249 3.284C9.90116 3.30013 9.94369 3.33083 9.97432 3.37195C10.0049 3.41307 10.0222 3.4626 10.0237 3.51385C10.0253 3.5651 10.011 3.61558 9.98286 3.65845C9.95473 3.70131 9.91411 3.7345 9.86649 3.7535L5.49999 5.5L3.28749 9.925C3.26498 9.97006 3.22938 10.0073 3.18535 10.0317C3.14133 10.0562 3.09094 10.0668 3.04078 10.0622C2.99063 10.0575 2.94305 10.0379 2.90427 10.0057C2.8655 9.97354 2.83734 9.93043 2.82349 9.882L0.12999 0.455499C0.117513 0.411706 0.117234 0.365338 0.129183 0.321398C0.141132 0.277458 0.164854 0.237617 0.19779 0.206173C0.230726 0.17473 0.271624 0.152879 0.31607 0.142979C0.360517 0.133079 0.406822 0.135507 0.44999 0.149999Z" fill="#0C0B0B"/>
</svg>
