<svg width="94" height="24" viewBox="0 0 94 24" fill="none" xmlns="http://www.w3.org/2000/svg">
<path fill-rule="evenodd" clip-rule="evenodd" d="M24.2046 23.99V9.74295H23.5491L18.8747 23.99H13.3246H13.3085L8.64484 9.74295H7.9948V23.99H0V0.000615741H7.9948C8.98071 -0.0127117 9.9451 0.288486 10.7456 0.856233C11.5489 1.42398 12.1479 2.23164 12.4542 3.16189L15.7397 14.2503H16.4301L19.721 3.16189C20.0299 2.22897 20.6316 1.41865 21.4402 0.850905C22.2461 0.280492 23.216 -0.0153772 24.2046 0.000615741H32.1993V23.99H24.2046Z" fill="#BDBDBD"/>
<path fill-rule="evenodd" clip-rule="evenodd" d="M53.6691 23.9893V9.74234H53.0593L48.0061 21.6971C47.6945 22.3794 47.1921 22.9605 46.5582 23.3683C45.9242 23.7734 45.1827 23.9893 44.4278 23.9893H37.6447V0H45.7039V14.247H46.3433L51.4609 2.27898L51.5011 2.18836C51.8235 1.53532 52.3259 0.983579 52.9491 0.59975C53.5724 0.213255 54.2924 0.0106561 55.0257 0.0106561H61.8089V24H53.6745L53.6691 23.9893Z" fill="#BDBDBD"/>
<path fill-rule="evenodd" clip-rule="evenodd" d="M84.7483 16.0305H75.2707V23.9896H67.2114V10.6436H93.9492C93.1191 12.3388 91.8028 13.7542 90.1668 14.7111C88.5307 15.6707 86.6449 16.1291 84.7483 16.0305Z" fill="#BDBDBD"/>
<path opacity="0.55" fill-rule="evenodd" clip-rule="evenodd" d="M93.8066 8.01247H79.2677C72.6269 8.01247 67.1036 4.54731 65.9404 0H84.8071C89.8844 0 94 2.97731 94 6.64768C94 7.10881 93.9356 7.56734 93.8066 8.01247Z" fill="#BDBDBD"/>
</svg>
