<svg width="36" height="24" viewBox="0 0 36 24" fill="none" xmlns="http://www.w3.org/2000/svg">
<path opacity="0.3" fill-rule="evenodd" clip-rule="evenodd" d="M23.9934 23.9998C21.8881 23.9998 19.8202 23.4418 17.9995 22.3813C19.8217 21.3298 21.3351 19.8178 22.3871 17.9953C23.439 16.1728 23.9934 14.1043 23.9934 11.9998C23.9934 9.89528 23.439 7.82679 22.3871 6.00429C21.3351 4.1818 19.8217 2.66978 17.9995 1.61828C19.5924 0.694282 21.3756 0.149799 23.2112 0.0267987C25.0483 -0.0962012 26.8885 0.205295 28.5892 0.908794C30.29 1.61229 31.8065 2.69829 33.0202 4.08279C34.2355 5.46729 35.1151 7.11278 35.5916 8.89328C36.0681 10.6723 36.1281 12.5383 35.7684 14.3443C35.4088 16.1518 34.6386 17.8513 33.5177 19.3123C32.3954 20.7733 30.9538 21.9552 29.3025 22.7682C27.6497 23.5812 25.8335 24.0028 23.9934 23.9998Z" fill="#BDBDBD"/>
<path fill-rule="evenodd" clip-rule="evenodd" d="M12.0058 12C12.0058 14.1045 12.5602 16.173 13.6121 17.9955C14.6656 19.818 16.1775 21.33 17.9997 22.3815C16.1775 23.439 14.1096 23.997 12.0028 24C9.89741 24.003 7.82801 23.4495 6.00287 22.398C4.17772 21.345 2.66129 19.83 1.60786 18.0045C0.554433 16.179 0 14.109 0 12C0 9.891 0.554433 7.821 1.60786 5.9955C2.66129 4.17 4.17772 2.655 6.00287 1.602C7.82801 0.550501 9.89741 -0.00298787 12.0028 1.21307e-05C14.1096 0.00301213 16.1775 0.561004 17.9997 1.6185C16.1775 2.67 14.6656 4.18202 13.6121 6.00452C12.5602 7.82701 12.0058 9.8955 12.0058 12Z" fill="#BDBDBD"/>
<path opacity="0.65" fill-rule="evenodd" clip-rule="evenodd" d="M17.9995 22.3821C16.1774 21.3306 14.6639 19.8186 13.612 17.9961C12.56 16.1736 12.0056 14.1051 12.0056 12.0006C12.0056 9.89614 12.56 7.82765 13.612 6.00515C14.6639 4.18265 16.1774 2.67064 17.9995 1.61914C19.8217 2.67064 21.3351 4.18265 22.3871 6.00515C23.439 7.82765 23.9934 9.89614 23.9934 12.0006C23.9934 14.1051 23.439 16.1736 22.3871 17.9961C21.3351 19.8186 19.8217 21.3306 17.9995 22.3821Z" fill="#BDBDBD"/>
</svg>
