<svg width="69" height="24" viewBox="0 0 69 24" fill="none" xmlns="http://www.w3.org/2000/svg">
<path fill-rule="evenodd" clip-rule="evenodd" d="M63.3652 23.6901C63.3652 23.6901 62.8257 20.4286 62.645 19.6086H54.8615C54.6456 20.2492 53.5689 23.6901 53.5689 23.6901H47.2186L56.2244 2.3602C56.4482 1.72654 56.8829 1.18608 57.4569 0.82965C58.0309 0.47555 58.7101 0.324128 59.3819 0.403335H64.0737L69 23.6994H63.3699L63.3652 23.6901ZM60.2429 8.68507L59.8112 6.69558C59.525 7.58316 58.9855 8.96927 59.023 8.93432C59.023 8.93432 57.0853 14.0875 56.6185 15.4386H61.641C61.39 14.2668 60.2429 8.68507 60.2429 8.68507ZM47.1811 5.77306C45.7625 5.13708 44.2161 4.83193 42.6606 4.88318C40.2561 4.88318 39.1793 5.87793 39.1418 6.87267C39.1418 7.9769 40.4344 8.68509 42.5855 9.75205C46.0668 11.3828 47.6808 13.4142 47.6456 16.0793C47.6104 20.8759 43.484 23.9999 37.0892 23.9999C34.7827 24.0069 32.4955 23.5853 30.3448 22.7583L31.1682 17.5329L31.9939 17.9243C33.7559 18.7839 35.7007 19.2126 37.6639 19.1683C38.4507 19.3197 39.2666 19.1706 39.9462 18.749C40.6258 18.325 41.118 17.6611 41.3235 16.8923C41.3235 15.8626 40.5352 15.1148 38.1659 13.9779C35.8693 12.8784 32.8197 11.0287 32.8549 7.68805C32.8924 3.1756 37.0892 0.000303385 43.0829 0.000303385C44.9443 -0.0113446 46.7921 0.312496 48.537 0.957797L47.7113 6.00604L47.1811 5.77306ZM20.4851 23.6901L24.2901 0.394022H30.3542L26.5515 23.6901H20.4851ZM5.88212 23.6901L1.17397 6.15277L0.805664 4.7294C1.6354 5.14174 2.42126 5.63561 3.15153 6.20403C5.35993 7.99317 7.24812 10.1411 8.73704 12.5546L8.71827 12.4544L8.83556 13.0578L9.48302 16.2563L15.4274 0.394022H21.8504L12.3051 23.6901H5.87273H5.88212Z" fill="#BDBDBD"/>
</svg>
