<svg width="49" height="48" viewBox="0 0 49 48" fill="none" xmlns="http://www.w3.org/2000/svg">
<g id="Frame" clip-path="url(#clip0_1716_55203)">
<g id="Group">
<g id="Group_2">
<path id="Vector" d="M6.63956 21.928C7.06116 22.456 7.25156 23.132 7.16756 23.8024L7.01716 24.9848C6.91265 25.9074 7.11469 26.8388 7.59211 27.6352C8.06952 28.4315 8.79577 29.0486 9.65876 29.3912L10.81 29.8632C11.458 30.12 11.9804 30.6176 12.2692 31.252L12.762 32.3512C13.0044 32.8787 13.3503 33.3521 13.779 33.7434C14.2078 34.1348 14.7107 34.4361 15.258 34.6296L12.67 43.7912C12.5967 44.0535 12.5915 44.3301 12.655 44.5949C12.7185 44.8597 12.8485 45.1039 13.0328 45.3044C13.217 45.5049 13.4494 45.6551 13.7079 45.7407C13.9664 45.8263 14.2425 45.8445 14.51 45.7936L18.118 45.112L20.8332 47.5792C21.0325 47.7655 21.2768 47.8968 21.5422 47.96C21.8076 48.0233 22.0849 48.0164 22.3468 47.94C22.6107 47.8667 22.8511 47.7262 23.0446 47.5323C23.238 47.3384 23.378 47.0977 23.4508 46.8336L25.1884 40.6832L29.0524 45.0608C29.2334 45.2646 29.4635 45.4188 29.7208 45.5088C29.9781 45.5989 30.2541 45.6217 30.5227 45.5753C30.7913 45.5288 31.0436 45.4146 31.2557 45.2433C31.4678 45.0721 31.6327 44.8496 31.7348 44.5968L33.1108 41.1968L36.6636 40.2528C36.9264 40.1817 37.1668 40.0448 37.3621 39.855C37.5573 39.6652 37.701 39.4288 37.7797 39.1681C37.8583 38.9074 37.8692 38.631 37.8113 38.3649C37.7535 38.0988 37.6289 37.8518 37.4492 37.6472L34.2572 34.0296C34.8565 33.6003 35.3331 33.0217 35.6396 32.3512L36.1324 31.252C36.4216 30.6179 36.9447 30.12 37.5924 29.8624L38.7428 29.3912C39.6055 29.0487 40.3316 28.4316 40.8089 27.6354C41.2861 26.8392 41.4881 25.908 41.3836 24.9856L41.2348 23.8032C41.1929 23.4711 41.2181 23.134 41.3088 22.8118C41.3994 22.4895 41.5538 22.1888 41.7628 21.9272L42.5124 20.9712C43.0851 20.2439 43.3966 19.345 43.3966 18.4192C43.3966 17.4934 43.0851 16.5946 42.5124 15.8672L41.762 14.9112C41.5532 14.6496 41.3989 14.3488 41.3082 14.0266C41.2175 13.7044 41.1923 13.3674 41.234 13.0352L41.3836 11.8536C41.4883 10.9311 41.2864 9.99977 40.8091 9.20338C40.3318 8.407 39.6057 7.78986 38.7428 7.44724L37.5908 6.97604C36.9435 6.71854 36.4207 6.22098 36.1316 5.58724L35.6388 4.48724C35.2414 3.6414 34.5874 2.94237 33.7699 2.48953C32.9524 2.03669 32.013 1.85309 31.0852 1.96484L29.8484 2.10804C29.1318 2.19345 28.4091 2.00893 27.8212 1.59044L26.8212 0.87364C26.0572 0.325852 25.1408 0.03125 24.2008 0.03125C23.2607 0.03125 22.3443 0.325852 21.5804 0.87364L20.5796 1.59124C19.9919 2.01023 19.2689 2.19455 18.5524 2.10804L17.3156 1.96484C16.3875 1.85216 15.4476 2.03545 14.6299 2.48855C13.8122 2.94165 13.1584 3.64143 12.762 4.48804L12.2692 5.58724C11.9795 6.22124 11.4562 6.71882 10.8084 6.97604L9.65796 7.44724C8.79497 7.78984 8.06872 8.40694 7.59131 9.20331C7.11389 9.99967 6.91185 10.931 7.01636 11.8536L7.16676 13.0352C7.20838 13.3674 7.18311 13.7044 7.09243 14.0266C7.00175 14.3488 6.8475 14.6496 6.63876 14.9112L5.88836 15.8672C5.31544 16.5945 5.00391 17.4934 5.00391 18.4192C5.00391 19.3451 5.31544 20.244 5.88836 20.9712L6.63956 21.928ZM21.9148 46.4L19.2092 43.9416C19.0265 43.768 18.8051 43.6404 18.5633 43.5694C18.3215 43.4985 18.0663 43.4862 17.8188 43.5336L14.2108 44.2256L16.8468 34.8896C17.0036 34.8928 17.1596 34.8872 17.3156 34.8736L18.5524 34.7304C19.1141 34.6653 19.6826 34.7654 20.1884 35.0184L23.9284 39.2568L21.9148 46.4ZM36.2508 38.7072L32.698 39.6512C32.2132 39.7832 31.818 40.132 31.626 40.596L30.2484 43.9984L23.8788 36.7816C23.986 36.7896 24.0932 36.8056 24.2004 36.8056C25.1404 36.8064 26.0572 36.512 26.8212 35.964L27.8212 35.2472C28.4089 34.8278 29.1323 34.6435 29.8492 34.7304L31.086 34.8736C31.6444 34.9338 32.2091 34.8884 32.7508 34.74L36.2508 38.7072ZM7.14756 16.8552L7.89796 15.8992C8.23782 15.4711 8.48864 14.9794 8.63564 14.4529C8.78265 13.9264 8.82288 13.3759 8.75396 12.8336L8.60436 11.652C8.54394 11.0787 8.6738 10.5013 8.97393 10.0091C9.27406 9.51681 9.72779 9.13694 10.2652 8.92804L11.4156 8.45764C12.4435 8.04477 13.2724 7.25089 13.7292 6.24164L14.222 5.14164C14.4782 4.60452 14.8974 4.16195 15.4198 3.87696C15.9422 3.59198 16.5412 3.47911 17.1316 3.55444L18.3684 3.69684C19.48 3.82983 20.6013 3.54281 21.5124 2.89204L22.5124 2.17524C23.0066 1.82765 23.5961 1.64112 24.2004 1.64112C24.8046 1.64112 25.3941 1.82765 25.8884 2.17524L26.8884 2.89124C27.7989 3.54308 28.9205 3.83047 30.0324 3.69684L31.2692 3.55364C31.8596 3.47857 32.4588 3.59163 32.9813 3.87674C33.5038 4.16184 33.9231 4.60447 34.1796 5.14164L34.6716 6.24084C35.1282 7.25019 35.9571 8.04411 36.9852 8.45684L38.1356 8.92884C38.6729 9.13774 39.1267 9.51761 39.4268 10.0099C39.7269 10.5021 39.8568 11.0795 39.7964 11.6528L39.6468 12.8336C39.5778 13.3759 39.6179 13.9265 39.7649 14.4529C39.912 14.9794 40.1628 15.4712 40.5028 15.8992L41.2532 16.8552C41.6097 17.2987 41.804 17.8506 41.804 18.4196C41.804 18.9886 41.6097 19.5406 41.2532 19.984L40.5036 20.9392C40.1635 21.3669 39.9125 21.8584 39.7653 22.3846C39.6182 22.9108 39.5779 23.4612 39.6468 24.0032L39.7956 25.1872C39.8562 25.7605 39.7265 26.3378 39.4265 26.8301C39.1265 27.3224 38.6729 27.7023 38.1356 27.9112L36.9852 28.3816C35.957 28.7942 35.128 29.5882 34.6716 30.5976L34.1788 31.6968C33.9221 32.2336 33.5028 32.6759 32.9806 32.961C32.4583 33.246 31.8595 33.3594 31.2692 33.2848L30.0324 33.1408C28.9207 33.0078 27.7995 33.2955 26.8892 33.9472L25.8892 34.664C25.3947 35.0116 24.8051 35.1981 24.2008 35.1981C23.5964 35.1981 23.0068 35.0116 22.5124 34.664L21.5124 33.9464C21.3668 33.8463 21.2153 33.7549 21.0588 33.6728C21.0476 33.6664 21.0372 33.6576 21.0252 33.652C20.2135 33.2126 19.2859 33.0344 18.3692 33.1416L17.1324 33.284C16.5421 33.3577 15.9437 33.244 15.4216 32.9591C14.8995 32.6741 14.4801 32.2323 14.2228 31.696L13.73 30.5968C13.2736 29.5873 12.4446 28.7933 11.4164 28.3808L10.2652 27.9104C9.7278 27.7014 9.27414 27.3213 8.97415 26.8289C8.67416 26.3365 8.5445 25.759 8.60516 25.1856L8.75556 24.0032C8.82419 23.4612 8.78375 22.9109 8.63661 22.3847C8.48947 21.8585 8.2386 21.3671 7.89876 20.9392L7.14756 19.984C6.79091 19.5406 6.59647 18.9887 6.59647 18.4196C6.59647 17.8506 6.79091 17.2986 7.14756 16.8552Z" fill="#731B55"/>
<path id="Vector_2" d="M24.1992 30.4385C30.8264 30.4385 36.1992 25.0657 36.1992 18.4385C36.1992 11.8113 30.8264 6.43848 24.1992 6.43848C17.572 6.43848 12.1992 11.8113 12.1992 18.4385C12.2072 25.0625 17.5752 30.4305 24.1992 30.4385ZM24.1992 8.03848C29.9432 8.03848 34.5992 12.6945 34.5992 18.4385C34.5992 24.1825 29.9432 28.8385 24.1992 28.8385C18.4552 28.8385 13.7992 24.1825 13.7992 18.4385C13.8056 12.6969 18.4584 8.04488 24.1992 8.03848Z" fill="#731B55"/>
</g>
</g>
</g>
<defs>
<clipPath id="clip0_1716_55203">
<rect width="48" height="48" fill="white" transform="translate(0.199219)"/>
</clipPath>
</defs>
</svg>
