<svg width="49" height="48" viewBox="0 0 49 48" fill="none" xmlns="http://www.w3.org/2000/svg">
<g id="Frame" clip-path="url(#clip0_1716_55276)">
<g id="Group">
<path id="Vector" d="M9.05078 19.5C7.85767 19.4988 6.71377 19.0243 5.87012 18.1807C5.02646 17.337 4.55197 16.1931 4.55078 15V14.25C4.55078 13.0565 5.02489 11.9119 5.8688 11.068C6.71271 10.2241 7.85731 9.75 9.05078 9.75C10.2443 9.75 11.3888 10.2241 12.2328 11.068C13.0767 11.9119 13.5508 13.0565 13.5508 14.25V15C13.5496 16.1931 13.0751 17.337 12.2314 18.1807C11.3878 19.0243 10.2439 19.4988 9.05078 19.5ZM9.05078 11.25C8.25513 11.25 7.49207 11.5661 6.92946 12.1287C6.36685 12.6913 6.05078 13.4544 6.05078 14.25V15C6.05078 15.7956 6.36685 16.5587 6.92946 17.1213C7.49207 17.6839 8.25513 18 9.05078 18C9.84643 18 10.6095 17.6839 11.1721 17.1213C11.7347 16.5587 12.0508 15.7956 12.0508 15V14.25C12.0508 13.4544 11.7347 12.6913 11.1721 12.1287C10.6095 11.5661 9.84643 11.25 9.05078 11.25ZM3.42578 36.75C2.72959 36.75 2.06191 36.4734 1.56963 35.9812C1.07734 35.4889 0.800781 34.8212 0.800781 34.125L0.800781 24C0.801972 23.0058 1.19744 22.0527 1.90045 21.3497C2.60345 20.6467 3.55659 20.2512 4.55078 20.25H11.4808C12.2383 20.2495 12.9869 20.4131 13.6752 20.7295C14.3635 21.0459 14.975 21.5077 15.4678 22.083L18.2083 25.281L19.8508 24.294C20.4013 23.97 21.0571 23.8751 21.6769 24.0297C22.2967 24.1844 22.8309 24.5763 23.1647 25.121C23.4984 25.6658 23.6048 26.3197 23.4611 26.9422C23.3174 27.5646 22.935 28.1057 22.3963 28.449L17.6983 31.386C17.5643 31.4698 17.4072 31.5092 17.2494 31.4984C17.0917 31.4876 16.9414 31.4273 16.82 31.326L13.5508 28.6012V30H12.0508V27C12.0507 26.8574 12.0913 26.7176 12.1679 26.5973C12.2444 26.4769 12.3537 26.3808 12.4829 26.3204C12.6121 26.2599 12.7558 26.2375 12.8973 26.2559C13.0388 26.2742 13.172 26.3326 13.2815 26.424L17.3638 29.826L21.6028 27.1763C21.7558 27.0805 21.8779 26.9426 21.9544 26.779C22.0308 26.6155 22.0583 26.4333 22.0336 26.2545C22.0088 26.0757 21.9329 25.9078 21.815 25.7712C21.697 25.6345 21.5421 25.5349 21.3688 25.4842C21.2451 25.4471 21.1151 25.4364 20.987 25.4528C20.859 25.4692 20.7358 25.5124 20.6255 25.5795L18.437 26.8927C18.2852 26.984 18.1059 27.0185 17.931 26.9903C17.7561 26.962 17.5969 26.8727 17.4815 26.7383L14.3315 23.0595C13.9793 22.6481 13.5421 22.3179 13.0499 22.0918C12.5577 21.8658 12.0224 21.7491 11.4808 21.75H4.55078C3.95404 21.75 3.38175 21.9871 2.95979 22.409C2.53783 22.831 2.30078 23.4033 2.30078 24V34.125C2.30078 34.4234 2.41931 34.7095 2.63029 34.9205C2.84126 35.1315 3.12741 35.25 3.42578 35.25C3.72415 35.25 4.0103 35.1315 4.22128 34.9205C4.43226 34.7095 4.55078 34.4234 4.55078 34.125V27H6.05078V34.125C6.05078 34.8212 5.77422 35.4889 5.28194 35.9812C4.78965 36.4734 4.12197 36.75 3.42578 36.75ZM19.5508 22.5C19.4296 22.5001 19.3101 22.4708 19.2027 22.4146C19.0953 22.3584 19.0031 22.277 18.934 22.1774C18.8649 22.0778 18.821 21.963 18.8061 21.8427C18.7911 21.7224 18.8055 21.6003 18.848 21.4867L20.0908 18.174C19.024 17.3548 18.1529 16.3085 17.5406 15.1109C16.9283 13.9133 16.5902 12.5945 16.5508 11.25C16.5508 5.46 22.943 0.75 30.8008 0.75C38.6585 0.75 45.0508 5.46 45.0508 11.25C45.0508 17.04 38.6585 21.75 30.8008 21.75C28.4298 21.7582 26.0797 21.3076 23.8798 20.4233L19.886 22.425C19.7815 22.4754 19.6668 22.5011 19.5508 22.5ZM23.8535 18.8483C23.9567 18.8481 24.0589 18.8693 24.1535 18.9105C26.2552 19.8042 28.517 20.26 30.8008 20.25C37.8313 20.25 43.5508 16.2128 43.5508 11.25C43.5508 6.28725 37.8313 2.25 30.8008 2.25C23.7703 2.25 18.0508 6.28725 18.0508 11.25C18.0508 13.5 19.2508 15.6585 21.44 17.334C21.5675 17.4318 21.6603 17.568 21.7046 17.7224C21.7488 17.8769 21.7424 18.0415 21.686 18.192L20.9233 20.2253L23.5183 18.9277C23.6224 18.8757 23.7371 18.8485 23.8535 18.8483Z" fill="#731B55"/>
<path id="Vector_2" d="M34.5508 12C34.965 12 35.3008 11.6642 35.3008 11.25C35.3008 10.8358 34.965 10.5 34.5508 10.5C34.1366 10.5 33.8008 10.8358 33.8008 11.25C33.8008 11.6642 34.1366 12 34.5508 12Z" fill="#731B55"/>
<path id="Vector_3" d="M30.8008 12C31.215 12 31.5508 11.6642 31.5508 11.25C31.5508 10.8358 31.215 10.5 30.8008 10.5C30.3866 10.5 30.0508 10.8358 30.0508 11.25C30.0508 11.6642 30.3866 12 30.8008 12Z" fill="#731B55"/>
<path id="Vector_4" d="M27.0508 12C27.465 12 27.8008 11.6642 27.8008 11.25C27.8008 10.8358 27.465 10.5 27.0508 10.5C26.6366 10.5 26.3008 10.8358 26.3008 11.25C26.3008 11.6642 26.6366 12 27.0508 12Z" fill="#731B55"/>
<path id="Vector_5" d="M13.5508 39C12.5566 38.9988 11.6034 38.6033 10.9004 37.9003C10.1974 37.1973 9.80197 36.2442 9.80078 35.25V34.5C9.80078 33.5054 10.1959 32.5516 10.8991 31.8483C11.6024 31.1451 12.5562 30.75 13.5508 30.75C14.5453 30.75 15.4992 31.1451 16.2024 31.8483C16.9057 32.5516 17.3008 33.5054 17.3008 34.5V35.25C17.2996 36.2442 16.9041 37.1973 16.2011 37.9003C15.4981 38.6033 14.545 38.9988 13.5508 39ZM13.5508 32.25C12.954 32.25 12.3817 32.4871 11.9598 32.909C11.5378 33.331 11.3008 33.9033 11.3008 34.5V35.25C11.3008 35.8467 11.5378 36.419 11.9598 36.841C12.3817 37.2629 12.954 37.5 13.5508 37.5C14.1475 37.5 14.7198 37.2629 15.1418 36.841C15.5637 36.419 15.8008 35.8467 15.8008 35.25V34.5C15.8008 33.9033 15.5637 33.331 15.1418 32.909C14.7198 32.4871 14.1475 32.25 13.5508 32.25ZM20.3008 46.5H18.8008V43.5C18.8008 42.9033 18.5637 42.331 18.1418 41.909C17.7198 41.4871 17.1475 41.25 16.5508 41.25H10.5508C9.95404 41.25 9.38175 41.4871 8.95979 41.909C8.53783 42.331 8.30078 42.9033 8.30078 43.5V46.5H6.80078V43.5C6.80197 42.5058 7.19744 41.5527 7.90045 40.8497C8.60345 40.1467 9.55659 39.7512 10.5508 39.75H16.5508C17.545 39.7512 18.4981 40.1467 19.2011 40.8497C19.9041 41.5527 20.2996 42.5058 20.3008 43.5V46.5ZM27.8008 39C26.8066 38.9988 25.8535 38.6033 25.1504 37.9003C24.4474 37.1973 24.052 36.2442 24.0508 35.25V34.5C24.0508 33.5054 24.4459 32.5516 25.1491 31.8483C25.8524 31.1451 26.8062 30.75 27.8008 30.75C28.7953 30.75 29.7492 31.1451 30.4524 31.8483C31.1557 32.5516 31.5508 33.5054 31.5508 34.5V35.25C31.5496 36.2442 31.1541 37.1973 30.4511 37.9003C29.7481 38.6033 28.795 38.9988 27.8008 39ZM27.8008 32.25C27.204 32.25 26.6317 32.4871 26.2098 32.909C25.7878 33.331 25.5508 33.9033 25.5508 34.5V35.25C25.5508 35.8467 25.7878 36.419 26.2098 36.841C26.6317 37.2629 27.204 37.5 27.8008 37.5C28.3975 37.5 28.9698 37.2629 29.3918 36.841C29.8137 36.419 30.0508 35.8467 30.0508 35.25V34.5C30.0508 33.9033 29.8137 33.331 29.3918 32.909C28.9698 32.4871 28.3975 32.25 27.8008 32.25ZM34.5508 46.5H33.0508V43.5C33.0508 42.9033 32.8137 42.331 32.3918 41.909C31.9698 41.4871 31.3975 41.25 30.8008 41.25H24.8008C24.204 41.25 23.6317 41.4871 23.2098 41.909C22.7878 42.331 22.5508 42.9033 22.5508 43.5V46.5H21.0508V43.5C21.052 42.5058 21.4474 41.5527 22.1504 40.8497C22.8534 40.1467 23.8066 39.7512 24.8008 39.75H30.8008C31.795 39.7512 32.7481 40.1467 33.4511 40.8497C34.1541 41.5527 34.5496 42.5058 34.5508 43.5V46.5ZM42.0508 39C41.0566 38.9988 40.1035 38.6033 39.4004 37.9003C38.6974 37.1973 38.302 36.2442 38.3008 35.25V34.5C38.3008 33.5054 38.6959 32.5516 39.3991 31.8483C40.1024 31.1451 41.0562 30.75 42.0508 30.75C43.0453 30.75 43.9992 31.1451 44.7024 31.8483C45.4057 32.5516 45.8008 33.5054 45.8008 34.5V35.25C45.7996 36.2442 45.4041 37.1973 44.7011 37.9003C43.9981 38.6033 43.045 38.9988 42.0508 39ZM42.0508 32.25C41.454 32.25 40.8817 32.4871 40.4598 32.909C40.0378 33.331 39.8008 33.9033 39.8008 34.5V35.25C39.8008 35.8467 40.0378 36.419 40.4598 36.841C40.8817 37.2629 41.454 37.5 42.0508 37.5C42.6475 37.5 43.2198 37.2629 43.6418 36.841C44.0637 36.419 44.3008 35.8467 44.3008 35.25V34.5C44.3008 33.9033 44.0637 33.331 43.6418 32.909C43.2198 32.4871 42.6475 32.25 42.0508 32.25ZM48.8008 46.5H47.3008V43.5C47.3008 42.9033 47.0637 42.331 46.6418 41.909C46.2198 41.4871 45.6475 41.25 45.0508 41.25H39.0508C38.454 41.25 37.8817 41.4871 37.4598 41.909C37.0378 42.331 36.8008 42.9033 36.8008 43.5V46.5H35.3008V43.5C35.302 42.5058 35.6974 41.5527 36.4004 40.8497C37.1035 40.1467 38.0566 39.7512 39.0508 39.75H45.0508C46.045 39.7512 46.9981 40.1467 47.7011 40.8497C48.4041 41.5527 48.7996 42.5058 48.8008 43.5V46.5Z" fill="#731B55"/>
</g>
</g>
<defs>
<clipPath id="clip0_1716_55276">
<rect width="48" height="48" fill="white" transform="translate(0.800781)"/>
</clipPath>
</defs>
</svg>
