<svg width="49" height="48" viewBox="0 0 49 48" fill="none" xmlns="http://www.w3.org/2000/svg">
<g id="Frame" clip-path="url(#clip0_1716_55220)">
<g id="Group">
<path id="Vector" d="M21.688 23.7009C21.1531 23.2048 20.8847 22.9558 20.7487 22.7202C20.6128 22.4847 20.5313 22.1277 20.369 21.4165C20.328 21.2368 20.2824 21.0367 20.2298 20.8124C19.938 19.5662 18.8834 18.6813 17.6055 18.6103C17.3754 18.5974 17.1705 18.5872 16.9864 18.578C16.2578 18.5417 15.892 18.5235 15.6364 18.4305C15.3809 18.3376 15.089 18.1164 14.5076 17.676C14.3607 17.5646 14.1971 17.4406 14.0125 17.3025C12.9879 16.5356 11.6112 16.5356 10.5867 17.3025C10.4213 17.4265 10.2563 17.551 10.0917 17.6759C9.51014 18.1164 9.2183 18.3376 8.96274 18.4305C8.70717 18.5235 8.34145 18.5418 7.61274 18.578C7.4287 18.5872 7.22377 18.5974 6.99361 18.6103C5.7158 18.6813 4.6612 19.5662 4.36927 20.8123C4.31667 21.0368 4.27102 21.2369 4.23005 21.4166C4.06777 22.1278 3.9863 22.4849 3.85036 22.7203C3.71442 22.9557 3.44592 23.2049 2.91108 23.701C2.77599 23.8263 2.62552 23.9659 2.45752 24.1237C1.52433 24.9994 1.28527 26.3552 1.86267 27.4974C1.96664 27.7031 2.0603 27.8857 2.14439 28.0498C2.4773 28.6989 2.64436 29.0247 2.69161 29.2925C2.73877 29.5603 2.6933 29.9236 2.60245 30.6476C2.57655 30.8526 2.55127 31.0578 2.52661 31.263C2.37474 32.5337 3.06314 33.7259 4.23952 34.2297C4.45139 34.3204 4.64049 34.4001 4.81027 34.4717L4.87374 34.4985L2.20111 40.2389C2.14324 40.3631 2.12053 40.5009 2.13545 40.6371C2.15037 40.7734 2.20235 40.903 2.28574 41.0117C2.36913 41.1205 2.48073 41.2044 2.60844 41.2542C2.73614 41.304 2.87505 41.3179 3.01008 41.2943L5.94211 40.782L7.43752 43.3553C7.50638 43.4738 7.60641 43.5712 7.72673 43.6369C7.84705 43.7025 7.98307 43.734 8.12 43.7277C8.25694 43.7215 8.38955 43.6779 8.50343 43.6016C8.61731 43.5253 8.70811 43.4193 8.76595 43.295L11.4477 37.5349C11.8499 37.4148 12.0965 37.3545 12.2997 37.3545C12.5716 37.3545 12.9215 37.4625 13.6186 37.6776L13.8383 37.7453L15.7566 42.1991C15.8146 42.3337 15.9108 42.4484 16.0332 42.5289C16.1556 42.6094 16.299 42.6523 16.4456 42.6523C16.7036 42.6523 16.9453 42.5191 17.0827 42.2977L18.6521 39.7687L21.5679 40.3658C21.7022 40.3932 21.8414 40.3834 21.9704 40.3373C22.0995 40.2912 22.2135 40.2106 22.3 40.1043C22.3865 39.998 22.4422 39.87 22.4611 39.7343C22.48 39.5986 22.4614 39.4603 22.4072 39.3344L20.232 34.284L20.3599 34.2295C21.5364 33.7258 22.2247 32.5335 22.0728 31.2628C22.0455 31.0339 22.02 30.8303 21.997 30.6474C21.9062 29.9235 21.8606 29.5602 21.9078 29.2924C21.9551 29.0246 22.1221 28.6987 22.455 28.0496C22.5391 27.8856 22.6328 27.703 22.7368 27.4971C23.3141 26.355 23.075 24.9991 22.1418 24.1235C21.9736 23.9659 21.8232 23.8263 21.688 23.7009ZM8.01258 41.3594L6.97645 39.5763C6.8993 39.4438 6.78344 39.3381 6.64443 39.2734C6.50543 39.2087 6.34995 39.1881 6.19889 39.2144L4.16752 39.5693L6.18699 35.2319C6.34908 35.4209 6.53489 35.7086 6.83114 36.1674C6.93108 36.3223 7.04245 36.4947 7.16864 36.6875C7.70967 37.515 8.6048 37.9842 9.54886 37.9842C9.56067 37.9842 9.57267 37.983 9.58458 37.9829L8.01258 41.3594ZM18.4409 38.1945C18.2906 38.1638 18.1346 38.1798 17.9937 38.2405C17.8529 38.3011 17.734 38.4035 17.6532 38.5338L16.5659 40.2859L15.5546 37.938C16.3057 37.8022 16.9873 37.3657 17.4307 36.6875C17.5438 36.5144 17.6563 36.341 17.7683 36.1672C18.164 35.5545 18.3627 35.2469 18.571 35.0719C18.6465 35.0086 18.7392 34.9496 18.8583 34.8865L20.4612 38.6081L18.4409 38.1945ZM21.3979 26.8206C21.2954 27.0235 21.203 27.2036 21.1201 27.3653C20.3184 28.9288 20.2899 29.0908 20.5085 30.8342C20.5311 31.0145 20.5563 31.2152 20.5832 31.4411C20.6565 32.0543 20.337 32.6077 19.7692 32.8509C19.5603 32.9403 19.3739 33.0189 19.2065 33.0895C17.5873 33.7718 17.4612 33.8776 16.508 35.3536C16.4094 35.5063 16.2996 35.6762 16.1752 35.8665C15.8371 36.3836 15.2367 36.6023 14.6454 36.4233C14.4279 36.3576 14.2346 36.298 14.061 36.2444C12.3821 35.7264 12.2175 35.7264 10.5384 36.2444C10.3648 36.298 10.1714 36.3576 9.95386 36.4233C9.36249 36.6017 8.76202 36.3835 8.42405 35.8665C8.29964 35.6764 8.18986 35.5064 8.09133 35.3537C7.13817 33.8776 7.01208 33.7718 5.39292 33.0895C5.22549 33.0189 5.03911 32.9403 4.83014 32.8508C4.26239 32.6077 3.94289 32.0543 4.01611 31.441C4.04311 31.2153 4.06833 31.0145 4.09092 30.8342C4.30955 29.0908 4.28095 28.9288 3.4793 27.3653C3.39642 27.2036 3.30408 27.0235 3.20152 26.8206C2.9228 26.2694 3.0338 25.64 3.48417 25.2173C3.64992 25.0618 3.79824 24.9241 3.93145 24.8006C5.21958 23.6056 5.30189 23.463 5.69264 21.7502C5.73305 21.573 5.77805 21.3757 5.82989 21.1545C5.9708 20.553 6.46036 20.1421 7.07705 20.1078C7.30392 20.0952 7.50595 20.0852 7.68745 20.0761C9.44236 19.9888 9.59714 19.9325 10.9976 18.8714C11.1424 18.7617 11.3037 18.6394 11.4857 18.5032C11.733 18.318 12.0164 18.2256 12.2997 18.2256C12.5831 18.2256 12.8664 18.3181 13.1137 18.5032C13.2957 18.6394 13.457 18.7617 13.6019 18.8715C15.0023 19.9324 15.157 19.9888 16.912 20.0761C17.0935 20.0852 17.2955 20.0952 17.5224 20.1078C18.1391 20.1421 18.6286 20.553 18.7695 21.1545C18.8213 21.3756 18.8663 21.573 18.9067 21.7501C19.2975 23.4631 19.3799 23.6057 20.6679 24.8007C20.8011 24.9242 20.9495 25.0619 21.1153 25.2174C21.5656 25.6401 21.6765 26.2695 21.3979 26.8206ZM12.2996 20.7043C8.63217 20.7043 5.64858 23.6879 5.64858 27.3553C5.64858 31.0226 8.63217 34.0062 12.2996 34.0062C15.967 34.0062 18.9506 31.0226 18.9506 27.3553C18.9506 23.6879 15.967 20.7043 12.2996 20.7043ZM12.2996 32.5063C9.45933 32.5063 7.14858 30.1956 7.14858 27.3554C7.14858 24.515 9.45924 22.2044 12.2996 22.2044C15.1399 22.2044 17.4506 24.515 17.4506 27.3554C17.4506 30.1955 15.1399 32.5063 12.2996 32.5063ZM24.6809 14.4481L23.8937 17.3859C23.851 17.5453 23.7569 17.6862 23.626 17.7867C23.4951 17.8873 23.3348 17.9418 23.1697 17.942C23.0546 17.9421 22.941 17.9157 22.8378 17.8648C22.7346 17.8139 22.6444 17.74 22.5743 17.6487C22.5042 17.5574 22.4561 17.4512 22.4337 17.3383C22.4112 17.2255 22.415 17.1089 22.4448 16.9978L23.128 14.4482H19.3869L20.0691 14.9811C20.1922 15.0773 20.2822 15.2094 20.3266 15.3592C20.371 15.509 20.3674 15.6689 20.3165 15.8166C20.2656 15.9643 20.1699 16.0924 20.0427 16.183C19.9155 16.2737 19.7631 16.3223 19.6069 16.3222C19.4398 16.3224 19.2774 16.2664 19.1459 16.1633L16.7462 14.2894C16.6564 14.2193 16.5838 14.1296 16.5338 14.0272C16.4838 13.9247 16.4579 13.8123 16.4579 13.6983C16.4579 13.5844 16.4838 13.4719 16.5338 13.3695C16.5838 13.2671 16.6564 13.1774 16.7462 13.1072L19.1458 11.2334C19.2234 11.1727 19.3122 11.1279 19.4071 11.1016C19.502 11.0753 19.6012 11.0679 19.699 11.0799C19.7967 11.0919 19.8912 11.1231 19.9769 11.1717C20.0626 11.2202 20.1379 11.2852 20.1985 11.3628C20.3209 11.5196 20.3761 11.7186 20.3518 11.916C20.3275 12.1134 20.2258 12.2931 20.069 12.4155L19.3868 12.9484H23.5298L24.5165 9.26602H19.2079C19.009 9.26602 18.8182 9.187 18.6776 9.04635C18.5369 8.90569 18.4579 8.71493 18.4579 8.51602C18.4579 8.3171 18.5369 8.12634 18.6776 7.98569C18.8182 7.84503 19.009 7.76602 19.2079 7.76602H24.9184L25.7055 4.82836C25.757 4.63622 25.8827 4.47241 26.055 4.37295C26.2273 4.27349 26.432 4.24654 26.6241 4.29802C26.8162 4.3495 26.9801 4.4752 27.0795 4.64746C27.179 4.81972 27.2059 5.02444 27.1545 5.21658L26.4713 7.76611H30.2124L29.5302 7.23324C29.3734 7.1108 29.2717 6.93111 29.2474 6.73369C29.2231 6.53627 29.2783 6.33729 29.4007 6.18052C29.4613 6.10287 29.5366 6.03793 29.6223 5.9894C29.708 5.94087 29.8025 5.90971 29.9002 5.89768C29.998 5.88566 30.0972 5.89302 30.1921 5.91933C30.287 5.94565 30.3758 5.9904 30.4534 6.05105L32.853 7.92492C32.9428 7.99507 33.0154 8.08476 33.0654 8.18719C33.1154 8.28962 33.1414 8.40209 33.1414 8.51606C33.1414 8.63004 33.1154 8.74251 33.0654 8.84494C33.0154 8.94737 32.9428 9.03706 32.853 9.1072L30.4534 10.981C30.3218 11.084 30.1595 11.14 29.9924 11.1398C29.8362 11.1399 29.6838 11.0913 29.5566 11.0006C29.4294 10.91 29.3336 10.7819 29.2827 10.6342C29.2318 10.4865 29.2283 10.3266 29.2727 10.1768C29.317 10.027 29.4071 9.89485 29.5302 9.7987L30.2123 9.26602H26.0694L25.0827 12.9484H30.3913C30.5902 12.9484 30.7809 13.0274 30.9216 13.1681C31.0622 13.3087 31.1413 13.4995 31.1413 13.6984C31.1413 13.8973 31.0622 14.0881 30.9216 14.2288C30.7809 14.3694 30.5902 14.4484 30.3913 14.4484H24.6809V14.4481ZM47.4549 28.0498C47.5494 27.8659 47.6433 27.6818 47.7366 27.4974C48.314 26.3551 48.075 24.9993 47.1418 24.1237C46.991 23.9823 46.8398 23.8414 46.6881 23.701C46.1533 23.2048 45.8848 22.9558 45.7488 22.7203C45.6129 22.4848 45.5314 22.1278 45.3691 21.4166C45.3281 21.2369 45.2825 21.0367 45.2299 20.8124C44.9381 19.5662 43.8834 18.6813 42.6056 18.6103C42.3754 18.5974 42.1705 18.5872 41.9865 18.578C41.2578 18.5417 40.892 18.5235 40.6365 18.4305C40.3809 18.3376 40.0891 18.1164 39.5075 17.6759C39.3429 17.5509 39.1779 17.4265 39.0125 17.3025C37.9879 16.5355 36.6112 16.5356 35.5867 17.3025C35.4214 17.4265 35.2564 17.551 35.0917 17.6759C34.5102 18.1164 34.2183 18.3376 33.9628 18.4305C33.7072 18.5235 33.3415 18.5418 32.6128 18.578C32.4287 18.5872 32.2238 18.5974 31.9936 18.6103C30.7158 18.6813 29.6612 19.5662 29.3693 20.8123C29.3167 21.0368 29.271 21.2368 29.2301 21.4165C29.0678 22.1277 28.9863 22.4848 28.8504 22.7202C28.7145 22.9558 28.446 23.2048 27.9111 23.7009C27.776 23.8263 27.6255 23.9659 27.4575 24.1237C26.5243 24.9994 26.2852 26.3552 26.8626 27.4974C26.9666 27.7031 27.0602 27.8858 27.1444 28.0499C27.4772 28.699 27.6444 29.0248 27.6915 29.2926C27.7387 29.5604 27.6932 29.9237 27.6024 30.6477C27.5794 30.8306 27.5539 31.0341 27.5266 31.2629C27.3746 32.5336 28.063 33.7259 29.2395 34.2297C29.4512 34.3204 29.6403 34.4001 29.8101 34.4716L29.8737 34.4985L27.2011 40.2389C27.1433 40.3631 27.1206 40.5009 27.1355 40.6371C27.1504 40.7734 27.2024 40.903 27.2858 41.0117C27.3692 41.1205 27.4808 41.2044 27.6085 41.2542C27.7362 41.304 27.8751 41.3179 28.0101 41.2943L30.9421 40.782L32.4375 43.3553C32.5063 43.4739 32.6063 43.5713 32.7266 43.6369C32.847 43.7026 32.983 43.7341 33.1199 43.7279C33.2569 43.7216 33.3895 43.678 33.5034 43.6017C33.6173 43.5254 33.7081 43.4193 33.7659 43.295L36.4476 37.535C36.8498 37.4149 37.0965 37.3546 37.2996 37.3546C37.5716 37.3546 37.9215 37.4625 38.6186 37.6777C38.6882 37.6992 38.762 37.722 38.8382 37.7453L40.7565 42.1991C40.8145 42.3337 40.9107 42.4484 41.0331 42.5289C41.1556 42.6094 41.299 42.6523 41.4455 42.6523C41.7035 42.6523 41.9452 42.5191 42.0826 42.2977L43.652 39.7687L46.5677 40.3658C46.702 40.3934 46.8413 40.3837 46.9704 40.3376C47.0995 40.2915 47.2135 40.2109 47.2999 40.1045C47.3864 39.9982 47.4422 39.8702 47.461 39.7344C47.4799 39.5986 47.4613 39.4603 47.4071 39.3344L45.2319 34.284L45.3598 34.2295C46.5361 33.7258 47.2245 32.5335 47.0727 31.2628C47.048 31.0576 47.0227 30.8524 46.9968 30.6474C46.906 29.9235 46.8604 29.5602 46.9077 29.2923C46.9549 29.0247 47.122 28.6989 47.4549 28.0498ZM33.0125 41.3594L31.9765 39.5763C31.8994 39.4438 31.7835 39.3381 31.6445 39.2734C31.5055 39.2087 31.35 39.1881 31.1989 39.2144L29.1675 39.5693L31.1869 35.2319C31.349 35.4209 31.5348 35.7085 31.8311 36.1673C31.9311 36.3222 32.0424 36.4946 32.1687 36.6876C32.7166 37.5255 33.6279 37.9937 34.5851 37.9816L33.0125 41.3594ZM43.4409 38.1945C43.2907 38.1637 43.1346 38.1797 42.9937 38.2404C42.8529 38.3011 42.734 38.4035 42.6532 38.5338L41.5658 40.286L40.5547 37.9384C41.3058 37.8026 41.9873 37.3656 42.4306 36.6875C42.5568 36.4946 42.6681 36.3223 42.7681 36.1673C43.1639 35.5545 43.3625 35.2469 43.5708 35.072C43.6463 35.0087 43.739 34.9496 43.8581 34.8866L45.4609 38.6082L43.4409 38.1945ZM46.398 26.8206C46.2954 27.0235 46.203 27.2036 46.1202 27.3653C45.3184 28.9288 45.2898 29.0908 45.5085 30.8342C45.5311 31.0145 45.5563 31.2152 45.5833 31.441C45.6566 32.0543 45.3371 32.6077 44.7692 32.8509C44.5603 32.9403 44.3739 33.0189 44.2065 33.0895C42.5872 33.7718 42.4611 33.8776 41.508 35.3537C41.4093 35.5064 41.2995 35.6763 41.1752 35.8665C40.8373 36.3836 40.2368 36.6023 39.6454 36.4233C39.4278 36.3576 39.2345 36.298 39.0609 36.2444C38.2215 35.9853 37.7605 35.8558 37.2996 35.8558C36.8387 35.8558 36.3779 35.9853 35.5383 36.2444C35.3647 36.298 35.1713 36.3576 34.9538 36.4233C34.3627 36.6017 33.7621 36.3835 33.424 35.8665C33.3125 35.6959 33.2016 35.5249 33.0912 35.3535C32.138 33.8776 32.0119 33.7718 30.3928 33.0895C30.2253 33.0189 30.039 32.9403 29.83 32.8508C29.2621 32.6077 28.9426 32.0543 29.016 31.441C29.043 31.2154 29.0681 31.0146 29.0907 30.8343C29.3094 29.0909 29.2808 28.9288 28.4791 27.3654C28.3962 27.2037 28.3038 27.0236 28.2013 26.8206C27.9225 26.2694 28.0336 25.64 28.4839 25.2173C28.6497 25.0618 28.7981 24.9241 28.9313 24.8006C30.2193 23.6056 30.3016 23.463 30.6925 21.75C30.7329 21.5729 30.7779 21.3756 30.8297 21.1544C30.9706 20.553 31.4601 20.1421 32.0769 20.1078C32.3038 20.0952 32.5058 20.0852 32.6873 20.0761C34.4422 19.9888 34.597 19.9325 35.9974 18.8714C36.1423 18.7617 36.3036 18.6394 36.4856 18.5032C36.9799 18.133 37.6191 18.133 38.1135 18.5032C38.2954 18.6394 38.4568 18.7617 38.6016 18.8714C40.002 19.9324 40.1568 19.9888 41.9117 20.0761C42.0932 20.0852 42.2953 20.0952 42.5221 20.1078C43.1388 20.1421 43.6284 20.553 43.7693 21.1545C43.8211 21.3757 43.8661 21.573 43.9065 21.7501C44.2973 23.463 44.3796 23.6056 45.6678 24.8006C45.801 24.9241 45.9494 25.0618 46.1151 25.2173C46.5657 25.6401 46.6766 26.2695 46.398 26.8206ZM41.4725 22.4325H33.1268C32.9279 22.4325 32.7371 22.5115 32.5965 22.6521C32.4558 22.7928 32.3768 22.9835 32.3768 23.1825V31.5282C32.3768 31.7271 32.4558 31.9179 32.5965 32.0585C32.7371 32.1992 32.9279 32.2782 33.1268 32.2782H41.4725C41.6714 32.2782 41.8622 32.1992 42.0028 32.0585C42.1435 31.9179 42.2225 31.7271 42.2225 31.5282V23.1825C42.2225 22.9835 42.1435 22.7928 42.0028 22.6521C41.8622 22.5115 41.6714 22.4325 41.4725 22.4325ZM40.7225 30.7782H33.8768V23.9325H40.7225V30.7782Z" fill="#731B55"/>
</g>
</g>
<defs>
<clipPath id="clip0_1716_55220">
<rect width="48" height="48" fill="white" transform="translate(0.800781)"/>
</clipPath>
</defs>
</svg>
