<svg width="49" height="48" viewBox="0 0 49 48" fill="none" xmlns="http://www.w3.org/2000/svg">
<g id="Frame">
<g id="Group">
<path id="Vector" d="M45.8773 23.5928L42.2901 17.6138C42.1701 17.4465 42.0096 17.3153 41.8071 17.2673L29.0458 14.493L29.0061 14.37L32.6946 11.718C32.9552 11.5351 33.1497 11.2728 33.2492 10.9704C33.3486 10.6679 33.3477 10.3414 33.2466 10.0395C33.1523 9.73569 32.9625 9.47041 32.7053 9.28312C32.4482 9.09583 32.1374 8.99655 31.8193 9.00002H27.2421L25.8223 4.67702C25.6161 4.05002 25.0573 3.64502 24.3973 3.64502C23.7373 3.64502 23.1786 4.05002 22.9723 4.67702L21.5526 9.00002H16.9753C16.6572 8.99655 16.3465 9.09583 16.0894 9.28312C15.8322 9.47041 15.6424 9.73569 15.5481 10.0395C15.447 10.3414 15.4461 10.6679 15.5455 10.9704C15.645 11.2728 15.8395 11.5351 16.1001 11.718L19.7886 14.37L19.7481 14.493L6.9876 17.2673C6.7851 17.3153 6.62385 17.4473 6.5046 17.6138L2.91735 23.5928C2.1936 24.7343 2.7561 26.3835 4.02735 26.8448L6.39735 27.7725V35.7263C6.39735 36.6585 6.95835 37.4813 7.8276 37.8218L24.1243 44.1983C24.2999 44.267 24.4948 44.267 24.6703 44.1983L40.9678 37.8218C41.3902 37.6582 41.753 37.3704 42.0083 36.9962C42.2635 36.622 42.3992 36.1792 42.3973 35.7263V27.7725L44.7673 26.8448C46.0386 26.3835 46.6011 24.7343 45.8773 23.5928ZM16.9753 10.5H21.5526C22.2021 10.5 22.7751 10.0853 22.9776 9.46802L24.3936 5.13677L24.3973 5.14502L25.8171 9.46802C25.9154 9.76838 26.1061 10.03 26.3621 10.2153C26.618 10.4007 26.9261 10.5003 27.2421 10.5H31.8193L28.1293 13.152C27.8698 13.3376 27.6765 13.6014 27.5777 13.9048C27.4789 14.2082 27.4798 14.5352 27.5803 14.838L28.9933 19.1385L25.2726 16.464C25.0175 16.2805 24.7112 16.1817 24.397 16.1817C24.0827 16.1817 23.7764 16.2805 23.5213 16.464L19.8021 19.1385L21.2136 14.8388C21.3146 14.5358 21.3158 14.2084 21.217 13.9046C21.1181 13.6009 20.9245 13.3369 20.6646 13.1513L16.9753 10.5ZM19.2058 16.146L18.3771 18.6705C18.2748 18.9709 18.2719 19.2963 18.3689 19.5985C18.4659 19.9006 18.6576 20.1635 18.9156 20.3483C19.1695 20.5385 19.4779 20.642 19.7952 20.6433C20.1125 20.6447 20.4218 20.5439 20.6773 20.3558L24.3973 17.6828L28.1173 20.3565C28.3727 20.5449 28.6821 20.646 28.9995 20.6446C29.3168 20.6433 29.6253 20.5396 29.8791 20.349C30.1371 20.1643 30.3288 19.9014 30.4258 19.5992C30.5228 19.297 30.5199 18.9717 30.4176 18.6713L29.5888 16.1468L39.0636 18.2063L24.3973 23.9445L9.7311 18.2055L19.2058 16.146ZM4.57335 25.4483C4.15035 25.296 3.9606 24.7448 4.2036 24.3638L7.4646 18.9293L23.2971 25.125L19.9071 30.777C19.816 30.9293 19.6738 31.0444 19.5058 31.1017C19.3379 31.1589 19.155 31.1547 18.9898 31.0898L4.57335 25.4483ZM23.6473 42.4013L8.37435 36.4245C8.23354 36.37 8.11256 36.2741 8.0274 36.1495C7.94224 36.0248 7.89689 35.8772 7.89735 35.7263V28.3598L18.4438 32.4863C19.4488 32.8853 20.6248 32.5013 21.1926 31.5488L23.6473 27.4575V42.4013ZM40.8973 35.7263C40.8973 36.0368 40.7098 36.3113 40.4211 36.4245L25.1473 42.4013V27.4575L27.6021 31.5488C27.8752 32.005 28.3014 32.3496 28.8047 32.5213C29.308 32.6929 29.8558 32.6805 30.3508 32.4863L40.8973 28.3598V35.7263ZM44.2213 25.4483L29.8048 31.0898C29.6398 31.1545 29.4571 31.1586 29.2893 31.1014C29.1215 31.0441 28.9794 30.9292 28.8883 30.777L25.4968 25.125L41.3301 18.93L44.5911 24.3638C44.8341 24.7448 44.6436 25.296 44.2213 25.4483Z" fill="#731B55"/>
</g>
</g>
</svg>
