<svg width="48" height="48" viewBox="0 0 48 48" fill="none" xmlns="http://www.w3.org/2000/svg">
<g id="Frame" clip-path="url(#clip0_1716_55216)">
<g id="Group">
<path id="Vector" d="M23.9984 47.5C21.6984 47.5 19.5984 46.6 17.9984 45C16.7984 43.8 15.0984 43.1 13.3984 43.1C8.69844 43.1 4.89844 39.3 4.89844 34.6C4.89844 32.9 4.19844 31.2 2.99844 30C-0.301563 26.7 -0.301563 21.3 2.99844 18C4.19844 16.8 4.89844 15.1 4.89844 13.4C4.89844 8.7 8.69844 4.9 13.3984 4.9C15.0984 4.9 16.7984 4.2 17.9984 3C19.5984 1.4 21.6984 0.5 23.9984 0.5C26.2984 0.5 28.3984 1.4 29.9984 3C31.1984 4.2 32.8984 4.9 34.5984 4.9C39.2984 4.9 43.0984 8.7 43.0984 13.4C43.0984 15.1 43.7984 16.8 44.9984 18C48.2984 21.3 48.2984 26.7 44.9984 30C43.7984 31.2 43.0984 32.9 43.0984 34.6C43.0984 39.3 39.2984 43.1 34.5984 43.1C32.8984 43.1 31.1984 43.8 29.9984 45C28.3984 46.6 26.2984 47.5 23.9984 47.5ZM23.9984 2.5C22.2984 2.5 20.5984 3.2 19.3984 4.4C17.7984 6 15.6984 6.9 13.3984 6.9C9.79844 6.9 6.89844 9.8 6.89844 13.4C6.89844 15.7 5.99844 17.8 4.39844 19.4C1.89844 21.9 1.89844 26.1 4.39844 28.6C5.99844 30.2 6.89844 32.3 6.89844 34.6C6.89844 38.2 9.79844 41.1 13.3984 41.1C15.6984 41.1 17.7984 42 19.3984 43.6C20.5984 44.8 22.2984 45.5 23.9984 45.5C25.6984 45.5 27.3984 44.8 28.5984 43.6C30.1984 42 32.2984 41.1 34.5984 41.1C38.1984 41.1 41.0984 38.2 41.0984 34.6C41.0984 32.3 41.9984 30.2 43.5984 28.6C46.0984 26.1 46.0984 21.9 43.5984 19.4C41.9984 17.8 41.0984 15.7 41.0984 13.4C41.0984 9.8 38.1984 6.9 34.5984 6.9C32.2984 6.9 30.1984 6 28.5984 4.4C27.3984 3.2 25.6984 2.5 23.9984 2.5Z" fill="#731B55"/>
<path id="Vector_2" d="M11.4 33.8001L8 24.7001L9.8 24.0001L15.8 28.8001L13.6 22.7001L15.3 22.1001L18.6 31.3001L16.7 32.0001L10.8 27.4001L13 33.4001L11.4 33.8001ZM20.6 30.5001L17.3 21.3001L24.1 18.8001L24.7 20.3001L19.8 22.1001L20.5 24.1001L25.1 22.4001L25.7 23.9001L21 25.8001L21.9 28.3001L27 26.4001L27.6 27.9001L20.6 30.5001ZM30.4 26.9001L24.9 18.5001L26.8 17.8001L30.5 23.6001L29.9 16.7001L32.1 15.9001L36 21.7001L35 14.8001L36.9 14.1001L38 24.1001L36 24.8001L31.7 18.6001L32.4 26.1001L30.4 26.9001Z" fill="#731B55"/>
</g>
</g>
<defs>
<clipPath id="clip0_1716_55216">
<rect width="48" height="48" fill="white"/>
</clipPath>
</defs>
</svg>
