<svg width="48" height="48" viewBox="0 0 48 48" fill="none" xmlns="http://www.w3.org/2000/svg">
<g clip-path="url(#clip0_1716_55037)">
<path d="M46.2578 45H22.2578C22.0589 45 21.8681 44.921 21.7275 44.7803C21.5868 44.6397 21.5078 44.4489 21.5078 44.25V8.25C21.5078 8.05109 21.5868 7.86032 21.7275 7.71967C21.8681 7.57902 22.0589 7.5 22.2578 7.5H46.2578C46.4567 7.5 46.6475 7.57902 46.7881 7.71967C46.9288 7.86032 47.0078 8.05109 47.0078 8.25V44.25C47.0078 44.4489 46.9288 44.6397 46.7881 44.7803C46.6475 44.921 46.4567 45 46.2578 45ZM23.0078 43.5H45.5078V9H23.0078V43.5Z" fill="#731B55"/>
<path d="M46.2578 33H22.2578C22.0589 33 21.8681 32.921 21.7275 32.7803C21.5868 32.6397 21.5078 32.4489 21.5078 32.25C21.5078 32.0511 21.5868 31.8603 21.7275 31.7197C21.8681 31.579 22.0589 31.5 22.2578 31.5H46.2578C46.4567 31.5 46.6475 31.579 46.7881 31.7197C46.9288 31.8603 47.0078 32.0511 47.0078 32.25C47.0078 32.4489 46.9288 32.6397 46.7881 32.7803C46.6475 32.921 46.4567 33 46.2578 33Z" fill="#731B55"/>
<path d="M34.2578 45C34.0589 45 33.8681 44.921 33.7275 44.7803C33.5868 44.6397 33.5078 44.4489 33.5078 44.25V20.25C33.5078 20.0511 33.5868 19.8603 33.7275 19.7197C33.8681 19.579 34.0589 19.5 34.2578 19.5C34.4567 19.5 34.6475 19.579 34.7881 19.7197C34.9288 19.8603 35.0078 20.0511 35.0078 20.25V44.25C35.0078 44.4489 34.9288 44.6397 34.7881 44.7803C34.6475 44.921 34.4567 45 34.2578 45ZM46.2578 45C46.0589 45 45.8681 44.921 45.7275 44.7803C45.5868 44.6397 45.5078 44.4489 45.5078 44.25V20.25C45.5078 20.0511 45.5868 19.8603 45.7275 19.7197C45.8681 19.579 46.0589 19.5 46.2578 19.5C46.4567 19.5 46.6475 19.579 46.7881 19.7197C46.9288 19.8603 47.0078 20.0511 47.0078 20.25V44.25C47.0078 44.4489 46.9288 44.6397 46.7881 44.7803C46.6475 44.921 46.4567 45 46.2578 45Z" fill="#731B55"/>
<path d="M46.2578 21H22.2578C22.0589 21 21.8681 20.921 21.7275 20.7803C21.5868 20.6397 21.5078 20.4489 21.5078 20.25C21.5078 20.0511 21.5868 19.8603 21.7275 19.7197C21.8681 19.579 22.0589 19.5 22.2578 19.5H46.2578C46.4567 19.5 46.6475 19.579 46.7881 19.7197C46.9288 19.8603 47.0078 20.0511 47.0078 20.25C47.0078 20.4489 46.9288 20.6397 46.7881 20.7803C46.6475 20.921 46.4567 21 46.2578 21ZM31.1003 27.1012H25.1003C24.9014 27.1012 24.7106 27.0222 24.57 26.8816C24.4293 26.7409 24.3503 26.5502 24.3503 26.3512C24.3503 26.1523 24.4293 25.9616 24.57 25.8209C24.7106 25.6803 24.9014 25.6012 25.1003 25.6012H31.1003C31.2992 25.6012 31.49 25.6803 31.6306 25.8209C31.7713 25.9616 31.8503 26.1523 31.8503 26.3512C31.8503 26.5502 31.7713 26.7409 31.6306 26.8816C31.49 27.0222 31.2992 27.1012 31.1003 27.1012Z" fill="#731B55"/>
<path d="M28.1015 30.1011C27.9026 30.1011 27.7118 30.0221 27.5712 29.8814C27.4305 29.7408 27.3515 29.55 27.3515 29.3511V23.3511C27.3515 23.1522 27.4305 22.9614 27.5712 22.8207C27.7118 22.6801 27.9026 22.6011 28.1015 22.6011C28.3004 22.6011 28.4912 22.6801 28.6318 22.8207C28.7725 22.9614 28.8515 23.1522 28.8515 23.3511V29.3511C28.8515 29.55 28.7725 29.7408 28.6318 29.8814C28.4912 30.0221 28.3004 30.1011 28.1015 30.1011ZM43.259 27.1011H37.259C37.0601 27.1011 36.8693 27.0221 36.7287 26.8814C36.588 26.7408 36.509 26.55 36.509 26.3511C36.509 26.1522 36.588 25.9614 36.7287 25.8207C36.8693 25.6801 37.0601 25.6011 37.259 25.6011H43.259C43.4579 25.6011 43.6487 25.6801 43.7893 25.8207C43.93 25.9614 44.009 26.1522 44.009 26.3511C44.009 26.55 43.93 26.7408 43.7893 26.8814C43.6487 27.0221 43.4579 27.1011 43.259 27.1011ZM30.224 41.0323C30.125 41.0324 30.027 41.0129 29.9356 40.9749C29.8443 40.9369 29.7613 40.8813 29.6915 40.8111L25.4503 36.5698C25.3806 36.5001 25.3253 36.4174 25.2876 36.3264C25.2499 36.2353 25.2305 36.1377 25.2305 36.0392C25.2305 35.9407 25.2499 35.8431 25.2876 35.752C25.3253 35.661 25.3806 35.5783 25.4503 35.5086C25.5199 35.4389 25.6027 35.3836 25.6937 35.3459C25.7848 35.3082 25.8823 35.2888 25.9809 35.2888C26.0794 35.2888 26.177 35.3082 26.2681 35.3459C26.3591 35.3836 26.4418 35.4389 26.5115 35.5086L30.749 39.7498C30.8546 39.8545 30.9266 39.9882 30.956 40.1339C30.9854 40.2796 30.9709 40.4308 30.9142 40.5682C30.8576 40.7056 30.7614 40.8231 30.6378 40.9057C30.5142 40.9884 30.3689 41.0324 30.2203 41.0323H30.224Z" fill="#731B55"/>
<path d="M25.9772 41.0327C25.8285 41.0328 25.6832 40.9887 25.5596 40.9061C25.4361 40.8235 25.3398 40.706 25.2832 40.5685C25.2265 40.4311 25.212 40.2799 25.2414 40.1342C25.2708 39.9885 25.3429 39.8549 25.4484 39.7502L29.6897 35.5089C29.8326 35.3799 30.0196 35.3108 30.2121 35.3158C30.4045 35.3209 30.5877 35.3998 30.7236 35.5362C30.8594 35.6726 30.9377 35.856 30.9421 36.0485C30.9465 36.2409 30.8767 36.4277 30.7472 36.5702L26.5097 40.8114C26.4399 40.8816 26.3569 40.9373 26.2655 40.9753C26.1741 41.0132 26.0761 41.0328 25.9772 41.0327ZM43.4747 38.9102H37.4747C37.2758 38.9102 37.085 38.8312 36.9443 38.6905C36.8037 38.5499 36.7247 38.3591 36.7247 38.1602C36.7247 37.9613 36.8037 37.7705 36.9443 37.6298C37.085 37.4892 37.2758 37.4102 37.4747 37.4102H43.4747C43.6736 37.4102 43.8643 37.4892 44.005 37.6298C44.1456 37.7705 44.2247 37.9613 44.2247 38.1602C44.2247 38.3591 44.1456 38.5499 44.005 38.6905C43.8643 38.8312 43.6736 38.9102 43.4747 38.9102ZM40.4747 34.6802C40.3078 34.6802 40.1447 34.7297 40.0059 34.8224C39.8671 34.9151 39.759 35.0469 39.6951 35.201C39.6313 35.3552 39.6146 35.5249 39.6471 35.6885C39.6797 35.8522 39.76 36.0025 39.878 36.1205C39.996 36.2385 40.1464 36.3189 40.3101 36.3515C40.4737 36.384 40.6434 36.3673 40.7976 36.3034C40.9517 36.2396 41.0835 36.1314 41.1762 35.9927C41.2689 35.8539 41.3184 35.6908 41.3184 35.5239C41.3184 35.3001 41.2295 35.0855 41.0713 34.9273C40.913 34.7691 40.6984 34.6802 40.4747 34.6802ZM40.4747 39.9527C40.3078 39.9527 40.1447 40.0022 40.0059 40.0949C39.8671 40.1876 39.759 40.3194 39.6951 40.4735C39.6313 40.6277 39.6146 40.7974 39.6471 40.961C39.6797 41.1247 39.76 41.275 39.878 41.393C39.996 41.511 40.1464 41.5914 40.3101 41.624C40.4737 41.6565 40.6434 41.6398 40.7976 41.5759C40.9517 41.5121 41.0835 41.4039 41.1762 41.2652C41.2689 41.1264 41.3184 40.9633 41.3184 40.7964C41.3184 40.5726 41.2295 40.358 41.0713 40.1998C40.913 40.0416 40.6984 39.9527 40.4747 39.9527Z" fill="#731B55"/>
<path d="M34.2583 48H1.73828C1.53937 48 1.3486 47.921 1.20795 47.7803C1.0673 47.6397 0.988281 47.4489 0.988281 47.25V10.785C0.988281 10.5861 1.0673 10.3953 1.20795 10.2547C1.3486 10.114 1.53937 10.035 1.73828 10.035C1.93719 10.035 2.12796 10.114 2.26861 10.2547C2.40926 10.3953 2.48828 10.5861 2.48828 10.785V46.5H34.2583C34.4572 46.5 34.648 46.579 34.7886 46.7197C34.9293 46.8603 35.0083 47.0511 35.0083 47.25C35.0083 47.4489 34.9293 47.6397 34.7886 47.7803C34.648 47.921 34.4572 48 34.2583 48ZM34.2583 6.5175C34.0594 6.5175 33.8686 6.43848 33.728 6.29783C33.5873 6.15718 33.5083 5.96641 33.5083 5.7675V1.5H11.7583C11.5594 1.5 11.3686 1.42098 11.228 1.28033C11.0873 1.13968 11.0083 0.948912 11.0083 0.75C11.0083 0.551088 11.0873 0.360322 11.228 0.21967C11.3686 0.0790176 11.5594 0 11.7583 0L34.2583 0C34.4572 0 34.648 0.0790176 34.7886 0.21967C34.9293 0.360322 35.0083 0.551088 35.0083 0.75V5.7675C35.0083 5.86599 34.9889 5.96352 34.9512 6.05451C34.9135 6.14551 34.8583 6.22819 34.7886 6.29783C34.719 6.36747 34.6363 6.42272 34.5453 6.46041C34.4543 6.4981 34.3568 6.5175 34.2583 6.5175Z" fill="#731B55"/>
<path d="M11.7739 11.535H1.73888C1.59023 11.5351 1.4449 11.4911 1.32134 11.4084C1.19778 11.3258 1.10156 11.2083 1.0449 11.0709C0.98824 10.9335 0.973697 10.7823 1.00312 10.6366C1.03254 10.4909 1.10459 10.3572 1.21013 10.2525L11.2489 0.22126C11.3539 0.11827 11.487 0.0484527 11.6314 0.0204991C11.7758 -0.00745454 11.9253 0.0076899 12.0612 0.0640473C12.1971 0.120405 12.3134 0.215486 12.3957 0.337455C12.478 0.459425 12.5225 0.602896 12.5239 0.75001V10.785C12.5239 10.9839 12.4449 11.1747 12.3042 11.3153C12.1636 11.456 11.9728 11.535 11.7739 11.535ZM3.55013 10.035H11.0239V2.56126L3.55013 10.035ZM19.1239 18H7.22138C7.02247 18 6.8317 17.921 6.69105 17.7803C6.5504 17.6397 6.47138 17.4489 6.47138 17.25C6.47138 17.0511 6.5504 16.8603 6.69105 16.7197C6.8317 16.579 7.02247 16.5 7.22138 16.5H19.1239C19.3228 16.5 19.5136 16.579 19.6542 16.7197C19.7949 16.8603 19.8739 17.0511 19.8739 17.25C19.8739 17.4489 19.7949 17.6397 19.6542 17.7803C19.5136 17.921 19.3228 18 19.1239 18ZM19.1239 23.0625H7.22138C7.02247 23.0625 6.8317 22.9835 6.69105 22.8428C6.5504 22.7022 6.47138 22.5114 6.47138 22.3125C6.47138 22.1136 6.5504 21.9228 6.69105 21.7822C6.8317 21.6415 7.02247 21.5625 7.22138 21.5625H19.1239C19.3228 21.5625 19.5136 21.6415 19.6542 21.7822C19.7949 21.9228 19.8739 22.1136 19.8739 22.3125C19.8739 22.5114 19.7949 22.7022 19.6542 22.8428C19.5136 22.9835 19.3228 23.0625 19.1239 23.0625ZM14.1551 28.125H7.22138C7.02247 28.125 6.8317 28.046 6.69105 27.9053C6.5504 27.7647 6.47138 27.5739 6.47138 27.375C6.47138 27.1761 6.5504 26.9853 6.69105 26.8447C6.8317 26.704 7.02247 26.625 7.22138 26.625H14.1551C14.354 26.625 14.5448 26.704 14.6855 26.8447C14.8261 26.9853 14.9051 27.1761 14.9051 27.375C14.9051 27.5739 14.8261 27.7647 14.6855 27.9053C14.5448 28.046 14.354 28.125 14.1551 28.125Z" fill="#731B55"/>
</g>
<defs>
<clipPath id="clip0_1716_55037">
<rect width="48" height="48" fill="white"/>
</clipPath>
</defs>
</svg>
