<svg width="49" height="48" viewBox="0 0 49 48" fill="none" xmlns="http://www.w3.org/2000/svg">
<g id="Frame" clip-path="url(#clip0_1716_55184)">
<g id="Group">
<path id="Vector" d="M35.1883 48.0002H7.67849C6.20803 48.0002 5.01172 46.8377 5.01172 45.4088V8.9283C5.01172 7.49938 6.20803 6.33691 7.67849 6.33691H9.09131V7.97794H7.67849C7.11295 7.97794 6.65274 8.4042 6.65274 8.9283V45.4089C6.65274 45.9329 7.11295 46.3593 7.67849 46.3593H35.1883C35.754 46.3593 36.2141 45.933 36.2141 45.4089V43.9199H37.8551V45.4089C37.8552 46.8377 36.6589 48.0002 35.1883 48.0002Z" fill="#731B55"/>
<path id="Vector_2" d="M44.1891 9.66021C44.1825 9.44647 44.0926 9.24378 43.9385 9.09549L34.6938 0.22841C34.5498 0.0902484 34.3602 0.00942875 34.1608 0.00112821V0H14.0144C12.544 0 11.3477 1.16256 11.3477 2.59149V39.072C11.3477 40.5009 12.544 41.6634 14.0144 41.6634H41.5243C42.9947 41.6634 44.191 40.5009 44.191 39.072V9.66021H44.1891ZM34.9463 2.74441L41.3297 8.86708H34.9463V2.74441ZM41.5243 40.0223H14.0144C13.4488 40.0223 12.9887 39.596 12.9887 39.0719V2.59149C12.9887 2.06749 13.4489 1.64103 14.0144 1.64103H33.3053V9.68759C33.3053 9.9052 33.3917 10.1139 33.5456 10.2678C33.6995 10.4217 33.9082 10.5081 34.1258 10.5081H42.55V39.0719C42.55 39.596 42.0898 40.0223 41.5243 40.0223Z" fill="#731B55"/>
<path id="Vector_3" d="M36.6171 15.2309L28.1232 11.1578C28.0125 11.1047 27.8912 11.0771 27.7684 11.0771C27.6456 11.0771 27.5244 11.1047 27.4137 11.1578L18.9197 15.2309C18.6407 15.3652 18.454 15.6607 18.454 15.9708V24.1169C18.454 24.2716 18.4977 24.4231 18.5801 24.5541C18.6625 24.685 18.7802 24.7899 18.9197 24.8568L27.4137 28.9299C27.6338 29.0366 27.9031 29.0364 28.1232 28.9299L36.6171 24.8568C36.7566 24.7899 36.8743 24.685 36.9567 24.5541C37.0392 24.4231 37.0829 24.2716 37.0829 24.1169V15.9708C37.0829 15.922 37.0829 15.4273 36.6171 15.2309ZM27.7683 12.8077L34.3646 15.9708L27.7683 19.1338L21.172 15.9708L27.7683 12.8077ZM20.0949 23.6003V17.2742L26.9478 20.5603V26.8866L20.0949 23.6003ZM28.5888 26.8867V20.5604L35.4418 17.2743V23.6004L28.5888 26.8867ZM16.6875 31.4598H38.8491V33.1008H16.6875V31.4598ZM16.6875 35.8871H38.8491V37.5281H16.6875V35.8871Z" fill="#731B55"/>
</g>
</g>
<defs>
<clipPath id="clip0_1716_55184">
<rect width="48" height="48" fill="white" transform="translate(0.601562)"/>
</clipPath>
</defs>
</svg>
