<svg width="49" height="48" viewBox="0 0 49 48" fill="none" xmlns="http://www.w3.org/2000/svg">
<g id="Frame" clip-path="url(#clip0_1716_55266)">
<g id="Group">
<path id="Vector" d="M15.2193 45.66C14.954 45.6601 14.6995 45.5551 14.5113 45.368L1.67132 32.528C1.20152 32.069 0.829038 31.5201 0.576127 30.9139C0.323217 30.3077 0.195063 29.6568 0.199321 29C0.199321 27.72 0.703321 26.468 1.58132 25.564L24.1193 2.18604C24.771 1.49293 25.5583 0.941216 26.4322 0.565165C27.3061 0.189113 28.248 -0.00324404 29.1993 4.13863e-05H43.1993C45.9573 4.13863e-05 48.1993 2.24404 48.1993 5.00004V19C48.1993 20.938 47.4193 22.744 46.0053 24.086L39.8113 30.06C39.6204 30.2438 39.3642 30.3442 39.0992 30.3392C38.8342 30.3341 38.5821 30.224 38.3983 30.033C38.2145 29.8421 38.1141 29.5859 38.1192 29.3209C38.1242 29.056 38.2344 28.8038 38.4253 28.62L44.6253 22.64C45.1235 22.1738 45.5203 21.6101 45.7911 20.9838C46.0619 20.3576 46.2009 19.6823 46.1993 19V5.00004C46.1993 3.34604 44.8533 2.00004 43.1993 2.00004H29.1993C27.8153 2.00004 26.5233 2.55604 25.5673 3.56804L3.01932 26.954C2.49532 27.492 2.19932 28.236 2.19932 29C2.19932 29.806 2.51132 30.552 3.07532 31.104L15.9253 43.954C16.0647 44.0939 16.1596 44.2719 16.198 44.4656C16.2364 44.6593 16.2166 44.86 16.1411 45.0424C16.0656 45.2249 15.9378 45.3809 15.7737 45.4908C15.6097 45.6007 15.4168 45.6596 15.2193 45.66Z" fill="#731B55"/>
<path id="Vector_2" d="M38.1992 14C35.9932 14 34.1992 12.206 34.1992 10C34.1992 7.794 35.9932 6 38.1992 6C40.4052 6 42.1992 7.794 42.1992 10C42.1992 12.206 40.4052 14 38.1992 14ZM38.1992 8C37.6843 8.02304 37.198 8.24381 36.8418 8.61636C36.4855 8.98892 36.2867 9.48453 36.2867 10C36.2867 10.5155 36.4855 11.0111 36.8418 11.3836C37.198 11.7562 37.6843 11.977 38.1992 12C38.7142 11.977 39.2004 11.7562 39.5567 11.3836C39.9129 11.0111 40.1118 10.5155 40.1118 10C40.1118 9.48453 39.9129 8.98892 39.5567 8.61636C39.2004 8.24381 38.7142 8.02304 38.1992 8ZM35.1992 48H33.1992C31.5452 48 30.1992 46.654 30.1992 45V37C30.1992 35.346 31.5452 34 33.1992 34H35.1992C36.8532 34 38.1992 35.346 38.1992 37V45C38.1992 46.654 36.8532 48 35.1992 48ZM33.1992 36C32.934 36 32.6796 36.1054 32.4921 36.2929C32.3046 36.4804 32.1992 36.7348 32.1992 37V45C32.1992 45.2652 32.3046 45.5196 32.4921 45.7071C32.6796 45.8946 32.934 46 33.1992 46H35.1992C35.4644 46 35.7188 45.8946 35.9063 45.7071C36.0939 45.5196 36.1992 45.2652 36.1992 45V37C36.1992 36.7348 36.0939 36.4804 35.9063 36.2929C35.7188 36.1054 35.4644 36 35.1992 36H33.1992ZM24.1992 48H21.1992C20.934 48 20.6796 47.8946 20.4921 47.7071C20.3046 47.5196 20.1992 47.2652 20.1992 47C20.1992 46.7348 20.3046 46.4804 20.4921 46.2929C20.6796 46.1054 20.934 46 21.1992 46H24.1992C24.7142 45.977 25.2004 45.7562 25.5567 45.3836C25.9129 45.0111 26.1118 44.5155 26.1118 44C26.1118 43.4845 25.9129 42.9889 25.5567 42.6164C25.2004 42.2438 24.7142 42.023 24.1992 42H21.1992C20.934 42 20.6796 41.8946 20.4921 41.7071C20.3046 41.5196 20.1992 41.2652 20.1992 41V35C20.1992 34.7348 20.3046 34.4804 20.4921 34.2929C20.6796 34.1054 20.934 34 21.1992 34H27.1992C27.4644 34 27.7188 34.1054 27.9063 34.2929C28.0939 34.4804 28.1992 34.7348 28.1992 35C28.1992 35.2652 28.0939 35.5196 27.9063 35.7071C27.7188 35.8946 27.4644 36 27.1992 36H22.1992V40H24.1992C26.4052 40 28.1992 41.794 28.1992 44C28.1992 46.206 26.4052 48 24.1992 48ZM41.1992 48C41.0285 48.0003 40.8606 47.957 40.7114 47.874C40.5622 47.7911 40.4367 47.6714 40.3469 47.5262C40.2571 47.381 40.2059 47.2153 40.1983 47.0448C40.1906 46.8743 40.2267 46.7046 40.3032 46.552L46.3032 34.552C46.4218 34.3146 46.6298 34.1341 46.8814 34.0501C47.1331 33.9661 47.4079 33.9855 47.6452 34.104C47.8826 34.2226 48.0631 34.4305 48.1472 34.6822C48.2312 34.9339 48.2118 35.2086 48.0932 35.446L42.0932 47.446C42.0106 47.6124 41.8831 47.7524 41.7251 47.8503C41.5672 47.9482 41.385 48 41.1992 48ZM41.6992 37C41.3014 37 40.9199 36.842 40.6386 36.5607C40.3573 36.2794 40.1992 35.8978 40.1992 35.5C40.1992 35.1022 40.3573 34.7206 40.6386 34.4393C40.9199 34.158 41.3014 34 41.6992 34C42.097 34 42.4786 34.158 42.7599 34.4393C43.0412 34.7206 43.1992 35.1022 43.1992 35.5C43.1992 35.8978 43.0412 36.2794 42.7599 36.5607C42.4786 36.842 42.097 37 41.6992 37ZM46.6992 48C46.3014 48 45.9199 47.842 45.6386 47.5607C45.3573 47.2794 45.1992 46.8978 45.1992 46.5C45.1992 46.1022 45.3573 45.7206 45.6386 45.4393C45.9199 45.158 46.3014 45 46.6992 45C47.097 45 47.4786 45.158 47.7599 45.4393C48.0412 45.7206 48.1992 46.1022 48.1992 46.5C48.1992 46.8978 48.0412 47.2794 47.7599 47.5607C47.4786 47.842 47.097 48 46.6992 48Z" fill="#731B55"/>
</g>
</g>
<defs>
<clipPath id="clip0_1716_55266">
<rect width="48" height="48" fill="white" transform="translate(0.199219)"/>
</clipPath>
</defs>
</svg>
