<svg width="49" height="48" viewBox="0 0 49 48" fill="none" xmlns="http://www.w3.org/2000/svg">
<g id="Frame" clip-path="url(#clip0_1717_55292)">
<g id="Group">
<path id="Vector" d="M14.2286 20.5034H45.1177C45.5483 20.5033 45.9746 20.5882 46.3722 20.7534C46.7698 20.9186 47.1308 21.1608 47.4345 21.466V21.4717C47.7392 21.7745 47.9812 22.1346 48.1464 22.5312C48.3117 22.9278 48.397 23.3531 48.3975 23.7828V44.7194C48.3975 45.6194 48.0277 46.4422 47.4345 47.0354C47.1309 47.3408 46.7699 47.5832 46.3723 47.7484C45.9747 47.9137 45.5483 47.9987 45.1177 47.9984H14.2286C13.7981 47.9982 13.3719 47.913 12.9744 47.7477C12.577 47.5825 12.216 47.3404 11.9122 47.0354C11.6069 46.732 11.3646 46.3711 11.1994 45.9736C11.0341 45.5761 10.9491 45.1499 10.9492 44.7194V23.7828C10.9492 22.8824 11.3186 22.0597 11.9122 21.466C12.2161 21.1613 12.5771 20.9194 12.9746 20.7542C13.3721 20.589 13.7982 20.5038 14.2286 20.5034ZM45.1177 22.0027H14.2286C13.9952 22.0033 13.7642 22.05 13.549 22.1401C13.3337 22.2303 13.1384 22.3621 12.9742 22.528C12.8082 22.6922 12.6763 22.8876 12.5861 23.1029C12.4958 23.3183 12.4491 23.5493 12.4485 23.7828V44.7194C12.4485 45.2088 12.6513 45.6562 12.9742 45.979C13.1387 46.1442 13.3342 46.2752 13.5494 46.3644C13.7647 46.4537 13.9955 46.4995 14.2286 46.4992H45.1177C45.3516 46.4995 45.5832 46.4537 45.7993 46.3645C46.0154 46.2752 46.2119 46.1443 46.3773 45.979C46.5426 45.8136 46.6737 45.6172 46.7631 45.4011C46.8525 45.1849 46.8984 44.9533 46.8982 44.7194V23.7828C46.8985 23.5489 46.8526 23.3172 46.7633 23.1011C46.6739 22.8849 46.5427 22.6886 46.3773 22.5232V22.5284C46.0437 22.1931 45.5907 22.004 45.1177 22.0027Z" fill="#731B55"/>
<path id="Vector_2" d="M23.4115 14.252H35.941C36.6542 14.252 37.3097 14.5433 37.7785 15.017C38.2468 15.4906 38.5438 16.1416 38.5438 16.8545V22.0025H33.88V18.8172H25.4728V22.0028H20.8086V16.8545C20.8086 16.5127 20.8759 16.1742 21.0067 15.8584C21.1375 15.5427 21.3293 15.2557 21.571 15.0141C21.8127 14.7724 22.0996 14.5807 22.4154 14.4499C22.7312 14.3192 23.0697 14.2519 23.4115 14.252ZM35.9406 15.7512H23.4115C23.1092 15.7512 22.8336 15.8757 22.6303 16.079C22.4245 16.2846 22.3087 16.5635 22.3082 16.8545V20.5032H23.9736V17.318H35.3792V20.5036H37.0446V16.8548C37.0446 16.5526 36.9197 16.277 36.7221 16.0793H36.7165C36.6157 15.9755 36.4951 15.8929 36.3618 15.8366C36.2285 15.7802 36.0853 15.7512 35.9406 15.7512Z" fill="#731B55"/>
<path id="Vector_3" d="M8.67994 40.6856C9.09131 40.6856 9.42956 41.0182 9.42956 41.4349C9.42858 41.6333 9.34927 41.8234 9.20889 41.9637C9.06851 42.104 8.87841 42.1832 8.67994 42.1841H2.64731C2.03306 42.1841 1.47094 41.9291 1.05956 41.5234V41.5181C0.850303 41.31 0.684184 41.0626 0.570734 40.7901C0.457283 40.5177 0.398732 40.2255 0.398438 39.9304L0.398438 2.2485C0.398438 1.63425 0.653438 1.07212 1.05956 0.661125C1.26766 0.451832 1.51505 0.285692 1.78751 0.172239C2.05998 0.0587862 2.35217 0.000253594 2.64731 0L23.7339 0C24.0568 0 24.3587 0.062625 24.6403 0.1875C24.9228 0.31781 25.1773 0.501565 25.3899 0.728625L31.0483 6.78263C31.0637 6.79838 31.0742 6.81375 31.0899 6.8295C31.263 7.02434 31.4003 7.24814 31.4957 7.49063C31.592 7.7506 31.6414 8.02562 31.6416 8.30288V11.9779C31.6415 12.1767 31.5625 12.3673 31.4219 12.5078C31.2813 12.6484 31.0907 12.7274 30.8919 12.7275C30.7931 12.728 30.6952 12.709 30.6037 12.6715C30.5122 12.6341 30.429 12.579 30.3589 12.5094C30.2888 12.4397 30.2331 12.3569 30.195 12.2657C30.157 12.1745 30.1373 12.0767 30.1371 11.9779V8.30288C30.1371 8.19863 30.1269 8.10525 30.0954 8.02163C30.0643 7.95347 30.026 7.88885 29.9811 7.82888C29.9706 7.81875 29.9597 7.8135 29.9496 7.803L24.2964 1.749C24.2218 1.66983 24.1337 1.60456 24.0362 1.55625C23.9403 1.51741 23.8377 1.49803 23.7343 1.49925H2.64731C2.5491 1.49915 2.45189 1.51893 2.36154 1.55741C2.27118 1.59588 2.18955 1.65225 2.12156 1.72312L2.11631 1.71788C1.98094 1.85287 1.89769 2.04562 1.89769 2.2485V39.9304C1.89769 40.1385 1.98094 40.326 2.11631 40.4614L2.12156 40.4666C2.25694 40.5971 2.44406 40.6856 2.64731 40.6856H8.67994Z" fill="#731B55"/>
<path id="Vector_4" d="M26.9562 34.1683L14.0938 31.7263C13.2245 31.565 12.4224 31.1851 11.8453 30.6073C11.2929 30.0556 10.9494 29.3323 10.9494 28.4626H12.4486C12.4486 28.9051 12.626 29.2696 12.9069 29.5509C13.2661 29.9045 13.7919 30.1494 14.3698 30.2585L27.2323 32.6998L26.9562 34.1683ZM48.3972 28.4626C48.3972 29.3319 48.0537 30.0504 47.5017 30.602V30.6073C46.9239 31.1851 46.1225 31.5654 45.2585 31.7263L32.3956 34.1885L32.1147 32.7208L44.9772 30.2585C45.5604 30.1441 46.0861 29.9049 46.445 29.5509C46.5901 29.4095 46.705 29.2402 46.7829 29.0531C46.8607 28.8661 46.8999 28.6652 46.898 28.4626H48.3972ZM19.502 6.69877C19.9183 6.69877 20.2516 7.03215 20.2516 7.4484C20.2515 7.64718 20.1725 7.83779 20.032 7.97835C19.8914 8.11891 19.7008 8.19792 19.502 8.19802H9.0395C8.93906 8.2012 8.83901 8.18416 8.74529 8.14792C8.65156 8.11168 8.56608 8.05697 8.49391 7.98705C8.42174 7.91712 8.36435 7.83341 8.32517 7.74088C8.28598 7.64835 8.26579 7.54889 8.26579 7.4484C8.26579 7.34791 8.28598 7.24845 8.32517 7.15592C8.36435 7.06339 8.42174 6.97967 8.49391 6.90975C8.56608 6.83983 8.65156 6.78512 8.74529 6.74888C8.83901 6.71264 8.93906 6.6956 9.0395 6.69877H19.502ZM5.468 6.69877C5.88463 6.69877 6.22325 7.03215 6.22325 7.4484C6.22206 7.64782 6.14193 7.83865 6.00039 7.97914C5.85885 8.11962 5.66742 8.19832 5.468 8.19802H4.90625C4.4945 8.19802 4.15625 7.85977 4.15625 7.4484C4.15635 7.24955 4.23541 7.05888 4.37605 6.91831C4.51669 6.77774 4.7074 6.69877 4.90625 6.69877H5.468ZM14.5723 13.5024C14.9836 13.5024 15.3219 13.8403 15.3219 14.252C15.3219 14.6683 14.9836 15.0013 14.5723 15.0013H9.03912C8.84539 14.9938 8.66208 14.9115 8.52767 14.7718C8.39325 14.6321 8.31817 14.4457 8.31817 14.2518C8.31817 14.058 8.39325 13.8716 8.52767 13.7319C8.66208 13.5921 8.84539 13.5099 9.03912 13.5024H14.5723ZM5.46838 13.5024C5.88463 13.5024 6.22325 13.8403 6.22325 14.252C6.22325 14.6683 5.885 15.0013 5.46838 15.0013H4.90625C4.70747 15.0013 4.51682 14.9224 4.37619 14.7819C4.23555 14.6414 4.15645 14.4508 4.15625 14.252C4.15625 13.8406 4.4945 13.5024 4.90625 13.5024H5.46838ZM19.502 10.103C19.9183 10.103 20.2516 10.4364 20.2516 10.8526C20.2515 11.0514 20.1725 11.242 20.032 11.3826C19.8914 11.5232 19.7008 11.6022 19.502 11.6023H9.0395C8.93906 11.6055 8.83901 11.5884 8.74529 11.5522C8.65156 11.5159 8.56608 11.4612 8.49391 11.3913C8.42174 11.3214 8.36435 11.2377 8.32517 11.1451C8.28598 11.0526 8.26579 10.9531 8.26579 10.8526C8.26579 10.7522 8.28598 10.6527 8.32517 10.5602C8.36435 10.4676 8.42174 10.3839 8.49391 10.314C8.56608 10.2441 8.65156 10.1894 8.74529 10.1531C8.83901 10.1169 8.93906 10.0998 9.0395 10.103H19.502ZM5.468 10.103C5.88463 10.103 6.22325 10.4364 6.22325 10.8526C6.22196 11.052 6.1418 11.2428 6.00028 11.3833C5.85876 11.5237 5.66739 11.6025 5.468 11.6023H4.90625C4.4945 11.6023 4.15625 11.264 4.15625 10.8526C4.15635 10.6538 4.23541 10.4631 4.37605 10.3226C4.51669 10.182 4.7074 10.103 4.90625 10.103H5.468ZM24.5045 0.275398L31.3284 7.68277C31.4622 7.82908 31.5325 8.02256 31.5237 8.22067C31.5149 8.41877 31.4278 8.60527 31.2815 8.73915C31.1442 8.86632 30.9639 8.93702 30.7768 8.93715H26.0765C25.6953 8.937 25.3179 8.86152 24.9659 8.71505C24.6139 8.56858 24.2944 8.354 24.0256 8.08365L23.9788 8.03677C23.4606 7.49822 23.1713 6.77977 23.1717 6.0324V0.749398C23.1719 0.550551 23.2509 0.359882 23.3916 0.219311C23.5322 0.0787396 23.7229 -0.000226587 23.9217 -0.000226562C24.1554 -0.000226562 24.3639 0.108898 24.5045 0.275398ZM29.0698 7.43827L24.671 2.66977V6.03277C24.6704 6.39039 24.8064 6.73474 25.0512 6.9954L25.0827 7.0269C25.2133 7.15735 25.3682 7.26079 25.5387 7.33131C25.7092 7.40184 25.892 7.43806 26.0765 7.4379L29.0698 7.43827ZM34.4832 4.0389C34.4638 4.1353 34.4254 4.22686 34.3702 4.30827C34.3151 4.38968 34.2443 4.4593 34.1619 4.51308C34.0796 4.56686 33.9874 4.60372 33.8907 4.62153C33.794 4.63933 33.6947 4.63771 33.5986 4.61677C33.5025 4.59731 33.4112 4.5591 33.3299 4.50432C33.2486 4.44955 33.1788 4.37928 33.1247 4.29755C33.0705 4.21581 33.033 4.1242 33.0143 4.02796C32.9955 3.93172 32.996 3.83273 33.0155 3.73665L33.302 2.37277L33.6766 0.597898C33.7115 0.428955 33.8035 0.277184 33.9372 0.168115C34.0708 0.0590462 34.238 -0.000665711 34.4105 -0.000976562H37.034C37.4139 -0.000976562 37.7266 0.280273 37.7784 0.649648L38.33 3.27315C38.7151 3.38265 39.0901 3.51277 39.4543 3.66352C39.824 3.81465 40.1829 3.99165 40.5264 4.1844L42.8221 2.68515C42.9654 2.59281 43.1359 2.55227 43.3053 2.57029C43.4748 2.5883 43.633 2.66377 43.7536 2.78415H43.7593L44.6859 3.71077C44.696 3.72652 44.7118 3.73702 44.7226 3.7524L45.6125 4.64265C45.8724 4.89765 45.899 5.30377 45.6961 5.59515L44.2122 7.86952C44.4092 8.21596 44.5848 8.57413 44.738 8.94202C44.8839 9.30615 45.014 9.68115 45.1231 10.0663L47.7988 10.6336C47.9748 10.6681 48.1324 10.765 48.2425 10.9066C48.3525 11.0482 48.4077 11.2248 48.3976 11.4039V13.9865C48.3976 14.3664 48.1168 14.684 47.747 14.7309L45.1235 15.2825C45.0163 15.6642 44.8878 16.0396 44.7384 16.4068C44.5237 16.9248 44.2642 17.423 43.9629 17.8959C43.9108 17.9799 43.8425 18.0527 43.762 18.11C43.6815 18.1674 43.5904 18.2081 43.494 18.2299C43.3976 18.2517 43.2979 18.2541 43.2005 18.2369C43.1032 18.2197 43.0103 18.1833 42.9271 18.1299C42.7594 18.0228 42.6411 17.8535 42.5981 17.6593C42.5552 17.465 42.5911 17.2616 42.698 17.0938C43.2006 16.3041 43.565 15.4347 43.7757 14.5228C43.8005 14.3744 43.8694 14.237 43.9734 14.1284C44.0774 14.0197 44.2117 13.9449 44.3589 13.9138L46.8984 13.3828V12.6748H46.9036V11.972L44.3581 11.4358C44.2176 11.4064 44.0885 11.3374 43.986 11.2368C43.8836 11.1362 43.8122 11.0084 43.7803 10.8684C43.6792 10.4054 43.5363 9.95258 43.3535 9.5154C43.1714 9.0774 42.9519 8.65596 42.6973 8.25577C42.6216 8.13456 42.582 7.99437 42.5829 7.85151C42.5838 7.70865 42.6253 7.56899 42.7025 7.44877L44.1241 5.27302L43.6655 4.8099C43.6501 4.79977 43.64 4.7889 43.6239 4.77315L43.1244 4.27365L40.9951 5.6634C40.8739 5.75642 40.727 5.80982 40.5743 5.81633C40.4216 5.82284 40.2707 5.78214 40.142 5.69977C39.7417 5.44548 39.3203 5.22605 38.8824 5.0439C38.4557 4.86748 38.0152 4.7265 37.5654 4.6224C37.4173 4.5983 37.2801 4.52954 37.1722 4.42532C37.0643 4.3211 36.9909 4.18641 36.9616 4.03927L36.4246 1.49865H35.0139L34.7694 2.67502L34.4832 4.0389ZM35.7222 8.03152C35.3056 8.03152 34.9722 7.69815 34.9722 7.2819C34.9722 6.86565 35.3056 6.53227 35.7222 6.53227C37.4187 6.53227 38.9544 7.21965 40.0685 8.3334C40.639 8.9031 41.0913 9.5799 41.3995 10.3249C41.7077 11.07 41.8657 11.8685 41.8644 12.6748C41.8654 13.1158 41.8182 13.5557 41.7237 13.9865C41.6297 14.4164 41.4903 14.8351 41.3079 15.2356C41.2248 15.4164 41.0735 15.5568 40.8871 15.6262C40.7006 15.6955 40.4943 15.688 40.3134 15.6054C40.2245 15.5644 40.1445 15.5063 40.078 15.4344C40.0116 15.3625 39.96 15.2782 39.9262 15.1863C39.8924 15.0944 39.877 14.9967 39.881 14.8989C39.8849 14.8011 39.9081 14.705 39.9492 14.6161C40.0842 14.3248 40.1885 14.0071 40.2612 13.6738C40.3291 13.3513 40.3655 13.0179 40.3655 12.6744C40.3655 11.3938 39.845 10.2328 39.0069 9.38977C38.135 8.52007 36.9538 8.03161 35.7222 8.03152Z" fill="#731B55"/>
<path id="Vector_5" d="M27.2003 28.4839H32.1503C32.5411 28.4839 32.8947 28.6451 33.1501 28.8998L33.1553 28.905C33.4214 29.1718 33.5711 29.5332 33.5716 29.91V35.3966C33.5716 36.4688 33.1347 37.4423 32.4263 38.1499C31.7239 38.8583 30.7452 39.2955 29.6727 39.2955C28.6002 39.2955 27.6267 38.8583 26.9191 38.1499C26.2159 37.4423 25.7734 36.4691 25.7734 35.3966V29.91C25.7734 29.5196 25.9351 29.16 26.1953 28.905V28.8998C26.4628 28.6347 26.8237 28.4854 27.2003 28.4839ZM32.0727 29.9831H27.2783V35.3966C27.2777 35.7111 27.3395 36.0226 27.4602 36.313C27.5808 36.6035 27.7578 36.8671 27.9811 37.0886C28.2025 37.3122 28.466 37.4897 28.7563 37.6112C29.0466 37.7326 29.358 37.7955 29.6727 37.7963C29.9882 37.7961 30.3006 37.7335 30.5918 37.612C30.8831 37.4906 31.1474 37.3127 31.3696 37.0886C31.8186 36.6399 32.0714 36.0314 32.0727 35.3966V29.9831Z" fill="#731B55"/>
<path id="Vector_6" d="M29.6715 36.0471C30.0855 36.0471 30.4211 35.7115 30.4211 35.2975C30.4211 34.8835 30.0855 34.5479 29.6715 34.5479C29.2575 34.5479 28.9219 34.8835 28.9219 35.2975C28.9219 35.7115 29.2575 36.0471 29.6715 36.0471Z" fill="#731B55"/>
</g>
</g>
<defs>
<clipPath id="clip0_1717_55292">
<rect width="48" height="48" fill="white" transform="translate(0.398438)"/>
</clipPath>
</defs>
</svg>
