<svg width="49" height="48" viewBox="0 0 49 48" fill="none" xmlns="http://www.w3.org/2000/svg">
<g id="Frame">
<g id="Group">
<path id="Layer 2" d="M25.1484 12.7499C26.0011 12.7553 26.845 12.5776 27.6231 12.2291C28.4013 11.8805 29.0957 11.3691 29.6593 10.7293C30.223 10.0896 30.643 9.33637 30.8908 8.52051C31.1386 7.70465 31.2086 6.84513 31.0959 5.99993H34.8984C35.0974 5.99993 35.2881 5.92091 35.4288 5.78026C35.5694 5.63961 35.6484 5.44884 35.6484 5.24993C35.6484 5.05102 35.5694 4.86025 35.4288 4.7196C35.2881 4.57895 35.0974 4.49993 34.8984 4.49993H30.7067C30.2982 3.49116 29.6229 2.61253 28.7533 1.95818C27.8836 1.30383 26.8523 0.898419 25.7698 0.785376C24.6873 0.672334 23.5945 0.855922 22.6084 1.31647C21.6223 1.77702 20.7801 2.49718 20.172 3.39979C19.5639 4.30239 19.2128 5.35344 19.1563 6.44033C19.0999 7.52721 19.3402 8.60897 19.8516 9.56972C20.3629 10.5305 21.126 11.334 22.0591 11.8942C22.9922 12.4544 24.0601 12.7502 25.1484 12.7499ZM25.1484 2.24993C25.9373 2.25085 26.7121 2.45923 27.3951 2.85414C28.078 3.24906 28.6451 3.81664 29.0394 4.49993H21.2574C21.6518 3.81664 22.2188 3.24906 22.9018 2.85414C23.5847 2.45923 24.3595 2.25085 25.1484 2.24993ZM20.7159 5.99993H29.5809C29.6943 6.64677 29.6646 7.31056 29.4941 7.94473C29.3236 8.5789 29.0164 9.16807 28.594 9.67089C28.1716 10.1737 27.6443 10.578 27.0491 10.8553C26.4538 11.1327 25.8051 11.2764 25.1484 11.2764C24.4918 11.2764 23.843 11.1327 23.2478 10.8553C22.6526 10.578 22.1252 10.1737 21.7028 9.67089C21.2805 9.16807 20.9732 8.5789 20.8027 7.94473C20.6323 7.31056 20.6026 6.64677 20.7159 5.99993ZM13.1484 25.4999H17.6484C17.8473 25.4999 18.0381 25.5789 18.1788 25.7196C18.3194 25.8603 18.3984 26.051 18.3984 26.2499C18.3984 26.4488 18.3194 26.6396 18.1788 26.7803C18.0381 26.9209 17.8473 26.9999 17.6484 26.9999H13.1484C12.9495 26.9999 12.7588 26.9209 12.6181 26.7803C12.4775 26.6396 12.3984 26.4488 12.3984 26.2499C12.3984 26.051 12.4775 25.8603 12.6181 25.7196C12.7588 25.5789 12.9495 25.4999 13.1484 25.4999ZM1.89844 26.9999C1.69953 26.9999 1.50876 26.9209 1.36811 26.7803C1.22746 26.6396 1.14844 26.4488 1.14844 26.2499C1.14844 26.051 1.22746 25.8603 1.36811 25.7196C1.50876 25.5789 1.69953 25.4999 1.89844 25.4999H10.1484C10.3474 25.4999 10.5381 25.5789 10.6788 25.7196C10.8194 25.8603 10.8984 26.051 10.8984 26.2499C10.8984 26.4488 10.8194 26.6396 10.6788 26.7803C10.5381 26.9209 10.3474 26.9999 10.1484 26.9999H1.89844ZM15.3984 22.4999C15.1995 22.4999 15.0088 22.4209 14.8681 22.2803C14.7275 22.1396 14.6484 21.9488 14.6484 21.7499C14.6484 21.551 14.7275 21.3603 14.8681 21.2196C15.0088 21.0789 15.1995 20.9999 15.3984 20.9999H17.6484C17.8473 20.9999 18.0381 21.0789 18.1788 21.2196C18.3194 21.3603 18.3984 21.551 18.3984 21.7499C18.3984 21.9488 18.3194 22.1396 18.1788 22.2803C18.0381 22.4209 17.8473 22.4999 17.6484 22.4999H15.3984ZM1.89844 21.7499C1.89844 21.551 1.97746 21.3603 2.11811 21.2196C2.25876 21.0789 2.44953 20.9999 2.64844 20.9999H12.3984C12.5974 20.9999 12.7881 21.0789 12.9288 21.2196C13.0694 21.3603 13.1484 21.551 13.1484 21.7499C13.1484 21.9488 13.0694 22.1396 12.9288 22.2803C12.7881 22.4209 12.5974 22.4999 12.3984 22.4999H2.64844C2.44953 22.4999 2.25876 22.4209 2.11811 22.2803C1.97746 22.1396 1.89844 21.9488 1.89844 21.7499ZM2.64844 17.2499C2.64844 17.051 2.72746 16.8603 2.86811 16.7196C3.00876 16.5789 3.19953 16.4999 3.39844 16.4999H8.64844C8.84735 16.4999 9.03812 16.5789 9.17877 16.7196C9.31942 16.8603 9.39844 17.051 9.39844 17.2499C9.39844 17.4488 9.31942 17.6396 9.17877 17.7803C9.03812 17.9209 8.84735 17.9999 8.64844 17.9999H3.39844C3.19953 17.9999 3.00876 17.9209 2.86811 17.7803C2.72746 17.6396 2.64844 17.4488 2.64844 17.2499ZM10.8984 29.2499C11.0974 29.2499 11.2881 29.3289 11.4288 29.4696C11.5694 29.6103 11.6484 29.801 11.6484 29.9999C11.6484 30.1988 11.5694 30.3896 11.4288 30.5303C11.2881 30.6709 11.0974 30.7499 10.8984 30.7499H4.14844C3.94953 30.7499 3.75876 30.6709 3.61811 30.5303C3.47746 30.3896 3.39844 30.1988 3.39844 29.9999C3.39844 29.801 3.47746 29.6103 3.61811 29.4696C3.75876 29.3289 3.94953 29.2499 4.14844 29.2499H10.8984ZM45.3984 7.49993H34.8984C34.3019 7.50053 33.7299 7.73777 33.3081 8.1596C32.8863 8.58143 32.649 9.15338 32.6484 9.74993V20.2499C32.6509 20.506 32.6976 20.7597 32.7864 20.9999H32.1294L27.1599 15.5909C26.5704 14.9503 25.7767 14.5341 24.9144 14.4134L21.0759 13.8809C20.1938 13.7551 19.2958 13.9503 18.5456 14.431C17.7953 14.9117 17.2427 15.6459 16.9884 16.4999H11.6484C11.4495 16.4999 11.2588 16.5789 11.1181 16.7196C10.9775 16.8603 10.8984 17.051 10.8984 17.2499C10.8984 17.4488 10.9775 17.6396 11.1181 17.7803C11.2588 17.9209 11.4495 17.9999 11.6484 17.9999H18.3984C18.5973 17.9999 18.7881 17.9209 18.9288 17.7803C19.0694 17.6396 19.1484 17.4488 19.1484 17.2499C19.147 17.085 19.0905 16.9254 18.9879 16.7963C18.8853 16.6672 18.7425 16.5761 18.5822 16.5374C18.7964 16.1304 19.1311 15.7994 19.5406 15.5897C19.95 15.38 20.4142 15.3019 20.8697 15.3659L24.7074 15.8992C25.225 15.9718 25.7014 16.2218 26.0552 16.6064L31.2474 22.2577C31.3177 22.334 31.403 22.395 31.498 22.4367C31.593 22.4784 31.6957 22.4999 31.7994 22.4999H38.2067C38.514 22.5023 38.8085 22.6233 39.0288 22.8375C39.2491 23.0518 39.3782 23.3429 39.3891 23.65C39.4001 23.9571 39.292 24.2566 39.0875 24.486C38.883 24.7154 38.5978 24.8569 38.2914 24.8812L30.5267 25.4362C30.3483 25.4494 30.1692 25.422 30.0029 25.356C29.8366 25.29 29.6875 25.1872 29.5667 25.0552L28.6899 24.1064L23.4579 18.2504C23.3255 18.102 23.1395 18.0124 22.9409 18.0011C22.7423 17.9899 22.5473 18.058 22.3989 18.1904C22.2505 18.3229 22.1609 18.5089 22.1496 18.7075C22.1384 18.9061 22.2065 19.101 22.3389 19.2494L23.4414 20.4839C22.8544 23.0134 22.4136 25.5747 22.1214 28.1549C22.1037 28.2989 22.128 28.445 22.1915 28.5754C22.255 28.7058 22.3549 28.8151 22.4792 28.8899L29.9889 33.4057C30.1218 33.4855 30.237 33.5915 30.3277 33.7172C30.4184 33.8429 30.4826 33.9857 30.5166 34.1369C30.5505 34.2881 30.5534 34.4447 30.5251 34.597C30.4968 34.7494 30.4379 34.8945 30.3519 35.0234L23.9499 44.6264C23.7859 44.8733 23.5326 45.0471 23.2432 45.1112C22.9538 45.1753 22.6509 45.1248 22.3979 44.9703C22.145 44.8158 21.9617 44.5692 21.8867 44.2825C21.8116 43.9957 21.8506 43.6911 21.9954 43.4324L26.3739 35.5784C26.4696 35.4068 26.4941 35.2046 26.4422 35.0151C26.3903 34.8256 26.2662 34.6641 26.0964 34.5652L19.8339 30.9172C19.7446 30.8651 19.6454 30.8321 19.5426 30.8203C19.4399 30.8084 19.3358 30.8179 19.2369 30.8482C19.138 30.8785 19.0465 30.9289 18.968 30.9963C18.8895 31.0636 18.8258 31.1465 18.7809 31.2397L15.2747 38.5004L4.29919 40.1579C4.00692 40.2017 3.70904 40.1311 3.46751 39.9608C3.22598 39.7905 3.0594 39.5337 3.00244 39.2437L2.98744 39.1672C2.92864 38.8739 2.98745 38.5693 3.15118 38.319C3.31491 38.0687 3.57044 37.8928 3.86269 37.8292L12.9324 35.7989C13.0428 35.7743 13.1462 35.725 13.2348 35.6548C13.3233 35.5845 13.3949 35.4951 13.4439 35.3932C13.4439 35.3932 15.3887 31.3657 15.6864 30.7507H16.1484C16.3474 30.7507 16.5381 30.6717 16.6788 30.531C16.8194 30.3904 16.8984 30.1996 16.8984 30.0007C16.8984 29.8018 16.8194 29.611 16.6788 29.4704C16.5381 29.3297 16.3474 29.2507 16.1484 29.2507H13.8984C13.6995 29.2507 13.5088 29.3297 13.3681 29.4704C13.2275 29.611 13.1484 29.8018 13.1484 30.0007C13.1484 30.1996 13.2275 30.3904 13.3681 30.531C13.5088 30.6717 13.6995 30.7507 13.8984 30.7507H14.0484C13.6809 31.4557 13.1319 32.5882 12.2507 34.4144L3.53569 36.3652C2.86111 36.5121 2.27127 36.9182 1.89332 37.4959C1.51536 38.0736 1.37956 38.7768 1.51519 39.4537L1.53019 39.5309C1.66063 40.2009 2.04485 40.7946 2.60261 41.188C3.16037 41.5814 3.84855 41.7441 4.52344 41.6422L15.8904 39.9247C16.011 39.9064 16.1254 39.8591 16.2235 39.7867C16.3217 39.7143 16.4007 39.619 16.4537 39.5092L19.7799 32.6219L24.7059 35.4907L20.6859 42.7019C20.4215 43.1836 20.313 43.7355 20.3755 44.2814C20.438 44.8273 20.6683 45.3404 21.0347 45.7499H16.8984C16.6995 45.7499 16.5088 45.8289 16.3681 45.9696C16.2275 46.1103 16.1484 46.301 16.1484 46.4999C16.1484 46.6988 16.2275 46.8896 16.3681 47.0303C16.5088 47.1709 16.6995 47.2499 16.8984 47.2499H29.6484C29.8473 47.2499 30.0381 47.1709 30.1788 47.0303C30.3194 46.8896 30.3984 46.6988 30.3984 46.4999C30.3984 46.301 30.3194 46.1103 30.1788 45.9696C30.0381 45.8289 29.8473 45.7499 29.6484 45.7499H24.9459C25.0371 45.6591 25.1214 45.5616 25.1979 45.4582L31.5999 35.8559C31.7984 35.558 31.9344 35.223 31.9997 34.8711C32.065 34.5191 32.0583 34.1576 31.9799 33.8083C31.9015 33.4591 31.7531 33.1293 31.5437 32.839C31.3343 32.5488 31.0682 32.304 30.7614 32.1194L23.6702 27.8557C23.9597 25.5787 24.2762 23.6549 24.6474 21.9359L28.4634 26.0729C28.7359 26.3719 29.0731 26.6047 29.4493 26.7534C29.8255 26.9021 30.2307 26.9628 30.6339 26.9309L38.3979 26.3759C39.0761 26.3255 39.7103 26.0211 40.1739 25.5235C40.6374 25.0259 40.8962 24.3717 40.8984 23.6917C40.8957 23.2772 40.7961 22.869 40.6074 22.4999H45.3984C45.995 22.4993 46.5669 22.2621 46.9888 21.8403C47.4106 21.4184 47.6478 20.8465 47.6484 20.2499V9.74993C47.6478 9.15338 47.4106 8.58143 46.9888 8.1596C46.5669 7.73777 45.995 7.50053 45.3984 7.49993ZM38.6484 8.99993H41.6484V12.4394L40.6787 11.4697C40.538 11.3291 40.3473 11.2501 40.1484 11.2501C39.9496 11.2501 39.7588 11.3291 39.6182 11.4697L38.6484 12.4394V8.99993ZM46.1484 20.2499C46.1484 20.4488 46.0694 20.6396 45.9288 20.7803C45.7881 20.9209 45.5974 20.9999 45.3984 20.9999H34.8984C34.6995 20.9999 34.5088 20.9209 34.3681 20.7803C34.2275 20.6396 34.1484 20.4488 34.1484 20.2499V9.74993C34.1484 9.55102 34.2275 9.36025 34.3681 9.2196C34.5088 9.07895 34.6995 8.99993 34.8984 8.99993H37.1484V14.2499C37.1485 14.3982 37.1925 14.5432 37.2749 14.6665C37.3573 14.7898 37.4744 14.8859 37.6114 14.9427C37.7485 14.9994 37.8992 15.0143 38.0447 14.9854C38.1902 14.9564 38.3238 14.885 38.4287 14.7802L40.1484 13.0604L41.8682 14.7802C41.9731 14.885 42.1067 14.9564 42.2522 14.9854C42.3976 15.0143 42.5484 14.9994 42.6854 14.9427C42.8225 14.8859 42.9396 14.7898 43.022 14.6665C43.1044 14.5432 43.1484 14.3982 43.1484 14.2499V8.99993H45.3984C45.5974 8.99993 45.7881 9.07895 45.9288 9.2196C46.0694 9.36025 46.1484 9.55102 46.1484 9.74993V20.2499ZM39.3984 17.2499C39.3984 17.4488 39.3194 17.6396 39.1788 17.7803C39.0381 17.9209 38.8474 17.9999 38.6484 17.9999H35.6484C35.4495 17.9999 35.2588 17.9209 35.1181 17.7803C34.9775 17.6396 34.8984 17.4488 34.8984 17.2499C34.8984 17.051 34.9775 16.8603 35.1181 16.7196C35.2588 16.5789 35.4495 16.4999 35.6484 16.4999H38.6484C38.8474 16.4999 39.0381 16.5789 39.1788 16.7196C39.3194 16.8603 39.3984 17.051 39.3984 17.2499ZM39.3984 19.4999C39.3984 19.6988 39.3194 19.8896 39.1788 20.0303C39.0381 20.1709 38.8474 20.2499 38.6484 20.2499H35.6484C35.4495 20.2499 35.2588 20.1709 35.1181 20.0303C34.9775 19.8896 34.8984 19.6988 34.8984 19.4999C34.8984 19.301 34.9775 19.1103 35.1181 18.9696C35.2588 18.8289 35.4495 18.7499 35.6484 18.7499H38.6484C38.8474 18.7499 39.0381 18.8289 39.1788 18.9696C39.3194 19.1103 39.3984 19.301 39.3984 19.4999Z" fill="#731B55"/>
</g>
</g>
</svg>
