<svg width="49" height="48" viewBox="0 0 49 48" fill="none" xmlns="http://www.w3.org/2000/svg">
<g id="Frame">
<g id="Group">
<path id="Vector" d="M40.6981 23.5866C40.3688 22.7789 39.6713 22.1354 38.7736 21.8181C36.4898 21.0464 34.1116 20.6211 31.6943 20.5079C32.255 19.0526 32.5437 17.5067 32.5463 15.9471C32.5463 8.87389 26.7916 3.11914 19.7183 3.11914C12.6406 3.11914 6.88282 8.87389 6.88282 15.9471C6.87948 18.9388 7.92513 21.8368 9.83782 24.1371V29.8664C9.83735 29.9973 9.87125 30.1261 9.93613 30.2399C10.001 30.3537 10.0946 30.4484 10.2076 30.5147C10.3205 30.5809 10.4489 30.6164 10.5798 30.6175C10.7108 30.6187 10.8397 30.5854 10.9538 30.5211L15.4013 28.0311C16.2976 28.3551 17.2253 28.5644 18.1711 28.6791C17.6708 32.1314 18.1223 35.5349 19.5713 39.0569C19.9141 39.8759 20.6341 40.5179 21.5521 40.8216C24.4103 41.7449 27.3008 42.2129 30.1441 42.2129H30.4553L35.0506 44.7861C35.1647 44.8504 35.2936 44.8837 35.4246 44.8825C35.5555 44.8814 35.6839 44.8459 35.7968 44.7797C35.9098 44.7134 36.0034 44.6187 36.0683 44.5049C36.1331 44.3911 36.167 44.2624 36.1666 44.1314V41.5251C37.0372 41.327 37.8979 41.0877 38.7458 40.8081C39.6563 40.5201 40.3756 39.8744 40.7176 39.0389C42.8678 33.8414 42.8611 28.7856 40.6981 23.5866ZM15.0406 26.5161C15.0023 26.5326 14.9656 26.5529 14.9311 26.5746L11.3386 28.5861V23.8206C11.3387 23.6983 11.3088 23.5778 11.2515 23.4696C11.1943 23.3615 11.1114 23.2691 11.0101 23.2004C9.3101 21.166 8.38028 18.5983 8.38357 15.9471C8.38357 9.70114 13.4686 4.61914 19.7191 4.61914C25.9658 4.61914 31.0471 9.70039 31.0471 15.9471C31.0471 22.1976 25.9658 27.2826 19.7191 27.2826C18.3377 27.2855 16.9679 27.0312 15.6796 26.5326C15.5805 26.4842 15.4721 26.4576 15.3619 26.4548C15.2516 26.4519 15.142 26.4728 15.0406 26.5161ZM39.3316 38.4674C39.1576 38.8919 38.7796 39.2241 38.2846 39.3809C37.2944 39.7072 36.2863 39.9759 35.2651 40.1856C35.0962 40.2207 34.9446 40.3128 34.8357 40.4465C34.7268 40.5803 34.6674 40.7474 34.6673 40.9199V42.8504L31.0178 40.8066C30.9059 40.7442 30.7799 40.7115 30.6518 40.7114H30.1456C27.4591 40.7114 24.7238 40.2674 22.0201 39.3944C21.5198 39.2286 21.1321 38.8941 20.9588 38.4794C19.6013 35.1794 19.1873 31.9986 19.6741 28.7796C19.6898 28.7796 19.7048 28.7819 19.7206 28.7819C24.6158 28.7819 28.8758 26.0219 31.0373 21.9779C33.5183 22.0349 35.9588 22.4489 38.2861 23.2349C38.7698 23.4066 39.1441 23.7411 39.3136 24.1566C41.3153 28.9746 41.3221 33.6546 39.3316 38.4674Z" fill="#731B55"/>
<path id="Vector_2" d="M22.7185 12.284C22.7261 12.824 22.5881 13.3561 22.319 13.8244C22.0499 14.2926 21.6596 14.6797 21.1892 14.945C20.5135 15.3283 19.9515 15.8841 19.5607 16.5555C19.1699 17.227 18.9643 17.9901 18.9647 18.767V20.2572C18.9647 20.4561 19.0437 20.6469 19.1844 20.7876C19.325 20.9282 19.5158 21.0072 19.7147 21.0072C19.9136 21.0072 20.1044 20.9282 20.245 20.7876C20.3857 20.6469 20.4647 20.4561 20.4647 20.2572V18.767C20.4647 17.7245 21.025 16.7607 21.9265 16.2515C22.6313 15.8538 23.2161 15.2736 23.6194 14.5719C24.0227 13.8703 24.2296 13.073 24.2185 12.2637C24.1847 9.84873 22.1927 7.85748 19.7785 7.82373C18.5687 7.83048 17.4167 8.26773 16.552 9.12048C16.1258 9.53838 15.7876 10.0374 15.5573 10.588C15.327 11.1387 15.2092 11.7299 15.211 12.3267C15.211 12.5256 15.29 12.7164 15.4306 12.8571C15.5713 12.9977 15.762 13.0767 15.961 13.0767C16.1599 13.0767 16.3506 12.9977 16.4913 12.8571C16.6319 12.7164 16.711 12.5256 16.711 12.3267C16.711 11.5167 17.0282 10.757 17.605 10.1877C18.1817 9.61923 18.9407 9.32823 19.7575 9.32298C21.3407 9.34548 22.6967 10.7015 22.7185 12.284ZM20.8915 23.4065C20.8953 23.2613 20.87 23.1169 20.8171 22.9816C20.7641 22.8464 20.6847 22.7231 20.5833 22.6191C20.482 22.5151 20.3609 22.4324 20.2271 22.376C20.0933 22.3195 19.9495 22.2904 19.8043 22.2904C19.6591 22.2904 19.5154 22.3195 19.3816 22.376C19.2478 22.4324 19.1266 22.5151 19.0253 22.6191C18.924 22.7231 18.8445 22.8464 18.7916 22.9816C18.7387 23.1169 18.7134 23.2613 18.7172 23.4065C18.7246 23.6899 18.8425 23.9591 19.0455 24.1569C19.2486 24.3547 19.5209 24.4654 19.8043 24.4654C20.0878 24.4654 20.3601 24.3547 20.5631 24.1569C20.7662 23.9591 20.884 23.6899 20.8915 23.4065ZM36.5777 27.5802H28.06C27.861 27.5802 27.6703 27.6593 27.5296 27.7999C27.389 27.9406 27.31 28.1313 27.31 28.3302C27.31 28.5291 27.389 28.7199 27.5296 28.8606C27.6703 29.0012 27.861 29.0802 28.06 29.0802H36.5777C36.7766 29.0802 36.9674 29.0012 37.108 28.8606C37.2487 28.7199 37.3277 28.5291 37.3277 28.3302C37.3277 28.1313 37.2487 27.9406 37.108 27.7999C36.9674 27.6593 36.7766 27.5802 36.5777 27.5802ZM36.5777 31.1697H23.2615C23.0625 31.1697 22.8718 31.2487 22.7311 31.3894C22.5905 31.5301 22.5115 31.7208 22.5115 31.9197C22.5115 32.1186 22.5905 32.3094 22.7311 32.4501C22.8718 32.5907 23.0625 32.6697 23.2615 32.6697H36.5777C36.7766 32.6697 36.9674 32.5907 37.108 32.4501C37.2487 32.3094 37.3277 32.1186 37.3277 31.9197C37.3277 31.7208 37.2487 31.5301 37.108 31.3894C36.9674 31.2487 36.7766 31.1697 36.5777 31.1697ZM36.5777 34.7592H23.2615C23.0625 34.7592 22.8718 34.8382 22.7311 34.9789C22.5905 35.1196 22.5115 35.3103 22.5115 35.5092C22.5115 35.7081 22.5905 35.8989 22.7311 36.0396C22.8718 36.1802 23.0625 36.2592 23.2615 36.2592H36.5777C36.7766 36.2592 36.9674 36.1802 37.108 36.0396C37.2487 35.8989 37.3277 35.7081 37.3277 35.5092C37.3277 35.3103 37.2487 35.1196 37.108 34.9789C36.9674 34.8382 36.7766 34.7592 36.5777 34.7592Z" fill="#731B55"/>
</g>
</g>
</svg>
