<svg width="48" height="48" viewBox="0 0 48 48" fill="none" xmlns="http://www.w3.org/2000/svg">
<g id="Frame" clip-path="url(#clip0_1716_55270)">
<g id="Group">
<path id="Vector" d="M41.7868 34.7881C42.5461 33.9117 42.964 32.7909 42.9637 31.6313C42.9637 28.9713 40.7998 26.8071 38.14 26.8071C37.4481 26.807 36.7643 26.9559 36.135 27.2435C35.5057 27.5312 34.9457 27.9509 34.4931 28.4742C33.734 29.3508 33.3162 30.4717 33.3164 31.6313C33.3164 34.2911 35.4802 36.4549 38.14 36.4549C38.8319 36.4551 39.5157 36.3063 40.1449 36.0186C40.7742 35.731 41.3342 35.3113 41.7868 34.7881ZM34.7238 31.6313C34.7236 30.8101 35.0194 30.0163 35.557 29.3955C35.8776 29.0248 36.2742 28.7275 36.7199 28.5237C37.1656 28.3199 37.65 28.2145 38.14 28.2145C40.0238 28.2145 41.5564 29.7473 41.5564 31.6314C41.5567 32.4525 41.2608 33.2462 40.7231 33.8668C40.4025 34.2375 40.0059 34.5348 39.5602 34.7386C39.1145 34.9424 38.6301 35.0478 38.14 35.0478C36.2563 35.0476 34.7238 33.515 34.7238 31.6313Z" fill="#731B55"/>
<path id="Vector_2" d="M44.6383 25.182C42.9559 23.4861 40.7259 22.5213 38.3592 22.4656C35.8662 22.4069 33.5137 23.3325 31.7328 25.0719C29.9515 26.8118 28.9704 29.1412 28.9704 31.6311C28.9704 32.8221 29.1973 33.9837 29.645 35.0834C29.7171 35.2537 29.8533 35.3888 30.0242 35.4595C30.1952 35.5302 30.387 35.5307 30.5584 35.4609C30.7297 35.3912 30.8666 35.2568 30.9396 35.0869C31.0126 34.917 31.0158 34.7251 30.9484 34.5529C30.5697 33.6225 30.3778 32.6394 30.3778 31.6311C30.3778 29.5235 31.2082 27.5516 32.7162 26.0787C34.2237 24.6064 36.2167 23.822 38.326 23.8726C40.3273 23.9196 42.2143 24.7368 43.6393 26.1732C45.0642 27.6096 45.8663 29.5032 45.8981 31.5051C45.9253 33.232 45.3972 34.8746 44.3657 36.2623L40.5393 41.5385C39.8529 42.4826 39.3716 43.5599 39.1265 44.7011L38.8401 46.0265C38.7691 46.3546 38.4741 46.5925 38.1385 46.5925C37.8028 46.5925 37.5078 46.3544 37.4369 46.0264L37.1504 44.7011C36.9053 43.5598 36.424 42.4825 35.7374 41.5384L32.4314 36.9798C32.3216 36.8294 32.1566 36.7287 31.9727 36.6997C31.7887 36.6707 31.6008 36.7158 31.45 36.8252C31.2993 36.9345 31.198 37.0992 31.1684 37.283C31.1388 37.4669 31.1833 37.655 31.2922 37.8061L34.5982 42.3646C35.1699 43.1508 35.5708 44.048 35.7748 44.9985L36.0613 46.3237C36.2711 47.2951 37.1446 47.9999 38.1383 47.9999C39.1319 47.9999 40.0055 47.2949 40.2153 46.3237L40.5018 44.9984C40.7059 44.048 41.1067 43.1508 41.6784 42.3646L45.4998 37.0951C46.7131 35.463 47.3372 33.5223 47.305 31.4827C47.2677 29.1154 46.3206 26.8777 44.6383 25.182ZM8.17034 11.5251C8.74439 11.5252 9.31172 11.4018 9.83382 11.1632C10.3559 10.9246 10.8205 10.5764 11.1961 10.1422C11.8262 9.41501 12.1729 8.48498 12.1727 7.52277C12.1738 6.94328 12.0479 6.37058 11.804 5.84493C11.7652 5.76105 11.7103 5.68564 11.6424 5.62299C11.5745 5.56034 11.4949 5.51169 11.4082 5.4798C11.3214 5.44791 11.2293 5.43342 11.1369 5.43714C11.0446 5.44087 10.9539 5.46274 10.8701 5.50152C10.7862 5.54029 10.7108 5.59521 10.6481 5.66313C10.5855 5.73105 10.5368 5.81064 10.5049 5.89737C10.473 5.98409 10.4586 6.07625 10.4623 6.16857C10.466 6.2609 10.4879 6.35159 10.5267 6.43546C10.6846 6.77614 10.7661 7.14725 10.7654 7.52277C10.7656 8.14647 10.5409 8.74933 10.1324 9.22068C9.88893 9.50227 9.58766 9.72814 9.2491 9.88296C8.91054 10.0378 8.54262 10.1179 8.17034 10.1179C6.73944 10.1179 5.57534 8.95377 5.57534 7.52286C5.5752 6.89903 5.79994 6.29605 6.20834 5.82449C6.45185 5.5429 6.75312 5.31702 7.09168 5.16221C7.43024 5.0074 7.79816 4.92728 8.17044 4.9273C8.30338 4.9273 8.43678 4.93743 8.56709 4.9573C8.65844 4.97132 8.75165 4.96719 8.8414 4.94517C8.93115 4.92314 9.01568 4.88364 9.09015 4.82893C9.16463 4.77422 9.22759 4.70536 9.27544 4.6263C9.32329 4.54725 9.3551 4.45953 9.36903 4.36818C9.38301 4.27684 9.37886 4.18364 9.35682 4.0939C9.33477 4.00417 9.29527 3.91966 9.24057 3.84519C9.18586 3.77072 9.11702 3.70776 9.03798 3.6599C8.95894 3.61203 8.87125 3.58021 8.77991 3.56624C8.57818 3.53548 8.37441 3.52003 8.17034 3.52002C7.59625 3.51993 7.02886 3.64341 6.50673 3.88208C5.9846 4.12075 5.51996 4.46901 5.14438 4.90321C4.51451 5.63062 4.16786 6.56065 4.16797 7.52286C4.16806 9.72964 5.96347 11.5251 8.17034 11.5251Z" fill="#731B55"/>
<path id="Vector_3" d="M5.22422 16.1992C5.67056 16.8129 5.98347 17.5133 6.14278 18.2552L6.37209 19.3165C6.55397 20.1582 7.311 20.7691 8.17228 20.7691C9.03356 20.7691 9.79059 20.1581 9.97247 19.3165L10.2018 18.2553C10.3611 17.5133 10.674 16.813 11.1203 16.1993L14.1791 11.9815C15.1691 10.6498 15.6785 9.0662 15.6521 7.40195C15.6216 5.47014 14.8489 3.64417 13.4763 2.26061C12.1034 0.876858 10.2838 0.089733 8.35238 0.0441705C6.31838 -0.00411073 4.39875 0.751608 2.94553 2.17089C1.49203 3.59055 0.691406 5.49123 0.691406 7.5228C0.691406 9.14261 1.20113 10.6844 2.16056 11.9748L5.22422 16.1992ZM3.92887 3.17758C5.07338 2.0597 6.57469 1.4493 8.17125 1.4493C8.22028 1.4493 8.26988 1.44986 8.31909 1.45108C9.88509 1.48792 11.3617 2.12739 12.477 3.25164C13.5922 4.37589 14.2201 5.85761 14.2448 7.42417C14.2662 8.77567 13.8529 10.0612 13.0448 11.1485L9.98109 15.3729C9.42002 16.1445 9.02665 17.025 8.82628 17.9578L8.59697 19.019C8.55403 19.2176 8.37544 19.3617 8.17238 19.3617C7.96931 19.3617 7.79062 19.2176 7.74778 19.0191L7.51847 17.9579C7.31811 17.0251 6.92471 16.1446 6.36356 15.373L3.29503 11.1418C2.51259 10.0893 2.09897 8.83783 2.09897 7.5228C2.09869 5.87345 2.74875 4.33023 3.92887 3.17758ZM40.4405 8.05923C40.3173 8.19743 40.2535 8.37861 40.263 8.56351C40.2725 8.7484 40.3544 8.92211 40.4911 9.04699C40.6278 9.17187 40.8082 9.23785 40.9932 9.23063C41.1782 9.22342 41.3529 9.14359 41.4794 9.00845L41.4916 8.99533C41.5086 8.97705 41.5254 8.95867 41.5409 8.94067C42.0745 8.32486 42.3682 7.53729 42.368 6.72245C42.368 4.85345 40.8475 3.33283 38.9787 3.33283C38.496 3.33293 38.0188 3.43617 37.5792 3.63562C37.1395 3.83507 36.7476 4.12613 36.4296 4.48933C36.3677 4.55868 36.3201 4.63961 36.2897 4.72744C36.2593 4.81528 36.2465 4.90826 36.2523 5.00104C36.258 5.09382 36.282 5.18455 36.323 5.26798C36.3639 5.35142 36.421 5.42592 36.491 5.48716C36.5609 5.54841 36.6422 5.5952 36.7303 5.62482C36.8185 5.65445 36.9116 5.66632 37.0043 5.65976C37.097 5.6532 37.1875 5.62833 37.2706 5.5866C37.3536 5.54487 37.4276 5.48709 37.4882 5.41661C37.6741 5.20419 37.9033 5.03394 38.1604 4.91725C38.4175 4.80057 38.6965 4.74014 38.9788 4.74001C40.0717 4.74001 40.9608 5.62933 40.9608 6.72236C40.9608 7.19908 40.7892 7.65939 40.4769 8.01967L40.4405 8.05923Z" fill="#731B55"/>
<path id="Vector_4" d="M33.6776 3.78729C33.8291 3.89617 34.0177 3.94037 34.2019 3.91018C34.3861 3.88 34.5507 3.77789 34.6596 3.62632C35.6867 2.19635 37.3496 1.36573 39.1069 1.40876C40.4772 1.44101 41.7694 2.0007 42.7455 2.98451C43.7216 3.96842 44.271 5.26517 44.2927 6.63588C44.3113 7.81854 43.9497 8.94363 43.2418 9.89604L42.5144 10.8991C42.4073 11.0502 42.3641 11.2376 42.3942 11.4204C42.4243 11.6032 42.5253 11.7668 42.6753 11.8756C42.8253 11.9843 43.0122 12.0296 43.1953 12.0014C43.3785 11.9733 43.5431 11.874 43.6535 11.7252L44.376 10.7288C45.2656 9.5321 45.7234 8.10907 45.6997 6.61357C45.6723 4.87751 44.9778 3.2366 43.7445 1.99339C42.511 0.750072 40.8758 0.0427287 39.14 0.00185366C38.0453 -0.0238495 36.9608 0.218088 35.9808 0.706654C35.0008 1.19522 34.1549 1.91564 33.5166 2.80535C33.4545 2.89189 33.2699 3.3327 33.5657 3.68698C33.5987 3.72354 33.6358 3.75738 33.6776 3.78729ZM32.5269 42.1372C32.5277 42.0374 32.5072 41.9385 32.4667 41.8473C32.4263 41.756 32.3668 41.6744 32.2922 41.608C32.2233 41.5465 32.1428 41.4992 32.0556 41.4688C31.9683 41.4383 31.8759 41.4254 31.7837 41.4307C31.6914 41.436 31.6011 41.4594 31.5179 41.4996C31.4347 41.5398 31.3602 41.5959 31.2987 41.6649C30.8518 42.1661 30.386 42.6255 29.9126 43.0329C28.921 43.3757 27.9035 43.6385 26.8699 43.8187C27.6546 42.1302 28.3277 39.8085 28.8419 36.9973C28.8586 36.9064 28.8571 36.8131 28.8377 36.7228C28.8183 36.6325 28.7813 36.5468 28.7287 36.4708C28.6762 36.3948 28.6093 36.3298 28.5317 36.2797C28.4541 36.2296 28.3673 36.1952 28.2764 36.1786C28.1855 36.1619 28.0923 36.1634 28.0019 36.1828C27.9116 36.2022 27.826 36.2393 27.75 36.2918C27.6739 36.3443 27.609 36.4112 27.5589 36.4889C27.5087 36.5665 27.4743 36.6532 27.4577 36.7441C26.8782 39.9124 26.0724 42.4817 25.1736 44.0405C24.5862 44.0917 23.9939 44.1186 23.3967 44.1186C22.7974 44.1186 22.2047 44.0906 21.6187 44.0386C20.5821 42.2451 19.726 39.2454 19.1432 35.5758C20.5582 35.6903 21.9772 35.7476 23.3967 35.7473C24.7288 35.7473 26.0737 35.6969 27.3938 35.5974C27.5799 35.5834 27.7528 35.496 27.8744 35.3545C27.9961 35.213 28.0566 35.029 28.0426 34.8429C28.0134 34.4554 27.6748 34.1656 27.2881 34.1941C25.9933 34.2913 24.6952 34.34 23.3967 34.34C21.8838 34.34 20.3909 34.2735 18.9346 34.1465C18.5548 31.3039 18.332 28.1302 18.3041 24.8443H29.7149C29.9016 24.8443 30.0805 24.7702 30.2125 24.6382C30.3445 24.5062 30.4186 24.3272 30.4186 24.1406C30.4186 23.8151 30.1973 23.542 29.8972 23.4617C29.8717 20.2125 29.6638 17.0972 29.3032 14.2825C31.6517 14.5579 33.8842 14.9952 35.9237 15.5762C36.3567 17.1366 36.673 18.7744 36.8577 20.4441C36.8801 20.6281 36.9741 20.7959 37.1194 20.911C37.2647 21.0261 37.4495 21.0792 37.6338 21.0588C37.818 21.0384 37.9867 20.9461 38.1033 20.802C38.2199 20.658 38.275 20.4737 38.2565 20.2893C38.0995 18.8677 37.8492 17.458 37.5073 16.0693C39.4195 16.7188 41.1211 17.5041 42.5384 18.4076C42.8944 19.5973 43.1381 20.8177 43.2664 22.0528C43.2759 22.1447 43.3035 22.2338 43.3475 22.3151C43.3915 22.3964 43.451 22.4682 43.5228 22.5264C43.5945 22.5847 43.677 22.6282 43.7656 22.6545C43.8542 22.6809 43.9471 22.6895 44.039 22.68C44.2246 22.6607 44.395 22.5685 44.5126 22.4236C44.6302 22.2788 44.6855 22.0931 44.6663 21.9075C44.1234 16.6775 41.6702 11.8434 37.759 8.29582C33.8198 4.72301 28.7192 2.75529 23.3968 2.75529C21.2255 2.75529 19.0828 3.07985 17.0285 3.71988C16.8503 3.77539 16.7015 3.89941 16.6147 4.06466C16.528 4.22991 16.5104 4.42285 16.5659 4.60104C16.6214 4.77923 16.7455 4.92807 16.9107 5.01482C17.076 5.10156 17.2689 5.11911 17.4471 5.0636C18.259 4.8109 19.0863 4.61068 19.924 4.46417C18.991 6.47454 18.2214 9.36992 17.691 12.8433C16.8896 12.9311 16.0962 13.0354 15.3157 13.1605C15.1329 13.1917 14.9699 13.2938 14.8619 13.4445C14.754 13.5952 14.7099 13.7825 14.7393 13.9655C14.7686 14.1486 14.869 14.3127 15.0187 14.4221C15.1683 14.5316 15.3551 14.5776 15.5384 14.5501C16.1867 14.4464 16.837 14.3564 17.4891 14.2804C17.3734 15.1865 17.2759 16.0949 17.1966 17.005C17.1881 17.1023 17.1999 17.2003 17.2313 17.2927C17.2627 17.3852 17.313 17.4701 17.379 17.5421C17.445 17.6141 17.5252 17.6715 17.6146 17.7107C17.7041 17.75 17.8007 17.7702 17.8983 17.7701C18.0742 17.7699 18.2436 17.7038 18.3731 17.585C18.5027 17.4661 18.5831 17.303 18.5984 17.1278C18.6858 16.1279 18.7961 15.1302 18.9293 14.1354C21.9002 13.8768 24.888 13.8765 27.859 14.1348C28.2387 16.9774 28.4616 20.151 28.4895 23.4369H18.3051C18.3144 22.3161 18.3446 21.1964 18.3977 20.099C18.4022 20.0067 18.3885 19.9145 18.3573 19.8275C18.3261 19.7405 18.2781 19.6605 18.216 19.5921C18.1539 19.5237 18.0789 19.4681 17.9954 19.4287C17.9118 19.3892 17.8213 19.3666 17.729 19.3622C17.3392 19.3444 17.0109 19.6429 16.9921 20.0309C16.938 21.1655 16.9065 22.301 16.8979 23.4368H9.74113C9.74572 23.2325 9.752 23.0231 9.76053 22.8045C9.76781 22.618 9.70073 22.4363 9.57404 22.2993C9.44736 22.1622 9.27144 22.0811 9.08497 22.0738C8.69844 22.0571 8.36947 22.3609 8.35428 22.7494C8.34527 22.9784 8.33827 23.2075 8.33328 23.4367H3.43175C3.49653 21.5748 3.81744 19.7408 4.38978 17.9754C4.44514 17.7985 4.42844 17.6069 4.34331 17.4422C4.25818 17.2775 4.1115 17.153 3.93515 17.0959C3.75879 17.0387 3.567 17.0535 3.40145 17.1369C3.23591 17.2204 3.10998 17.3658 3.05103 17.5415C2.36141 19.6694 2.01172 21.8895 2.01172 24.1404C2.01172 29.8526 4.23613 35.2229 8.27525 39.2621C12.3145 43.3012 17.6847 45.5256 23.3969 45.5256C26.6236 45.5256 29.7255 44.8242 32.6163 43.4409C32.7846 43.3604 32.9141 43.2163 32.9762 43.0403C33.0382 42.8643 33.0279 42.6709 32.9473 42.5026C32.9059 42.4162 32.8472 42.3392 32.7749 42.2764C32.7026 42.2136 32.6182 42.1662 32.5269 42.1372ZM29.1017 12.8451C28.5766 9.40338 27.8127 6.49582 26.871 4.46698C27.9062 4.64902 28.9254 4.91268 29.9189 5.25551C31.674 6.76788 33.2268 8.90426 34.4138 11.4456C34.7918 12.255 35.1326 13.1069 35.4344 13.9909C33.4553 13.4775 31.3247 13.0905 29.1017 12.8451ZM41.8036 16.3641C40.397 15.63 38.8012 14.988 37.0607 14.4507C36.6756 13.1897 36.2171 11.981 35.6889 10.8501C34.9822 9.3371 34.1492 7.95598 33.222 6.74445C34.5116 7.47342 35.716 8.34348 36.8133 9.3386C38.9901 11.3129 40.6831 13.7134 41.8036 16.3641ZM23.3967 12.5342C21.9603 12.5342 20.538 12.5921 19.1395 12.7047C19.7308 9.00879 20.6017 6.00617 21.6203 4.2416C22.2092 4.18976 22.8017 4.16285 23.3967 4.16285C23.9928 4.16285 24.5858 4.18995 25.1744 4.24226C26.2112 6.03579 27.0675 9.03598 27.6504 12.7063C26.2354 12.5916 24.8164 12.5342 23.3967 12.5342ZM19.9229 43.8158C18.8866 43.6332 17.8665 43.3684 16.8723 43.0237C14.4873 40.969 12.5935 37.912 11.3572 34.2914C13.3367 34.8049 15.4685 35.1912 17.6918 35.4365C18.217 38.8789 18.9811 41.7868 19.9229 43.8158ZM17.4903 33.999C15.1404 33.7235 12.9068 33.2858 10.8663 32.7044C10.1883 30.2551 9.79747 27.5953 9.74037 24.8445H16.8966C16.923 28.0848 17.1307 31.1915 17.4903 33.999ZM3.43259 24.8445H8.33309C8.38437 27.3997 8.71391 29.885 9.28822 32.2129C7.37712 31.5639 5.67631 30.7791 4.25919 29.8765C3.76891 28.2416 3.49109 26.5503 3.43259 24.8445ZM4.99625 31.9211C6.40175 32.654 7.99709 33.2944 9.73559 33.8308C10.632 36.7623 11.9305 39.3901 13.5561 41.5215C9.75012 39.3583 6.71975 35.9819 4.99625 31.9211Z" fill="#731B55"/>
</g>
</g>
<defs>
<clipPath id="clip0_1716_55270">
<rect width="48" height="48" fill="white"/>
</clipPath>
</defs>
</svg>
