<svg width="49" height="48" viewBox="0 0 49 48" fill="none" xmlns="http://www.w3.org/2000/svg">
<g id="Frame">
<g id="Group">
<path id="Vector" d="M45.9368 12.8286L24.9368 2.32861C24.8327 2.27659 24.7179 2.24951 24.6016 2.24951C24.4852 2.24951 24.3704 2.27659 24.2663 2.32861L3.26632 12.8286C3.14165 12.8909 3.0368 12.9867 2.96354 13.1053C2.89028 13.2239 2.85151 13.3605 2.85157 13.4999V34.4999C2.85081 34.6399 2.88925 34.7773 2.96255 34.8966C3.03585 35.0159 3.14108 35.1123 3.26632 35.1749L24.2663 45.6749C24.3704 45.7269 24.4852 45.754 24.6016 45.754C24.7179 45.754 24.8327 45.7269 24.9368 45.6749L45.9368 35.1749C46.0621 35.1123 46.1673 35.0159 46.2406 34.8966C46.3139 34.7773 46.3523 34.6399 46.3516 34.4999V13.4999C46.3516 13.3605 46.3129 13.2239 46.2396 13.1053C46.1663 12.9867 46.0615 12.8909 45.9368 12.8286ZM24.6016 23.1614L18.7388 20.2296L37.4783 10.2749L43.9283 13.4999L24.6016 23.1614ZM12.7388 17.2296L31.4783 7.27486L35.8283 9.44986L17.0911 19.4061L12.7388 17.2296ZM11.8516 18.4634L16.3516 20.7134V26.6894L14.6318 24.9696C14.4912 24.8289 14.3005 24.7499 14.1016 24.7499H11.8516V18.4634ZM24.6016 3.83836L29.8306 6.44986L11.0911 16.4061L5.27857 13.4999L24.6016 3.83836ZM4.35157 14.7134L10.3516 17.7134V25.4999C10.3516 25.6988 10.4306 25.8895 10.5712 26.0302C10.7119 26.1708 10.9027 26.2499 11.1016 26.2499H13.7911L16.5713 29.0301C16.6762 29.135 16.8098 29.2064 16.9553 29.2353C17.1008 29.2642 17.2515 29.2494 17.3886 29.1926C17.5256 29.1359 17.6427 29.0398 17.7251 28.9165C17.8075 28.7931 17.8515 28.6482 17.8516 28.4999V21.4634L23.8516 24.4634V43.7864L4.35157 34.0364V14.7134ZM25.3516 43.7864V24.4634L44.8516 14.7134V34.0364L25.3516 43.7864Z" fill="#731B55"/>
</g>
</g>
</svg>
