<svg width="49" height="48" viewBox="0 0 49 48" fill="none" xmlns="http://www.w3.org/2000/svg">
<g id="Frame" clip-path="url(#clip0_1716_55180)">
<g id="Group">
<path id="Vector" d="M30.1601 24.0919C30.1601 22.6604 29.6027 21.315 28.5905 20.3028C26.5013 18.2135 23.1017 18.2135 21.0125 20.3028C18.9229 22.392 18.9229 25.7915 21.0125 27.8808C22.0569 28.9256 23.4292 29.4478 24.8013 29.4478C26.1738 29.4478 27.5461 28.9256 28.5905 27.8808C29.6027 26.869 30.1601 25.5231 30.1601 24.0919ZM22.0068 26.8861C21.2605 26.1399 20.8492 25.1474 20.8492 24.0916C20.8492 23.0362 21.2605 22.0438 22.0068 21.297C22.7773 20.5265 23.7891 20.1413 24.8013 20.1413C25.8135 20.1413 26.8258 20.5269 27.5959 21.297C28.3426 22.0438 28.7535 23.0361 28.7535 24.0916C28.7535 25.1474 28.3426 26.1398 27.5959 26.8861C26.0549 28.4276 23.5478 28.4276 22.0068 26.8861Z" fill="#731B55"/>
<path id="Vector_2" d="M48.2933 8.16802C47.6773 6.74677 46.5552 5.18161 45.1339 3.76027C43.713 2.33939 42.1475 1.2173 40.7266 0.601361C39.1303 -0.0907948 37.8379 -0.0736386 37.0766 0.64383C37.066 0.652598 37.0557 0.66176 37.0458 0.671299C37.0425 0.67458 37.0385 0.67758 37.0352 0.680861C37.0305 0.685924 37.0264 0.691455 37.0213 0.696236C37.0166 0.701674 37.011 0.706549 37.0063 0.711986L36.9195 0.810143C36.9136 0.81708 36.9071 0.823268 36.9012 0.83058L32.5414 5.75058C32.4802 5.81969 32.4331 5.90018 32.403 5.98747C32.3729 6.07476 32.3602 6.16712 32.3658 6.2593C32.3714 6.35147 32.3951 6.44164 32.4355 6.52465C32.476 6.60767 32.5324 6.6819 32.6015 6.74311C32.7298 6.85721 32.8956 6.92014 33.0673 6.91992C33.1669 6.92014 33.2653 6.89916 33.3561 6.85837C33.4469 6.81759 33.528 6.75794 33.5939 6.68339L36.5878 3.30474C36.6658 3.61599 36.7767 3.94411 36.9206 4.28658C36.9217 4.28939 36.9224 4.29239 36.9239 4.2953C36.9257 4.30008 36.9279 4.30449 36.9298 4.30927C36.9389 4.33046 36.9466 4.35099 36.9557 4.37227C36.9818 4.43189 37.0096 4.49199 37.0371 4.55208C37.0408 4.55939 37.0437 4.56671 37.0473 4.57402C37.0903 4.66702 37.1347 4.75931 37.1806 4.85086C37.2207 4.93089 37.2618 5.01036 37.304 5.08927C37.3117 5.10361 37.3186 5.11739 37.3263 5.13174C37.3666 5.20646 37.4083 5.28192 37.4513 5.35702C37.4623 5.37642 37.4725 5.39546 37.4838 5.41486C37.5238 5.48442 37.5651 5.55399 37.6073 5.62392C37.6223 5.64886 37.6369 5.67408 37.6523 5.69939C37.6911 5.76314 37.7314 5.82689 37.7716 5.89055C37.7918 5.92205 37.8112 5.95355 37.8314 5.98505C37.8688 6.04252 37.9072 6.10036 37.9456 6.15792C37.9706 6.19561 37.995 6.2333 38.0206 6.27071C38.0563 6.32264 38.0924 6.37477 38.1287 6.42633C38.1591 6.46945 38.1887 6.51277 38.2196 6.55599C38.2528 6.60286 38.2876 6.64974 38.3221 6.69661C38.3568 6.74452 38.3913 6.79224 38.4271 6.84005C38.4598 6.88336 38.4931 6.92658 38.526 6.96942C38.5652 7.0207 38.6037 7.07199 38.6436 7.12289C38.6758 7.16386 38.7089 7.20492 38.7418 7.24552C38.7839 7.29867 38.8252 7.35145 38.8685 7.40414C38.9023 7.44511 38.9369 7.48617 38.971 7.52714C39.0142 7.57917 39.057 7.63121 39.1014 7.68314C39.1398 7.72814 39.1798 7.77324 39.2189 7.81833C39.2599 7.86549 39.3006 7.91274 39.3423 7.95999C39.3911 8.01492 39.4408 8.06911 39.4906 8.12405C39.524 8.16108 39.5569 8.19811 39.5909 8.23467C39.6643 8.31417 39.739 8.39283 39.8144 8.47158C39.8257 8.4833 39.8364 8.49539 39.8477 8.5072C39.9357 8.5987 40.0246 8.68955 40.1151 8.77955C40.2051 8.87002 40.296 8.95861 40.3872 9.04655C40.4014 9.06014 40.4158 9.07327 40.43 9.08686C40.5061 9.15971 40.5827 9.23217 40.6597 9.30324C40.6974 9.33802 40.7351 9.37167 40.7728 9.4058C40.8266 9.45492 40.8805 9.50424 40.9347 9.55233C40.9823 9.59442 41.0303 9.63539 41.0782 9.67721C41.1225 9.71602 41.1668 9.75521 41.2115 9.79327C41.2631 9.83686 41.3147 9.87933 41.366 9.92217C41.4078 9.95695 41.4492 9.99211 41.4909 10.0262C41.5425 10.0683 41.5942 10.1089 41.6459 10.1504C41.6879 10.184 41.73 10.218 41.7721 10.2514C41.822 10.2902 41.8718 10.3279 41.9216 10.366C41.9659 10.4001 42.0106 10.4344 42.0549 10.4678C42.1014 10.5026 42.1479 10.536 42.194 10.57C42.2428 10.6051 42.2911 10.641 42.3394 10.6758C42.3809 10.7055 42.4222 10.7337 42.4635 10.7626C42.5174 10.8003 42.5713 10.838 42.6248 10.8747C42.6602 10.8989 42.6958 10.9219 42.7317 10.9457C42.7913 10.9857 42.851 11.0255 42.9107 11.064C42.94 11.0831 42.9693 11.101 42.9986 11.1196C43.0646 11.1615 43.1305 11.2032 43.1964 11.2431C43.2198 11.2574 43.2429 11.271 43.2663 11.2848C43.338 11.328 43.4099 11.3709 43.4813 11.412C43.4984 11.4218 43.516 11.4314 43.5333 11.4412C43.6106 11.4848 43.6878 11.528 43.7647 11.5694C43.7764 11.5756 43.7885 11.5818 43.8006 11.5881C43.8815 11.6316 43.9631 11.6738 44.0453 11.7148C44.1369 11.7608 44.2293 11.8053 44.3225 11.8481L44.3385 11.8558C44.4001 11.8839 44.4616 11.9125 44.5224 11.9389C44.5448 11.9484 44.5663 11.9565 44.5883 11.966C44.592 11.9674 44.5957 11.9693 44.5993 11.9707C44.6015 11.9718 44.604 11.9722 44.6063 11.9733C44.949 12.1176 45.2775 12.2289 45.5895 12.3073L32.9402 23.5163C32.9212 23.4837 32.9018 23.4511 32.881 23.4193C32.7689 23.2457 32.6944 23.0506 32.6621 22.8466C32.6298 22.6425 32.6405 22.434 32.6935 22.2343C33.0721 20.8074 32.3195 19.3302 30.9426 18.798C30.7499 18.7233 30.5749 18.6092 30.4288 18.4631C30.2827 18.3169 30.1687 18.1419 30.0941 17.9491C29.5619 16.5722 28.0846 15.8201 26.6576 16.1983C26.2543 16.3056 25.8225 16.2367 25.4726 16.0108C25.4419 15.991 25.4107 15.9719 25.3791 15.9536L31.4139 9.1432C31.5376 9.00362 31.6008 8.82061 31.5896 8.63443C31.5784 8.44825 31.4937 8.27414 31.3542 8.15039C31.0631 7.89295 30.6189 7.91977 30.3614 8.21049L23.8597 15.5475C23.4378 15.5538 23.0225 15.6525 22.643 15.8368C22.2634 16.021 21.929 16.2863 21.6631 16.614C21.5327 16.7741 21.3702 16.9053 21.1861 16.9992C21.0021 17.093 20.8005 17.1474 20.5942 17.1588C19.8832 17.1968 19.2114 17.4963 18.7079 17.9997C18.2045 18.5032 17.905 19.175 17.867 19.886C17.8556 20.0923 17.8013 20.294 17.7075 20.4781C17.6136 20.6622 17.4824 20.8246 17.3221 20.955C16.9945 21.2209 16.7292 21.5553 16.5449 21.9349C16.3607 22.3144 16.262 22.7298 16.2557 23.1516L1.41979 36.2982C1.40915 36.3075 1.39887 36.3173 1.38894 36.3274C0.633132 37.083 0.604913 38.394 1.30916 40.0185C1.92548 41.4397 3.04719 43.005 4.46854 44.4262C5.88932 45.8471 7.45494 46.9692 8.87573 47.5851C9.65835 47.9242 10.3678 48.0938 10.9779 48.0938C11.6345 48.0938 12.1754 47.8975 12.5672 47.5057C12.5771 47.4958 12.5869 47.4855 12.5961 47.4749L15.2138 44.5211C15.4712 44.2303 15.4445 43.7857 15.1542 43.5283C15.0146 43.4045 14.8316 43.3413 14.6454 43.3525C14.4592 43.3637 14.2851 43.4484 14.1613 43.588L11.5612 46.522C11.0079 47.0314 8.45835 46.4272 5.46276 43.4316C2.67557 40.6444 1.77679 37.9732 2.37182 37.3335L16.6615 24.6709C16.6798 24.702 16.6988 24.7335 16.7187 24.7643C16.8306 24.9379 16.9052 25.133 16.9375 25.337C16.9699 25.5411 16.9593 25.7497 16.9064 25.9494C16.5274 27.3765 17.2799 28.8538 18.6573 29.3859C18.85 29.4606 19.0249 29.5746 19.171 29.7207C19.3171 29.8668 19.4311 30.0418 19.5058 30.2344C20.0379 31.6114 21.5152 32.3643 22.942 31.9853C23.3451 31.8784 23.7769 31.9469 24.1273 32.1732C24.1596 32.1936 24.1926 32.212 24.2251 32.2313L16.3315 41.1394C16.2702 41.2085 16.2231 41.2889 16.1929 41.3762C16.1627 41.4635 16.1501 41.5559 16.1556 41.648C16.1611 41.7402 16.1848 41.8304 16.2252 41.9134C16.2657 41.9964 16.3221 42.0707 16.3912 42.1319C16.4603 42.1932 16.5408 42.2404 16.6281 42.2706C16.7154 42.3008 16.8078 42.3135 16.9 42.3079C16.9922 42.3024 17.0824 42.2787 17.1655 42.2382C17.2485 42.1978 17.3228 42.1413 17.384 42.0721L24.6466 33.8768L26.1335 38.7034C26.1855 38.8721 26.2817 39.0239 26.412 39.143C26.5423 39.2621 26.702 39.3442 26.8747 39.381C26.9429 39.3952 27.0117 39.4021 27.0798 39.4021C27.3629 39.4021 27.6368 39.2805 27.8268 39.0623L29.7114 36.9002L32.2463 37.6593C32.4182 37.7108 32.6009 37.7146 32.7748 37.6702C32.9488 37.6259 33.1073 37.535 33.2336 37.4074C33.3601 37.2801 33.4495 37.1208 33.4924 36.9466C33.5352 36.7723 33.5298 36.5897 33.4768 36.4183L31.8523 31.1445L37.1261 32.769C37.2224 32.7987 37.3209 32.8129 37.4186 32.8129C37.6757 32.8129 37.927 32.7126 38.1155 32.5255C38.243 32.3992 38.3338 32.2406 38.378 32.0666C38.4223 31.8927 38.4184 31.71 38.3668 31.5381L37.6079 29.0032L39.7705 27.1191C39.9034 27.003 40.003 26.8535 40.0589 26.6861C40.1149 26.5186 40.1251 26.3393 40.0887 26.1666C40.0519 25.994 39.9697 25.8343 39.8506 25.704C39.7315 25.5737 39.5799 25.4775 39.4112 25.4253L34.5845 23.9385L48.1827 11.8885C48.1886 11.8833 48.1936 11.8778 48.1992 11.8724C48.2038 11.868 48.2091 11.8639 48.2134 11.8595C48.2168 11.8562 48.2197 11.8526 48.223 11.8489C48.2325 11.839 48.242 11.8284 48.2508 11.8182C48.9682 11.0565 48.9851 9.7643 48.2933 8.16802ZM25.5391 31.221C25.5336 31.2203 25.5282 31.2199 25.5226 31.2195C25.2974 31.1929 25.0813 31.115 24.8909 30.9917C24.5526 30.7735 24.1724 30.6282 23.7747 30.5652C23.377 30.5022 22.9705 30.5229 22.5812 30.6259C22.2282 30.7201 21.8528 30.6804 21.5272 30.5145C21.2016 30.3486 20.9489 30.0682 20.8176 29.7272C20.6722 29.3518 20.45 29.0108 20.1653 28.7261C19.8806 28.4414 19.5396 28.2192 19.1641 28.0738C18.8233 27.9424 18.543 27.6898 18.3771 27.3643C18.2113 27.0388 18.1717 26.6635 18.2658 26.3105C18.3688 25.9212 18.3894 25.5148 18.3264 25.1171C18.2634 24.7194 18.1182 24.3392 17.9 24.0008C17.7738 23.8059 17.6952 23.5839 17.6707 23.353C17.6444 23.1075 17.6799 22.8593 17.774 22.631C17.8681 22.4027 18.0177 22.2016 18.2094 22.0459C18.5216 21.7916 18.7773 21.4749 18.9601 21.1161C19.1429 20.7573 19.2489 20.3643 19.2711 19.9622C19.2907 19.5974 19.4444 19.2527 19.7028 18.9944C19.9612 18.7361 20.306 18.5824 20.6708 18.5629C21.0728 18.5406 21.4657 18.4346 21.8244 18.2518C22.1831 18.069 22.4998 17.8134 22.7541 17.5013C22.9101 17.309 23.1119 17.159 23.3409 17.0649C23.57 16.9707 23.819 16.9356 24.0651 16.9626L24.0827 16.9648C24.306 16.9917 24.5202 17.0693 24.709 17.1915C25.0473 17.4097 25.4275 17.555 25.8252 17.618C26.2229 17.681 26.6294 17.6603 27.0186 17.5573C27.3716 17.463 27.747 17.5027 28.0725 17.6686C28.3981 17.8345 28.6507 18.115 28.7819 18.456C28.9275 18.8313 29.1497 19.1723 29.4344 19.457C29.7191 19.7417 30.06 19.9639 30.4354 20.1094C31.1422 20.3826 31.5285 21.1407 31.3341 21.8731C31.231 22.2624 31.2103 22.6689 31.2733 23.0666C31.3363 23.4643 31.4816 23.8444 31.6999 24.1828C31.8233 24.3731 31.9011 24.5893 31.9273 24.8145C31.928 24.82 31.9284 24.8255 31.9292 24.831C31.9555 25.0764 31.9199 25.3245 31.8258 25.5526C31.7316 25.7808 31.5819 25.9818 31.3902 26.1373C31.2152 26.2802 31.0575 26.4432 30.9206 26.6229C30.9048 26.6415 30.8894 26.6613 30.8756 26.6821C30.5492 27.1319 30.3593 27.6661 30.3284 28.221C30.3135 28.5006 30.2194 28.7703 30.057 28.9984C30.0432 29.0149 30.0299 29.0322 30.0179 29.0501C29.9421 29.1472 29.8546 29.2346 29.7572 29.3101C29.7399 29.3222 29.7232 29.335 29.707 29.3486C29.4787 29.5111 29.2089 29.6053 28.9291 29.6203C28.3802 29.651 27.8513 29.8373 27.4043 30.1575C27.3819 30.1725 27.3602 30.1883 27.3402 30.2055C27.1569 30.3441 26.991 30.5042 26.8457 30.6823C26.6901 30.8739 26.4891 31.0235 26.2609 31.1176C26.0327 31.2117 25.7846 31.2472 25.5391 31.221ZM27.2574 37.5751L25.7386 32.6441L25.7464 32.6356C26.3658 32.6249 26.9652 32.4152 27.4562 32.0376L28.6611 35.9649L27.2574 37.5751ZM31.9035 36.0883L29.9944 35.517L28.638 31.0943C28.7571 31.0556 28.8807 31.0323 29.0057 31.0251C29.4369 31.0016 29.8574 30.8819 30.2362 30.6746L31.9035 36.0883ZM31.3828 29.528C31.5901 29.1494 31.7097 28.729 31.7328 28.2979C31.7399 28.1685 31.7658 28.0426 31.805 27.9218L36.2248 29.2856L36.7964 31.1957L31.3828 29.528ZM38.2832 26.5496L36.6734 27.9525L32.7509 26.7419C33.1259 26.2518 33.3338 25.6544 33.3442 25.0375L33.3519 25.0305L38.2832 26.5496ZM41.4814 8.14571C41.4321 8.09957 41.3833 8.05294 41.3349 8.00583C41.2599 7.93327 41.1848 7.8608 41.1093 7.78496C41.0084 7.684 40.9088 7.58171 40.8105 7.47811C40.7787 7.44474 40.7475 7.41145 40.716 7.3778C39.933 6.54202 39.2592 5.65617 38.7615 4.81205C39.5609 5.09292 40.6955 5.77411 41.9081 6.98658C43.1205 8.19914 43.8017 9.33333 44.0822 10.1327C43.2268 9.62808 42.3273 8.94258 41.4814 8.14571ZM47.2247 10.8582L47.1873 10.8912C46.95 11.0838 46.4022 11.0984 45.6386 10.8556C45.6217 9.37655 44.3397 7.42936 42.9023 5.99199C41.4638 4.55386 39.5148 3.27108 38.0354 3.25599C37.8043 2.53824 37.7889 1.96224 38.006 1.70405L38.0368 1.66927C38.1573 1.55396 38.3591 1.49714 38.6205 1.49714C39.0234 1.49714 39.5665 1.63121 40.167 1.89155C41.4298 2.43905 42.8408 3.45596 44.1397 4.75496C47.1456 7.76039 47.7433 10.317 47.2247 10.8582Z" fill="#731B55"/>
</g>
</g>
<defs>
<clipPath id="clip0_1716_55180">
<rect width="48" height="48" fill="white" transform="translate(0.800781)"/>
</clipPath>
</defs>
</svg>
