<svg width="49" height="48" viewBox="0 0 49 48" fill="none" xmlns="http://www.w3.org/2000/svg">
<g id="Frame">
<g id="Group">
<g id="Star Review">
<path id="Vector" d="M42.6981 3.70356H6.67038C6.06552 3.67346 5.47327 3.88358 5.02262 4.28815C4.57197 4.69272 4.29944 5.25897 4.26438 5.86356V17.4166C4.29963 18.0211 4.57222 18.5872 5.02282 18.9917C5.47342 19.3963 6.06557 19.6065 6.67038 19.5766H16.7886C15.9988 21.3969 14.8927 23.0629 13.5216 24.4973C12.5926 25.4638 11.553 26.3175 10.4241 27.0406C10.3296 27.1021 10.2419 27.1703 10.1541 27.2386C10.0234 26.9506 9.81264 26.7063 9.54695 26.5348C9.28127 26.3632 8.97187 26.2717 8.65562 26.2711H4.94688C4.50933 26.2713 4.08976 26.4452 3.78037 26.7546C3.47098 27.0639 3.29707 27.4835 3.29688 27.9211V42.6473C3.29707 43.0849 3.47098 43.5044 3.78037 43.8138C4.08976 44.1232 4.50933 44.2971 4.94688 44.2973H8.65562C9.06266 44.296 9.45478 44.144 9.75632 43.8706C10.0578 43.5972 10.2474 43.2218 10.2884 42.8168C10.9219 43.5428 11.7851 44.0299 12.7341 44.1968L25.6731 44.2223C26.3831 44.2267 27.0785 44.0203 27.6712 43.6295C28.264 43.2386 28.7275 42.6807 29.0031 42.0263L32.8634 32.7901C33.1855 32.0204 33.3121 31.183 33.2318 30.3525C33.1516 29.522 32.8671 28.7243 32.4036 28.0306C31.9248 27.3145 31.2761 26.7281 30.5155 26.3238C29.7549 25.9194 28.906 25.7096 28.0446 25.7131H22.3694C22.8418 24.9911 23.1664 24.1826 23.3243 23.3343C23.4823 22.4861 23.4705 21.615 23.2896 20.7713C23.1971 20.3651 23.0756 19.9661 22.9259 19.5773H35.1014V23.1368C35.1021 23.3133 35.1532 23.4859 35.2488 23.6344C35.3443 23.7828 35.4803 23.9008 35.6406 23.9746C35.7588 24.0296 35.8876 24.058 36.0179 24.0578C36.2666 24.0533 36.5052 23.9584 36.6891 23.7908L40.8051 19.5773H42.6981C43.3032 19.6074 43.8956 19.3972 44.3464 18.9925C44.7972 18.5878 45.0698 18.0213 45.1049 17.4166V5.86356C45.0698 5.25883 44.7972 4.69247 44.3464 4.28788C43.8956 3.88328 43.3031 3.67326 42.6981 3.70356ZM8.80562 42.6473C8.80562 42.6871 8.78982 42.7252 8.76169 42.7534C8.73356 42.7815 8.69541 42.7973 8.65562 42.7973H4.94688C4.90709 42.7973 4.86894 42.7815 4.84081 42.7534C4.81268 42.7252 4.79688 42.6871 4.79688 42.6473V27.9211C4.79688 27.9014 4.80076 27.8819 4.80829 27.8637C4.81583 27.8455 4.82688 27.8289 4.84081 27.815C4.85474 27.8011 4.87127 27.79 4.88947 27.7825C4.90767 27.7749 4.92718 27.7711 4.94688 27.7711H8.65562C8.67532 27.7711 8.69483 27.7749 8.71303 27.7825C8.73123 27.79 8.74776 27.8011 8.76169 27.815C8.77562 27.8289 8.78667 27.8455 8.79421 27.8637C8.80175 27.8819 8.80562 27.9014 8.80562 27.9211V42.6473ZM28.0446 27.2123C28.659 27.2092 29.2645 27.3583 29.8072 27.6462C30.3499 27.9341 30.8129 28.3519 31.1549 28.8623C31.4851 29.3486 31.6879 29.9101 31.7446 30.4952C31.8014 31.0803 31.7103 31.6703 31.4796 32.2111L27.6186 41.4481C27.4568 41.8291 27.1855 42.1535 26.8392 42.3804C26.4929 42.6072 26.0871 42.7262 25.6731 42.7223H13.0304C12.5658 42.6605 12.127 42.4731 11.7611 42.1802C11.3953 41.8873 11.1163 41.5001 10.9544 41.0603C10.836 40.8368 10.7135 40.6155 10.5869 40.3966C10.4063 40.0932 10.3093 39.7475 10.3056 39.3946V29.9596C10.3085 29.6277 10.3951 29.3019 10.5574 29.0125C10.7197 28.723 10.9525 28.4791 11.2341 28.3036C12.4623 27.5165 13.5936 26.5876 14.6046 25.5361C16.8667 23.1592 18.4639 20.2292 19.2359 17.0401C19.8554 17.3146 21.3299 18.8701 21.8256 21.0968C21.9646 21.7665 21.9671 22.4573 21.8328 23.128C21.6985 23.7986 21.4303 24.4353 21.0441 24.9998C20.9026 25.2164 20.8225 25.4672 20.8123 25.7257C20.8021 25.9842 20.8622 26.2406 20.9862 26.4676C21.1102 26.6946 21.2934 26.8838 21.5164 27.0149C21.7393 27.1461 21.9937 27.2143 22.2524 27.2123H28.0446ZM43.6049 17.4166C43.6049 17.7743 43.1894 18.0766 42.6981 18.0766H40.6536C40.5018 18.0769 40.3515 18.1075 40.2115 18.1665C40.0716 18.2254 39.9447 18.3116 39.8384 18.4201L36.6014 21.7373V19.1978C36.6008 18.9004 36.4822 18.6154 36.2717 18.4054C36.0612 18.1953 35.776 18.0773 35.4786 18.0773H22.2021C21.3509 16.6508 20.2071 15.5971 19.2216 15.5048C18.9417 15.4698 18.6581 15.5289 18.4154 15.6729C18.1728 15.8168 17.9849 16.0374 17.8814 16.2998L17.8394 16.4288C17.7246 16.9283 17.5701 17.4863 17.3729 18.0773H6.67038C6.17913 18.0773 5.76438 17.7743 5.76438 17.4166V5.86356C5.76438 5.50581 6.17913 5.20356 6.67038 5.20356H42.6981C43.1894 5.20356 43.6049 5.50581 43.6049 5.86356V17.4166Z" fill="#731B55"/>
<path id="Vector_2" d="M6.80078 41.533C7.21499 41.533 7.55078 41.176 7.55078 40.7357C7.55078 40.2954 7.21499 39.9385 6.80078 39.9385C6.38657 39.9385 6.05078 40.2954 6.05078 40.7357C6.05078 41.176 6.38657 41.533 6.80078 41.533Z" fill="#731B55"/>
<path id="Vector_3" d="M10.8773 16.0937C10.7411 16.1689 10.5874 16.2063 10.4319 16.2021C10.2764 16.1979 10.1249 16.1521 9.99303 16.0697C9.86994 15.9825 9.77367 15.8626 9.7151 15.7236C9.65652 15.5845 9.63797 15.4319 9.66153 15.2829L10.0418 12.9534L8.46678 11.3409C8.36039 11.2319 8.28439 11.0969 8.24637 10.9494C8.20834 10.8019 8.2096 10.647 8.25003 10.5002L8.25303 10.4904C8.29988 10.3512 8.38427 10.2276 8.49688 10.1332C8.6095 10.0388 8.74598 9.97741 8.89128 9.95567L11.076 9.62192L12.0405 7.56842C12.1078 7.42543 12.2124 7.30326 12.3434 7.21481C12.4744 7.12637 12.6268 7.07492 12.7845 7.06592C12.9362 7.06638 13.0846 7.10973 13.2127 7.19095C13.3407 7.27216 13.4432 7.38794 13.5083 7.52492L13.509 7.52642L14.493 9.62192L16.6343 9.94892C16.785 9.97192 16.9272 10.0338 17.0468 10.1285C17.1663 10.2232 17.2591 10.3474 17.316 10.4889V10.4904C17.364 10.6304 17.3724 10.7808 17.3402 10.9252C17.3081 11.0696 17.2366 11.2023 17.1338 11.3087L15.5273 12.9534L15.9 15.2387C15.925 15.3925 15.9086 15.5502 15.8525 15.6956C15.7963 15.841 15.7025 15.9688 15.5805 16.0659L15.576 16.0697C15.4537 16.1563 15.3093 16.2066 15.1595 16.2145C15.0098 16.2225 14.8609 16.1879 14.73 16.1147L12.7845 15.0399L10.8773 16.0937ZM12.7688 13.3352L13.182 13.5467L14.196 14.1062L13.9298 12.4772L14.2073 12.1592L15.111 11.2337L13.5 10.9877L13.2923 10.5939L12.7845 9.51317L12.1058 10.9577L11.6738 11.0477L10.4588 11.2337L11.6273 12.4307L11.5778 12.8544L11.3738 14.1062L12.7688 13.3352ZM22.7723 16.0937C22.6361 16.169 22.4821 16.2065 22.3265 16.2023C22.1709 16.1981 22.0192 16.1523 21.8873 16.0697C21.7643 15.9824 21.6682 15.8625 21.6098 15.7234C21.5513 15.5844 21.5329 15.4319 21.5565 15.2829L21.936 12.9534L20.361 11.3409C20.2548 11.2318 20.1789 11.0968 20.141 10.9493C20.1031 10.8018 20.1045 10.647 20.145 10.5002L20.1473 10.4904C20.1942 10.3511 20.2787 10.2274 20.3914 10.133C20.5042 10.0387 20.6408 9.97728 20.7863 9.95567L22.971 9.62192L23.9355 7.56842C24.0028 7.42543 24.1074 7.30326 24.2384 7.21481C24.3694 7.12637 24.5218 7.07492 24.6795 7.06592C24.8311 7.06652 24.9793 7.10993 25.1072 7.19114C25.2352 7.27235 25.3375 7.38806 25.4025 7.52492L25.4033 7.52642L26.3873 9.62192L28.5293 9.94892C28.6799 9.97204 28.8219 10.034 28.9413 10.1287C29.0607 10.2234 29.1534 10.3475 29.2103 10.4889L29.211 10.4904C29.2589 10.6304 29.2672 10.7809 29.2349 10.9253C29.2026 11.0697 29.131 11.2024 29.028 11.3087L27.4223 12.9542L27.795 15.2387C27.82 15.3926 27.8034 15.5503 27.7471 15.6957C27.6909 15.8411 27.5968 15.9689 27.4748 16.0659L27.471 16.0697C27.3486 16.1565 27.2041 16.2068 27.0542 16.2148C26.9043 16.2227 26.7552 16.188 26.6243 16.1147L24.6795 15.0399L22.7723 16.0937ZM24.663 13.3352L25.0763 13.5467L26.0903 14.1062L25.8248 12.4772L26.1023 12.1592L27.0053 11.2337L25.395 10.9877L25.1873 10.5939L24.6795 9.51317L24.0008 10.9577L23.568 11.0477L22.353 11.2337L23.5223 12.4307L23.4728 12.8544L23.268 14.1062L24.663 13.3352ZM34.671 16.0937C34.5349 16.1689 34.3811 16.2063 34.2256 16.2021C34.0702 16.1979 33.9186 16.1521 33.7868 16.0697C33.6637 15.9825 33.5674 15.8626 33.5088 15.7236C33.4503 15.5845 33.4317 15.4319 33.4553 15.2829L33.8355 12.9534L32.2605 11.3409C32.1543 11.2318 32.0784 11.0968 32.0405 10.9493C32.0026 10.8018 32.004 10.647 32.0445 10.5002L32.0475 10.4904C32.0944 10.3511 32.1789 10.2274 32.2917 10.133C32.4045 10.0387 32.5411 9.97728 32.6865 9.95567L34.8713 9.62192L35.835 7.56842C35.9023 7.42543 36.0069 7.30326 36.1379 7.21481C36.2689 7.12637 36.4213 7.07492 36.579 7.06592C36.7307 7.06638 36.8791 7.10973 37.0072 7.19095C37.1352 7.27216 37.2377 7.38794 37.3028 7.52492L37.3035 7.52642L38.2875 9.62192L40.4295 9.94892C40.5802 9.97204 40.7222 10.034 40.8416 10.1287C40.961 10.2234 41.0537 10.3475 41.1105 10.4889V10.4904C41.1585 10.6304 41.1669 10.7808 41.1347 10.9252C41.1026 11.0696 41.0311 11.2023 40.9283 11.3087L39.3225 12.9542L39.6953 15.2387C39.7202 15.3926 39.7037 15.5503 39.6474 15.6957C39.5911 15.8411 39.4971 15.9689 39.375 16.0659L39.3713 16.0697C39.2488 16.1565 39.1043 16.2068 38.9544 16.2148C38.8045 16.2227 38.6555 16.188 38.5245 16.1147L36.579 15.0399L34.671 16.0937ZM36.5625 13.3352L36.9758 13.5467L37.9898 14.1062L37.7235 12.4772L38.001 12.1592L38.9048 11.2337L37.2945 10.9877L37.0868 10.5939L36.5783 9.51317L35.9003 10.9577L35.4675 11.0477L34.2525 11.2337L35.421 12.4307L35.3723 12.8544L35.1675 14.1062L36.5625 13.3352Z" fill="#731B55"/>
</g>
</g>
</g>
</svg>
