<svg width="18" height="19" viewBox="0 0 18 19" fill="none" xmlns="http://www.w3.org/2000/svg">
<path d="M6.366 7.68786C7.30434 9.33634 8.66952 10.7015 10.318 11.6399L11.202 10.4019C11.3442 10.2028 11.5543 10.0627 11.7928 10.0082C12.0313 9.95365 12.2814 9.98839 12.496 10.1059C13.9103 10.8788 15.4722 11.3436 17.079 11.4699C17.3298 11.4897 17.5638 11.6034 17.7345 11.7882C17.9052 11.973 18 12.2153 18 12.4669V16.9289C18.0001 17.1765 17.9083 17.4153 17.7424 17.5991C17.5765 17.7829 17.3483 17.8986 17.102 17.9239C16.572 17.9789 16.038 18.0059 15.5 18.0059C6.94 18.0059 0 11.0659 0 2.50586C0 1.96786 0.027 1.43386 0.082 0.903859C0.107255 0.657557 0.222984 0.42938 0.40679 0.263493C0.590595 0.0976066 0.829406 0.00580602 1.077 0.0058594H5.539C5.79056 0.00582786 6.0329 0.100611 6.21768 0.27131C6.40247 0.442009 6.51613 0.676083 6.536 0.926859C6.66222 2.53365 7.12708 4.09554 7.9 5.50986C8.01746 5.72442 8.05221 5.9746 7.99767 6.21305C7.94312 6.45151 7.80306 6.6617 7.604 6.80386L6.366 7.68786ZM3.844 7.03086L5.744 5.67386C5.20478 4.50995 4.83535 3.2747 4.647 2.00586H2.01C2.004 2.17186 2.001 2.33886 2.001 2.50586C2 9.96186 8.044 16.0059 15.5 16.0059C15.667 16.0059 15.834 16.0029 16 15.9959V13.3589C14.7312 13.1705 13.4959 12.8011 12.332 12.2619L10.975 14.1619C10.4287 13.9496 9.89801 13.699 9.387 13.4119L9.329 13.3789C7.36758 12.2626 5.74328 10.6383 4.627 8.67686L4.594 8.61886C4.30691 8.10785 4.05628 7.5772 3.844 7.03086Z" fill="#731B55"/>
</svg>
