<svg width="7" height="8" viewBox="0 0 7 8" fill="none" xmlns="http://www.w3.org/2000/svg">
<path d="M0.769038 0.0411172L6.85671 3.73965C6.90034 3.76625 6.93652 3.80428 6.96167 3.84995C6.98681 3.89562 7.00004 3.94735 7.00004 4C7.00004 4.05265 6.98681 4.10438 6.96167 4.15005C6.93652 4.19572 6.90034 4.23375 6.85671 4.26034L0.769038 7.95888C0.724932 7.98569 0.674805 7.99987 0.623738 8C0.572671 8.00013 0.52248 7.98619 0.47825 7.95961C0.434021 7.93302 0.397325 7.89474 0.371883 7.84862C0.346441 7.80251 0.333157 7.75021 0.333377 7.69703L0.333377 0.301764C0.333362 0.248683 0.346795 0.196538 0.37232 0.150594C0.397846 0.104649 0.434559 0.0665319 0.478754 0.040091C0.522949 0.0136501 0.573061 -0.000178454 0.624029 1.73872e-06C0.674997 0.000181932 0.725017 0.0143644 0.769038 0.0411172Z" fill="white"/>
</svg>
