<svg width="7" height="8" viewBox="0 0 7 8" fill="none" xmlns="http://www.w3.org/2000/svg">
<path d="M0.767695 0.0411172L6.85537 3.73965C6.899 3.76625 6.93518 3.80428 6.96032 3.84995C6.98547 3.89562 6.9987 3.94735 6.9987 4C6.9987 4.05265 6.98547 4.10438 6.96032 4.15005C6.93518 4.19572 6.899 4.23375 6.85537 4.26034L0.767695 7.95888C0.723589 7.98569 0.673462 7.99987 0.622395 8C0.571329 8.00013 0.521137 7.98619 0.476907 7.95961C0.432678 7.93302 0.395983 7.89474 0.370541 7.84862C0.345099 7.80251 0.331814 7.75021 0.332034 7.69703L0.332034 0.301764C0.332019 0.248683 0.345452 0.196538 0.370978 0.150594C0.396503 0.104649 0.433217 0.0665319 0.477412 0.040091C0.521607 0.0136501 0.571718 -0.000178454 0.622686 1.73872e-06C0.673654 0.000181932 0.723674 0.0143644 0.767695 0.0411172Z" fill="#731B55"/>
</svg>
