<svg width="32" height="32" viewBox="0 0 32 32" fill="none" xmlns="http://www.w3.org/2000/svg">
<circle cx="16" cy="16" r="16" transform="matrix(-1 0 0 1 32 0)" fill="#731B55"/>
<g clip-path="url(#clip0_1162_21312)">
<path d="M13.7696 12.0411L19.8573 15.7397C19.9009 15.7663 19.9371 15.8043 19.9623 15.8499C19.9874 15.8956 20.0007 15.9474 20.0007 16C20.0007 16.0526 19.9874 16.1044 19.9623 16.1501C19.9371 16.1957 19.9009 16.2337 19.8573 16.2603L13.7696 19.9589C13.7255 19.9857 13.6754 19.9999 13.6243 20C13.5733 20.0001 13.5231 19.9862 13.4789 19.9596C13.4346 19.933 13.3979 19.8947 13.3725 19.8486C13.3471 19.8025 13.3338 19.7502 13.334 19.697V12.3018C13.334 12.2487 13.3474 12.1965 13.3729 12.1506C13.3985 12.1046 13.4352 12.0665 13.4794 12.0401C13.5236 12.0137 13.5737 11.9998 13.6246 12C13.6756 12.0002 13.7256 12.0144 13.7696 12.0411Z" fill="white"/>
</g>
<defs>
<clipPath id="clip0_1162_21312">
<rect width="16" height="16" fill="white" transform="translate(8 8)"/>
</clipPath>
</defs>
</svg>
