<svg width="165" height="164" viewBox="0 0 165 164" fill="none" xmlns="http://www.w3.org/2000/svg">
<path d="M82.5 3C92.8744 3 103.147 5.0434 112.732 9.01352C122.317 12.9836 131.026 18.8027 138.361 26.1386C145.697 33.4744 151.516 42.1833 155.486 51.768C159.457 61.3527 161.5 71.6256 161.5 82C161.5 92.3744 159.457 102.647 155.486 112.232C151.516 121.817 145.697 130.526 138.361 137.861C131.026 145.197 122.317 151.016 112.732 154.986C103.147 158.957 92.8744 161 82.5 161C72.1255 161 61.8527 158.957 52.268 154.986C42.6833 151.016 33.9744 145.197 26.6385 137.861C19.3027 130.526 13.4836 121.817 9.5135 112.232C5.54339 102.647 3.49999 92.3744 3.5 82C3.50001 71.6255 5.54341 61.3527 9.51353 51.768C13.4837 42.1832 19.3028 33.4744 26.6386 26.1385C33.9744 18.8027 42.6833 12.9836 52.2681 9.0135C61.8528 5.04338 72.1256 2.99999 82.5001 3L82.5 3Z" stroke="#EFEFEF" stroke-width="6" stroke-miterlimit="16" stroke-linecap="round"/>
<path d="M82.5 3C101.737 3 120.314 10.0194 134.744 22.7412C149.174 35.4631 158.466 53.0131 160.877 72.0987C163.288 91.1843 158.652 110.494 147.839 126.405C137.026 142.315 120.779 153.734 102.146 158.518C83.5136 163.302 63.7753 161.123 46.6347 152.39C29.4942 143.656 16.1294 128.968 9.04765 111.082C1.96594 93.1954 1.65403 73.3397 8.17043 55.2397C14.6868 37.1397 27.5837 22.0394 44.4415 12.7718" stroke="#731B55" stroke-width="6" stroke-miterlimit="16" stroke-linecap="round"/>
</svg>
