<svg width="12" height="12" viewBox="0 0 12 12" fill="none" xmlns="http://www.w3.org/2000/svg">
<path d="M8.80624 7.74575C9.39674 6.93936 9.74996 5.94886 9.74996 4.87508C9.74996 2.1871 7.56294 9.15527e-05 4.87497 9.15527e-05C2.18699 9.15527e-05 0 2.1871 0 4.87508C0 7.56306 2.18701 9.75007 4.87499 9.75007C5.94877 9.75007 6.93936 9.39681 7.74575 8.80631L10.9395 12L12 10.9395C12 10.9395 8.80624 7.74575 8.80624 7.74575ZM4.87499 8.25006C3.01391 8.25006 1.50001 6.73616 1.50001 4.87508C1.50001 3.014 3.01391 1.5001 4.87499 1.5001C6.73607 1.5001 8.24997 3.014 8.24997 4.87508C8.24997 6.73616 6.73605 8.25006 4.87499 8.25006Z" fill="#731B55"/>
</svg>
