<svg width="14" height="14" viewBox="0 0 14 14" fill="none" xmlns="http://www.w3.org/2000/svg">
<path d="M6.33334 0.333008C9.64534 0.333008 12.3333 3.02101 12.3333 6.33301C12.3333 9.64501 9.64534 12.333 6.33334 12.333C3.02134 12.333 0.333344 9.64501 0.333344 6.33301C0.333344 3.02101 3.02134 0.333008 6.33334 0.333008ZM6.33334 10.9997C8.91134 10.9997 11 8.91101 11 6.33301C11 3.75434 8.91134 1.66634 6.33334 1.66634C3.75468 1.66634 1.66668 3.75434 1.66668 6.33301C1.66668 8.91101 3.75468 10.9997 6.33334 10.9997ZM11.99 11.047L13.876 12.9323L12.9327 13.8757L11.0473 11.9897L11.99 11.047Z" fill="#731B55"/>
</svg>
