<svg width="20" height="21" viewBox="0 0 20 21" fill="none" xmlns="http://www.w3.org/2000/svg">
<path d="M10 20.0059C4.477 20.0059 0 15.5289 0 10.0059C0 4.48286 4.477 0.00585938 10 0.00585938C15.523 0.00585938 20 4.48286 20 10.0059C20 15.5289 15.523 20.0059 10 20.0059ZM10 18.0059C12.1217 18.0059 14.1566 17.163 15.6569 15.6627C17.1571 14.1624 18 12.1276 18 10.0059C18 7.88413 17.1571 5.8493 15.6569 4.34901C14.1566 2.84871 12.1217 2.00586 10 2.00586C7.87827 2.00586 5.84344 2.84871 4.34315 4.34901C2.84285 5.8493 2 7.88413 2 10.0059C2 12.1276 2.84285 14.1624 4.34315 15.6627C5.84344 17.163 7.87827 18.0059 10 18.0059ZM5 15.0059C5 13.6798 5.52678 12.408 6.46447 11.4703C7.40215 10.5326 8.67392 10.0059 10 10.0059C11.3261 10.0059 12.5979 10.5326 13.5355 11.4703C14.4732 12.408 15 13.6798 15 15.0059H13C13 14.2102 12.6839 13.4471 12.1213 12.8845C11.5587 12.3219 10.7956 12.0059 10 12.0059C9.20435 12.0059 8.44129 12.3219 7.87868 12.8845C7.31607 13.4471 7 14.2102 7 15.0059H5ZM6 9.00586C5.60218 9.00586 5.22064 8.84782 4.93934 8.56652C4.65804 8.28522 4.5 7.90368 4.5 7.50586C4.5 7.10803 4.65804 6.7265 4.93934 6.4452C5.22064 6.16389 5.60218 6.00586 6 6.00586C6.39782 6.00586 6.77936 6.16389 7.06066 6.4452C7.34196 6.7265 7.5 7.10803 7.5 7.50586C7.5 7.90368 7.34196 8.28522 7.06066 8.56652C6.77936 8.84782 6.39782 9.00586 6 9.00586ZM14 9.00586C13.6022 9.00586 13.2206 8.84782 12.9393 8.56652C12.658 8.28522 12.5 7.90368 12.5 7.50586C12.5 7.10803 12.658 6.7265 12.9393 6.4452C13.2206 6.16389 13.6022 6.00586 14 6.00586C14.3978 6.00586 14.7794 6.16389 15.0607 6.4452C15.342 6.7265 15.5 7.10803 15.5 7.50586C15.5 7.90368 15.342 8.28522 15.0607 8.56652C14.7794 8.84782 14.3978 9.00586 14 9.00586Z" fill="#731B55"/>
</svg>
