<svg width="16" height="12" viewBox="0 0 16 12" fill="none" xmlns="http://www.w3.org/2000/svg">
<path d="M15.646 2.19108L15.666 2.31406C15.4727 1.66841 14.9507 1.17022 14.2874 0.988883L14.2734 0.985746C13.026 0.667001 8.00677 0.667001 8.00677 0.667001C8.00677 0.667001 3.00016 0.660726 1.74017 0.985746C1.06418 1.17022 0.541523 1.66841 0.351525 2.30088L0.348192 2.31406C-0.117802 4.60488 -0.121136 7.35751 0.368858 9.81021L0.348192 9.68597C0.541523 10.3316 1.06352 10.8298 1.72684 11.0111L1.74084 11.0143C2.98683 11.3337 8.00743 11.3337 8.00743 11.3337C8.00743 11.3337 13.0134 11.3337 14.274 11.0143C14.9507 10.8298 15.4733 10.3316 15.6633 9.69915L15.6667 9.68597C15.8787 8.62056 16 7.39452 16 6.14213C16 6.09633 16 6.0499 15.9993 6.00347C16 5.9608 16 5.90998 16 5.85915C16 4.60613 15.8787 3.3801 15.646 2.19108ZM6.40545 8.29115V3.71516L10.5827 6.0066L6.40545 8.29115Z" fill="#BDBDBD"/>
</svg>
