<svg width="16" height="16" viewBox="0 0 16 16" fill="none" xmlns="http://www.w3.org/2000/svg">
<g clip-path="url(#clip0_315_12721)">
<path d="M3.14732 8.58804C2.73865 9.39138 3.20265 9.77538 4.26132 10.4314C5.16132 10.9874 6.40465 11.1907 7.20332 11.272C6.87598 11.5867 8.37598 10.144 4.05598 14.2994C3.13998 15.1774 4.61465 16.586 5.52998 15.7267L8.00798 13.3367C8.95665 14.2494 9.86598 15.124 10.486 15.73C11.402 16.5927 12.876 15.196 11.97 14.3027C11.902 14.238 8.61198 11.082 8.81265 11.2754C9.62132 11.194 10.846 10.9787 11.7353 10.4347L11.7346 10.434C12.7933 9.77471 13.2573 9.39138 12.8546 8.58804C12.6113 8.13204 11.9553 7.75071 11.082 8.41004C11.082 8.41004 9.90265 9.31338 8.00065 9.31338C6.09798 9.31338 4.91932 8.41004 4.91932 8.41004C4.04665 7.74738 3.38798 8.13204 3.14732 8.58804Z" fill="#BDBDBD"/>
<path d="M7.99929 8.09467C10.318 8.09467 12.2113 6.28267 12.2113 4.052C12.2113 1.812 10.318 0 7.99929 0C5.67995 0 3.78662 1.812 3.78662 4.052C3.78662 6.28267 5.67995 8.09467 7.99929 8.09467ZM7.99929 2.05267C9.13862 2.05267 10.068 2.94667 10.068 4.052C10.068 5.148 9.13862 6.042 7.99929 6.042C6.85995 6.042 5.93062 5.148 5.93062 4.052C5.92995 2.946 6.85929 2.05267 7.99929 2.05267Z" fill="#BDBDBD"/>
</g>
<defs>
<clipPath id="clip0_315_12721">
<rect width="16" height="16" fill="white"/>
</clipPath>
</defs>
</svg>
