<svg width="12" height="15" viewBox="0 0 12 15" fill="none" xmlns="http://www.w3.org/2000/svg">
<path d="M2.25467 3.97867C3.31716 3.12738 4.63854 2.6645 6 2.66667C7.41667 2.66667 8.71867 3.15734 9.74534 3.97867L10.714 3.01L11.6567 3.95267L10.688 4.92134C11.3931 5.8041 11.8347 6.86802 11.9619 7.99066C12.089 9.1133 11.8967 10.249 11.4069 11.2672C10.9171 12.2853 10.1497 13.1444 9.19321 13.7457C8.23668 14.347 7.12982 14.666 6 14.666C4.87018 14.666 3.76332 14.347 2.8068 13.7457C1.85027 13.1444 1.08295 12.2853 0.593151 11.2672C0.103347 10.249 -0.0890385 9.1133 0.0381335 7.99066C0.165306 6.86802 0.606867 5.8041 1.312 4.92134L0.343337 3.95334L1.286 3.01067L2.25467 3.97934V3.97867ZM6 13.3333C6.61284 13.3333 7.21967 13.2126 7.78586 12.9781C8.35205 12.7436 8.86649 12.3998 9.29983 11.9665C9.73317 11.5332 10.0769 11.0187 10.3114 10.4525C10.546 9.88634 10.6667 9.27951 10.6667 8.66667C10.6667 8.05384 10.546 7.447 10.3114 6.88082C10.0769 6.31463 9.73317 5.80018 9.29983 5.36684C8.86649 4.9335 8.35205 4.58976 7.78586 4.35523C7.21967 4.12071 6.61284 4 6 4C4.76233 4.00001 3.57534 4.49167 2.70017 5.36684C1.825 6.24201 1.33334 7.42899 1.33334 8.66667C1.33334 9.90435 1.825 11.0913 2.70017 11.9665C3.57534 12.8417 4.76233 13.3333 6 13.3333ZM6.66667 8H8.66667L5.33334 12.3333V9.33334H3.33334L6.66667 4.99667V8ZM3.33334 0.666672H8.66667V2.00001H3.33334V0.666672Z" fill="#731B55"/>
</svg>
