<svg width="48" height="48" viewBox="0 0 48 48" fill="none" xmlns="http://www.w3.org/2000/svg">
<g id="Frame">
<g id="Group">
<path id="Vector" d="M45.75 46.5002H42.75C42.5511 46.5002 42.3603 46.4212 42.2197 46.2806C42.079 46.1399 42 45.9492 42 45.7502C42 45.5513 42.079 45.3606 42.2197 45.2199C42.3603 45.0793 42.5511 45.0002 42.75 45.0002H45V17.6447L24 3.16074L3 17.6447V45.0002H5.25C5.44891 45.0002 5.63968 45.0793 5.78033 45.2199C5.92098 45.3606 6 45.5513 6 45.7502C6 45.9492 5.92098 46.1399 5.78033 46.2806C5.63968 46.4212 5.44891 46.5002 5.25 46.5002H2.25C2.05109 46.5002 1.86032 46.4212 1.71967 46.2806C1.57902 46.1399 1.5 45.9492 1.5 45.7502V17.2502C1.5 17.0027 1.6215 16.7732 1.824 16.6322L23.574 1.63224C23.6992 1.5458 23.8478 1.49951 24 1.49951C24.1522 1.49951 24.3008 1.5458 24.426 1.63224L46.176 16.6322C46.2759 16.7015 46.3575 16.7938 46.4139 16.9014C46.4703 17.0091 46.4999 17.1287 46.5 17.2502V45.7502C46.5 45.9492 46.421 46.1399 46.2803 46.2806C46.1397 46.4212 45.9489 46.5002 45.75 46.5002Z" fill="#731B55"/>
<path id="Vector_2" d="M18.75 36H8.25C8.05109 36 7.86032 35.921 7.71967 35.7803C7.57902 35.6397 7.5 35.4489 7.5 35.25V24.75C7.5 24.5511 7.57902 24.3603 7.71967 24.2197C7.86032 24.079 8.05109 24 8.25 24H18.75C18.9489 24 19.1397 24.079 19.2803 24.2197C19.421 24.3603 19.5 24.5511 19.5 24.75V35.25C19.5 35.4489 19.421 35.6397 19.2803 35.7803C19.1397 35.921 18.9489 36 18.75 36ZM9 34.5H18V25.5H9V34.5Z" fill="#731B55"/>
<path id="Vector_3" d="M13.5 28.5C13.3011 28.5 13.1103 28.421 12.9697 28.2803C12.829 28.1397 12.75 27.9489 12.75 27.75V24.75C12.75 24.5511 12.829 24.3603 12.9697 24.2197C13.1103 24.079 13.3011 24 13.5 24C13.6989 24 13.8897 24.079 14.0303 24.2197C14.171 24.3603 14.25 24.5511 14.25 24.75V27.75C14.25 27.9489 14.171 28.1397 14.0303 28.2803C13.8897 28.421 13.6989 28.5 13.5 28.5ZM29.25 36H18.75C18.5511 36 18.3603 35.921 18.2197 35.7803C18.079 35.6397 18 35.4489 18 35.25V24.75C18 24.5511 18.079 24.3603 18.2197 24.2197C18.3603 24.079 18.5511 24 18.75 24H29.25C29.4489 24 29.6397 24.079 29.7803 24.2197C29.921 24.3603 30 24.5511 30 24.75V35.25C30 35.4489 29.921 35.6397 29.7803 35.7803C29.6397 35.921 29.4489 36 29.25 36ZM19.5 34.5H28.5V25.5H19.5V34.5Z" fill="#731B55"/>
<path id="Vector_4" d="M24 28.5C23.8011 28.5 23.6103 28.421 23.4697 28.2803C23.329 28.1397 23.25 27.9489 23.25 27.75V24.75C23.25 24.5511 23.329 24.3603 23.4697 24.2197C23.6103 24.079 23.8011 24 24 24C24.1989 24 24.3897 24.079 24.5303 24.2197C24.671 24.3603 24.75 24.5511 24.75 24.75V27.75C24.75 27.9489 24.671 28.1397 24.5303 28.2803C24.3897 28.421 24.1989 28.5 24 28.5ZM39.75 46.5H29.25C29.0511 46.5 28.8603 46.421 28.7197 46.2803C28.579 46.1397 28.5 45.9489 28.5 45.75V35.25C28.5 35.0511 28.579 34.8603 28.7197 34.7197C28.8603 34.579 29.0511 34.5 29.25 34.5H39.75C39.9489 34.5 40.1397 34.579 40.2803 34.7197C40.421 34.8603 40.5 35.0511 40.5 35.25V45.75C40.5 45.9489 40.421 46.1397 40.2803 46.2803C40.1397 46.421 39.9489 46.5 39.75 46.5ZM30 45H39V36H30V45Z" fill="#731B55"/>
<path id="Vector_5" d="M34.5 39C34.3011 39 34.1103 38.921 33.9697 38.7803C33.829 38.6397 33.75 38.4489 33.75 38.25V35.25C33.75 35.0511 33.829 34.8603 33.9697 34.7197C34.1103 34.579 34.3011 34.5 34.5 34.5C34.6989 34.5 34.8897 34.579 35.0303 34.7197C35.171 34.8603 35.25 35.0511 35.25 35.25V38.25C35.25 38.4489 35.171 38.6397 35.0303 38.7803C34.8897 38.921 34.6989 39 34.5 39ZM29.25 46.5H18.75C18.5511 46.5 18.3603 46.421 18.2197 46.2803C18.079 46.1397 18 45.9489 18 45.75V35.25C18 35.0511 18.079 34.8603 18.2197 34.7197C18.3603 34.579 18.5511 34.5 18.75 34.5H29.25C29.4489 34.5 29.6397 34.579 29.7803 34.7197C29.921 34.8603 30 35.0511 30 35.25V45.75C30 45.9489 29.921 46.1397 29.7803 46.2803C29.6397 46.421 29.4489 46.5 29.25 46.5ZM19.5 45H28.5V36H19.5V45Z" fill="#731B55"/>
<path id="Vector_6" d="M24 39C23.8011 39 23.6103 38.921 23.4697 38.7803C23.329 38.6397 23.25 38.4489 23.25 38.25V35.25C23.25 35.0511 23.329 34.8603 23.4697 34.7197C23.6103 34.579 23.8011 34.5 24 34.5C24.1989 34.5 24.3897 34.579 24.5303 34.7197C24.671 34.8603 24.75 35.0511 24.75 35.25V38.25C24.75 38.4489 24.671 38.6397 24.5303 38.7803C24.3897 38.921 24.1989 39 24 39ZM18.75 46.5H8.25C8.05109 46.5 7.86032 46.421 7.71967 46.2803C7.57902 46.1397 7.5 45.9489 7.5 45.75V35.25C7.5 35.0511 7.57902 34.8603 7.71967 34.7197C7.86032 34.579 8.05109 34.5 8.25 34.5H18.75C18.9489 34.5 19.1397 34.579 19.2803 34.7197C19.421 34.8603 19.5 35.0511 19.5 35.25V45.75C19.5 45.9489 19.421 46.1397 19.2803 46.2803C19.1397 46.421 18.9489 46.5 18.75 46.5ZM9 45H18V36H9V45Z" fill="#731B55"/>
<path id="Vector_7" d="M13.5 39C13.3011 39 13.1103 38.921 12.9697 38.7803C12.829 38.6397 12.75 38.4489 12.75 38.25V35.25C12.75 35.0511 12.829 34.8603 12.9697 34.7197C13.1103 34.579 13.3011 34.5 13.5 34.5C13.6989 34.5 13.8897 34.579 14.0303 34.7197C14.171 34.8603 14.25 35.0511 14.25 35.25V38.25C14.25 38.4489 14.171 38.6397 14.0303 38.7803C13.8897 38.921 13.6989 39 13.5 39Z" fill="#731B55"/>
</g>
</g>
</svg>
