<svg width="48" height="48" viewBox="0 0 48 48" fill="none" xmlns="http://www.w3.org/2000/svg">
<g id="Frame" clip-path="url(#clip0_1712_54684)">
<g id="Group">
<path id="Vector" d="M35.955 40.7564L38.955 32.5064C38.9962 32.3931 39.0096 32.2715 38.9938 32.1519C38.9781 32.0324 38.9337 31.9184 38.8645 31.8196C38.7953 31.7208 38.7034 31.6402 38.5964 31.5846C38.4894 31.5289 38.3706 31.4999 38.25 31.4999H23.4247L22.4685 28.2861C22.4225 28.1313 22.3277 27.9955 22.1982 27.8988C22.0687 27.8022 21.9115 27.75 21.75 27.7499H18V29.2499H21.1905L25.197 42.7124C25.346 43.1602 25.6323 43.5497 26.0151 43.8257C26.398 44.1017 26.858 44.2501 27.33 44.2499H35.25V42.7499H27.3308C27.1773 42.751 27.0272 42.7046 26.9011 42.617C26.775 42.5295 26.6791 42.4051 26.6265 42.2609L26.3258 41.2499H35.25C35.404 41.25 35.5543 41.2028 35.6804 41.1145C35.8066 41.0261 35.9024 40.9011 35.955 40.7564ZM25.8787 39.7499L23.8703 32.9999H37.1782L34.725 39.7499H25.8787ZM2.25 38.9999C2.2506 38.4033 2.48784 37.8314 2.90967 37.4096C3.3315 36.9877 3.90345 36.7505 4.5 36.7499H13.5C14.0966 36.7505 14.6685 36.9877 15.0903 37.4096C15.5122 37.8314 15.7494 38.4033 15.75 38.9999V47.2499H17.25V38.9999C17.2488 38.0057 16.8533 37.0526 16.1503 36.3496C15.4473 35.6466 14.4942 35.2511 13.5 35.2499H12.345C12.9269 34.6033 13.3089 33.8019 13.4447 32.9428C13.5806 32.0836 13.4646 31.2034 13.1107 30.4089C12.7568 29.6143 12.1802 28.9393 11.4506 28.4656C10.7211 27.9919 9.86985 27.7397 9 27.7397C8.13015 27.7397 7.27894 27.9919 6.54939 28.4656C5.81984 28.9393 5.24322 29.6143 4.8893 30.4089C4.53539 31.2034 4.41936 32.0836 4.55525 32.9428C4.69115 33.8019 5.07314 34.6033 5.655 35.2499H4.5C3.5058 35.2511 2.55267 35.6466 1.84966 36.3496C1.14666 37.0526 0.751191 38.0057 0.75 38.9999V47.2499H2.25V38.9999ZM6 32.2499C6 31.6565 6.17595 31.0765 6.50559 30.5832C6.83524 30.0898 7.30377 29.7053 7.85195 29.4783C8.40013 29.2512 9.00333 29.1918 9.58527 29.3075C10.1672 29.4233 10.7018 29.709 11.1213 30.1286C11.5409 30.5481 11.8266 31.0827 11.9424 31.6646C12.0581 32.2466 11.9987 32.8498 11.7716 33.3979C11.5446 33.9461 11.1601 34.4147 10.6667 34.7443C10.1734 35.0739 9.59334 35.2499 9 35.2499C8.20459 35.2491 7.44199 34.9328 6.87956 34.3703C6.31712 33.8079 6.00079 33.0453 6 32.2499Z" fill="#731B55"/>
<path id="Vector_2" d="M12.75 39H14.25V47.25H12.75V39ZM3.75 39H5.25V47.25H3.75V39ZM30 0.75C20.4878 0.75 12.75 6.80625 12.75 14.25C12.75 21.6938 20.4878 27.75 30 27.75C39.5122 27.75 47.25 21.6938 47.25 14.25C47.25 6.80625 39.5122 0.75 30 0.75ZM30 26.25C21.315 26.25 14.25 20.8665 14.25 14.25C14.25 7.6335 21.315 2.25 30 2.25C38.685 2.25 45.75 7.6335 45.75 14.25C45.75 20.8665 38.685 26.25 30 26.25Z" fill="#731B55"/>
<path id="Vector_3" d="M29.9475 14.2509C30.5594 13.1924 30.8336 11.9724 30.7334 10.754C30.6332 9.53551 30.1634 8.37667 29.3869 7.43241C28.6103 6.48815 27.564 5.80348 26.3878 5.46994C25.2116 5.1364 23.9616 5.16989 22.8049 5.56594C21.6483 5.96199 20.6401 6.70172 19.9152 7.68621C19.1904 8.6707 18.7833 9.85303 18.7485 11.0751C18.7137 12.2972 19.0529 13.5008 19.7206 14.5249C20.3883 15.549 21.3527 16.3449 22.485 16.8061L21.1125 21.9226L22.5615 22.3104L23.9332 17.1924C25.1148 17.3569 26.3185 17.1647 27.3901 16.6405C28.4616 16.1163 29.3522 15.2846 29.9475 14.2509ZM22.5 15.1479C21.7292 14.7028 21.1077 14.0393 20.714 13.241C20.3204 12.4428 20.1723 11.5458 20.2885 10.6633C20.4046 9.78093 20.7799 8.95279 21.3667 8.28364C21.9535 7.61449 22.7256 7.13438 23.5853 6.90404C24.445 6.67369 25.3537 6.70345 26.1965 6.98956C27.0393 7.27566 27.7783 7.80526 28.3201 8.51138C28.8619 9.21749 29.1821 10.0684 29.2403 10.9565C29.2985 11.8447 29.092 12.7301 28.647 13.5009C28.0492 14.5333 27.0664 15.2865 25.914 15.5953C24.7617 15.9041 23.5339 15.7431 22.5 15.1479Z" fill="#731B55"/>
<path id="Vector_4" d="M21.0898 10.3132L22.5433 10.6867C22.6436 10.2975 22.8463 9.94242 23.1305 9.65828C23.4146 9.37415 23.7697 9.17141 24.1588 9.07118L23.7853 7.61768C23.136 7.78485 22.5435 8.12311 22.0694 8.5972C21.5953 9.0713 21.257 9.66388 21.0898 10.3132ZM28.4983 20.2499H40.4983V21.7499H28.4983V20.2499ZM29.2483 16.4999H30.7483V19.4999H29.2483V16.4999ZM32.2483 14.2499H33.7483V19.4999H32.2483V14.2499ZM35.2483 11.9999H36.7483V19.4999H35.2483V11.9999ZM38.2483 9.74993H39.7483V19.4999H38.2483V9.74993Z" fill="#731B55"/>
<path id="Vector_5" d="M28.7422 46.125C28.7422 45.5037 28.2385 45 27.6172 45C26.9959 45 26.4922 45.5037 26.4922 46.125C26.4922 46.7463 26.9959 47.25 27.6172 47.25C28.2385 47.25 28.7422 46.7463 28.7422 46.125Z" fill="#731B55"/>
<path id="Vector_6" d="M35.25 46.125C35.25 45.5037 34.7463 45 34.125 45C33.5037 45 33 45.5037 33 46.125C33 46.7463 33.5037 47.25 34.125 47.25C34.7463 47.25 35.25 46.7463 35.25 46.125Z" fill="#731B55"/>
</g>
</g>
<defs>
<clipPath id="clip0_1712_54684">
<rect width="48" height="48" fill="white"/>
</clipPath>
</defs>
</svg>
