<svg width="48" height="48" viewBox="0 0 48 48" fill="none" xmlns="http://www.w3.org/2000/svg">
<g id="Frame" clip-path="url(#clip0_1712_54666)">
<g id="Group">
<path id="Vector" d="M16.1133 6.81694C16.247 6.96422 16.3166 7.15858 16.307 7.35724C16.2974 7.55591 16.2093 7.74263 16.062 7.87631L14.8099 9.01256V13.4025C14.8099 13.6014 14.7309 13.7922 14.5902 13.9328C14.4496 14.0735 14.2588 14.1525 14.0599 14.1525H5.3505C5.15159 14.1525 4.96082 14.0735 4.82017 13.9328C4.67952 13.7922 4.6005 13.6014 4.6005 13.4025V5.35022C4.6005 5.15131 4.67952 4.96054 4.82017 4.81989C4.96082 4.67924 5.15159 4.60022 5.3505 4.60022H14.0599C14.2588 4.60022 14.4496 4.67924 14.5902 4.81989C14.7309 4.96054 14.8099 5.15131 14.8099 5.35022C14.8099 5.54913 14.7309 5.7399 14.5902 5.88055C14.4496 6.0212 14.2588 6.10022 14.0599 6.10022H6.1005V12.6526H13.3099V10.374L11.9161 11.6389C11.7734 11.7683 11.5865 11.8379 11.3939 11.8332C11.2013 11.8285 11.0179 11.75 10.8818 11.6137L9.17475 9.90684C9.10441 9.83736 9.0485 9.75465 9.01024 9.66348C8.97199 9.5723 8.95214 9.47446 8.95183 9.37559C8.95153 9.27672 8.97078 9.17876 9.00847 9.08735C9.04616 8.99594 9.10156 8.91289 9.17147 8.84297C9.24139 8.77306 9.32443 8.71765 9.41584 8.67995C9.50724 8.64225 9.6052 8.62299 9.70407 8.62328C9.80294 8.62358 9.90078 8.64342 9.99196 8.68167C10.0831 8.71992 10.1659 8.77582 10.2353 8.84616L11.4375 10.0479L15.0543 6.76566C15.2015 6.6321 15.3958 6.56248 15.5944 6.57209C15.793 6.58171 15.9796 6.66978 16.1133 6.81694ZM15.0539 21.3892L11.4375 24.6715L10.2357 23.4697C10.1662 23.3994 10.0835 23.3435 9.99234 23.3053C9.90116 23.267 9.80332 23.2472 9.70444 23.2469C9.60557 23.2466 9.50762 23.2658 9.41621 23.3035C9.32481 23.3412 9.24176 23.3967 9.17185 23.4666C9.10194 23.5365 9.04654 23.6195 9.00884 23.7109C8.97115 23.8024 8.9519 23.9003 8.95221 23.9992C8.95251 24.0981 8.97236 24.1959 9.01062 24.2871C9.04888 24.3782 9.10478 24.461 9.17513 24.5304L10.8821 26.2374C11.0183 26.3736 11.2017 26.4522 11.3943 26.4569C11.5869 26.4615 11.7738 26.3919 11.9165 26.2625L13.3102 24.9976V27.2757H6.10087V20.7238H14.0602C14.2592 20.7238 14.4499 20.6448 14.5906 20.5041C14.7312 20.3635 14.8102 20.1727 14.8102 19.9738C14.8102 19.7749 14.7312 19.5841 14.5906 19.4435C14.4499 19.3028 14.2592 19.2238 14.0602 19.2238H5.35087C5.15196 19.2238 4.9612 19.3028 4.82055 19.4435C4.67989 19.5841 4.60087 19.7749 4.60087 19.9738V28.0261C4.60087 28.225 4.67989 28.4158 4.82055 28.5564C4.9612 28.6971 5.15196 28.7761 5.35087 28.7761H14.0602C14.2592 28.7761 14.4499 28.6971 14.5906 28.5564C14.7312 28.4158 14.8102 28.225 14.8102 28.0261V23.6363L16.062 22.5C16.2093 22.3663 16.2975 22.1796 16.3071 21.9809C16.3167 21.7822 16.247 21.5879 16.1133 21.4406C15.9796 21.2933 15.7929 21.2051 15.5942 21.1955C15.3956 21.1859 15.2012 21.2556 15.0539 21.3892ZM15.0539 36.0129L11.4375 39.2951L10.2357 38.0933C10.0951 37.9527 9.90427 37.8737 9.70536 37.8737C9.50644 37.8737 9.31567 37.9528 9.17503 38.0934C9.03439 38.2341 8.95539 38.4249 8.9554 38.6238C8.95542 38.8227 9.03446 39.0135 9.17513 39.1541L10.8821 40.8611C11.0183 40.9973 11.2017 41.0759 11.3943 41.0805C11.5869 41.0852 11.7738 41.0155 11.9165 40.8861L13.3102 39.6212V41.8998H6.10087V35.3474H14.0602C14.2592 35.3474 14.4499 35.2684 14.5906 35.1277C14.7312 34.9871 14.8102 34.7963 14.8102 34.5974C14.8102 34.3985 14.7312 34.2077 14.5906 34.0671C14.4499 33.9264 14.2592 33.8474 14.0602 33.8474H5.35087C5.15196 33.8474 4.9612 33.9264 4.82055 34.0671C4.67989 34.2077 4.60087 34.3985 4.60087 34.5974V42.6498C4.60087 42.8487 4.67989 43.0395 4.82055 43.1801C4.9612 43.3208 5.15196 43.3998 5.35087 43.3998H14.0602C14.2592 43.3998 14.4499 43.3208 14.5906 43.1801C14.7312 43.0395 14.8102 42.8487 14.8102 42.6498V38.2599L16.0624 37.1236C16.2076 36.9894 16.2939 36.8032 16.3025 36.6057C16.3112 36.4082 16.2415 36.2152 16.1086 36.0688C15.9757 35.9224 15.7904 35.8344 15.5929 35.8239C15.3955 35.8135 15.2019 35.8814 15.0543 36.0129H15.0539ZM18.9356 6.10022H28.679C28.8779 6.10022 29.0686 6.0212 29.2093 5.88055C29.35 5.7399 29.429 5.54913 29.429 5.35022C29.429 5.15131 29.35 4.96054 29.2093 4.81989C29.0686 4.67924 28.8779 4.60022 28.679 4.60022H18.9356C18.7367 4.60022 18.5459 4.67924 18.4053 4.81989C18.2646 4.96054 18.1856 5.15131 18.1856 5.35022C18.1856 5.54913 18.2646 5.7399 18.4053 5.88055C18.5459 6.0212 18.7367 6.10022 18.9356 6.10022ZM18.9356 10.1264H28.679C28.8779 10.1264 29.0686 10.0474 29.2093 9.90674C29.35 9.76608 29.429 9.57532 29.429 9.37641C29.429 9.17749 29.35 8.98673 29.2093 8.84608C29.0686 8.70542 28.8779 8.62641 28.679 8.62641H18.9356C18.7367 8.62641 18.5459 8.70542 18.4053 8.84608C18.2646 8.98673 18.1856 9.17749 18.1856 9.37641C18.1856 9.57532 18.2646 9.76608 18.4053 9.90674C18.5459 10.0474 18.7367 10.1264 18.9356 10.1264ZM18.9356 20.7239H28.679C28.8779 20.7239 29.0686 20.6449 29.2093 20.5042C29.35 20.3636 29.429 20.1728 29.429 19.9739C29.429 19.775 29.35 19.5842 29.2093 19.4436C29.0686 19.3029 28.8779 19.2239 28.679 19.2239H18.9356C18.7367 19.2239 18.5459 19.3029 18.4053 19.4436C18.2646 19.5842 18.1856 19.775 18.1856 19.9739C18.1856 20.1728 18.2646 20.3636 18.4053 20.5042C18.5459 20.6449 18.7367 20.7239 18.9356 20.7239ZM18.9356 24.75H28.679C28.8779 24.75 29.0686 24.671 29.2093 24.5303C29.35 24.3897 29.429 24.1989 29.429 24C29.429 23.8011 29.35 23.6103 29.2093 23.4697C29.0686 23.329 28.8779 23.25 28.679 23.25H18.9356C18.7367 23.25 18.5459 23.329 18.4053 23.4697C18.2646 23.6103 18.1856 23.8011 18.1856 24C18.1856 24.1989 18.2646 24.3897 18.4053 24.5303C18.5459 24.671 18.7367 24.75 18.9356 24.75ZM23.3353 33.8474H18.9356C18.7367 33.8474 18.5459 33.9264 18.4053 34.0671C18.2646 34.2077 18.1856 34.3985 18.1856 34.5974C18.1856 34.7963 18.2646 34.9871 18.4053 35.1277C18.5459 35.2684 18.7367 35.3474 18.9356 35.3474H23.3353C23.5342 35.3474 23.725 35.2684 23.8656 35.1277C24.0063 34.9871 24.0853 34.7963 24.0853 34.5974C24.0853 34.3985 24.0063 34.2077 23.8656 34.0671C23.725 33.9264 23.5342 33.8474 23.3353 33.8474ZM23.3353 37.8735H18.9356C18.7367 37.8735 18.5459 37.9525 18.4053 38.0932C18.2646 38.2338 18.1856 38.4246 18.1856 38.6235C18.1856 38.8224 18.2646 39.0132 18.4053 39.1538C18.5459 39.2945 18.7367 39.3735 18.9356 39.3735H23.3353C23.5342 39.3735 23.725 39.2945 23.8656 39.1538C24.0063 39.0132 24.0853 38.8224 24.0853 38.6235C24.0853 38.4246 24.0063 38.2338 23.8656 38.0932C23.725 37.9525 23.5342 37.8735 23.3353 37.8735ZM48 31.1156V41.8718C48 42.0035 47.9653 42.1328 47.8995 42.2468C47.8337 42.3608 47.739 42.4555 47.625 42.5213L38.3097 47.8995C38.1957 47.9653 38.0664 48 37.9347 48C37.8031 48 37.6737 47.9653 37.5597 47.8995L34.0293 45.8611V47.25C34.0293 47.4489 33.9503 47.6397 33.8096 47.7803C33.669 47.921 33.4782 48 33.2793 48H0.75C0.551088 48 0.360322 47.921 0.21967 47.7803C0.0790176 47.6397 0 47.4489 0 47.25V0.75C0 0.551088 0.0790176 0.360322 0.21967 0.21967C0.360322 0.0790176 0.551088 0 0.75 0L33.2793 0C33.4782 0 33.669 0.0790176 33.8096 0.21967C33.9503 0.360322 34.0293 0.551088 34.0293 0.75V27.1263L37.5597 25.0875C37.6737 25.0217 37.8031 24.987 37.9347 24.987C38.0664 24.987 38.1957 25.0217 38.3097 25.0875L47.625 30.4661C47.739 30.5319 47.8337 30.6266 47.8995 30.7406C47.9653 30.8546 48 30.984 48 31.1156ZM30.1195 31.1156L37.9347 35.6276L45.75 31.1156L37.9347 26.6034L30.1195 31.1156ZM29.3695 41.4388L37.1847 45.951V36.9266L29.3695 32.4145V41.4388ZM32.5289 44.9951L28.2445 42.5213C28.1305 42.4555 28.0358 42.3608 27.97 42.2468C27.9042 42.1328 27.8695 42.0035 27.8695 41.8718V31.1156C27.8696 30.984 27.9042 30.8547 27.97 30.7407C28.0359 30.6267 28.1305 30.532 28.2445 30.4662L32.5289 27.9923V1.5H1.5V46.5H32.5293L32.5289 44.9951ZM46.5 41.4388V32.4145L38.6847 36.9266V45.951L46.5 41.4388Z" fill="#731B55"/>
</g>
</g>
<defs>
<clipPath id="clip0_1712_54666">
<rect width="48" height="48" fill="white"/>
</clipPath>
</defs>
</svg>
