<svg width="48" height="48" viewBox="0 0 48 48" fill="none" xmlns="http://www.w3.org/2000/svg">
<g id="Frame">
<g id="Group">
<path id="Vector" d="M34.5 34.5034C34.3011 34.5034 34.1103 34.4244 33.9697 34.2837C33.829 34.1431 33.75 33.9523 33.75 33.7534V27.7534C33.75 27.5545 33.829 27.3637 33.9697 27.2231C34.1103 27.0824 34.3011 27.0034 34.5 27.0034C34.6989 27.0034 34.8897 27.0824 35.0303 27.2231C35.171 27.3637 35.25 27.5545 35.25 27.7534V33.7534C35.25 33.9523 35.171 34.1431 35.0303 34.2837C34.8897 34.4244 34.6989 34.5034 34.5 34.5034Z" fill="#731B55"/>
<path id="Vector_2" d="M40.5 34.5036H34.5C34.3011 34.5036 34.1103 34.4246 33.9697 34.284C33.829 34.1433 33.75 33.9525 33.75 33.7536C33.75 33.5547 33.829 33.364 33.9697 33.2233C34.1103 33.0826 34.3011 33.0036 34.5 33.0036H40.5C40.6989 33.0036 40.8897 33.0826 41.0303 33.2233C41.171 33.364 41.25 33.5547 41.25 33.7536C41.25 33.9525 41.171 34.1433 41.0303 34.284C40.8897 34.4246 40.6989 34.5036 40.5 34.5036ZM20.0887 42.0036C19.9571 42.0039 19.8277 41.9692 19.7137 41.9031L4.125 32.9031C4.01099 32.8373 3.91631 32.7426 3.85049 32.6286C3.78466 32.5146 3.75 32.3853 3.75 32.2536V14.2536C3.75 13.9859 3.8925 13.7376 4.125 13.6041L19.7137 4.60413C19.8277 4.53816 19.9571 4.50342 20.0887 4.50342C20.2204 4.50342 20.3498 4.53816 20.4637 4.60413L36.0525 13.6041C36.1665 13.67 36.2612 13.7646 36.327 13.8786C36.3928 13.9927 36.4275 14.122 36.4275 14.2536V21.8114C36.4275 22.0103 36.3485 22.2011 36.2078 22.3417C36.0672 22.4824 35.8764 22.5614 35.6775 22.5614C35.4786 22.5614 35.2878 22.4824 35.1472 22.3417C35.0065 22.2011 34.9275 22.0103 34.9275 21.8114V14.6864L20.0887 6.11988L5.25 14.6864V31.8209L20.0887 40.3874L23.3962 38.4779C23.5684 38.38 23.7723 38.3542 23.9634 38.4061C24.1546 38.458 24.3174 38.5833 24.4165 38.7549C24.5155 38.9264 24.5427 39.1301 24.492 39.3216C24.4414 39.513 24.3171 39.6767 24.1462 39.7769L20.4637 41.9024C20.3499 41.9687 20.2205 42.0036 20.0887 42.0036Z" fill="#731B55"/>
<path id="Vector_3" d="M34.4284 43.4967C33.4947 43.4967 32.5654 43.358 31.6647 43.085C28.2132 42.038 25.5627 39.0725 24.9102 35.5295C24.2457 31.9228 25.7082 28.1675 28.6384 25.961C30.3049 24.7063 32.3929 24.0148 34.5177 24.0148C36.0552 24.0148 37.5777 24.377 38.9224 25.0633C42.1587 26.7133 44.2489 30.1243 44.2489 33.7535C44.2489 36.3695 43.1944 38.8318 41.2789 40.685C39.4339 42.4715 36.9364 43.4967 34.4284 43.4967ZM34.5177 25.5148C32.7169 25.5148 30.9484 26.099 29.5407 27.1588C27.0612 29.0263 25.8229 32.2055 26.3854 35.2572C26.9367 38.255 29.1807 40.7638 32.0997 41.6488C34.9099 42.5015 38.0862 41.687 40.2357 39.6065C41.8572 38.039 42.7489 35.96 42.7489 33.7535C42.7489 30.6823 40.9797 27.7955 38.2414 26.399C37.0869 25.8158 35.8112 25.5128 34.5177 25.5148ZM10.7937 18.6373C10.6285 18.6374 10.4679 18.583 10.3368 18.4826C10.2057 18.3822 10.1114 18.2412 10.0686 18.0817C10.0258 17.9222 10.0368 17.753 10.1 17.6004C10.1631 17.4478 10.2749 17.3203 10.4179 17.2378L26.0067 8.23775C26.092 8.18773 26.1864 8.15508 26.2844 8.14168C26.3824 8.12828 26.4821 8.1344 26.5777 8.15968C26.6733 8.18496 26.763 8.22891 26.8416 8.28899C26.9201 8.34907 26.9861 8.4241 27.0355 8.50976C27.085 8.59542 27.117 8.69001 27.1297 8.78809C27.1425 8.88618 27.1357 8.98582 27.1098 9.08127C27.0839 9.17673 27.0393 9.26611 26.9787 9.34428C26.9181 9.42245 26.8427 9.48787 26.7567 9.53675L11.1679 18.5368C11.0543 18.6027 10.9251 18.6374 10.7937 18.6373ZM13.7937 20.3698C13.6285 20.3699 13.4679 20.3155 13.3368 20.2151C13.2057 20.1147 13.1114 19.9737 13.0686 19.8142C13.0258 19.6547 13.0368 19.4855 13.1 19.3329C13.1631 19.1803 13.2749 19.0528 13.4179 18.9703L29.0067 9.97025C29.092 9.92023 29.1864 9.88758 29.2844 9.87418C29.3824 9.86078 29.4821 9.8669 29.5777 9.89218C29.6733 9.91746 29.763 9.96141 29.8416 10.0215C29.9201 10.0816 29.9861 10.1566 30.0355 10.2423C30.085 10.3279 30.117 10.4225 30.1297 10.5206C30.1425 10.6187 30.1357 10.7183 30.1098 10.8138C30.0839 10.9092 30.0393 10.9986 29.9787 11.0768C29.9181 11.155 29.8427 11.2204 29.7567 11.2693L14.1679 20.2693C14.0543 20.3352 13.9251 20.3699 13.7937 20.3698Z" fill="#731B55"/>
<path id="Vector_4" d="M13.793 25.5661C13.5941 25.5661 13.4033 25.4871 13.2626 25.3464C13.122 25.2058 13.043 25.015 13.043 24.8161V19.6201C13.043 19.4212 13.122 19.2304 13.2626 19.0898C13.4033 18.9491 13.5941 18.8701 13.793 18.8701C13.9919 18.8701 14.1826 18.9491 14.3233 19.0898C14.464 19.2304 14.543 19.4212 14.543 19.6201V24.8161C14.543 25.015 14.464 25.2058 14.3233 25.3464C14.1826 25.4871 13.9919 25.5661 13.793 25.5661Z" fill="#731B55"/>
<path id="Vector_5" d="M13.7926 25.566C13.6612 25.5661 13.5321 25.5314 13.4184 25.4655L10.4184 23.733C10.3324 23.6842 10.2569 23.6187 10.1963 23.5406C10.1357 23.4624 10.0912 23.373 10.0653 23.2776C10.0393 23.1821 10.0326 23.0825 10.0453 22.9844C10.0581 22.8863 10.0901 22.7917 10.1395 22.706C10.189 22.6204 10.2549 22.5454 10.3335 22.4853C10.4121 22.4252 10.5017 22.3813 10.5974 22.356C10.693 22.3307 10.7927 22.3246 10.8907 22.338C10.9887 22.3514 11.083 22.384 11.1684 22.434L14.1684 24.1665C14.3114 24.2491 14.4232 24.3766 14.4863 24.5292C14.5495 24.6818 14.5605 24.851 14.5177 25.0105C14.4749 25.17 14.3806 25.3109 14.2495 25.4114C14.1184 25.5118 13.9578 25.5662 13.7926 25.566Z" fill="#731B55"/>
<path id="Vector_6" d="M10.793 23.8332C10.5941 23.8332 10.4033 23.7542 10.2626 23.6135C10.122 23.4729 10.043 23.2821 10.043 23.0832V17.8872C10.043 17.6883 10.122 17.4975 10.2626 17.3569C10.4033 17.2162 10.5941 17.1372 10.793 17.1372C10.9919 17.1372 11.1826 17.2162 11.3233 17.3569C11.464 17.4975 11.543 17.6883 11.543 17.8872V23.0832C11.543 23.2821 11.464 23.4729 11.3233 23.6135C11.1826 23.7542 10.9919 23.8332 10.793 23.8332ZM20.0877 42.0035C19.8888 42.0035 19.698 41.9244 19.5574 41.7838C19.4167 41.6431 19.3377 41.4524 19.3377 41.2535V23.2535C19.3377 23.0545 19.4167 22.8638 19.5574 22.7231C19.698 22.5825 19.8888 22.5035 20.0877 22.5035C20.2866 22.5035 20.4774 22.5825 20.618 22.7231C20.7587 22.8638 20.8377 23.0545 20.8377 23.2535V41.2535C20.8377 41.4524 20.7587 41.6431 20.618 41.7838C20.4774 41.9244 20.2866 42.0035 20.0877 42.0035Z" fill="#731B55"/>
<path id="Vector_7" d="M20.0884 24.0035C19.957 24.0034 19.8279 23.9688 19.7142 23.903L4.1254 14.903C4.03942 14.8541 3.96395 14.7887 3.90335 14.7105C3.84275 14.6323 3.79821 14.5429 3.77229 14.4475C3.74638 14.352 3.7396 14.2524 3.75235 14.1543C3.7651 14.0562 3.79712 13.9616 3.84658 13.876C3.89604 13.7903 3.96195 13.7153 4.04052 13.6552C4.11909 13.5951 4.20877 13.5512 4.30439 13.5259C4.40002 13.5006 4.4997 13.4945 4.5977 13.5079C4.69569 13.5213 4.79007 13.5539 4.8754 13.604L20.4642 22.604C20.6072 22.6866 20.7189 22.814 20.7821 22.9666C20.8453 23.1192 20.8563 23.2884 20.8135 23.4479C20.7706 23.6075 20.6764 23.7484 20.5453 23.8488C20.4142 23.9493 20.2536 24.0036 20.0884 24.0035Z" fill="#731B55"/>
<path id="Vector_8" d="M20.0906 24.0035C19.9254 24.0036 19.7648 23.9493 19.6337 23.8488C19.5026 23.7484 19.4083 23.6075 19.3655 23.4479C19.3227 23.2884 19.3337 23.1192 19.3969 22.9666C19.46 22.814 19.5718 22.6866 19.7148 22.604L35.3036 13.604C35.3889 13.5539 35.4833 13.5213 35.5813 13.5079C35.6793 13.4945 35.7789 13.5006 35.8746 13.5259C35.9702 13.5512 36.0599 13.5951 36.1384 13.6552C36.217 13.7153 36.2829 13.7903 36.3324 13.876C36.3818 13.9616 36.4139 14.0562 36.4266 14.1543C36.4394 14.2524 36.4326 14.352 36.4067 14.4475C36.3808 14.5429 36.3362 14.6323 36.2756 14.7105C36.215 14.7887 36.1395 14.8541 36.0536 14.903L20.4648 23.903C20.3511 23.9688 20.222 24.0034 20.0906 24.0035Z" fill="#731B55"/>
</g>
</g>
</svg>
