<svg width="16" height="16" viewBox="0 0 16 16" fill="none" xmlns="http://www.w3.org/2000/svg">
<path d="M8.7455 11.3487L5.94617 9.82199C5.5807 10.2127 5.10616 10.4844 4.58422 10.6019C4.06228 10.7194 3.51707 10.6771 3.01945 10.4807C2.52183 10.2842 2.09481 9.94263 1.79388 9.50029C1.49295 9.05795 1.33203 8.53532 1.33203 8.00033C1.33203 7.46533 1.49295 6.9427 1.79388 6.50036C2.09481 6.05802 2.52183 5.71643 3.01945 5.51997C3.51707 5.32351 4.06228 5.28127 4.58422 5.39874C5.10616 5.5162 5.5807 5.78795 5.94617 6.17866L8.74617 4.65199C8.58721 4.02271 8.66321 3.35705 8.95992 2.77979C9.25664 2.20254 9.75371 1.75331 10.3579 1.51633C10.9622 1.27934 11.6321 1.27086 12.2422 1.49248C12.8522 1.7141 13.3605 2.1506 13.6717 2.72017C13.9829 3.28973 14.0758 3.95325 13.9328 4.58636C13.7898 5.21946 13.4208 5.77868 12.895 6.1592C12.3692 6.53972 11.7226 6.7154 11.0766 6.65332C10.4305 6.59124 9.82924 6.29567 9.3855 5.82199L6.5855 7.34866C6.69297 7.77623 6.69297 8.22375 6.5855 8.65133L9.38484 10.178C9.82857 9.70432 10.4298 9.40874 11.0759 9.34666C11.722 9.28459 12.3685 9.46027 12.8943 9.84079C13.4201 10.2213 13.7891 10.7805 13.9321 11.4136C14.0751 12.0467 13.9823 12.7103 13.671 13.2798C13.3598 13.8494 12.8515 14.2859 12.2415 14.5075C11.6314 14.7291 10.9615 14.7206 10.3573 14.4837C9.75304 14.2467 9.25598 13.7974 8.95926 13.2202C8.66254 12.6429 8.58654 11.9773 8.7455 11.348V11.3487ZM3.99884 9.33333C4.35246 9.33333 4.6916 9.19285 4.94164 8.9428C5.19169 8.69275 5.33217 8.35361 5.33217 7.99999C5.33217 7.64637 5.19169 7.30723 4.94164 7.05718C4.6916 6.80714 4.35246 6.66666 3.99884 6.66666C3.64521 6.66666 3.30607 6.80714 3.05603 7.05718C2.80598 7.30723 2.6655 7.64637 2.6655 7.99999C2.6655 8.35361 2.80598 8.69275 3.05603 8.9428C3.30607 9.19285 3.64521 9.33333 3.99884 9.33333ZM11.3322 5.33333C11.6858 5.33333 12.0249 5.19285 12.275 4.9428C12.525 4.69275 12.6655 4.35362 12.6655 3.99999C12.6655 3.64637 12.525 3.30723 12.275 3.05718C12.0249 2.80714 11.6858 2.66666 11.3322 2.66666C10.9785 2.66666 10.6394 2.80714 10.3894 3.05718C10.1393 3.30723 9.99884 3.64637 9.99884 3.99999C9.99884 4.35362 10.1393 4.69275 10.3894 4.9428C10.6394 5.19285 10.9785 5.33333 11.3322 5.33333ZM11.3322 13.3333C11.6858 13.3333 12.0249 13.1929 12.275 12.9428C12.525 12.6928 12.6655 12.3536 12.6655 12C12.6655 11.6464 12.525 11.3072 12.275 11.0572C12.0249 10.8071 11.6858 10.6667 11.3322 10.6667C10.9785 10.6667 10.6394 10.8071 10.3894 11.0572C10.1393 11.3072 9.99884 11.6464 9.99884 12C9.99884 12.3536 10.1393 12.6928 10.3894 12.9428C10.6394 13.1929 10.9785 13.3333 11.3322 13.3333Z" fill="#0C0B0B"/>
</svg>
