<svg width="48" height="48" viewBox="0 0 48 48" fill="none" xmlns="http://www.w3.org/2000/svg">
<path d="M43.5037 33.8286C43.1989 32.3048 42.0561 28.7238 37.7132 27.3524C37.7132 27.3524 34.1322 26.2857 31.5418 25.981C30.3989 25.8286 29.4846 24.9143 29.2561 23.7714C31.9989 21.0286 33.7513 16.4572 33.9037 13.0286C34.437 12.4191 34.6656 11.4286 34.6656 10.0572C34.6656 7.00953 34.2084 4.95239 33.2941 3.50477C31.5418 0.685725 28.037 0.457153 23.9989 0.457153C19.9608 0.457153 16.5322 0.685725 14.7037 3.42858C13.7132 4.8762 13.3322 7.00953 13.3322 10.1333C13.3322 11.5048 13.5608 12.4952 14.0941 13.1048C14.2465 16.5333 15.9989 20.9524 18.5894 23.6953C18.437 24.9143 17.4465 25.9048 16.2275 26.0572C13.8656 26.3619 10.2084 27.4286 10.2084 27.4286C7.16082 28.3429 5.10367 30.8572 4.41796 33.981C3.42748 38.8572 5.40843 44.9524 5.40843 44.9524C5.40843 44.9524 13.4846 47.6191 23.9989 47.6191C34.5132 47.6191 42.6656 44.9524 42.6656 44.9524C42.6656 44.9524 44.4941 39.2381 43.5037 33.8286ZM33.9037 37.7143V27.9619C34.437 28.0381 34.8941 28.1905 35.4275 28.3429V37.7143H33.9037ZM15.6941 13.7905C16.5322 13.8667 17.9037 13.5619 19.0465 13.2572C20.1894 12.9524 21.5608 12.5714 22.9322 12.4191H25.0656C26.437 12.4952 27.8084 12.8762 28.9513 13.2572C30.1703 13.6381 31.3132 13.9429 32.3037 13.7905C31.7703 18.4381 28.1894 24.7619 23.9989 24.7619C19.8084 24.7619 16.3037 18.5143 15.6941 13.7905ZM32.6084 12.1143C32.0751 12.4952 30.7799 12.1143 29.4084 11.7333C28.1894 11.3524 26.7418 10.9714 25.1418 10.8952H22.8561C21.2561 11.0476 19.8846 11.4286 18.5894 11.7333C17.218 12.1143 15.8465 12.4952 15.3894 12.1143C15.0846 11.8857 14.9322 11.4286 14.8561 10.5905C20.7989 8.38096 27.1227 8.38096 33.0656 10.5905C33.0656 11.4286 32.9132 11.9619 32.6084 12.1143ZM15.9989 4.19049C17.218 2.28572 19.6561 1.90477 23.9989 1.90477C28.3418 1.90477 30.7799 2.28572 31.9989 4.19049C32.6846 5.25715 32.9894 6.78096 33.0656 8.99049C27.0465 6.85715 20.7989 6.85715 14.7799 8.99049C14.9322 6.78096 15.3132 5.18096 15.9989 4.19049ZM19.8846 24.7619C21.1037 25.6762 22.4751 26.2857 23.9989 26.2857C25.4465 26.2857 26.818 25.7524 27.9608 24.8381C28.3418 25.8286 29.1799 26.6667 30.0941 27.1238L23.9227 31.4667L17.7513 27.0476C18.7418 26.5905 19.5037 25.7524 19.8846 24.7619ZM23.9989 33.2953L32.0751 27.581C32.1513 27.581 32.2275 27.581 32.3799 27.6572V37.7143H15.618V27.581C15.6941 27.581 15.7703 27.581 15.8465 27.5048L23.9989 33.2953ZM12.5703 28.2667C13.1037 28.1143 13.5608 28.0381 14.0941 27.8857V37.7143H12.5703V28.2667ZM6.01796 34.0572C6.4751 31.5429 8.37986 29.3333 11.0465 28.6476V37.7143H9.52272V44.4191L6.62748 43.6572C5.56082 40.0762 5.56082 36.8762 6.01796 34.0572ZM11.0465 44.8V39.2381H36.9513V44.8C28.4053 46.5524 19.5925 46.5524 11.0465 44.8ZM41.3703 43.7333L38.4751 44.4953V37.7905H36.9513V28.7238C40.9132 29.8667 41.8275 32.9143 41.9799 34.1333C42.5132 36.9524 42.437 39.8476 41.3703 43.7333Z" fill="#0C0B0B"/>
<path d="M14.0938 40.7619H17.1414V42.2857H14.0938V40.7619ZM30.8557 40.7619H33.9033V42.2857H30.8557V40.7619ZM21.7128 3.42859H26.2842V4.9524H21.7128V3.42859Z" fill="#0C0B0B"/>
</svg>
