<svg width="48" height="48" viewBox="0 0 48 48" fill="none" xmlns="http://www.w3.org/2000/svg">
<path d="M44.37 32.5313C43.7547 31.2717 42.8837 30.1542 41.8125 29.25C41.7297 29.1844 41.634 29.137 41.5316 29.1109C41.4292 29.0849 41.3225 29.0807 41.2184 29.0988C41.1143 29.1169 41.0152 29.1567 40.9276 29.2157C40.84 29.2747 40.7658 29.3516 40.71 29.4413C40.2559 30.1551 39.7548 30.8378 39.21 31.485C37.4769 31.5062 35.7595 31.8167 34.1287 32.4038C33.2212 32.7525 32.82 32.6813 30.84 32.235C30.4887 32.1408 30.1209 32.1256 29.763 32.1905C29.4051 32.2553 29.066 32.3986 28.77 32.61C27.3675 33.6938 28.02 36.1875 29.7825 37.0838C30.6989 37.5035 31.6922 37.7295 32.7 37.7475C33.825 37.8188 33.645 38.0063 33.72 37.965C33.72 38.5238 32.8462 39.465 31.6725 39.6188C30.9225 39.7163 26.175 40.1325 24.9937 40.3688C24.1087 40.5375 22.2675 40.8825 21.96 42.54C21.7087 43.8863 22.4662 45.0675 24.7762 45.0675H24.8137C26.9137 45.0675 32.205 44.9325 34.2487 44.6363C36.2925 44.34 39.4162 41.67 40.4512 40.6688C42.5325 38.655 43.4512 38.67 43.56 38.6813C43.7262 38.7541 43.9131 38.7642 44.0862 38.7097C44.2593 38.6553 44.4067 38.5399 44.5012 38.385C45.2062 37.1963 45.5512 35.0475 44.37 32.5313ZM43.4175 37.1625C42.6675 37.2 41.3587 37.6725 39.3975 39.57C38.0362 40.89 35.385 42.945 34.02 43.1325C32.0175 43.425 26.5575 43.5375 24.795 43.5488C23.8237 43.5488 23.5312 43.3163 23.4712 43.245C23.4324 43.1775 23.4082 43.1024 23.4005 43.0248C23.3927 42.9473 23.4015 42.8689 23.4262 42.795C23.5125 42.3225 24.0075 42.045 25.26 41.8238C26.385 41.61 31.0537 41.2088 31.86 41.1038C33.6187 40.8675 35.1825 39.4125 35.2087 37.9875C35.2087 37.1888 34.59 36.5363 33.6 36.33C32.85 36.1763 31.6125 36.33 30.4462 35.7413C29.5575 35.2913 29.2687 34.1063 29.6775 33.7913C29.8012 33.7217 29.9376 33.6776 30.0787 33.6615C30.2197 33.6454 30.3625 33.6576 30.4987 33.6975C32.475 34.1438 33.2925 34.3275 34.6575 33.8063C37.68 32.64 39.555 33.33 40.1925 32.64C40.6583 32.1177 41.0893 31.5652 41.4825 30.9863C42.1063 31.627 42.6229 32.3639 43.0125 33.1688C43.8 34.8525 43.7625 36.2625 43.4175 37.1625Z" fill="#0C0B0B"/>
<path d="M6.84755 27.0638C6.65232 27.0358 6.45391 27.0858 6.29528 27.203C6.13666 27.3202 6.03059 27.4952 6.00005 27.69L5.31005 32.0588C5.29457 32.1563 5.29851 32.2559 5.32163 32.3519C5.34476 32.448 5.38662 32.5384 5.4448 32.6182C5.50299 32.698 5.57636 32.7655 5.6607 32.8169C5.74505 32.8683 5.8387 32.9025 5.9363 32.9175L25.7625 36C25.861 36.0153 25.9616 36.011 26.0584 35.9874C26.1552 35.9638 26.2465 35.9214 26.3269 35.8626C26.4074 35.8037 26.4754 35.7296 26.5272 35.6444C26.579 35.5593 26.6135 35.4648 26.6288 35.3663C26.6441 35.2678 26.6398 35.1673 26.6162 35.0704C26.5926 34.9736 26.5502 34.8823 26.4913 34.8019C26.4325 34.7215 26.3584 34.6534 26.2732 34.6016C26.1881 34.5498 26.0935 34.5153 25.995 34.5L6.90755 31.5225L7.4738 27.8963C7.4976 27.7034 7.44561 27.5088 7.3288 27.3536C7.21198 27.1983 7.03945 27.0944 6.84755 27.0638ZM19.995 9.69753L21.21 9.30378L22.2488 10.0538C22.3441 10.1223 22.4541 10.1675 22.5701 10.1857C22.686 10.2039 22.8046 10.1947 22.9163 10.1588L24.1313 9.75003L25.1663 10.5C25.262 10.5691 25.3727 10.6147 25.4894 10.6329C25.606 10.6511 25.7253 10.6416 25.8375 10.605L27.0488 10.2113L28.0838 10.9613C28.4925 11.2538 29.16 11.115 29.28 10.3463L29.73 7.46628L38.1038 8.77128L34.9201 29.19C34.8953 29.3836 34.947 29.5793 35.0642 29.7354C35.1814 29.8915 35.3549 29.9957 35.5477 30.026C35.7405 30.0563 35.9376 30.0102 36.097 29.8975C36.2563 29.7848 36.3655 29.6144 36.4013 29.4225L39.7013 8.25003C39.7168 8.1525 39.7128 8.05287 39.6897 7.95686C39.6666 7.86086 39.6247 7.77036 39.5665 7.69058C39.5084 7.61079 39.435 7.54327 39.3506 7.49191C39.2663 7.44055 39.1726 7.40635 39.0751 7.39128L10.605 2.96628C10.4086 2.93611 10.2083 2.98511 10.048 3.10253C9.88769 3.21994 9.78053 3.39618 9.75005 3.59253L8.8763 9.18378C8.86128 9.28227 8.86581 9.38276 8.88962 9.4795C8.91343 9.57624 8.95607 9.66734 9.01509 9.74761C9.1343 9.90971 9.31301 10.0178 9.51192 10.0482C9.71084 10.0785 9.91365 10.0286 10.0758 9.90936C10.2379 9.79016 10.346 9.61144 10.3763 9.41253L11.1263 4.56378L19.5 5.86878L19.05 8.74878C18.9225 9.49878 19.5 9.85878 19.995 9.69753ZM28.245 7.23378L27.9638 9.02628C27.75 8.91003 27.4463 8.50503 26.94 8.67003L25.7288 9.06378L24.6938 8.31378C24.5978 8.24531 24.4869 8.20046 24.3703 8.18286C24.2537 8.16527 24.1345 8.17543 24.0225 8.21253L22.815 8.62503L21.7763 7.87503C21.345 7.56378 20.9288 7.87503 20.6925 7.90503L20.97 6.11253L28.245 7.23378Z" fill="#0C0B0B"/>
<path d="M2.38691 21.7688C3.39405 22.1372 4.3783 22.5655 5.33441 23.0513C6.04311 23.7266 6.69646 24.4577 7.28816 25.2375C9.41816 28.005 14.1319 29.7375 17.6607 31.0688C18.6694 31.4438 20.5369 31.9463 21.5044 31.4438C21.9622 31.2294 22.3196 30.8465 22.5019 30.375L23.8519 31.065C25.2207 31.7625 26.3982 31.2225 26.9607 30.3788C27.143 30.1039 27.2645 29.7932 27.3169 29.4675C27.8327 29.6653 28.4032 29.6665 28.9198 29.4708C29.4364 29.2751 29.8629 28.8962 30.1182 28.4063C30.3398 27.9866 30.4184 27.506 30.3419 27.0376C30.2654 26.5692 30.038 26.1386 29.6944 25.8113C29.9519 25.5591 30.145 25.2487 30.2575 24.9063C30.3701 24.5639 30.3987 24.1994 30.341 23.8437C30.2833 23.4879 30.1409 23.1512 29.926 22.8619C29.711 22.5726 29.4297 22.3392 29.1057 22.1813C28.6894 21.9413 20.0457 16.6838 19.9219 16.5C20.0721 16.4754 20.2236 16.4604 20.3757 16.455C23.6869 16.26 24.8757 14.6063 24.7482 13.1925C24.6282 11.6475 23.6232 10.7925 22.0744 11.1038C18.9207 11.7338 16.9782 10.395 13.4494 12.1688C11.4957 13.1475 10.9969 12.8775 10.5957 12.66C10.2619 12.48 8.79191 11.4113 7.94816 10.785C7.81867 10.6885 7.66151 10.6364 7.50003 10.6364C7.33856 10.6364 7.18139 10.6885 7.05191 10.785C5.16856 12.3611 3.72007 14.3931 2.84441 16.6875C1.67441 19.6238 1.87691 21.0525 1.91816 21.2063C1.94171 21.3323 1.99716 21.4501 2.07922 21.5486C2.16129 21.6471 2.26722 21.7229 2.38691 21.7688ZM4.23566 17.25C4.96608 15.3946 6.09223 13.7207 7.53566 12.345C8.25566 12.8775 9.47816 13.7625 9.88316 13.9838C10.8769 14.5088 11.9157 14.625 14.1244 13.5C15.9357 12.5888 17.2294 12.6563 18.7257 12.75C22.5919 12.9488 22.5357 12.2738 23.0044 12.6263C23.1675 12.8159 23.2556 13.0587 23.2519 13.3088C23.3044 14.01 22.4194 14.5688 21.7744 14.7375C20.1507 15.165 19.1194 14.6513 18.5419 15.8925C18.3934 16.2456 18.3794 16.6407 18.5023 17.0035C18.6253 17.3662 18.8768 17.6713 19.2094 17.8613C19.7082 18.195 27.4969 22.995 28.3707 23.4863C28.8507 23.7563 28.9857 24.1163 28.7757 24.5625C28.7469 24.6294 28.7045 24.6896 28.6513 24.7393C28.598 24.789 28.5349 24.827 28.4662 24.851C28.3974 24.875 28.3244 24.8844 28.2518 24.8786C28.1792 24.8729 28.1085 24.852 28.0444 24.8175L21.1369 21.2925C20.9594 21.202 20.7532 21.1857 20.5636 21.2473C20.3741 21.3088 20.2168 21.4431 20.1263 21.6206C20.0358 21.7982 20.0195 22.0044 20.081 22.1939C20.1426 22.3834 20.2769 22.5408 20.4544 22.6313L28.2619 26.625C28.8807 26.94 28.9744 27.375 28.7832 27.75C28.7329 27.8352 28.6663 27.9096 28.5872 27.969C28.5081 28.0283 28.418 28.0714 28.3221 28.0958C28.2263 28.1202 28.1266 28.1254 28.0287 28.1111C27.9308 28.0968 27.8368 28.0633 27.7519 28.0125L19.5019 23.8125C19.4139 23.7642 19.3172 23.734 19.2173 23.7238C19.1175 23.7136 19.0166 23.7235 18.9207 23.753C18.8248 23.7824 18.7357 23.8309 18.6588 23.8954C18.5819 23.9599 18.5188 24.0392 18.4731 24.1285C18.4274 24.2179 18.4001 24.3155 18.3929 24.4156C18.3856 24.5157 18.3985 24.6162 18.4308 24.7112C18.4631 24.8063 18.5141 24.8938 18.5809 24.9688C18.6476 25.0437 18.7287 25.1045 18.8194 25.1475L25.5694 28.5788C25.6445 28.6302 25.7082 28.6964 25.7568 28.7734C25.8053 28.8504 25.8376 28.9365 25.8516 29.0264C25.8657 29.1163 25.8612 29.2081 25.8385 29.2962C25.8157 29.3843 25.7752 29.4669 25.7194 29.5388C25.4719 29.9138 25.0444 29.9775 24.5419 29.7225L17.0982 25.9275C16.9219 25.8439 16.72 25.8322 16.5353 25.895C16.3506 25.9578 16.1977 26.09 16.1089 26.2637C16.0201 26.4374 16.0024 26.6389 16.0597 26.8253C16.117 27.0118 16.2447 27.1686 16.4157 27.2625L21.1332 29.67C21.1287 29.7662 21.0971 29.8591 21.042 29.9381C20.9869 30.0171 20.9106 30.0788 20.8219 30.1163C20.5969 30.2288 19.5244 30.1725 18.1969 29.6663C15.0244 28.455 10.3219 26.745 8.47691 24.3225C7.8217 23.4584 7.09542 22.6506 6.30566 21.9075C5.93066 21.5888 4.46816 20.9775 3.38816 20.55C3.49314 19.4119 3.77925 18.2979 4.23566 17.25Z" fill="#0C0B0B"/>
</svg>
