<svg width="48" height="48" viewBox="0 0 48 48" fill="none" xmlns="http://www.w3.org/2000/svg">
<g id="Frame" clip-path="url(#clip0_1740_57298)">
<g id="Group">
<path id="Vector" d="M8.52965 4.88701C8.52082 4.77576 8.4811 4.66917 8.41497 4.57927C8.34884 4.48937 8.25892 4.41971 8.15533 4.37816L6.04691 3.53504L5.54576 1.3208C5.52114 1.21198 5.46653 1.11222 5.38811 1.03285C5.30968 0.95348 5.21059 0.897668 5.10207 0.871743C4.99362 0.845983 4.88013 0.850911 4.77432 0.885976C4.66851 0.92104 4.57454 0.984858 4.50293 1.07029L3.04982 2.81514L0.788282 2.60761C0.556219 2.58728 0.342842 2.69613 0.223832 2.89047C0.165534 2.98564 0.135031 3.09522 0.135774 3.20682C0.136517 3.31842 0.168477 3.42758 0.228036 3.52196L1.43834 5.44329L0.54197 7.52999C0.452275 7.73928 0.488714 7.9808 0.636454 8.15424C0.784195 8.32767 1.01731 8.40184 1.23863 8.34554L3.43979 7.78763L5.14703 9.28489C5.2309 9.35855 5.33373 9.40724 5.44386 9.42542C5.55399 9.44361 5.66702 9.43057 5.77011 9.38778C5.87313 9.34519 5.96218 9.27462 6.02717 9.18406C6.09217 9.09349 6.13052 8.98654 6.13789 8.87531L6.28785 6.60921L8.23966 5.44796C8.33551 5.39082 8.41347 5.30801 8.46472 5.20888C8.51596 5.10975 8.53846 4.99826 8.52965 4.88701ZM5.40643 5.74157C5.32325 5.79121 5.25336 5.86029 5.20275 5.94288C5.15214 6.02547 5.12232 6.1191 5.11585 6.21574L5.02557 7.58687L3.99174 6.68092C3.91884 6.61699 3.83147 6.57176 3.73717 6.54915C3.64288 6.52655 3.5445 6.52724 3.45053 6.55117L2.11946 6.88846L2.66126 5.62618C2.69959 5.5371 2.71564 5.44002 2.70803 5.34334C2.70042 5.24667 2.66938 5.1533 2.61758 5.07131L1.88507 3.90889L3.25327 4.03444C3.45544 4.05359 3.64137 3.97289 3.7675 3.82211L4.64647 2.76609L4.94966 4.10615C4.97121 4.20064 5.01533 4.28851 5.07824 4.36223C5.14115 4.43596 5.22097 4.49336 5.31089 4.52952L6.58683 5.03954L5.40643 5.74157ZM18.8284 5.50297L17.3741 4.09062L17.7126 2.09162C17.731 1.98164 17.7184 1.86867 17.6762 1.76546C17.6339 1.66224 17.5637 1.57288 17.4734 1.50744C17.383 1.44202 17.2762 1.40321 17.1649 1.39538C17.0536 1.38756 16.9424 1.41104 16.8438 1.46317L15.051 2.40976L13.2548 1.46971C13.156 1.41788 13.0446 1.39476 12.9333 1.403C12.822 1.41124 12.7153 1.45049 12.6252 1.51631C12.5349 1.58199 12.4649 1.67165 12.423 1.77511C12.3811 1.87858 12.3691 1.99171 12.3883 2.10167L12.7345 4.09949L11.285 5.51733C11.1217 5.67582 11.0644 5.91314 11.1349 6.12967C11.2054 6.3462 11.3932 6.5034 11.6187 6.53575L13.6255 6.82341L14.5266 8.64009C14.5762 8.73987 14.6526 8.82386 14.7472 8.8826C14.8419 8.94133 14.9511 8.9725 15.0625 8.97259H15.0636C15.1753 8.97255 15.2846 8.94121 15.3793 8.88212C15.474 8.82303 15.5502 8.73857 15.5993 8.63834L16.4933 6.81873L18.4988 6.52337C18.7242 6.49044 18.9108 6.33207 18.9808 6.11554C19.0508 5.89901 18.9922 5.66134 18.8284 5.50297ZM16.0078 5.68049C15.9119 5.69456 15.8208 5.73175 15.7425 5.78884C15.6642 5.84593 15.6009 5.92122 15.5581 6.00821L15.06 7.023L14.5571 6.01007C14.5142 5.92318 14.4506 5.84808 14.3721 5.79129C14.2935 5.73451 14.2023 5.69776 14.1063 5.68423L12.9874 5.52341L13.7953 4.73413C13.8646 4.66634 13.9164 4.58268 13.9462 4.49038C13.976 4.39808 13.9829 4.29992 13.9663 4.20437L13.7731 3.091L14.7747 3.61481C14.8607 3.65969 14.9562 3.68303 15.0532 3.68282C15.1502 3.68262 15.2457 3.65888 15.3314 3.61364L16.3313 3.08563L16.1423 4.20028C16.1262 4.29585 16.1335 4.39391 16.1638 4.486C16.194 4.57809 16.2461 4.66144 16.3157 4.72888L17.126 5.5164L16.0078 5.68049ZM42.9625 43.5099C42.9537 43.3986 42.914 43.292 42.8478 43.2021C42.7817 43.1122 42.6918 43.0426 42.5882 43.001L40.5461 42.1848L40.0606 40.0399C40.0361 39.931 39.9815 39.8312 39.9031 39.7518C39.8246 39.6724 39.7255 39.6167 39.6169 39.5908C39.3975 39.5364 39.1637 39.6142 39.0178 39.79L37.6108 41.4798L35.4204 41.2789C35.3092 41.268 35.1972 41.2888 35.0973 41.3389C34.9974 41.3889 34.9138 41.4662 34.8559 41.5618C34.7976 41.657 34.7671 41.7665 34.7679 41.8781C34.7686 41.9897 34.8006 42.0989 34.8601 42.1933L36.0327 44.0541L35.1645 46.0746C35.1205 46.1771 35.106 46.2899 35.1227 46.4002C35.1394 46.5105 35.1866 46.614 35.259 46.6989C35.3313 46.7838 35.426 46.8468 35.5324 46.8806C35.6387 46.9145 35.7524 46.9178 35.8606 46.8902L37.9929 46.3502L39.6464 47.8003C39.7304 47.8737 39.8332 47.9223 39.9432 47.9404C40.0533 47.9586 40.1663 47.9457 40.2694 47.9032C40.3725 47.8605 40.4616 47.7899 40.5266 47.6992C40.5916 47.6085 40.6299 47.5015 40.6372 47.3901L40.7819 45.1956L42.6726 44.0708C42.7685 44.0137 42.8465 43.9309 42.8977 43.8318C42.9489 43.7326 42.9714 43.6211 42.9625 43.5099ZM39.8997 44.3279C39.8164 44.3774 39.7465 44.4465 39.6958 44.5291C39.6452 44.6117 39.6154 44.7054 39.6091 44.8021L39.5236 46.1015L38.5448 45.2428C38.4358 45.1472 38.2957 45.0945 38.1507 45.0945C38.1017 45.0945 38.0526 45.1004 38.0043 45.1131L36.742 45.433L37.2556 44.2364C37.294 44.1474 37.31 44.0503 37.3024 43.9536C37.2948 43.8569 37.2638 43.7635 37.212 43.6816L36.5183 42.5801L37.8147 42.6991C37.9113 42.7087 38.0088 42.6943 38.0985 42.6571C38.1882 42.62 38.2674 42.5613 38.329 42.4862L39.1625 41.4858L39.4496 42.7559C39.471 42.8504 39.5151 42.9383 39.578 43.012C39.6409 43.0857 39.7207 43.1431 39.8107 43.1792L41.0192 43.6624L39.8997 44.3279ZM47.998 3.90761C47.9894 3.7962 47.9498 3.68942 47.8836 3.59938C47.8175 3.50933 47.7274 3.43963 47.6236 3.39816L45.6377 2.60469L45.1653 0.51775C45.1408 0.408875 45.0862 0.309067 45.0078 0.22968C44.9293 0.150292 44.8302 0.0945136 44.7216 0.0686891C44.5022 0.0142645 44.2684 0.0920472 44.1225 0.267817L42.7543 1.91165L40.6244 1.71614C40.5132 1.70563 40.4014 1.72658 40.3016 1.7766C40.2017 1.82661 40.118 1.90368 40.0599 1.99901C40.0016 2.09418 39.9711 2.20376 39.9719 2.31535C39.9726 2.42695 40.0046 2.53611 40.0641 2.6305L41.2045 4.44052L40.3595 6.406C40.3154 6.5085 40.3009 6.62129 40.3176 6.7316C40.3343 6.84192 40.3816 6.94536 40.454 7.03024C40.5264 7.11532 40.6212 7.17836 40.7276 7.21218C40.8341 7.246 40.9479 7.24925 41.0561 7.22155L43.1299 6.69657L44.7379 8.10717C44.8217 8.18083 44.9246 8.22952 45.0347 8.2477C45.1448 8.26589 45.2578 8.25285 45.3609 8.21006C45.464 8.1674 45.5531 8.09673 45.6181 8.00605C45.6831 7.91538 45.7214 7.80833 45.7287 7.697L45.8698 5.5623L47.708 4.46855C47.8038 4.41143 47.8818 4.32861 47.933 4.22948C47.9843 4.13035 48.0068 4.01885 47.998 3.90761ZM44.9878 4.69384C44.9046 4.74348 44.8347 4.81256 44.7841 4.89515C44.7335 4.97774 44.7037 5.07137 44.6972 5.16801L44.6153 6.40763L43.6814 5.58846C43.6085 5.52452 43.5211 5.4793 43.4268 5.45669C43.3325 5.43408 43.2341 5.43478 43.1402 5.4587L41.9364 5.76365L42.4267 4.62272C42.465 4.53364 42.4811 4.43656 42.4735 4.33988C42.4659 4.2432 42.4348 4.14982 42.383 4.06784L41.721 3.01719L42.9576 3.13083C43.1591 3.15057 43.3457 3.06928 43.4718 2.91792L44.2659 1.9635L44.5404 3.17498C44.5618 3.26948 44.6059 3.35737 44.6688 3.43111C44.7317 3.50484 44.8115 3.56223 44.9015 3.59834L46.0549 4.05943L44.9878 4.69384ZM28.6788 0.0518712C28.6002 0.0518558 28.5225 0.0673123 28.4499 0.0973576C28.3774 0.127403 28.3114 0.171448 28.2559 0.226978C28.2004 0.282508 28.1563 0.348433 28.1263 0.420989C28.0962 0.493545 28.0808 0.57131 28.0808 0.649841V17.0952C28.0808 17.4252 28.3481 17.6931 28.6788 17.6931C29.0094 17.6931 29.2767 17.4252 29.2767 17.0952V0.649841C29.2768 0.571292 29.2614 0.4935 29.2314 0.420917C29.2013 0.348333 29.1573 0.282383 29.1018 0.226841C29.0462 0.171299 28.9803 0.127256 28.9077 0.0972324C28.8351 0.0672089 28.7573 0.0517943 28.6788 0.0518712ZM28.6788 26.2554C28.6002 26.2554 28.5225 26.2709 28.4499 26.3009C28.3774 26.331 28.3114 26.375 28.2559 26.4305C28.2004 26.4861 28.1563 26.552 28.1263 26.6245C28.0962 26.6971 28.0808 26.7749 28.0808 26.8534V36.782C28.0808 37.1121 28.3481 37.38 28.6788 37.38C29.0094 37.38 29.2767 37.1121 29.2767 36.782V26.8534C29.2768 26.7749 29.2613 26.6971 29.2313 26.6245C29.2012 26.552 29.1572 26.486 29.1017 26.4305C29.0461 26.375 28.9802 26.3309 28.9076 26.3009C28.8351 26.2708 28.7573 26.2554 28.6788 26.2554ZM26.8933 13.7088L24.9671 8.33246C24.8554 8.02156 24.5115 7.85887 24.203 7.97134C24.129 7.99783 24.061 8.03862 24.0029 8.09139C23.9447 8.14416 23.8975 8.20787 23.864 8.27889C23.8304 8.34991 23.8112 8.42683 23.8074 8.50528C23.8036 8.58373 23.8152 8.66216 23.8417 8.73609L25.7679 14.1124C25.8094 14.2284 25.8858 14.3287 25.9865 14.3997C26.0872 14.4707 26.2074 14.5088 26.3306 14.5089C26.3975 14.5089 26.4657 14.4976 26.532 14.4737C26.606 14.4472 26.674 14.4064 26.7322 14.3537C26.7904 14.3009 26.8376 14.2372 26.8712 14.1661C26.9047 14.0951 26.924 14.0181 26.9278 13.9397C26.9315 13.8612 26.9198 13.7828 26.8933 13.7088ZM24.0726 5.44189L22.3002 0.49556C22.1878 0.184078 21.8446 0.0219727 21.5361 0.134442C21.4621 0.160863 21.394 0.201618 21.3358 0.254373C21.2776 0.307129 21.2304 0.370848 21.1968 0.441884C21.1633 0.512919 21.144 0.589876 21.1403 0.668347C21.1365 0.746818 21.1482 0.825262 21.1748 0.899189L22.9472 5.84563C22.9888 5.96162 23.0652 6.06194 23.1659 6.13291C23.2666 6.20388 23.3867 6.24202 23.5099 6.24214C23.5769 6.24214 23.6451 6.23081 23.7114 6.20687C23.7854 6.18042 23.8535 6.13964 23.9117 6.08687C23.9699 6.03409 24.0171 5.97035 24.0507 5.89929C24.0842 5.82824 24.1034 5.75127 24.1072 5.67278C24.111 5.59429 24.0992 5.51583 24.0726 5.44189ZM35.8772 39.1943L30.3136 23.6627C30.2018 23.3511 29.8586 23.1891 29.5494 23.3014C29.4754 23.3278 29.4073 23.3686 29.3491 23.4213C29.2909 23.4741 29.2436 23.5378 29.2101 23.6089C29.1765 23.6799 29.1573 23.7569 29.1536 23.8354C29.1499 23.9139 29.1617 23.9924 29.1883 24.0663L34.7518 39.598C34.7933 39.714 34.8696 39.8144 34.9703 39.8853C35.0711 39.9563 35.1912 39.9944 35.3145 39.9945C35.3814 39.9945 35.4496 39.9831 35.5159 39.9592C35.5899 39.9328 35.658 39.892 35.7162 39.8393C35.7745 39.7865 35.8217 39.7228 35.8553 39.6517C35.8888 39.5807 35.908 39.5037 35.9118 39.4252C35.9156 39.3467 35.9038 39.2683 35.8772 39.1943ZM27.9391 18.7384L19.805 8.84202C19.7036 8.72209 19.559 8.64688 19.4026 8.63267C19.2462 8.61845 19.0904 8.66636 18.9691 8.76605C18.8477 8.86574 18.7704 9.00919 18.7539 9.16539C18.7375 9.3216 18.7831 9.47801 18.8811 9.60081L27.0152 19.4978C27.0712 19.5662 27.1417 19.6213 27.2217 19.6591C27.3016 19.6969 27.389 19.7163 27.4775 19.7161C27.6158 19.716 27.7499 19.6679 27.8566 19.5798C27.979 19.4791 28.0565 19.334 28.072 19.1762C28.0875 19.0184 28.0397 18.861 27.9391 18.7384ZM47.2266 42.7559L32.6039 24.9644C32.5024 24.8445 32.3579 24.7693 32.2015 24.7551C32.045 24.7408 31.8893 24.7888 31.7679 24.8884C31.6465 24.9881 31.5693 25.1316 31.5528 25.2878C31.5363 25.444 31.582 25.6004 31.6799 25.7232L46.302 43.5145C46.3519 43.5753 46.4132 43.6257 46.4825 43.6627C46.5518 43.6998 46.6277 43.7228 46.7059 43.7304C46.7841 43.7381 46.863 43.7303 46.9382 43.7074C47.0134 43.6845 47.0833 43.6471 47.144 43.5971C47.2665 43.4965 47.344 43.3514 47.3595 43.1936C47.375 43.0358 47.3272 42.8784 47.2266 42.7559ZM23.715 16.9158L9.98802 8.70806C9.85184 8.62671 9.68894 8.60273 9.53511 8.64141C9.38127 8.68008 9.24907 8.77824 9.16756 8.91431C9.08627 9.0505 9.06233 9.21338 9.101 9.3672C9.13967 9.52102 9.23778 9.65321 9.37381 9.73477L23.1008 17.9425C23.1935 17.998 23.2996 18.0274 23.4076 18.0274C23.5112 18.0276 23.613 18.0009 23.703 17.9498C23.7931 17.8988 23.8683 17.8252 23.9213 17.7362C24.0026 17.6 24.0266 17.4372 23.9879 17.2833C23.9492 17.1295 23.8511 16.9973 23.715 16.9158ZM42.6749 28.4422L29.9405 20.8277C29.8043 20.7464 29.6414 20.7225 29.4876 20.7611C29.3337 20.7998 29.2016 20.8979 29.12 21.0339C29.0387 21.1701 29.0147 21.333 29.0534 21.4868C29.0921 21.6407 29.1902 21.7729 29.3263 21.8544L42.0607 29.4689C42.1534 29.5245 42.2594 29.5538 42.3675 29.5538C42.471 29.554 42.5728 29.5273 42.6628 29.4763C42.7529 29.4252 42.8281 29.3516 42.8811 29.2627C42.9624 29.1265 42.9864 28.9636 42.9477 28.8098C42.909 28.6559 42.8109 28.5238 42.6749 28.4422ZM23.553 19.0104L0.762588 14.5107C0.440245 14.4461 0.125144 14.6579 0.0599743 14.9812C0.0295592 15.137 0.0621548 15.2984 0.15061 15.4301C0.239066 15.5618 0.376157 15.6531 0.531809 15.6839L23.3223 20.1836C23.4778 20.2141 23.639 20.1817 23.7706 20.0934C23.9022 20.0052 23.9935 19.8683 24.0243 19.7129C24.0548 19.5573 24.0223 19.3959 23.9339 19.2642C23.8456 19.1325 23.7086 19.0412 23.553 19.0104ZM47.2445 23.8223L34.4133 21.2888C34.091 21.2236 33.7759 21.4359 33.7107 21.7593C33.6801 21.915 33.7126 22.0764 33.801 22.2081C33.8893 22.3399 34.0263 22.4312 34.1819 22.4619L47.0132 24.9955C47.1687 25.0259 47.33 24.9934 47.4616 24.9052C47.5933 24.817 47.6847 24.6802 47.7158 24.5248C47.7463 24.3692 47.7138 24.2078 47.6254 24.0761C47.5371 23.9444 47.4001 23.8531 47.2445 23.8223ZM40.4037 18.8209C40.3547 18.4943 40.0503 18.2666 39.7232 18.3185L32.0255 19.4738C31.8687 19.4973 31.7276 19.5821 31.6333 19.7096C31.539 19.8371 31.4992 19.9968 31.5226 20.1537C31.5462 20.3105 31.6311 20.4515 31.7586 20.5458C31.8861 20.6401 32.0457 20.6799 32.2026 20.6566L39.9008 19.5007C40.0577 19.4772 40.1988 19.3924 40.2931 19.2649C40.3874 19.1374 40.4272 18.9777 40.4037 18.8209ZM26.4525 20.8934C26.441 20.8157 26.4143 20.7409 26.3738 20.6735C26.3333 20.6062 26.2799 20.5474 26.2167 20.5007C26.1534 20.4541 26.0816 20.4203 26.0053 20.4015C25.9289 20.3827 25.8497 20.3792 25.772 20.3911L17.7879 21.5901C17.7103 21.6017 17.6358 21.6285 17.5685 21.6689C17.5013 21.7093 17.4427 21.7626 17.396 21.8257C17.3494 21.8887 17.3156 21.9604 17.2967 22.0365C17.2777 22.1126 17.2739 22.1918 17.2856 22.2694C17.3092 22.4261 17.3941 22.5672 17.5215 22.6614C17.649 22.7557 17.8087 22.7956 17.9655 22.7723L25.9496 21.5733C26.1064 21.5498 26.2475 21.465 26.3418 21.3375C26.4361 21.21 26.476 21.0503 26.4525 20.8934ZM45.1601 18.1165C45.1104 17.7901 44.8078 17.564 44.4802 17.6136L42.028 17.982C41.8718 18.0062 41.7316 18.0913 41.638 18.2186C41.5444 18.3459 41.505 18.5051 41.5284 18.6614C41.5518 18.8176 41.6361 18.9583 41.7629 19.0526C41.8896 19.1469 42.0486 19.1872 42.205 19.1647L44.6573 18.7963C44.8141 18.7728 44.9551 18.688 45.0494 18.5605C45.1436 18.433 45.1834 18.2733 45.1601 18.1165ZM15.9462 22.4727C15.9346 22.395 15.9078 22.3203 15.8673 22.253C15.8268 22.1856 15.7734 22.1269 15.7102 22.0803C15.647 22.0336 15.5752 21.9999 15.4989 21.981C15.4226 21.9622 15.3434 21.9585 15.2657 21.9704L14.1648 22.1354C14.008 22.1589 13.8669 22.2437 13.7726 22.3712C13.6783 22.4987 13.6384 22.6584 13.6619 22.8152C13.6855 22.972 13.7704 23.113 13.8979 23.2073C14.0253 23.3016 14.185 23.3415 14.3419 23.3181L15.4433 23.1525C15.6002 23.1291 15.7413 23.0442 15.8356 22.9168C15.9299 22.7893 15.9697 22.6295 15.9462 22.4727ZM45.0608 11.7804C45.0237 11.7111 44.9732 11.6498 44.9124 11.6C44.8516 11.5502 44.7815 11.513 44.7062 11.4903C44.631 11.4676 44.552 11.46 44.4738 11.468C44.3956 11.4759 44.3197 11.4991 44.2505 11.5364L33.6317 17.241C33.5626 17.2782 33.5015 17.3286 33.4518 17.3894C33.4021 17.4502 33.365 17.5202 33.3424 17.5954C33.3198 17.6706 33.3122 17.7495 33.3201 17.8276C33.328 17.9057 33.3512 17.9815 33.3884 18.0506C33.4255 18.1199 33.4759 18.1812 33.5368 18.2309C33.5976 18.2807 33.6677 18.3179 33.7429 18.3406C33.8182 18.3633 33.8972 18.3709 33.9754 18.363C34.0536 18.3551 34.1294 18.3318 34.1986 18.2946L44.8174 12.59C44.8865 12.5528 44.9477 12.5024 44.9974 12.4416C45.047 12.3808 45.0842 12.3108 45.1068 12.2356C45.1294 12.1604 45.137 12.0815 45.1291 12.0034C45.1212 11.9253 45.098 11.8495 45.0608 11.7804ZM22.5651 24.0023C22.528 23.9331 22.4777 23.8718 22.4169 23.8221C22.3561 23.7723 22.2861 23.735 22.2109 23.7124C22.1357 23.6897 22.0568 23.6821 21.9786 23.69C21.9005 23.6979 21.8247 23.7211 21.7555 23.7583L18.1414 25.7C18.0723 25.7371 18.0111 25.7876 17.9615 25.8484C17.9118 25.9092 17.8746 25.9792 17.852 26.0543C17.8294 26.1295 17.8219 26.2084 17.8298 26.2865C17.8376 26.3646 17.8608 26.4404 17.898 26.5096C17.9491 26.6049 18.0251 26.6845 18.1179 26.74C18.2106 26.7955 18.3168 26.8248 18.4249 26.8247C18.5199 26.8247 18.6169 26.8019 18.7077 26.7535L22.3218 24.8119C22.391 24.7747 22.4521 24.7243 22.5018 24.6635C22.5515 24.6027 22.5887 24.5327 22.6112 24.4575C22.6338 24.3823 22.6414 24.3034 22.6335 24.2253C22.6256 24.1472 22.6023 24.0714 22.5651 24.0023ZM8.25519 31.2898C8.21811 31.2206 8.16774 31.1593 8.10697 31.1096C8.04619 31.0598 7.9762 31.0226 7.901 30.9999C7.8258 30.9772 7.74687 30.9696 7.66872 30.9775C7.59058 30.9854 7.51476 31.0086 7.4456 31.0458L0.314695 34.8769C0.245551 34.9141 0.184406 34.9645 0.134753 35.0253C0.0850997 35.0861 0.0479104 35.1561 0.0253089 35.2313C0.00270734 35.3065 -0.00486374 35.3854 0.00302799 35.4635C0.0109197 35.5416 0.0341197 35.6174 0.071303 35.6865C0.122309 35.7819 0.198275 35.8616 0.291074 35.9171C0.383874 35.9726 0.490016 36.0018 0.598147 36.0016C0.693214 36.0016 0.790151 35.9789 0.881014 35.9305L8.0118 32.0993C8.08095 32.0621 8.1421 32.0117 8.19176 31.9509C8.24142 31.8901 8.27862 31.8202 8.30122 31.745C8.32382 31.6698 8.33139 31.5909 8.32349 31.5128C8.3156 31.4347 8.29239 31.3589 8.25519 31.2898ZM37.076 11.2692C37.0177 11.2166 36.9496 11.176 36.8757 11.1498C36.8017 11.1235 36.7232 11.1121 36.6448 11.1161C36.5664 11.1202 36.4896 11.1396 36.4187 11.1734C36.3478 11.2072 36.2843 11.2545 36.2317 11.3128L29.4394 18.8449C29.3868 18.9032 29.3461 18.9713 29.3198 19.0453C29.2935 19.1193 29.2821 19.1977 29.2861 19.2761C29.2902 19.3545 29.3097 19.4314 29.3435 19.5023C29.3773 19.5732 29.4247 19.6367 29.4831 19.6892C29.593 19.7883 29.7357 19.8431 29.8837 19.8429C30.0464 19.8429 30.2095 19.7766 30.3274 19.6455L37.1191 12.1142C37.2254 11.9964 37.2806 11.8412 37.2725 11.6827C37.2644 11.5243 37.1938 11.3755 37.076 11.2692ZM28.1962 21.0776C27.9516 20.8576 27.5731 20.8755 27.3519 21.1213L21.0631 28.0942C20.9568 28.212 20.9016 28.3671 20.9097 28.5256C20.9178 28.684 20.9884 28.8328 21.1062 28.9392C21.216 29.0383 21.3588 29.093 21.5068 29.0929C21.6694 29.0929 21.8326 29.0265 21.9504 28.8955L28.2393 21.9226C28.292 21.8643 28.3327 21.7962 28.359 21.7222C28.3854 21.6482 28.3969 21.5697 28.3929 21.4912C28.3889 21.4127 28.3695 21.3358 28.3357 21.2648C28.302 21.1938 28.2545 21.1302 28.1962 21.0776ZM13.8163 36.7235C13.5706 36.5023 13.1926 36.5213 12.972 36.7672L4.07419 46.6331C3.99664 46.719 3.94567 46.8255 3.92747 46.9398C3.90927 47.054 3.92462 47.1711 3.97165 47.2768C4.01869 47.3825 4.09539 47.4723 4.19245 47.5353C4.28951 47.5983 4.40276 47.6318 4.51847 47.6317C4.68116 47.6317 4.84431 47.5653 4.96215 47.4343L13.8593 37.5684C13.9656 37.4506 14.0208 37.2955 14.0127 37.137C14.0047 36.9786 13.934 36.8299 13.8163 36.7235ZM39.975 8.10706C39.7299 7.88761 39.3525 7.90489 39.1307 8.15073L37.7136 9.72216C37.6073 9.83994 37.5521 9.99512 37.5602 10.1536C37.5683 10.312 37.639 10.4608 37.7567 10.5671C37.8665 10.6662 38.0093 10.721 38.1573 10.7208C38.32 10.7208 38.4831 10.6545 38.601 10.5235L40.0181 8.95204C40.1244 8.83424 40.1795 8.67907 40.1714 8.52063C40.1634 8.36219 40.0927 8.21343 39.975 8.10706ZM35.7468 3.38018C35.4436 3.25463 35.0914 3.4005 34.9664 3.70602L31.146 13.0039C31.1161 13.0765 31.1009 13.1543 31.1011 13.2328C31.1013 13.3114 31.117 13.3891 31.1473 13.4616C31.1775 13.534 31.2217 13.5998 31.2774 13.6552C31.3331 13.7106 31.3992 13.7544 31.4718 13.7843C31.5439 13.8141 31.6211 13.8295 31.6991 13.8297C31.8178 13.8298 31.9338 13.7945 32.0323 13.7283C32.1308 13.6622 32.2074 13.5682 32.2522 13.4583L36.0727 4.16046C36.1025 4.08783 36.1178 4.01003 36.1175 3.93151C36.1173 3.85299 36.1016 3.77528 36.0714 3.70282C36.0411 3.63036 35.9969 3.56458 35.9412 3.50922C35.8855 3.45386 35.8195 3.41001 35.7468 3.38018ZM27.6532 23.8839C27.35 23.7589 26.9985 23.9042 26.8728 24.2097L23.7724 31.7543C23.7425 31.8269 23.7273 31.9047 23.7275 31.9833C23.7277 32.0618 23.7434 32.1395 23.7737 32.212C23.8039 32.2844 23.8482 32.3502 23.9038 32.4056C23.9595 32.461 24.0256 32.5048 24.0982 32.5347C24.1703 32.5645 24.2475 32.58 24.3255 32.5801C24.4441 32.5801 24.5601 32.5448 24.6586 32.4786C24.7571 32.4125 24.8337 32.3185 24.8786 32.2087L27.9791 24.6641C28.0089 24.5915 28.0242 24.5137 28.024 24.4352C28.0238 24.3567 28.0081 24.279 27.9778 24.2065C27.9476 24.134 27.9033 24.0682 27.8476 24.0129C27.7919 23.9575 27.7259 23.9137 27.6532 23.8839ZM19.8139 42.9884C19.6672 42.9282 19.5026 42.9287 19.3562 42.9898C19.2099 43.0509 19.0938 43.1676 19.0335 43.3143L17.4931 47.0635C17.4633 47.1361 17.448 47.2139 17.4482 47.2924C17.4485 47.371 17.4641 47.4487 17.4944 47.5212C17.5247 47.5936 17.5689 47.6594 17.6246 47.7148C17.6803 47.7702 17.7463 47.814 17.819 47.8439C17.8909 47.874 17.9682 47.8894 18.0462 47.8893C18.1649 47.8893 18.2808 47.854 18.3794 47.7878C18.4779 47.7217 18.5544 47.6277 18.5994 47.5179L20.1397 43.7687C20.1696 43.6961 20.1849 43.6183 20.1847 43.5397C20.1845 43.4612 20.1688 43.3835 20.1385 43.311C20.1082 43.2385 20.064 43.1728 20.0083 43.1174C19.9526 43.062 19.8865 43.0182 19.8139 42.9884Z" fill="#731B55"/>
<path id="Vector_2" d="M31.8705 46.8603L27.1274 42.1172L28.9991 40.2455C29.1115 40.133 29.1743 39.9812 29.1743 39.8227C29.1743 39.6642 29.1114 39.5118 28.9991 39.3999L24.1322 34.533L20.0797 30.4806L12.1423 22.5431L13.3018 21.3836C13.378 21.3075 13.4322 21.2122 13.4587 21.1077C13.4851 21.0033 13.4827 20.8937 13.4519 20.7904C13.4212 20.6872 13.3632 20.5941 13.2839 20.5212C13.2046 20.4482 13.1071 20.3981 13.0016 20.3761L2.88101 18.2521C2.78235 18.2309 2.67991 18.2353 2.58341 18.2648C2.48691 18.2943 2.39955 18.348 2.32964 18.4208C2.2593 18.493 2.20838 18.5819 2.18161 18.6792C2.15484 18.7764 2.15309 18.8788 2.17652 18.9769L4.54446 28.8536C4.57581 28.9842 4.65019 29.1004 4.75563 29.1836C4.86106 29.2668 4.99142 29.3121 5.12573 29.3122C5.20425 29.3122 5.28201 29.2967 5.35455 29.2667C5.42709 29.2366 5.493 29.1926 5.54851 29.137L6.70801 27.9775L23.5648 44.8343C23.6813 44.9509 23.8345 45.0095 23.9876 45.0095C24.1407 45.0095 24.2937 44.9509 24.4104 44.8343L26.282 42.9626L31.0252 47.7057C31.0806 47.7613 31.1465 47.8054 31.2191 47.8355C31.2916 47.8655 31.3694 47.881 31.4479 47.8809C31.5265 47.881 31.6042 47.8655 31.6768 47.8355C31.7493 47.8054 31.8152 47.7613 31.8707 47.7057C32.1043 47.472 32.1043 47.0941 31.8705 46.8603ZM7.55346 27.1315L10.9655 23.72L11.0343 30.6122L7.55346 27.1315ZM5.4587 27.5357L3.56026 19.6162L11.6747 21.3193L5.4587 27.5357ZM12.2427 31.8208L12.1674 24.2595L15.0114 27.1035L15.0867 34.6647L12.2427 31.8208ZM16.2946 35.8726L16.2192 28.3113L19.0638 31.1559L19.1391 38.7171L16.2946 35.8726ZM20.347 39.925L20.2716 32.3637L23.1162 35.2083L23.1915 42.7695L20.347 39.925ZM24.3917 43.1624L24.3247 36.4161L27.7314 39.8228L24.3917 43.1624Z" fill="#731B55"/>
</g>
</g>
<defs>
<clipPath id="clip0_1740_57298">
<rect width="48" height="48" fill="white"/>
</clipPath>
</defs>
</svg>
