<svg width="48" height="48" viewBox="0 0 48 48" fill="none" xmlns="http://www.w3.org/2000/svg">
<g id="Frame">
<g id="Group">
<path id="Vector" d="M47.6756 13.674L30.7635 3.90982C30.6649 3.85283 30.5531 3.82283 30.4392 3.82281H20.8614C20.5031 3.82281 20.2128 4.11316 20.2128 4.47147C20.2128 4.82978 20.5031 5.12013 20.8614 5.12013H28.0184L13.3531 13.587H0.648844C0.290531 13.587 0.0001875 13.8773 0.0001875 14.2356C0.0001875 14.5939 0.290531 14.8843 0.648844 14.8843H12.8782V23.3513H5.13263C4.77431 23.3513 4.48397 23.6417 4.48397 24C4.48397 24.3583 4.77431 24.6486 5.13263 24.6486H12.8782V33.1157H0.648656C0.290344 33.1157 0 33.406 0 33.7643C0 34.1226 0.290344 34.413 0.648656 34.413H13.3531L30.1149 44.0901C30.2135 44.1472 30.3254 44.1772 30.4392 44.1772C30.5531 44.1772 30.6649 44.1472 30.7635 44.0901L47.6756 34.326C47.7742 34.2691 47.8561 34.1872 47.913 34.0886C47.97 33.99 47.9999 33.8782 47.9999 33.7643V14.2356C47.9999 14.1218 47.97 14.0099 47.913 13.9113C47.8561 13.8127 47.7742 13.7309 47.6756 13.674ZM30.439 5.22044L46.0541 14.2358L41.1082 17.0913L25.4933 8.07578L30.439 5.22044ZM24.1961 8.82466L39.8108 17.8402L36.682 19.6467L21.0668 10.6313L24.1961 8.82466ZM40.4599 18.9637V24.9572L37.3309 26.7637V20.7702L40.4599 18.9637ZM29.7906 42.4051L14.1755 33.39V15.3591L29.7906 24.3744V42.4051ZM30.4391 23.251L14.8238 14.2356L19.7697 11.3802L35.3847 20.3957L30.4391 23.251ZM46.7027 33.3898L31.0878 42.4051V24.3744L36.0335 21.519V27.887C36.0335 28.0009 36.0635 28.1127 36.1205 28.2112C36.1774 28.3098 36.2593 28.3916 36.3578 28.4485C36.4564 28.5054 36.5682 28.5354 36.6821 28.5354C36.7959 28.5355 36.9077 28.5056 37.0063 28.4487L41.4326 25.8933C41.5312 25.8364 41.6131 25.7546 41.6701 25.656C41.727 25.5574 41.7569 25.4455 41.7569 25.3317V18.2145L46.7024 15.3591V33.3898H46.7027ZM4.48397 4.47147C4.48396 4.38628 4.50073 4.30193 4.53332 4.22323C4.56591 4.14452 4.61369 4.07301 4.67393 4.01277C4.73416 3.95254 4.80568 3.90476 4.88438 3.87217C4.96308 3.83957 5.04744 3.8228 5.13263 3.82281H15.2021C15.5604 3.82281 15.8508 4.11316 15.8508 4.47147C15.8508 4.82978 15.5604 5.12013 15.2021 5.12013H5.13263C5.04744 5.12015 4.96308 5.10339 4.88437 5.0708C4.80566 5.03821 4.73414 4.99043 4.6739 4.9302C4.61366 4.86996 4.56588 4.79844 4.53329 4.71973C4.50071 4.64102 4.48394 4.55666 4.48397 4.47147Z" fill="#731B55"/>
</g>
</g>
</svg>
