<svg width="48" height="48" viewBox="0 0 48 48" fill="none" xmlns="http://www.w3.org/2000/svg">
<g id="Frame">
<g id="Group">
<path id="Vector" d="M45.5998 14.4H37.5999C36.2745 14.4 35.1999 15.4746 35.1999 16.8V24.7999C35.202 25.3923 35.4244 25.9626 35.8239 26.4C35.4244 26.8373 35.202 27.4077 35.1999 28V35.9999C35.2025 36.2731 35.2523 36.5437 35.3471 36.7999H33.5999V4.00009C33.5999 2.67466 32.5253 1.6001 31.1999 1.6001C29.8744 1.6001 28.7999 2.67466 28.7999 4.00009V17.2688L23.5311 12H23.9999C25.3254 12 26.3999 10.9255 26.3999 9.60003C26.3999 8.2746 25.3254 7.20004 23.9999 7.20004H2.39999C1.23243 7.19789 0.23353 8.03807 0.0357186 9.18876C-0.162093 10.3394 0.498748 11.465 1.60002 11.8529V28.1473C1.13369 28.3121 0.729681 28.617 0.44327 29.0202C0.15686 29.4235 0.00204219 29.9054 0 30.4L0 39.2C0 40.5254 1.07456 41.6 2.39999 41.6H3.26399C3.43844 42.8164 4.00959 43.9413 4.88876 44.7999H2.39999C2.18783 44.7999 1.98435 44.8842 1.83433 45.0342C1.68431 45.1843 1.60003 45.3877 1.60003 45.5999C1.60003 45.8121 1.68431 46.0155 1.83433 46.1656C1.98435 46.3156 2.18783 46.3999 2.39999 46.3999H38.3999C38.612 46.3999 38.8155 46.3156 38.9655 46.1656C39.1155 46.0155 39.1998 45.8121 39.1998 45.5999C39.1998 45.3877 39.1155 45.1843 38.9655 45.0342C38.8155 44.8842 38.612 44.7999 38.3999 44.7999H33.5111C34.3902 43.9413 34.9614 42.8164 35.1359 41.6H45.5998C46.064 41.602 46.5187 41.4688 46.9084 41.2167C47.2981 40.9645 47.606 40.6044 47.7943 40.1801C47.9827 39.7559 48.0434 39.286 47.9691 38.8278C47.8948 38.3696 47.6886 37.943 47.3758 37.6C47.7753 37.1627 47.9977 36.5924 47.9998 36V28.0001C47.9977 27.4078 47.7753 26.8374 47.3758 26.4001C47.7753 25.9627 47.9977 25.3924 47.9998 24.8V16.8001C47.9998 15.4746 46.9253 14.4 45.5998 14.4ZM39.9999 16H43.1998V20.0001L42.4871 19.5248C42.2245 19.3491 41.9157 19.2553 41.5999 19.2553C41.284 19.2553 40.9752 19.3491 40.7127 19.5248L39.9999 20.0001V16ZM36.7998 16.8C36.7998 16.5878 36.8841 16.3844 37.0341 16.2343C37.1842 16.0843 37.3876 16 37.5998 16H38.3998V20.0001C38.3998 20.2896 38.4784 20.5737 38.6272 20.8221C38.776 21.0704 38.9895 21.2738 39.2447 21.4104C39.5 21.547 39.7876 21.6118 40.0768 21.5979C40.366 21.584 40.646 21.4918 40.8869 21.3313L41.5997 20.8553L42.3125 21.3305C42.5534 21.4911 42.8333 21.5832 43.1224 21.5972C43.4116 21.6112 43.6991 21.5464 43.9543 21.4099C44.2096 21.2733 44.423 21.0701 44.5719 20.8219C44.7208 20.5736 44.7995 20.2896 44.7997 20.0002V16.0001H45.5996C45.8118 16.0001 46.0153 16.0844 46.1653 16.2344C46.3153 16.3845 46.3996 16.5879 46.3996 16.8001V24.8C46.3996 25.0122 46.3153 25.2157 46.1653 25.3657C46.0153 25.5157 45.8118 25.6 45.5996 25.6H37.5997C37.3875 25.6 37.1841 25.5157 37.034 25.3657C36.884 25.2157 36.7997 25.0122 36.7997 24.8L36.7998 16.8ZM39.9999 27.2H43.1998V31.2L42.4871 30.7248C42.2245 30.5491 41.9157 30.4553 41.5999 30.4553C41.284 30.4553 40.9752 30.5491 40.7127 30.7248L39.9999 31.2V27.2ZM36.7998 35.9999V28C36.7998 27.7878 36.8841 27.5844 37.0341 27.4343C37.1842 27.2843 37.3876 27.2 37.5998 27.2H38.3998V31.2C38.3998 31.4896 38.4784 31.7737 38.6272 32.0221C38.776 32.2704 38.9895 32.4738 39.2447 32.6104C39.5 32.747 39.7876 32.8118 40.0768 32.7979C40.366 32.784 40.646 32.6918 40.8869 32.5313L41.5997 32.0553L42.3125 32.5305C42.5534 32.691 42.8333 32.7831 43.1224 32.7971C43.4115 32.811 43.699 32.7463 43.9543 32.6098C44.2095 32.4732 44.4229 32.27 44.5718 32.0218C44.7207 31.7736 44.7994 31.4896 44.7997 31.2001V27.2001H45.5996C45.8118 27.2001 46.0153 27.2844 46.1653 27.4344C46.3153 27.5844 46.3996 27.7879 46.3996 28.0001V36C46.3996 36.2122 46.3153 36.4157 46.1653 36.5657C46.0153 36.7157 45.8118 36.8 45.5996 36.8H37.5997C37.3875 36.7999 37.1841 36.7156 37.0341 36.5656C36.8841 36.4156 36.7998 36.2121 36.7998 35.9999ZM30.3999 4.00009C30.3999 3.78792 30.4842 3.58445 30.6342 3.43443C30.7842 3.2844 30.9877 3.20012 31.1999 3.20012C31.412 3.20012 31.6155 3.2844 31.7655 3.43443C31.9156 3.58445 31.9998 3.78792 31.9998 4.00009V35.7479C31.494 35.5068 30.9545 35.3436 30.3998 35.2639V4.00009H30.3999ZM28.7999 19.5312V32H25.5999V24.0001C25.5999 23.7879 25.5156 23.5845 25.3656 23.4345L22.3312 20.4001L23.7655 18.9657C23.9113 18.8148 23.9919 18.6128 23.9901 18.403C23.9882 18.1933 23.9041 17.9926 23.7558 17.8443C23.6075 17.696 23.4068 17.6118 23.1971 17.61C22.9873 17.6082 22.7852 17.6888 22.6343 17.8345L18.6343 21.8345C18.5574 21.9082 18.4959 21.9965 18.4535 22.0943C18.4111 22.192 18.3887 22.2972 18.3875 22.4038C18.3863 22.5103 18.4065 22.616 18.4467 22.7147C18.4869 22.8133 18.5465 22.9029 18.6218 22.9783C18.6971 23.0536 18.7868 23.1131 18.8854 23.1534C18.9841 23.1936 19.0898 23.2137 19.1963 23.2125C19.3028 23.2114 19.4081 23.1889 19.5058 23.1466C19.6036 23.1042 19.6918 23.0427 19.7655 22.9657L21.1999 21.5314L23.9999 24.3312V32H18.8503C17.6847 32.0021 16.5479 31.6383 15.5999 30.96L13.3376 29.3448C12.463 28.7204 11.4589 28.3009 10.4 28.1176V23.6C10.4 22.0536 9.1464 20.8 7.6 20.8C6.0536 20.8 4.79998 22.0536 4.79998 23.6V28H3.19996V12H21.2687L28.7999 19.5312ZM8.8 28H6.40001V23.6C6.40001 22.9373 6.93729 22.4 7.6 22.4C8.26272 22.4 8.8 22.9373 8.8 23.6V28ZM2.39999 8.80007H23.9999C24.2121 8.80007 24.4155 8.88435 24.5656 9.03437C24.7156 9.1844 24.7999 9.38787 24.7999 9.60003C24.7999 9.8122 24.7156 10.0157 24.5656 10.1657C24.4155 10.3157 24.2121 10.4 23.9999 10.4H2.39999C2.18783 10.4 1.98435 10.3157 1.83433 10.1657C1.68431 10.0157 1.60002 9.8122 1.60002 9.60003C1.60002 9.38787 1.68431 9.1844 1.83433 9.03437C1.98435 8.88435 2.18783 8.80007 2.39999 8.80007ZM1.60002 39.2V30.4C1.60002 30.1878 1.68431 29.9843 1.83433 29.8343C1.98435 29.6843 2.18783 29.6 2.39999 29.6H9.14959C10.3166 29.5971 11.455 29.9609 12.404 30.64L14.6664 32.2552C15.8855 33.1312 17.3492 33.6016 18.8503 33.6H28.7999V35.264C26.3471 35.6206 24.4206 37.5472 24.0639 39.9999H14.3359C13.9405 37.2465 11.5816 35.2022 8.7999 35.2022C6.01816 35.2022 3.65933 37.2465 3.26389 39.9999H2.39999C2.18783 39.9999 1.98435 39.9157 1.83433 39.7656C1.68431 39.6156 1.60002 39.4121 1.60002 39.2ZM4.79998 40.7999C4.79998 38.5908 6.59088 36.7999 8.8 36.7999C11.0091 36.7999 12.8 38.5908 12.8 40.7999C12.8 43.009 11.0091 44.7999 8.8 44.7999C6.59191 44.7973 4.80261 43.008 4.79998 40.7999ZM12.7111 44.7999C13.5903 43.9413 14.1614 42.8164 14.3359 41.6H24.0638C24.2383 42.8164 24.8094 43.9413 25.6886 44.7999H12.7111ZM29.5999 44.7999C27.3907 44.7999 25.5998 43.009 25.5998 40.7999C25.5998 38.5908 27.3907 36.7999 29.5999 36.7999C31.809 36.7999 33.5999 38.5908 33.5999 40.7999C33.5972 43.008 31.8079 44.7973 29.5999 44.7999ZM45.5998 39.9999H35.1359C35.0563 39.4452 34.8931 38.9058 34.6518 38.3999H45.5998C45.812 38.3999 46.0155 38.4842 46.1655 38.6342C46.3155 38.7843 46.3998 38.9878 46.3998 39.1999C46.3998 39.4121 46.3155 39.6156 46.1655 39.7656C46.0155 39.9157 45.812 39.9999 45.5998 39.9999Z" fill="#731B55"/>
<path id="Vector_2" d="M8.79843 38.3999C7.473 38.3999 6.39844 39.4745 6.39844 40.7999C6.39844 42.1253 7.473 43.1999 8.79843 43.1999C10.1239 43.1999 11.1984 42.1253 11.1984 40.7999C11.1984 39.4745 10.1239 38.3999 8.79843 38.3999ZM8.79843 41.5999C8.69337 41.5999 8.58935 41.5793 8.49229 41.5391C8.39524 41.4989 8.30705 41.4399 8.23277 41.3656C8.15848 41.2914 8.09956 41.2032 8.05936 41.1061C8.01915 41.0091 7.99846 40.905 7.99846 40.8C7.99846 40.6949 8.01915 40.5909 8.05936 40.4939C8.09956 40.3968 8.15848 40.3086 8.23277 40.2343C8.30705 40.16 8.39524 40.1011 8.49229 40.0609C8.58935 40.0207 8.69337 40 8.79843 40C9.01059 40 9.21407 40.0843 9.36409 40.2343C9.51411 40.3843 9.59839 40.5878 9.59839 40.8C9.59839 41.0121 9.51411 41.2156 9.36409 41.3656C9.21407 41.5157 9.01059 41.5999 8.79843 41.5999ZM29.5983 38.3999C28.2729 38.3999 27.1983 39.4745 27.1983 40.7999C27.1983 42.1253 28.2729 43.1999 29.5983 43.1999C30.9237 43.1999 31.9983 42.1253 31.9983 40.7999C31.9983 39.4745 30.9238 38.3999 29.5983 38.3999ZM29.5983 41.5999C29.4932 41.5999 29.3892 41.5793 29.2921 41.5391C29.1951 41.4989 29.1069 41.4399 29.0326 41.3656C28.9583 41.2914 28.8994 41.2032 28.8592 41.1061C28.819 41.0091 28.7983 40.905 28.7983 40.8C28.7983 40.6949 28.819 40.5909 28.8592 40.4939C28.8994 40.3968 28.9583 40.3086 29.0326 40.2343C29.1069 40.16 29.1951 40.1011 29.2921 40.0609C29.3892 40.0207 29.4932 40 29.5983 40C29.8104 40 30.0139 40.0843 30.1639 40.2343C30.314 40.3843 30.3982 40.5878 30.3982 40.8C30.3982 41.0121 30.314 41.2156 30.1639 41.3656C30.0139 41.5157 29.8104 41.5999 29.5983 41.5999ZM44.7983 46.3999C45.2401 46.3999 45.5983 46.0418 45.5983 45.6C45.5983 45.1581 45.2401 44.8 44.7983 44.8H41.5983C41.3862 44.8 41.1827 44.8843 41.0327 45.0343C40.8826 45.1843 40.7984 45.3878 40.7984 45.6C40.7984 45.8121 40.8826 46.0156 41.0327 46.1656C41.1827 46.3156 41.3862 46.3999 41.5983 46.3999H44.7983Z" fill="#731B55"/>
</g>
</g>
</svg>
