<svg width="48" height="48" viewBox="0 0 48 48" fill="none" xmlns="http://www.w3.org/2000/svg">
<g id="Frame" clip-path="url(#clip0_1740_57292)">
<g id="Group">
<path id="Vector" d="M13.9238 38.3914C14.3381 38.3914 14.6786 38.721 14.6786 39.1354C14.6786 39.5498 14.3385 39.8906 13.9238 39.8906H2.19977C1.91117 39.8898 1.62558 39.832 1.35931 39.7207C1.09305 39.6094 0.851343 39.4467 0.64802 39.2419C0.441727 39.0397 0.278085 38.7982 0.166781 38.5317C0.0554767 38.2651 -0.0012289 37.979 2.01955e-05 37.6901V2.20012C2.01955e-05 1.59413 0.24452 1.05187 0.64802 0.648375C1.05227 0.2445 1.59415 0 2.19977 0H45.7886C46.395 0 46.9474 0.2445 47.3516 0.648375C47.745 1.05225 48 1.59413 48 2.20012V37.6901C47.9978 38.2728 47.7646 38.8308 47.3516 39.2419C47.1468 39.4478 46.9032 39.6111 46.635 39.7225C46.3667 39.8338 46.0791 39.8909 45.7886 39.8906H39.4436C39.0293 39.8906 38.6891 39.5501 38.6891 39.1354C38.6891 38.7206 39.0289 38.3914 39.4436 38.3914H45.7886C45.9908 38.3914 46.1606 38.3062 46.2889 38.1791C46.4164 38.0516 46.5011 37.8821 46.5011 37.6901V8.17388H1.4989V37.6901C1.4989 37.8821 1.58402 38.0516 1.71152 38.1791V38.1892C1.83902 38.3175 2.00852 38.3914 2.19977 38.3914H13.9238ZM42.5899 3.33713C43.0043 3.33713 43.3339 3.66675 43.3339 4.08113C43.3339 4.4955 43.0043 4.836 42.5899 4.836H17.07C16.6556 4.836 16.3151 4.49588 16.3151 4.08113C16.3151 3.66638 16.6553 3.33713 17.07 3.33713H42.5899ZM46.5015 6.675V2.20012C46.5015 2.00888 46.4164 1.83863 46.2893 1.71113C46.2243 1.64414 46.1465 1.59083 46.0606 1.55431C45.9747 1.5178 45.8824 1.49882 45.789 1.4985H2.19977C2.00852 1.4985 1.83902 1.58363 1.71152 1.71113C1.58365 1.83863 1.4989 2.00888 1.4989 2.20012V6.675H46.5015Z" fill="#731B55"/>
<path id="Vector_2" fill-rule="evenodd" clip-rule="evenodd" d="M4.46481 3.35852C4.65644 3.35882 4.84012 3.4351 4.97559 3.57063C5.11105 3.70617 5.18724 3.88989 5.18744 4.08152C5.18744 4.4854 4.86831 4.81502 4.46481 4.81502C4.06056 4.81502 3.74219 4.4854 3.74219 4.08152C3.74219 3.68815 4.06056 3.35852 4.46481 3.35852ZM10.7997 3.35852C10.9913 3.35882 11.175 3.4351 11.3105 3.57063C11.4459 3.70617 11.5221 3.88989 11.5223 4.08152C11.5223 4.4854 11.2032 4.81502 10.7997 4.81502C10.6052 4.81472 10.4188 4.73736 10.2812 4.59988C10.1437 4.46239 10.0662 4.276 10.0658 4.08152C10.0658 3.68815 10.3954 3.35852 10.7997 3.35852ZM7.63244 3.35852C7.824 3.35892 8.00759 3.43524 8.14297 3.57077C8.27836 3.70629 8.35449 3.88996 8.35469 4.08152C8.35469 4.4854 8.03556 4.81502 7.63244 4.81502C7.43796 4.81472 7.25152 4.73736 7.11397 4.59988C6.97642 4.46239 6.89896 4.276 6.89856 4.08152C6.89856 3.68815 7.22781 3.35852 7.63244 3.35852Z" fill="#731B55"/>
<path id="Vector_3" d="M5.87694 11.6171H13.2532C13.6676 11.6171 14.0396 11.7874 14.3159 12.0529C14.4555 12.1922 14.5659 12.3579 14.6407 12.5404C14.7155 12.7229 14.7533 12.9184 14.7517 13.1156V20.5028C14.7517 20.9066 14.5713 21.3529 14.2627 21.6079C13.9869 21.8604 13.6267 22.0007 13.2528 22.0013H5.87656C5.04781 22.0013 4.36719 21.321 4.36719 20.5028V13.116C4.36756 12.2869 5.04781 11.6171 5.87694 11.6171ZM13.2532 13.116H5.87694V20.5031H13.2532V13.116ZM17.1116 13.116C16.6972 13.116 16.3679 12.7759 16.3679 12.3615C16.3679 11.9471 16.6972 11.6175 17.1116 11.6175H21.3311C21.7454 11.6175 22.0859 11.9471 22.0859 12.3615C22.0859 12.7759 21.7458 13.116 21.3311 13.116H17.1116ZM17.1116 16.6024C16.6972 16.6024 16.3679 16.2728 16.3679 15.8584C16.3679 15.444 16.6972 15.1039 17.1116 15.1039H19.6199C20.0343 15.1039 20.3744 15.444 20.3744 15.8584C20.3744 16.2728 20.0347 16.6024 19.6199 16.6024H17.1116ZM27.4113 11.6171H34.7984C34.9953 11.6169 35.1903 11.6556 35.3722 11.7308C35.5541 11.8061 35.7194 11.9165 35.8586 12.0557C35.9978 12.1949 36.1082 12.3603 36.1834 12.5422C36.2586 12.7241 36.2972 12.9191 36.2969 13.116V20.5031C36.2969 20.907 36.1162 21.3533 35.7974 21.6083C35.5258 21.8604 35.1691 22.0009 34.7984 22.0016H27.4113C26.5923 22.0016 25.9124 21.3214 25.9124 20.5031V13.116C25.9124 12.2869 26.5923 11.6171 27.4113 11.6171ZM34.7984 13.116H27.4113V20.5031H34.7984V13.116ZM38.6564 13.116C38.2421 13.116 37.9019 12.7759 37.9019 12.3615C37.9019 11.9471 38.2417 11.6175 38.6564 11.6175H42.8763C43.2907 11.6175 43.6203 11.9471 43.6203 12.3615C43.6203 12.7759 43.2907 13.116 42.8763 13.116H38.6564ZM38.6564 16.6024C38.2421 16.6024 37.9019 16.2728 37.9019 15.8584C37.9019 15.444 38.2417 15.1039 38.6564 15.1039H41.1648C41.5788 15.1039 41.9197 15.444 41.9197 15.8584C41.9197 16.2728 41.5792 16.6024 41.1648 16.6024H38.6564ZM5.87694 25.6583H13.2532C13.4501 25.6581 13.6451 25.6967 13.827 25.7719C14.009 25.8472 14.1743 25.9576 14.3135 26.0968C14.4527 26.236 14.5631 26.4014 14.6384 26.5833C14.7136 26.7652 14.7523 26.9602 14.7521 27.1571V34.5334C14.7521 35.3625 14.0823 36.0428 13.2532 36.0428H5.87694C5.47711 36.0412 5.09411 35.8816 4.81139 35.5989C4.52867 35.3162 4.36914 34.9332 4.36756 34.5334V27.1571C4.36756 26.328 5.04781 25.6583 5.87694 25.6583ZM5.87694 27.1571V34.5334H13.2532V27.1571H5.87694ZM38.6564 27.1571C38.4565 27.1562 38.265 27.0764 38.1236 26.9349C37.9823 26.7934 37.9026 26.6018 37.9019 26.4019C37.9019 25.9879 38.2417 25.6583 38.6564 25.6583H42.8763C43.2907 25.6583 43.6203 25.9879 43.6203 26.4019C43.6203 26.8163 43.2907 27.1571 42.8763 27.1571H38.6564ZM38.6564 30.6431C38.2421 30.6431 37.9019 30.3034 37.9019 29.889C37.9019 29.4746 38.2417 29.145 38.6564 29.145H41.1648C41.5788 29.145 41.9197 29.4746 41.9197 29.889C41.9188 30.0889 41.839 30.2803 41.6976 30.4215C41.5562 30.5628 41.3647 30.6424 41.1648 30.6431H38.6564ZM16.6439 26.7105C15.9637 25.2863 16.2082 23.5751 17.7176 22.8739C19.2059 22.1618 20.7254 23.0333 21.3952 24.4575L24.5099 30.9833C24.7113 30.9409 25.0518 30.8666 25.3814 30.8033C26.6774 30.5265 27.7623 30.2929 29.5589 30.1016C30.2594 30.0379 31.0357 30.1969 31.6949 30.5475C32.3542 30.8771 32.9174 31.398 33.2148 32.0254C34.6177 34.9905 36.0314 37.9459 37.4343 40.911C38.0827 42.2606 37.4981 43.8874 36.1484 44.5354L29.6227 47.6389C29.1438 47.8624 28.5378 47.9899 27.9427 48C27.1781 48 26.4127 47.8088 25.7853 47.5114L18.1751 43.9084C18.1432 43.9823 15.4222 42.5798 16.2513 40.3054C16.8146 38.7638 18.4938 38.4341 19.9394 38.8699L22.8198 39.6776L21.9806 37.935L21.0558 35.9895L16.6439 26.7105ZM17.9936 26.0723L22.4156 35.3513L23.3399 37.2863L24.8707 40.5064C24.9558 40.677 24.9768 40.8683 24.9243 41.049C24.8069 41.4525 24.3926 41.6861 23.9992 41.5699L19.5243 40.305C18.8977 40.113 17.9302 40.0706 17.6538 40.8146C17.3774 41.5909 18.1533 42.2599 18.7803 42.5471L26.3688 46.1393C26.4011 46.1393 26.6246 46.2139 26.6133 46.2139C27.1128 46.3838 28.0912 46.7134 28.9732 46.2885L35.5102 43.185C36.1158 42.8869 36.3716 42.1538 36.0843 41.5485L31.8749 32.7056C31.6627 32.3014 31.4178 32.0888 31.0143 31.8765C30.5887 31.653 30.1214 31.5469 29.7176 31.5893C28.0064 31.7693 26.9542 31.9928 25.6998 32.2695C25.4662 32.3119 25.2217 32.3648 24.7222 32.4709C24.4181 32.5345 24.1014 32.4936 23.8234 32.3546C23.5455 32.2157 23.3227 31.987 23.1911 31.7055L20.0448 25.0946C19.7369 24.4463 19.0886 23.883 18.3554 24.2231C17.6216 24.5633 17.6962 25.4348 17.9936 26.0723Z" fill="#731B55"/>
<path id="Vector_4" d="M27.4129 27.7628C27.4129 28.1771 27.0833 28.5173 26.6689 28.5173C26.2546 28.5173 25.9141 28.1775 25.9141 27.7628V27.1571C25.9141 26.328 26.5939 25.6583 27.4129 25.6583H34.8001C35.2144 25.6583 35.5868 25.818 35.8628 26.0936C36.1406 26.3781 36.2969 26.7595 36.2986 27.1571V29.889C36.2986 30.303 35.9689 30.6431 35.5546 30.6431C35.1402 30.6431 34.8001 30.3034 34.8001 29.889V27.1571H27.4129V27.7628Z" fill="#731B55"/>
</g>
</g>
<defs>
<clipPath id="clip0_1740_57292">
<rect width="48" height="48" fill="white"/>
</clipPath>
</defs>
</svg>
