<svg width="48" height="48" viewBox="0 0 48 48" fill="none" xmlns="http://www.w3.org/2000/svg">
<g id="Frame" clip-path="url(#clip0_1713_54764)">
<g id="Group">
<path id="Vector" d="M18.9556 46.0041C16.341 46.0096 13.7664 45.362 11.4656 44.1201C4.78963 40.4981 1.21963 33.3801 2.14963 25.5421C2.51163 22.4301 3.35963 17.9761 6.52963 15.2601C6.82437 15.0051 7.1789 14.8291 7.56012 14.7483C7.94135 14.6675 8.33683 14.6846 8.70963 14.7981C9.54163 15.0441 10.1936 15.7061 10.4556 16.5721C10.9356 18.2181 11.5496 19.4141 12.5096 20.4821C12.8196 14.6041 15.3056 6.64607 21.6516 0.672073C21.964 0.365248 22.356 0.151897 22.7833 0.056121C23.2106 -0.0396551 23.6561 -0.0140398 24.0696 0.130073C24.9616 0.438073 25.6056 1.23807 25.7476 2.21607C26.4136 6.64207 28.6216 10.3721 30.7576 13.9781C32.0216 16.1141 33.3296 18.3241 34.2996 20.6521C34.3892 20.8941 34.3817 21.1614 34.2787 21.3981C34.1758 21.6348 33.9853 21.8225 33.7471 21.9219C33.5089 22.0214 33.2416 22.0249 33.0009 21.9317C32.7602 21.8386 32.5648 21.6559 32.4556 21.4221C31.5356 19.2201 30.3216 17.1681 29.0336 14.9961C26.8016 11.2241 24.4916 7.32407 23.7676 2.50607C23.7156 2.14607 23.4856 2.04007 23.4156 2.01607C23.2816 1.96807 23.1476 2.00207 23.0276 2.12007C16.3036 8.45207 14.2316 17.1481 14.4976 22.6721C14.5067 22.8622 14.4614 23.051 14.367 23.2162C14.2725 23.3814 14.1329 23.5163 13.9644 23.6049C13.796 23.6936 13.6058 23.7323 13.4161 23.7165C13.2264 23.7008 13.0452 23.6313 12.8936 23.5161C10.5876 21.7561 9.36763 19.9701 8.54163 17.1401C8.51454 17.0425 8.46418 16.9529 8.39486 16.8791C8.32553 16.8052 8.23933 16.7493 8.14363 16.7161C8.08943 16.6987 8.03167 16.6957 7.97595 16.7072C7.92023 16.7188 7.86845 16.7446 7.82563 16.7821C5.82363 18.4981 4.64763 21.3581 4.13363 25.7761C3.30363 32.7841 6.47763 39.1381 12.4156 42.3601C15.7236 44.1481 19.6156 44.4901 23.3636 43.3241C23.6169 43.2453 23.8911 43.2704 24.1259 43.3938C24.3607 43.5172 24.5369 43.7288 24.6156 43.9821C24.6944 44.2354 24.6693 44.5096 24.5459 44.7444C24.4225 44.9791 24.2109 45.1553 23.9576 45.2341C22.3386 45.7413 20.6522 46.0009 18.9556 46.0041Z" fill="#731B55"/>
<path id="Vector_2" d="M37 48C36.19 48 35.43 47.682 34.864 47.104L25.456 38.026C24.9934 37.5629 24.6267 37.013 24.3768 36.408C24.127 35.803 23.9989 35.1546 24 34.5V28C24 26.898 24.896 26 26 26H32.5C33.822 26 35.068 26.51 36.01 27.438L45.124 36.88C45.684 37.432 46 38.19 46 39C46 39.8 45.688 40.554 45.122 41.122L39.122 47.122C38.844 47.4014 38.5132 47.6229 38.149 47.7736C37.7847 47.9243 37.3942 48.0013 37 48ZM26 28V34.5C26 35.292 26.306 36.04 26.864 36.604L36.272 45.684C36.684 46.104 37.328 46.088 37.706 45.708L43.708 39.708C43.8011 39.6145 43.8748 39.5035 43.9249 39.3815C43.975 39.2594 44.0005 39.1287 44 38.9968C43.9994 38.8648 43.9728 38.7343 43.9217 38.6127C43.8705 38.491 43.7959 38.3807 43.702 38.288L34.588 28.846C34.0305 28.3002 33.2802 27.9962 32.5 28H26Z" fill="#731B55"/>
</g>
</g>
<defs>
<clipPath id="clip0_1713_54764">
<rect width="48" height="48" fill="white"/>
</clipPath>
</defs>
</svg>
