<svg width="48" height="48" viewBox="0 0 48 48" fill="none" xmlns="http://www.w3.org/2000/svg">
<g id="Frame">
<g id="Group">
<path id="Vector" d="M31.4984 14.9999H38.2484V16.4999H31.4984V14.9999ZM31.2689 11.2987L38.0219 9.05019L38.4951 10.4729L31.7429 12.7214L31.2689 11.2987ZM36.5144 3.82569L37.8891 3.07569L38.6076 4.39269L37.2329 5.14269L36.5144 3.82569ZM29.6429 7.58844L35.1434 4.58844L35.8619 5.90469L30.3614 8.90544L29.6429 7.58844ZM27.2151 3.97194L30.2151 0.971941L31.2749 2.03319L28.2749 5.03319L27.2151 3.97194ZM31.2591 20.1974L31.7331 18.7747L38.4854 21.0232L38.0121 22.4459L31.2591 20.1974ZM29.6466 23.9294L30.3171 22.5884L33.3156 24.0869L32.6451 25.4279L29.6466 23.9294ZM3.74838 14.9999H10.4984V16.4999H3.74838V14.9999ZM3.51813 10.4609L3.99363 9.03819L10.7459 11.2942L10.2704 12.7169L3.51813 10.4609ZM3.39062 4.40769L4.10913 3.09069L5.48388 3.84069L4.76538 5.15769L3.39062 4.40769ZM6.14088 5.90769L6.85938 4.59069L12.3599 7.59144L11.6414 8.90844L6.14088 5.90769ZM10.7174 2.03169L11.7779 0.971191L14.7779 3.97119L13.7166 5.03094L10.7174 2.03169ZM3.50838 21.0449L10.2606 18.7964L10.7339 20.2192L3.98163 22.4677L3.50838 21.0449ZM8.65413 24.0704L11.6526 22.5719L12.3231 23.9129L9.32463 25.4114L8.65413 24.0704Z" fill="#731B55"/>
<path id="Vector_2" d="M12 15.75C12 17.53 12.5278 19.2701 13.5168 20.7501C14.5057 22.2302 15.9113 23.3837 17.5558 24.0649C19.2004 24.7461 21.01 24.9243 22.7558 24.5771C24.5016 24.2298 26.1053 23.3726 27.364 22.114C28.6226 20.8553 29.4798 19.2516 29.8271 17.5058C30.1743 15.76 29.9961 13.9504 29.3149 12.3058C28.6337 10.6613 27.4802 9.25571 26.0001 8.26677C24.5201 7.27784 22.78 6.75 21 6.75C18.6138 6.75258 16.3262 7.70162 14.6389 9.38889C12.9516 11.0762 12.0026 13.3638 12 15.75ZM21 8.25C22.4834 8.25 23.9334 8.68987 25.1668 9.51398C26.4001 10.3381 27.3614 11.5094 27.9291 12.8799C28.4968 14.2503 28.6453 15.7583 28.3559 17.2132C28.0665 18.668 27.3522 20.0044 26.3033 21.0533C25.2544 22.1022 23.918 22.8165 22.4632 23.1059C21.0083 23.3953 19.5003 23.2468 18.1299 22.6791C16.7594 22.1114 15.5881 21.1501 14.764 19.9168C13.9399 18.6834 13.5 17.2334 13.5 15.75C13.5022 13.7615 14.2931 11.8552 15.6991 10.4491C17.1052 9.04306 19.0115 8.25218 21 8.25Z" fill="#731B55"/>
<path id="Vector_3" d="M16.7516 18.9329L24.1759 11.5087L25.2364 12.5692L17.8121 19.9934L16.7516 18.9329ZM22.0586 16.8104C21.6365 17.2324 21.3994 17.8048 21.3993 18.4016C21.3992 18.9985 21.6363 19.5709 22.0583 19.993C22.4803 20.4151 23.0526 20.6523 23.6495 20.6524C24.2464 20.6524 24.8188 20.4154 25.2409 19.9934C25.6629 19.5713 25.8999 18.9989 25.8998 18.402C25.8998 17.8052 25.6626 17.2328 25.2405 16.8108C24.8184 16.3888 24.246 16.1518 23.6491 16.1518C23.0523 16.1519 22.4799 16.3891 22.0579 16.8112L22.0586 16.8104ZM24.1804 18.9322C24.0931 19.0192 23.9857 19.0834 23.8677 19.1191C23.7497 19.1547 23.6248 19.1608 23.5039 19.1366C23.383 19.1125 23.2699 19.0589 23.1747 18.9807C23.0794 18.9024 23.0049 18.8019 22.9578 18.688C22.9106 18.5741 22.8923 18.4503 22.9043 18.3277C22.9164 18.205 22.9586 18.0872 23.027 17.9846C23.0955 17.8821 23.1881 17.7981 23.2968 17.7399C23.4055 17.6817 23.5269 17.6512 23.6501 17.6512C23.7986 17.651 23.9438 17.695 24.0672 17.7774C24.1907 17.8599 24.2869 17.9771 24.3437 18.1143C24.4005 18.2515 24.4153 18.4024 24.3862 18.548C24.3571 18.6936 24.2855 18.8273 24.1804 18.9322ZM18.3461 15.3479C18.8667 15.3478 19.3712 15.1673 19.7735 14.837C20.1759 14.5067 20.4512 14.0471 20.5527 13.5365C20.6542 13.0259 20.5755 12.4959 20.33 12.0369C20.0845 11.5778 19.6874 11.2181 19.2065 11.019C18.7255 10.8199 18.1903 10.7937 17.6922 10.9449C17.1941 11.0962 16.7638 11.4155 16.4747 11.8484C16.1856 12.2813 16.0556 12.8011 16.1068 13.3191C16.158 13.8371 16.3872 14.3214 16.7554 14.6894C16.9642 14.8984 17.2121 15.0642 17.4851 15.1772C17.7581 15.2902 18.0507 15.3482 18.3461 15.3479ZM17.8159 12.5684C17.9208 12.4635 18.0544 12.392 18.1999 12.3631C18.3454 12.3341 18.4962 12.349 18.6333 12.4057C18.7703 12.4625 18.8875 12.5586 18.9699 12.682C19.0523 12.8053 19.0963 12.9503 19.0963 13.0987C19.0963 13.247 19.0523 13.392 18.9699 13.5154C18.8875 13.6387 18.7703 13.7348 18.6333 13.7916C18.4962 13.8483 18.3454 13.8632 18.1999 13.8342C18.0544 13.8053 17.9208 13.7338 17.8159 13.6289C17.7457 13.5596 17.69 13.477 17.652 13.386C17.614 13.295 17.5944 13.1973 17.5944 13.0987C17.5944 13 17.614 12.9024 17.652 12.8113C17.69 12.7203 17.7457 12.6377 17.8159 12.5684ZM44.8346 29.4584C44.5979 28.9872 44.24 28.5875 43.7976 28.3004C43.3552 28.0133 42.8444 27.8492 42.3176 27.8249C42.1887 27.8233 42.0597 27.8288 41.9314 27.8414C41.9254 27.8294 41.9231 27.8159 41.9171 27.8039C41.6802 27.3326 41.3221 26.9329 40.8797 26.6457C40.4372 26.3585 39.9263 26.1942 39.3994 26.1697C38.8735 26.1424 38.3496 26.2533 37.8799 26.4914L36.9979 26.9414C36.7347 26.6415 36.4137 26.3977 36.0542 26.2245C35.6947 26.0513 35.304 25.9523 34.9054 25.9334C34.38 25.9102 33.8573 26.0212 33.3866 26.2559L32.4941 26.7119C32.0581 26.2104 31.4664 25.8696 30.8137 25.7441C30.161 25.6186 29.4851 25.7156 28.8941 26.0197L20.6096 30.2399C19.2567 30.9253 17.7262 31.1796 16.2243 30.9686C14.7224 30.7575 13.3213 30.0912 12.2096 29.0594L9.39564 26.4344C8.81073 25.8897 8.04311 25.5836 7.24387 25.5764C6.44462 25.5693 5.67163 25.8615 5.07703 26.3956C4.48242 26.9297 4.10927 27.6671 4.03101 28.4625C3.95274 29.258 4.17504 30.0539 4.65414 30.6937L8.63439 36.0021C9.13756 36.6725 9.43279 37.4758 9.48346 38.3125C9.53412 39.1491 9.33799 39.9822 8.91939 40.7084L6.32439 45.2182L7.62489 45.9682L10.2191 41.4599C10.7844 40.4795 11.0492 39.3545 10.9805 38.2249C10.9119 37.0952 10.5128 36.0106 9.83289 35.1059L5.85789 29.7974C5.60309 29.4576 5.48474 29.0347 5.52618 28.612C5.56761 28.1893 5.76581 27.7975 6.08175 27.5136C6.39768 27.2297 6.80845 27.0745 7.23316 27.0784C7.65786 27.0823 8.06572 27.2451 8.37639 27.5347L11.1904 30.1597C12.5278 31.3992 14.2129 32.1993 16.0188 32.4524C17.8247 32.7054 19.6648 32.3992 21.2914 31.5749L29.5751 27.3547C29.9288 27.1812 30.3365 27.1539 30.7101 27.2785C31.0838 27.4032 31.3934 27.6698 31.5722 28.0208C31.7509 28.3718 31.7844 28.779 31.6655 29.1545C31.5465 29.53 31.2846 29.8436 30.9364 30.0277L23.1791 33.9824L23.8601 35.3181L31.6174 31.3649C32.2102 31.066 32.6858 30.5771 32.9681 29.9761C33.2503 29.3752 33.323 28.697 33.1744 28.0499L34.0669 27.5939C34.3024 27.4768 34.5639 27.4215 34.8266 27.4334C35.1566 27.4507 35.4717 27.5765 35.7229 27.7912C35.9741 28.0059 36.1473 28.2976 36.2157 28.6208C36.2841 28.9441 36.2438 29.281 36.1012 29.579C35.9585 29.8771 35.7214 30.1197 35.4266 30.2692L26.3419 34.8981L27.0229 36.2339L36.1099 31.6049C36.7048 31.3062 37.182 30.8162 37.465 30.2137C37.7479 29.6111 37.8201 28.9309 37.6699 28.2824L38.5601 27.8279C38.9149 27.6472 39.3269 27.6148 39.7056 27.7379C40.0842 27.8609 40.3984 28.1294 40.5791 28.4842C40.7599 28.8389 40.7922 29.2509 40.6692 29.6296C40.5461 30.0082 40.2777 30.3224 39.9229 30.5032L30.8351 35.1344L31.5161 36.4701L40.6039 31.8397C40.9567 31.6615 41.2707 31.4151 41.5274 31.1145C41.7841 30.814 41.9786 30.4655 42.0994 30.0892C42.1756 29.8403 42.2194 29.5827 42.2299 29.3227H42.2381C42.5679 29.3402 42.8826 29.4661 43.1335 29.6808C43.3844 29.8954 43.5575 30.1869 43.6259 30.5099C43.6942 30.833 43.6541 31.1696 43.5117 31.4675C43.3692 31.7654 43.1325 32.008 42.8381 32.1576L30.0214 38.6691C26.9425 40.2371 24.2796 42.5132 22.2514 45.3104L23.4671 46.1894C25.3554 43.5852 27.8345 41.4662 30.7009 40.0064L43.5214 33.4949C43.8728 33.3162 44.1856 33.0701 44.4418 32.7705C44.698 32.4709 44.8926 32.1237 45.0146 31.7488C45.1366 31.374 45.1834 30.9787 45.1526 30.5857C45.1217 30.1927 45.0137 29.8096 44.8346 29.4584Z" fill="#731B55"/>
</g>
</g>
</svg>
