<svg width="48" height="48" viewBox="0 0 48 48" fill="none" xmlns="http://www.w3.org/2000/svg">
<g id="Frame" clip-path="url(#clip0_1713_54768)">
<g id="Group">
<path id="Vector" d="M47.0625 27.3262H39.5126C38.9948 27.3262 38.5751 27.746 38.5751 28.2637V46.3389C38.5751 46.8565 38.9948 47.2764 39.5126 47.2764H47.0625C47.5803 47.2764 48 46.8565 48 46.3389V28.2637C48 27.746 47.5803 27.3262 47.0625 27.3262ZM46.125 45.4014H40.4501V29.2012H46.125V45.4014ZM34.2041 21.2949H26.6543C26.1365 21.2949 25.7168 21.7147 25.7168 22.2324V46.3389C25.7168 46.8565 26.1365 47.2764 26.6543 47.2764H34.2041C34.7219 47.2764 35.1416 46.8565 35.1416 46.3389V22.2324C35.1416 21.7147 34.7219 21.2949 34.2041 21.2949ZM33.2666 45.4014H27.5918V23.1699H33.2666V45.4014ZM21.3458 15.2636H13.7959C13.2781 15.2636 12.8584 15.6834 12.8584 16.2011V46.3389C12.8584 46.8565 13.2781 47.2764 13.7959 47.2764H21.3458C21.8635 47.2764 22.2833 46.8565 22.2833 46.3389V16.2011C22.2833 15.6834 21.8635 15.2636 21.3458 15.2636ZM20.4083 45.4014H14.7334V17.1386H20.4083V45.4014ZM8.48738 9.23241H0.9375C0.419719 9.23241 0 9.65223 0 10.1699V46.3389C0 46.8565 0.419719 47.2764 0.9375 47.2764H8.48738C9.00516 47.2764 9.42488 46.8565 9.42488 46.3389V10.1699C9.42488 9.65223 9.00516 9.23241 8.48738 9.23241ZM7.54987 45.4014H1.875V11.1074H7.54987V45.4014ZM43.4651 22.1487C38.7319 21.1171 31.8936 18.6835 25.2378 15.6229C19.8709 13.155 10.0459 8.14295 4.54406 2.30382C4.18894 1.92695 4.20666 1.3336 4.58344 0.97857C4.96041 0.623539 5.55366 0.64107 5.90869 1.01804C14.1989 9.81666 34.6044 18.3575 44.0966 20.3664L43.1887 18.6398C42.9477 18.1815 43.1239 17.6146 43.5821 17.3737C44.0404 17.1325 44.6072 17.3088 44.8482 17.767L46.79 21.4595C46.9056 21.6796 46.9292 21.9366 46.8554 22.174C46.7816 22.4114 46.6165 22.6098 46.3965 22.7256L42.704 24.6673C42.595 24.7246 42.4758 24.7599 42.3532 24.7712C42.2306 24.7824 42.107 24.7694 41.9894 24.7329C41.8718 24.6963 41.7626 24.637 41.668 24.5582C41.5733 24.4795 41.4952 24.3828 41.4379 24.2739C41.1969 23.8156 41.3731 23.2487 41.8313 23.0078L43.4651 22.1487Z" fill="#731B55"/>
</g>
</g>
<defs>
<clipPath id="clip0_1713_54768">
<rect width="48" height="48" fill="white"/>
</clipPath>
</defs>
</svg>
