<svg width="48" height="48" viewBox="0 0 48 48" fill="none" xmlns="http://www.w3.org/2000/svg">
<g id="Frame">
<g id="Group">
<path id="Vector" fill-rule="evenodd" clip-rule="evenodd" d="M36.036 13.1447L43.5823 5.59858C43.9118 5.26905 43.9121 4.73412 43.5829 4.40496C43.2545 4.07655 42.7195 4.07683 42.3899 4.40637L34.8437 11.9526C34.5142 12.2821 34.5139 12.8171 34.8423 13.1456C35.1715 13.4746 35.7065 13.4744 36.036 13.1449V13.1447ZM25.3696 22.2755C25.5989 20.6789 24.4891 19.1968 22.8928 18.9675C21.2964 18.7382 19.8148 19.8481 19.5854 21.4445C19.3562 23.0403 20.4654 24.5223 22.0618 24.7517C23.6581 24.9811 25.1404 23.8712 25.3696 22.2755ZM23.6999 22.0356C23.603 22.7105 22.9765 23.1796 22.3016 23.0827C21.6267 22.9857 21.1575 22.3592 21.2545 21.6843C21.3514 21.0094 21.9779 20.5403 22.6529 20.6372C23.3278 20.7341 23.7969 21.3607 23.6999 22.0356ZM22.9659 32.0246C23.1952 30.4281 22.0854 28.946 20.489 28.7167C18.8926 28.4874 17.411 29.5973 17.1817 31.1936C16.9525 32.7895 18.0616 34.2715 19.658 34.5009C21.2544 34.7303 22.7367 33.6204 22.9659 32.0246ZM21.2962 31.7847C21.1993 32.4596 20.5727 32.9288 19.8978 32.8318C19.2229 32.7349 18.7538 32.1084 18.8507 31.4335C18.9477 30.7586 19.5742 30.2894 20.2491 30.3864C20.924 30.4833 21.3931 31.1098 21.2962 31.7847ZM26.5127 26.5459L16.2804 25.08C15.8198 25.014 15.3912 25.3347 15.3251 25.7952C15.2588 26.2563 15.58 26.6838 16.0406 26.7497L26.2728 28.2156C26.7334 28.2816 27.162 27.9615 27.2282 27.5005C27.2944 27.04 26.9732 26.6119 26.5127 26.5459Z" fill="#731B55"/>
<path id="Vector_2" fill-rule="evenodd" clip-rule="evenodd" d="M24.5512 7.40336C24.4145 7.44252 24.2903 7.51612 24.1902 7.61711L4.2468 27.5596C3.91773 27.8887 3.91773 28.4231 4.2468 28.7531L19.1043 43.6096C19.4343 43.9396 19.9687 43.9396 20.2977 43.6096L40.2402 23.6671C40.3407 23.5667 40.4142 23.4426 40.454 23.3062L43.4896 12.8418C43.5749 12.5465 43.4934 12.2277 43.2759 12.0102L35.8471 4.58149C35.7403 4.47477 35.6068 4.39866 35.4605 4.36106C35.3143 4.32347 35.1606 4.32578 35.0155 4.36774L24.5512 7.40336ZM25.2299 8.96336L35.0062 6.12743L41.7299 12.8512L38.894 22.6274L19.7015 41.8199L6.03742 28.1559L25.2299 8.96336ZM36.1162 12.0224C34.4934 10.3996 31.859 10.3996 30.2362 12.0224C28.6134 13.6452 28.6134 16.2796 30.2362 17.9024C31.859 19.5252 34.4934 19.5252 36.1162 17.9024C37.739 16.2796 37.739 13.6452 36.1162 12.0224ZM34.9227 13.2159C35.8874 14.1796 35.8874 15.7452 34.9227 16.709C33.959 17.6737 32.3934 17.6737 31.4296 16.709C30.4659 15.7452 30.4659 14.1796 31.4296 13.2159C32.3934 12.2512 33.959 12.2512 34.9227 13.2159Z" fill="#731B55"/>
</g>
</g>
</svg>
