<svg width="235" height="49" viewBox="0 0 235 49" fill="none" xmlns="http://www.w3.org/2000/svg">
<path d="M67.622 42.0029H66.8468V36.5309H67.7588V40.5323L71.1104 36.5309H71.8856V42.0029H70.9736V38.0015L67.622 42.0029Z" fill="#BDBDBD"/>
<path d="M74.255 42.0029H73.343V36.5309H74.255V38.8451H77.4242V36.5309H78.3362V42.0029H77.4242V39.6887H74.255V42.0029Z" fill="#BDBDBD"/>
<path d="M82.0747 42.0029H81.1627V37.3745H79.1449V36.5309H84.0811V37.3745H82.0747V42.0029Z" fill="#BDBDBD"/>
<path d="M84.3338 39.2669C84.3338 38.3701 84.6074 37.6671 85.1546 37.1579C85.7094 36.6487 86.344 36.3941 87.0584 36.3941C87.7272 36.3941 88.2782 36.5613 88.7114 36.8957C89.1522 37.2301 89.441 37.6443 89.5778 38.1383C89.7146 38.6247 89.7222 39.1339 89.6006 39.6659H85.2458C85.299 40.2055 85.5384 40.6121 85.964 40.8857C86.3896 41.1593 86.9026 41.2961 87.503 41.2961C88.1718 41.2961 88.7722 41.1479 89.3042 40.8515V41.7407C88.795 42.0067 88.149 42.1397 87.3662 42.1397C86.4998 42.1397 85.7778 41.8927 85.2002 41.3987C84.6226 40.9047 84.3338 40.1941 84.3338 39.2669ZM88.7912 38.8679C88.814 38.7083 88.8026 38.5411 88.757 38.3663C88.7114 38.1915 88.6278 38.0167 88.5062 37.8419C88.3922 37.6671 88.2136 37.5227 87.9704 37.4087C87.7272 37.2947 87.4422 37.2377 87.1154 37.2377C86.6214 37.2377 86.192 37.3821 85.8272 37.6709C85.47 37.9597 85.2762 38.3587 85.2458 38.8679H88.7912Z" fill="#BDBDBD"/>
<path d="M91.5261 37.4429C92.1417 36.7437 92.8789 36.3941 93.7377 36.3941C94.5205 36.3941 95.1703 36.6677 95.6871 37.2149C96.2115 37.7621 96.4737 38.4461 96.4737 39.2669C96.4737 40.0877 96.2115 40.7717 95.6871 41.3189C95.1703 41.8661 94.5205 42.1397 93.7377 42.1397C92.8713 42.1397 92.1645 41.8205 91.6173 41.1821V44.5109H90.7053V36.5309H91.5261V37.4429ZM95.0031 40.7375C95.3755 40.3651 95.5617 39.8749 95.5617 39.2669C95.5617 38.6589 95.3755 38.1687 95.0031 37.7963C94.6383 37.4239 94.1823 37.2377 93.6351 37.2377C93.1715 37.2377 92.7611 37.3669 92.4039 37.6253C92.0467 37.8837 91.7845 38.2029 91.6173 38.5829V39.9509C91.7845 40.3309 92.0467 40.6501 92.4039 40.9085C92.7611 41.1669 93.1715 41.2961 93.6351 41.2961C94.1823 41.2961 94.6383 41.1099 95.0031 40.7375Z" fill="#BDBDBD"/>
<path d="M98.4697 42.0029H97.5577V36.5309H98.4697V38.8451H101.639V36.5309H102.551V42.0029H101.639V39.6887H98.4697V42.0029Z" fill="#BDBDBD"/>
<path d="M103.633 39.2669C103.633 38.3701 103.907 37.6671 104.454 37.1579C105.009 36.6487 105.643 36.3941 106.358 36.3941C107.027 36.3941 107.578 36.5613 108.011 36.8957C108.452 37.2301 108.74 37.6443 108.877 38.1383C109.014 38.6247 109.022 39.1339 108.9 39.6659H104.545C104.598 40.2055 104.838 40.6121 105.263 40.8857C105.689 41.1593 106.202 41.2961 106.802 41.2961C107.471 41.2961 108.072 41.1479 108.604 40.8515V41.7407C108.094 42.0067 107.448 42.1397 106.666 42.1397C105.799 42.1397 105.077 41.8927 104.5 41.3987C103.922 40.9047 103.633 40.1941 103.633 39.2669ZM108.091 38.8679C108.113 38.7083 108.102 38.5411 108.056 38.3663C108.011 38.1915 107.927 38.0167 107.806 37.8419C107.692 37.6671 107.513 37.5227 107.27 37.4087C107.027 37.2947 106.742 37.2377 106.415 37.2377C105.921 37.2377 105.491 37.3821 105.127 37.6709C104.769 37.9597 104.576 38.3587 104.545 38.8679H108.091Z" fill="#BDBDBD"/>
<path d="M112.173 42.0029H111.261V37.3745H109.244V36.5309H114.18V37.3745H112.173V42.0029Z" fill="#BDBDBD"/>
<path d="M118.464 42.0029H117.598V36.5309H118.589L120.584 39.5633L122.579 36.5309H123.571V42.0029H122.705V37.8761L120.926 40.5779H120.242L118.464 37.8761V42.0029Z" fill="#BDBDBD"/>
<path d="M129.475 40.8629C129.475 41.1441 129.616 41.2847 129.897 41.2847C130.018 41.2847 130.159 41.2581 130.319 41.2049V41.9459C130.091 42.0295 129.863 42.0713 129.635 42.0713C129.11 42.0713 128.776 41.8509 128.631 41.4101C128.046 41.8965 127.336 42.1397 126.5 42.1397C125.968 42.1397 125.512 41.9991 125.132 41.7179C124.759 41.4291 124.573 41.0149 124.573 40.4753C124.573 39.8293 124.812 39.3619 125.291 39.0731C125.778 38.7767 126.363 38.6285 127.047 38.6285C127.548 38.6285 128.054 38.6855 128.563 38.7995V38.6057C128.563 38.1877 128.426 37.8571 128.153 37.6139C127.879 37.3631 127.495 37.2377 127.001 37.2377C126.31 37.2377 125.645 37.3745 125.006 37.6481V36.7589C125.721 36.5157 126.416 36.3941 127.092 36.3941C127.837 36.3941 128.419 36.5955 128.837 36.9983C129.262 37.3935 129.475 37.9673 129.475 38.7197V40.8629ZM125.508 40.4297C125.508 40.7337 125.622 40.9655 125.85 41.1251C126.085 41.2771 126.367 41.3531 126.693 41.3531C127.446 41.3531 128.069 41.0871 128.563 40.5551V39.5519C128.046 39.4455 127.583 39.3923 127.172 39.3923C126.709 39.3923 126.313 39.4759 125.987 39.6431C125.667 39.8027 125.508 40.0649 125.508 40.4297Z" fill="#BDBDBD"/>
<path d="M131.981 42.0029H131.069V36.5309H135.07V37.3745H131.981V42.0029Z" fill="#BDBDBD"/>
<path d="M140.263 40.8629C140.263 41.1441 140.404 41.2847 140.685 41.2847C140.807 41.2847 140.947 41.2581 141.107 41.2049V41.9459C140.879 42.0295 140.651 42.0713 140.423 42.0713C139.898 42.0713 139.564 41.8509 139.42 41.4101C138.834 41.8965 138.124 42.1397 137.288 42.1397C136.756 42.1397 136.3 41.9991 135.92 41.7179C135.547 41.4291 135.361 41.0149 135.361 40.4753C135.361 39.8293 135.601 39.3619 136.079 39.0731C136.566 38.7767 137.151 38.6285 137.835 38.6285C138.337 38.6285 138.842 38.6855 139.351 38.7995V38.6057C139.351 38.1877 139.214 37.8571 138.941 37.6139C138.667 37.3631 138.283 37.2377 137.789 37.2377C137.098 37.2377 136.433 37.3745 135.794 37.6481V36.7589C136.509 36.5157 137.204 36.3941 137.881 36.3941C138.625 36.3941 139.207 36.5955 139.625 36.9983C140.05 37.3935 140.263 37.9673 140.263 38.7197V40.8629ZM136.296 40.4297C136.296 40.7337 136.41 40.9655 136.638 41.1251C136.874 41.2771 137.155 41.3531 137.482 41.3531C138.234 41.3531 138.857 41.0871 139.351 40.5551V39.5519C138.834 39.4455 138.371 39.3923 137.96 39.3923C137.497 39.3923 137.102 39.4759 136.775 39.6431C136.456 39.8027 136.296 40.0649 136.296 40.4297Z" fill="#BDBDBD"/>
<path d="M145.95 40.5323C145.95 41.0415 145.729 41.4367 145.288 41.7179C144.855 41.9991 144.255 42.1397 143.487 42.1397C142.72 42.1397 142.047 41.9991 141.469 41.7179V40.8515C142.024 41.1479 142.659 41.2961 143.373 41.2961C144.483 41.2961 145.038 41.0073 145.038 40.4297C145.038 39.9053 144.635 39.6431 143.829 39.6431H142.632V38.7995H143.829C144.559 38.7995 144.924 38.5639 144.924 38.0927C144.924 37.8039 144.787 37.5873 144.513 37.4429C144.24 37.2985 143.875 37.2263 143.419 37.2263C142.758 37.2263 142.138 37.3707 141.561 37.6595V36.8045C142.176 36.5233 142.83 36.3827 143.521 36.3827C144.266 36.3827 144.836 36.5271 145.231 36.8159C145.634 37.0971 145.836 37.4809 145.836 37.9673C145.836 38.2941 145.744 38.5639 145.562 38.7767C145.38 38.9895 145.133 39.1301 144.821 39.1985C145.148 39.2821 145.418 39.4417 145.63 39.6773C145.843 39.9129 145.95 40.1979 145.95 40.5323Z" fill="#BDBDBD"/>
<path d="M147.837 42.0029H147.062V36.5309H147.974V40.5323L151.325 36.5309H152.101V42.0029H151.189V38.0015L147.837 42.0029Z" fill="#BDBDBD"/>
<path d="M154.47 42.0029H153.558V36.5309H154.47V38.8451H157.639V36.5309H158.551V42.0029H157.639V39.6887H154.47V42.0029Z" fill="#BDBDBD"/>
<path d="M166.348 44.5109H165.436V42.1397C164.509 42.1169 163.742 41.8471 163.134 41.3303C162.533 40.8059 162.233 40.1181 162.233 39.2669C162.233 38.4157 162.533 37.7317 163.134 37.2149C163.742 36.6905 164.509 36.4169 165.436 36.3941V34.0229H166.348V36.3941C167.276 36.4169 168.039 36.6905 168.64 37.2149C169.248 37.7317 169.552 38.4157 169.552 39.2669C169.552 40.1181 169.248 40.8059 168.64 41.3303C168.039 41.8471 167.276 42.1169 166.348 42.1397V44.5109ZM163.761 37.7849C163.35 38.1497 163.145 38.6437 163.145 39.2669C163.145 39.8901 163.35 40.3879 163.761 40.7603C164.179 41.1251 164.737 41.3189 165.436 41.3417V37.1921C164.737 37.2149 164.179 37.4125 163.761 37.7849ZM166.348 37.1921V41.3417C167.048 41.3189 167.602 41.1251 168.013 40.7603C168.431 40.3879 168.64 39.8901 168.64 39.2669C168.64 38.6437 168.431 38.1497 168.013 37.7849C167.602 37.4125 167.048 37.2149 166.348 37.1921Z" fill="#BDBDBD"/>
<path d="M170.244 39.2669C170.244 38.3701 170.517 37.6671 171.064 37.1579C171.619 36.6487 172.254 36.3941 172.968 36.3941C173.637 36.3941 174.188 36.5613 174.621 36.8957C175.062 37.2301 175.351 37.6443 175.488 38.1383C175.624 38.6247 175.632 39.1339 175.51 39.6659H171.156C171.209 40.2055 171.448 40.6121 171.874 40.8857C172.299 41.1593 172.812 41.2961 173.413 41.2961C174.082 41.2961 174.682 41.1479 175.214 40.8515V41.7407C174.705 42.0067 174.059 42.1397 173.276 42.1397C172.41 42.1397 171.688 41.8927 171.11 41.3987C170.532 40.9047 170.244 40.1941 170.244 39.2669ZM174.701 38.8679C174.724 38.7083 174.712 38.5411 174.667 38.3663C174.621 38.1915 174.538 38.0167 174.416 37.8419C174.302 37.6671 174.123 37.5227 173.88 37.4087C173.637 37.2947 173.352 37.2377 173.025 37.2377C172.531 37.2377 172.102 37.3821 171.737 37.6709C171.38 37.9597 171.186 38.3587 171.156 38.8679H174.701Z" fill="#BDBDBD"/>
<path d="M180.73 35.2085C180.282 35.5277 179.75 35.6873 179.134 35.6873C178.519 35.6873 177.987 35.5277 177.538 35.2085V34.3877C178.048 34.7221 178.58 34.8893 179.134 34.8893C179.689 34.8893 180.221 34.7221 180.73 34.3877V35.2085ZM177.39 42.0029H176.615V36.5309H177.527V40.5323L180.879 36.5309H181.654V42.0029H180.742V38.0015L177.39 42.0029Z" fill="#BDBDBD"/>
<path d="M182.735 39.2669C182.735 38.3701 183.009 37.6671 183.556 37.1579C184.111 36.6487 184.745 36.3941 185.46 36.3941C186.128 36.3941 186.679 36.5613 187.113 36.8957C187.553 37.2301 187.842 37.6443 187.979 38.1383C188.116 38.6247 188.123 39.1339 188.002 39.6659H183.647C183.7 40.2055 183.94 40.6121 184.365 40.8857C184.791 41.1593 185.304 41.2961 185.904 41.2961C186.573 41.2961 187.173 41.1479 187.705 40.8515V41.7407C187.196 42.0067 186.55 42.1397 185.767 42.1397C184.901 42.1397 184.179 41.8927 183.601 41.3987C183.024 40.9047 182.735 40.1941 182.735 39.2669ZM187.192 38.8679C187.215 38.7083 187.204 38.5411 187.158 38.3663C187.113 38.1915 187.029 38.0167 186.907 37.8419C186.793 37.6671 186.615 37.5227 186.372 37.4087C186.128 37.2947 185.843 37.2377 185.517 37.2377C185.023 37.2377 184.593 37.3821 184.228 37.6709C183.871 37.9597 183.677 38.3587 183.647 38.8679H187.192Z" fill="#BDBDBD"/>
<path d="M189.927 37.4429C190.543 36.7437 191.28 36.3941 192.139 36.3941C192.922 36.3941 193.571 36.6677 194.088 37.2149C194.613 37.7621 194.875 38.4461 194.875 39.2669C194.875 40.0877 194.613 40.7717 194.088 41.3189C193.571 41.8661 192.922 42.1397 192.139 42.1397C191.272 42.1397 190.566 41.8205 190.018 41.1821V44.5109H189.106V36.5309H189.927V37.4429ZM193.404 40.7375C193.777 40.3651 193.963 39.8749 193.963 39.2669C193.963 38.6589 193.777 38.1687 193.404 37.7963C193.039 37.4239 192.583 37.2377 192.036 37.2377C191.573 37.2377 191.162 37.3669 190.805 37.6253C190.448 37.8837 190.186 38.2029 190.018 38.5829V39.9509C190.186 40.3309 190.448 40.6501 190.805 40.9085C191.162 41.1669 191.573 41.2961 192.036 41.2961C192.583 41.2961 193.039 41.1099 193.404 40.7375Z" fill="#BDBDBD"/>
<path d="M199.048 42.0029H195.959V36.5309H198.957C199.451 36.5309 199.854 36.6601 200.165 36.9185C200.485 37.1769 200.644 37.5417 200.644 38.0129C200.644 38.2865 200.576 38.5335 200.439 38.7539C200.302 38.9743 200.127 39.1301 199.915 39.2213C200.165 39.3049 200.378 39.4569 200.553 39.6773C200.728 39.8977 200.815 40.1675 200.815 40.4867C200.815 40.9503 200.663 41.3189 200.359 41.5925C200.063 41.8661 199.626 42.0029 199.048 42.0029ZM196.871 39.6317V41.2049H198.923C199.576 41.2049 199.903 40.9465 199.903 40.4297C199.903 39.8977 199.588 39.6317 198.957 39.6317H196.871ZM196.871 37.3289V38.8451H198.866C199.436 38.8451 199.721 38.5981 199.721 38.1041C199.721 37.8229 199.637 37.6253 199.47 37.5113C199.303 37.3897 199.101 37.3289 198.866 37.3289H196.871Z" fill="#BDBDBD"/>
<path d="M201.6 39.2669C201.6 38.3701 201.874 37.6671 202.421 37.1579C202.976 36.6487 203.61 36.3941 204.325 36.3941C204.994 36.3941 205.545 36.5613 205.978 36.8957C206.419 37.2301 206.707 37.6443 206.844 38.1383C206.981 38.6247 206.989 39.1339 206.867 39.6659H202.512C202.565 40.2055 202.805 40.6121 203.23 40.8857C203.656 41.1593 204.169 41.2961 204.769 41.2961C205.438 41.2961 206.039 41.1479 206.571 40.8515V41.7407C206.061 42.0067 205.415 42.1397 204.633 42.1397C203.766 42.1397 203.044 41.8927 202.467 41.3987C201.889 40.9047 201.6 40.1941 201.6 39.2669ZM206.058 38.8679C206.08 38.7083 206.069 38.5411 206.023 38.3663C205.978 38.1915 205.894 38.0167 205.773 37.8419C205.659 37.6671 205.48 37.5227 205.237 37.4087C204.994 37.2947 204.709 37.2377 204.382 37.2377C203.888 37.2377 203.458 37.3821 203.094 37.6709C202.736 37.9597 202.543 38.3587 202.512 38.8679H206.058Z" fill="#BDBDBD"/>
<path d="M208.792 37.4429C209.408 36.7437 210.145 36.3941 211.004 36.3941C211.787 36.3941 212.437 36.6677 212.953 37.2149C213.478 37.7621 213.74 38.4461 213.74 39.2669C213.74 40.0877 213.478 40.7717 212.953 41.3189C212.437 41.8661 211.787 42.1397 211.004 42.1397C210.138 42.1397 209.431 41.8205 208.884 41.1821V44.5109H207.972V36.5309H208.792V37.4429ZM212.269 40.7375C212.642 40.3651 212.828 39.8749 212.828 39.2669C212.828 38.6589 212.642 38.1687 212.269 37.7963C211.905 37.4239 211.449 37.2377 210.901 37.2377C210.438 37.2377 210.027 37.3669 209.67 37.6253C209.313 37.8837 209.051 38.2029 208.884 38.5829V39.9509C209.051 40.3309 209.313 40.6501 209.67 40.9085C210.027 41.1669 210.438 41.2961 210.901 41.2961C211.449 41.2961 211.905 41.1099 212.269 40.7375Z" fill="#BDBDBD"/>
<path d="M215.736 42.0029H214.824V36.5309H215.736V38.8109H216.842L218.575 36.5309H219.635L217.56 39.2555L219.886 42.0029H218.814L216.808 39.6545H215.736V42.0029Z" fill="#BDBDBD"/>
<path d="M220.775 41.3759C220.198 40.8591 219.909 40.1561 219.909 39.2669C219.909 38.3777 220.198 37.6785 220.775 37.1693C221.353 36.6525 222.037 36.3941 222.827 36.3941C223.625 36.3941 224.309 36.6525 224.879 37.1693C225.457 37.6785 225.746 38.3777 225.746 39.2669C225.746 40.1561 225.457 40.8591 224.879 41.3759C224.309 41.8851 223.625 42.1397 222.827 42.1397C222.037 42.1397 221.353 41.8851 220.775 41.3759ZM224.264 40.7375C224.644 40.3727 224.834 39.8825 224.834 39.2669C224.834 38.6513 224.644 38.1649 224.264 37.8077C223.884 37.4429 223.405 37.2605 222.827 37.2605C222.25 37.2605 221.771 37.4429 221.391 37.8077C221.011 38.1649 220.821 38.6513 220.821 39.2669C220.821 39.8825 221.011 40.3727 221.391 40.7375C221.771 41.0947 222.25 41.2733 222.827 41.2733C223.405 41.2733 223.884 41.0947 224.264 40.7375Z" fill="#BDBDBD"/>
<path d="M229.915 42.0029H226.826V36.5309H229.824C230.318 36.5309 230.721 36.6601 231.032 36.9185C231.352 37.1769 231.511 37.5417 231.511 38.0129C231.511 38.2865 231.443 38.5335 231.306 38.7539C231.169 38.9743 230.994 39.1301 230.782 39.2213C231.032 39.3049 231.245 39.4569 231.42 39.6773C231.595 39.8977 231.682 40.1675 231.682 40.4867C231.682 40.9503 231.53 41.3189 231.226 41.5925C230.93 41.8661 230.493 42.0029 229.915 42.0029ZM227.738 39.6317V41.2049H229.79C230.443 41.2049 230.77 40.9465 230.77 40.4297C230.77 39.8977 230.455 39.6317 229.824 39.6317H227.738ZM227.738 37.3289V38.8451H229.733C230.303 38.8451 230.588 38.5981 230.588 38.1041C230.588 37.8229 230.504 37.6253 230.337 37.5113C230.17 37.3897 229.968 37.3289 229.733 37.3289H227.738Z" fill="#BDBDBD"/>
<path d="M69.5751 24H66.3831V4.4H82.8471V24H79.6551V7.34H69.5751V24Z" fill="black"/>
<path d="M89.1139 24H86.5379V10.56H89.5339V19.352L96.7299 10.56H99.3059V24H96.3099V15.208L89.1139 24Z" fill="black"/>
<path d="M105.153 12.66C106.516 11.0173 108.243 10.196 110.333 10.196C112.312 10.196 113.917 10.8867 115.149 12.268C116.381 13.6307 116.997 15.3013 116.997 17.28C116.997 19.2587 116.381 20.9387 115.149 22.32C113.917 23.6827 112.312 24.364 110.333 24.364C108.317 24.364 106.703 23.664 105.489 22.264V30.16H102.493V10.56H105.153V12.66ZM112.769 20.5C113.553 19.66 113.945 18.5867 113.945 17.28C113.945 15.9733 113.553 14.9093 112.769 14.088C111.985 13.248 110.987 12.828 109.773 12.828C108.784 12.828 107.907 13.0987 107.141 13.64C106.395 14.1813 105.844 14.844 105.489 15.628V18.904C105.844 19.7067 106.395 20.3787 107.141 20.92C107.907 21.4613 108.784 21.732 109.773 21.732C110.987 21.732 111.985 21.3213 112.769 20.5Z" fill="black"/>
<path d="M120.639 22.488C119.221 21.2373 118.511 19.5013 118.511 17.28C118.511 15.0587 119.221 13.3227 120.639 12.072C122.077 10.8213 123.794 10.196 125.791 10.196C127.807 10.196 129.525 10.8213 130.943 12.072C132.362 13.3227 133.071 15.0587 133.071 17.28C133.071 19.5013 132.362 21.2373 130.943 22.488C129.525 23.7387 127.807 24.364 125.791 24.364C123.794 24.364 122.077 23.7387 120.639 22.488ZM128.843 20.444C129.627 19.6413 130.019 18.5867 130.019 17.28C130.019 15.9733 129.627 14.928 128.843 14.144C128.059 13.3413 127.042 12.94 125.791 12.94C124.522 12.94 123.495 13.3413 122.711 14.144C121.927 14.928 121.535 15.9733 121.535 17.28C121.535 18.5867 121.927 19.6413 122.711 20.444C123.495 21.228 124.522 21.62 125.791 21.62C127.042 21.62 128.059 21.228 128.843 20.444Z" fill="black"/>
<path d="M141.305 24H138.309V13.192H133.661V10.56H145.925V13.192H141.305V24Z" fill="black"/>
<path d="M146.513 17.28C146.513 16.1227 146.718 15.0773 147.129 14.144C147.539 13.192 148.081 12.4453 148.753 11.904C149.425 11.344 150.153 10.924 150.937 10.644C151.721 10.3453 152.514 10.196 153.317 10.196C154.343 10.196 155.267 10.3547 156.089 10.672C156.929 10.9893 157.601 11.4187 158.105 11.96C158.609 12.5013 159.019 13.1267 159.337 13.836C159.654 14.5453 159.822 15.292 159.841 16.076C159.859 16.8413 159.794 17.616 159.645 18.4H149.537C149.686 19.5387 150.246 20.3973 151.217 20.976C152.187 21.536 153.345 21.816 154.689 21.816C156.219 21.816 157.638 21.4987 158.945 20.864V23.44C157.657 24.056 156.051 24.364 154.129 24.364C151.945 24.364 150.125 23.748 148.669 22.516C147.231 21.284 146.513 19.5387 146.513 17.28ZM156.957 16.16C157.069 15.3947 156.835 14.6293 156.257 13.864C155.697 13.08 154.763 12.688 153.457 12.688C152.393 12.688 151.478 12.996 150.713 13.612C149.966 14.228 149.565 15.0773 149.509 16.16H156.957Z" fill="black"/>
<path d="M170.343 10.56H173.759L168.859 17.14L174.039 24H170.623L167.123 19.24L163.623 24H160.207L165.387 17.14L160.487 10.56H163.903L167.123 15.096L170.343 10.56Z" fill="black"/>
<path d="M178.568 24H175.572V10.56H178.568V15.964H185.288V10.56H188.284V24H185.288V18.596H178.568V24Z" fill="black"/>
<path d="M194.049 24H191.473V10.56H194.469V19.352L201.665 10.56H204.241V24H201.245V15.208L194.049 24Z" fill="black"/>
<path d="M210.425 24H207.429V10.56H210.425V15.88H212.637L216.501 10.56H219.917L215.045 17.224L220.449 24H217.005L212.581 18.428H210.425V24Z" fill="black"/>
<path d="M220.33 17.392C220.33 15.0587 221.067 13.276 222.542 12.044C224.016 10.812 225.752 10.196 227.75 10.196C229.355 10.196 230.736 10.5413 231.894 11.232V13.976C230.848 13.2293 229.607 12.856 228.17 12.856C226.844 12.856 225.715 13.2293 224.782 13.976C223.848 14.704 223.382 15.8053 223.382 17.28C223.382 18.7173 223.839 19.8187 224.754 20.584C225.687 21.3307 226.807 21.704 228.114 21.704C229.532 21.704 230.839 21.3587 232.034 20.668V23.44C230.746 24.056 229.262 24.364 227.582 24.364C225.622 24.364 223.923 23.7667 222.486 22.572C221.048 21.3587 220.33 19.632 220.33 17.392Z" fill="black"/>
<path fill-rule="evenodd" clip-rule="evenodd" d="M23.9756 20.3044L29.5151 5.54421L23.9908 0.00140381L23.9756 20.3044ZM24.0365 27.6995L18.4947 42.4621L24.0214 48.0025L24.0365 27.6995ZM42.463 29.5556L27.7003 24.0145L48.0032 24.0303L42.463 29.5556ZM20.3084 23.9719L5.54337 18.4284L0.00317383 23.9537L20.3084 23.9719ZM7.04759 33.1613L21.4054 26.6412L7.03748 40.9861L7.04759 33.1613ZM26.5925 21.3689L40.947 14.8488L40.9604 7.02404L26.5925 21.3689ZM33.1231 40.9805L26.6032 26.6255L40.9475 40.9907L33.1231 40.9805ZM21.4053 21.3692L14.8854 7.0108L7.06094 7.00069L21.4053 21.3692Z" fill="#731B55"/>
<path fill-rule="evenodd" clip-rule="evenodd" d="M23.978 20.3068L18.4578 5.53384L23.9908 0.00140381L23.978 20.3068ZM24.0342 27.7019L29.5544 42.4701L24.0214 48.0025L24.0342 27.7019ZM42.4717 18.4994L27.7003 24.0145L48.0032 24.0303L42.4717 18.4994ZM20.306 23.9696L5.53704 29.487L0.00317383 23.9537L20.306 23.9696ZM14.8619 40.9861L21.402 26.6412L7.03748 40.9861H14.8619ZM26.5925 21.3723L33.136 7.02404H40.9604L26.5925 21.3723ZM40.9475 33.1692L26.6032 26.6255L40.9475 40.9907V33.1692ZM21.4053 21.3658L7.06094 14.8255V7.00069L21.4053 21.3658Z" fill="#731B55"/>
</svg>
