<svg width="49" height="49" viewBox="0 0 49 49" fill="none" xmlns="http://www.w3.org/2000/svg">
<path fill-rule="evenodd" clip-rule="evenodd" d="M23.9754 20.3044L29.5149 5.54421L23.9905 0.00140381L23.9754 20.3044ZM24.0363 27.6995L18.4944 42.4621L24.0211 48.0025L24.0363 27.6995ZM42.4627 29.5556L27.7001 24.0145L48.0029 24.0303L42.4627 29.5556ZM20.3082 23.9719L5.54312 18.4284L0.00292969 23.9537L20.3082 23.9719ZM7.04735 33.1613L21.4051 26.6412L7.03723 40.9861L7.04735 33.1613ZM26.5923 21.3689L40.9467 14.8488L40.9602 7.02404L26.5923 21.3689ZM33.1228 40.9805L26.603 26.6255L40.9473 40.9907L33.1228 40.9805ZM21.405 21.3692L14.8852 7.0108L7.0607 7.00069L21.405 21.3692Z" fill="#731B55"/>
<path fill-rule="evenodd" clip-rule="evenodd" d="M23.9778 20.3068L18.4575 5.53384L23.9905 0.00140381L23.9778 20.3068ZM24.0339 27.7019L29.5542 42.4701L24.0211 48.0025L24.0339 27.7019ZM42.4714 18.4994L27.7001 24.0145L48.0029 24.0303L42.4714 18.4994ZM20.3058 23.9696L5.5368 29.487L0.00292969 23.9537L20.3058 23.9696ZM14.8617 40.9861L21.4018 26.6412L7.03723 40.9861H14.8617ZM26.5923 21.3723L33.1357 7.02404H40.9602L26.5923 21.3723ZM40.9473 33.1692L26.603 26.6255L40.9473 40.9907V33.1692ZM21.405 21.3658L7.0607 14.8255V7.00069L21.405 21.3658Z" fill="#731B55"/>
</svg>
